<?xml version="1.0" encoding="UTF-8" standalone="no"?>
<!-- Created with Inkscape (http://www.inkscape.org/) -->

<svg
   xmlns:dc="http://purl.org/dc/elements/1.1/"
   xmlns:cc="http://creativecommons.org/ns#"
   xmlns:rdf="http://www.w3.org/1999/02/22-rdf-syntax-ns#"
   xmlns:svg="http://www.w3.org/2000/svg"
   xmlns="http://www.w3.org/2000/svg"
   xmlns:sodipodi="http://sodipodi.sourceforge.net/DTD/sodipodi-0.dtd"
   xmlns:inkscape="http://www.inkscape.org/namespaces/inkscape"
   width="4096"
   height="4096"
   viewBox="0 0 1083.7333 1083.7334"
   version="1.1"
   id="svg5164"
   inkscape:version="0.91 r13725"
   sodipodi:docname="1.obelisks.svg">
  <defs
     id="defs5158" />
  <sodipodi:namedview
     id="base"
     pagecolor="#ffffff"
     bordercolor="#666666"
     borderopacity="1.0"
     inkscape:pageopacity="0.0"
     inkscape:pageshadow="2"
     inkscape:zoom="1"
     inkscape:cx="1837.4436"
     inkscape:cy="2060.0532"
     inkscape:document-units="mm"
     inkscape:current-layer="layer2"
     showgrid="false"
     units="px"
     inkscape:window-width="1920"
     inkscape:window-height="1017"
     inkscape:window-x="-8"
     inkscape:window-y="-8"
     inkscape:window-maximized="1" />
  <metadata
     id="metadata5161">
    <rdf:RDF>
      <cc:Work
         rdf:about="">
        <dc:format>image/svg+xml</dc:format>
        <dc:type
           rdf:resource="http://purl.org/dc/dcmitype/StillImage" />
        <dc:title />
      </cc:Work>
    </rdf:RDF>
  </metadata>
  <g
     inkscape:groupmode="layer"
     id="layer2"
     inkscape:label="Obelisks">
    <path
       style="fill:#373737;stroke-width:1.33333337"
       d="m 636.02453,549.6718 c -0.19962,-0.077 -0.34114,-0.26019 -0.55415,-0.30658 -0.12933,-0.0516 -0.29929,-0.11078 -0.28109,-0.26802 -0.12495,-0.0572 -0.28631,0.002 -0.36804,-0.14665 -0.21677,-0.0442 -0.41451,-0.14699 -0.60206,-0.26373 -0.14549,-0.0117 -0.0401,-0.2806 -0.23366,-0.22741 -0.15985,0.11165 -0.29843,-0.1067 -0.44332,-0.15259 -0.14671,-0.10352 -0.31384,-0.17296 -0.47067,-0.2553 -0.1377,-0.18472 0.19774,-0.28139 0.32109,-0.35268 0.1982,-0.0577 0.33801,-0.25001 0.53951,-0.27858 0.14026,0.12968 0.18934,-0.0597 0.20009,-0.17296 0.15537,-0.0885 0.34791,-0.13908 0.48999,-0.26371 0.12254,-0.0567 0.2597,-0.22269 0.3796,-0.19749 0.12318,0.10261 0.22875,-0.0245 0.199,-0.15083 0.10018,-0.0852 0.23294,-0.13518 0.34415,-0.21013 0.12735,-0.0684 0.2504,-0.15473 0.39032,-0.19287 0.20186,-0.002 0.17336,0.23084 0.21779,0.36437 0.0196,0.17177 10e-5,0.34442 0.013,0.51641 0.009,0.12216 -0.25374,0.17635 -0.0823,0.28467 0.13874,0.0706 0.0499,0.23413 0.0758,0.3555 0.0123,0.19244 -0.0343,0.38253 -0.015,0.57445 0.0323,0.14005 -0.23491,0.21357 -0.0546,0.32488 0.13522,0.086 0.0528,0.3291 0.048,0.4748 -0.0666,0.15823 0.0303,0.32942 -0.007,0.4949 -0.0355,0.016 -0.0639,0.0517 -0.10624,0.0496 z"
       id="path4561-6-2-9-1-4"
       inkscape:connector-curvature="0" />
    <path
       style="fill:#373737;stroke-width:1.33333337"
       d="m 635.62766,543.85097 c -0.19962,-0.077 -0.34114,-0.26019 -0.55415,-0.30658 -0.12933,-0.0516 -0.29929,-0.11078 -0.28109,-0.26802 -0.12495,-0.0572 -0.28631,0.002 -0.36804,-0.14665 -0.21677,-0.0442 -0.41451,-0.14699 -0.60206,-0.26373 -0.14549,-0.0117 -0.0401,-0.2806 -0.23366,-0.22741 -0.15985,0.11165 -0.29843,-0.1067 -0.44332,-0.15259 -0.14671,-0.10352 -0.31384,-0.17296 -0.47067,-0.2553 -0.1377,-0.18472 0.19774,-0.28139 0.32109,-0.35268 0.1982,-0.0577 0.33801,-0.25001 0.53951,-0.27858 0.14026,0.12968 0.18934,-0.0597 0.20009,-0.17296 0.15537,-0.0885 0.34791,-0.13908 0.48999,-0.26371 0.12254,-0.0567 0.2597,-0.22269 0.3796,-0.19749 0.12318,0.10261 0.22875,-0.0245 0.199,-0.15083 0.10018,-0.0852 0.23294,-0.13518 0.34415,-0.21013 0.12735,-0.0684 0.2504,-0.15473 0.39032,-0.19287 0.20186,-0.002 0.17336,0.23084 0.21779,0.36437 0.0196,0.17177 10e-5,0.34442 0.013,0.51641 0.009,0.12216 -0.25374,0.17635 -0.0823,0.28467 0.13874,0.0706 0.0499,0.23413 0.0758,0.3555 0.0123,0.19244 -0.0343,0.38253 -0.015,0.57445 0.0323,0.14005 -0.23491,0.21357 -0.0546,0.32488 0.13522,0.086 0.0528,0.3291 0.048,0.4748 -0.0666,0.15823 0.0303,0.32942 -0.007,0.4949 -0.0355,0.016 -0.0639,0.0517 -0.10624,0.0496 z"
       id="path4561-6-2-9-1-4-6"
       inkscape:connector-curvature="0" />
    <path
       style="fill:#373737;stroke-width:1.33333337"
       d="m 635.62765,538.16242 c -0.19962,-0.077 -0.34114,-0.26019 -0.55415,-0.30658 -0.12933,-0.0516 -0.29929,-0.11078 -0.28109,-0.26802 -0.12495,-0.0572 -0.28631,0.002 -0.36804,-0.14665 -0.21677,-0.0442 -0.41451,-0.14699 -0.60206,-0.26373 -0.14549,-0.0117 -0.0401,-0.2806 -0.23366,-0.22741 -0.15985,0.11165 -0.29843,-0.1067 -0.44332,-0.15259 -0.14671,-0.10352 -0.31384,-0.17296 -0.47067,-0.2553 -0.1377,-0.18472 0.19774,-0.28139 0.32109,-0.35268 0.1982,-0.0577 0.33801,-0.25001 0.53951,-0.27858 0.14026,0.12968 0.18934,-0.0597 0.20009,-0.17296 0.15537,-0.0885 0.34791,-0.13908 0.48999,-0.26371 0.12254,-0.0567 0.2597,-0.22269 0.3796,-0.19749 0.12318,0.10261 0.22875,-0.0245 0.199,-0.15083 0.10018,-0.0852 0.23294,-0.13518 0.34415,-0.21013 0.12735,-0.0684 0.2504,-0.15473 0.39032,-0.19287 0.20186,-0.002 0.17336,0.23084 0.21779,0.36437 0.0196,0.17177 10e-5,0.34442 0.013,0.51641 0.009,0.12216 -0.25374,0.17635 -0.0823,0.28467 0.13874,0.0706 0.0499,0.23413 0.0758,0.3555 0.0123,0.19244 -0.0343,0.38253 -0.015,0.57445 0.0323,0.14005 -0.23491,0.21357 -0.0546,0.32488 0.13522,0.086 0.0528,0.3291 0.048,0.4748 -0.0666,0.15823 0.0303,0.32942 -0.007,0.4949 -0.0355,0.016 -0.0639,0.0517 -0.10624,0.0496 z"
       id="path4561-6-2-9-1-4-4"
       inkscape:connector-curvature="0" />
    <path
       style="fill:#373737;stroke-width:1.33333337"
       d="m 635.42922,532.67233 c -0.19962,-0.077 -0.34114,-0.26019 -0.55415,-0.30658 -0.12933,-0.0516 -0.29929,-0.11078 -0.28109,-0.26802 -0.12495,-0.0572 -0.28631,0.002 -0.36804,-0.14665 -0.21677,-0.0442 -0.41451,-0.14699 -0.60206,-0.26373 -0.14549,-0.0117 -0.0401,-0.2806 -0.23366,-0.22741 -0.15985,0.11165 -0.29843,-0.1067 -0.44332,-0.15259 -0.14671,-0.10352 -0.31384,-0.17296 -0.47067,-0.2553 -0.1377,-0.18472 0.19774,-0.28139 0.32109,-0.35268 0.1982,-0.0577 0.33801,-0.25001 0.53951,-0.27858 0.14026,0.12968 0.18934,-0.0597 0.20009,-0.17296 0.15537,-0.0885 0.34791,-0.13908 0.48999,-0.26371 0.12254,-0.0567 0.2597,-0.22269 0.3796,-0.19749 0.12318,0.10261 0.22875,-0.0245 0.199,-0.15083 0.10018,-0.0852 0.23294,-0.13518 0.34415,-0.21013 0.12735,-0.0684 0.2504,-0.15473 0.39032,-0.19287 0.20186,-0.002 0.17336,0.23084 0.21779,0.36437 0.0196,0.17177 10e-5,0.34442 0.013,0.51641 0.009,0.12216 -0.25374,0.17635 -0.0823,0.28467 0.13874,0.0706 0.0499,0.23413 0.0758,0.3555 0.0123,0.19244 -0.0343,0.38253 -0.015,0.57445 0.0323,0.14005 -0.23491,0.21357 -0.0546,0.32488 0.13522,0.086 0.0528,0.3291 0.048,0.4748 -0.0666,0.15823 0.0303,0.32942 -0.007,0.4949 -0.0355,0.016 -0.0639,0.0517 -0.10624,0.0496 z"
       id="path4561-6-2-9-1-4-44"
       inkscape:connector-curvature="0" />
    <path
       style="fill:#373737;stroke-width:1.33333337"
       d="m 635.03235,526.8515 c -0.19962,-0.077 -0.34114,-0.26019 -0.55415,-0.30658 -0.12933,-0.0516 -0.29929,-0.11078 -0.28109,-0.26802 -0.12495,-0.0572 -0.28631,0.002 -0.36804,-0.14665 -0.21677,-0.0442 -0.41451,-0.14699 -0.60206,-0.26373 -0.14549,-0.0117 -0.0401,-0.2806 -0.23366,-0.22741 -0.15985,0.11165 -0.29843,-0.1067 -0.44332,-0.15259 -0.14671,-0.10352 -0.31384,-0.17296 -0.47067,-0.2553 -0.1377,-0.18472 0.19774,-0.28139 0.32109,-0.35268 0.1982,-0.0577 0.33801,-0.25001 0.53951,-0.27858 0.14026,0.12968 0.18934,-0.0597 0.20009,-0.17296 0.15537,-0.0885 0.34791,-0.13908 0.48999,-0.26371 0.12254,-0.0567 0.2597,-0.22269 0.3796,-0.19749 0.12318,0.10261 0.22875,-0.0245 0.199,-0.15083 0.10018,-0.0852 0.23294,-0.13518 0.34415,-0.21013 0.12735,-0.0684 0.2504,-0.15473 0.39032,-0.19287 0.20186,-0.002 0.17336,0.23084 0.21779,0.36437 0.0196,0.17177 10e-5,0.34442 0.013,0.51641 0.009,0.12216 -0.25374,0.17635 -0.0823,0.28467 0.13874,0.0706 0.0499,0.23413 0.0758,0.3555 0.0123,0.19244 -0.0343,0.38253 -0.015,0.57445 0.0323,0.14005 -0.23491,0.21357 -0.0546,0.32488 0.13522,0.086 0.0528,0.3291 0.048,0.4748 -0.0666,0.15823 0.0303,0.32942 -0.007,0.4949 -0.0355,0.016 -0.0639,0.0517 -0.10624,0.0496 z"
       id="path4561-6-2-9-1-4-6-0"
       inkscape:connector-curvature="0" />
    <path
       style="fill:#373737;stroke-width:1.33333337"
       d="m 635.03234,521.16295 c -0.19962,-0.077 -0.34114,-0.26019 -0.55415,-0.30658 -0.12933,-0.0516 -0.29929,-0.11078 -0.28109,-0.26802 -0.12495,-0.0572 -0.28631,0.002 -0.36804,-0.14665 -0.21677,-0.0442 -0.41451,-0.14699 -0.60206,-0.26373 -0.14549,-0.0117 -0.0401,-0.2806 -0.23366,-0.22741 -0.15985,0.11165 -0.29843,-0.1067 -0.44332,-0.15259 -0.14671,-0.10352 -0.31384,-0.17296 -0.47067,-0.2553 -0.1377,-0.18472 0.19774,-0.28139 0.32109,-0.35268 0.1982,-0.0577 0.33801,-0.25001 0.53951,-0.27858 0.14026,0.12968 0.18934,-0.0597 0.20009,-0.17296 0.15537,-0.0885 0.34791,-0.13908 0.48999,-0.26371 0.12254,-0.0567 0.2597,-0.22269 0.3796,-0.19749 0.12318,0.10261 0.22875,-0.0245 0.199,-0.15083 0.10018,-0.0852 0.23294,-0.13518 0.34415,-0.21013 0.12735,-0.0684 0.2504,-0.15473 0.39032,-0.19287 0.20186,-0.002 0.17336,0.23084 0.21779,0.36437 0.0196,0.17177 10e-5,0.34442 0.013,0.51641 0.009,0.12216 -0.25374,0.17635 -0.0823,0.28467 0.13874,0.0706 0.0499,0.23413 0.0758,0.3555 0.0123,0.19244 -0.0343,0.38253 -0.015,0.57445 0.0323,0.14005 -0.23491,0.21357 -0.0546,0.32488 0.13522,0.086 0.0528,0.3291 0.048,0.4748 -0.0666,0.15823 0.0303,0.32942 -0.007,0.4949 -0.0355,0.016 -0.0639,0.0517 -0.10624,0.0496 z"
       id="path4561-6-2-9-1-4-4-9"
       inkscape:connector-curvature="0" />
    <path
       style="fill:#373737;stroke-width:1.33333337"
       d="m 634.93312,515.90436 c -0.19962,-0.077 -0.34114,-0.2602 -0.55415,-0.30658 -0.12933,-0.0516 -0.29929,-0.11079 -0.28109,-0.26802 -0.12495,-0.0572 -0.28631,0.002 -0.36804,-0.14666 -0.21677,-0.0442 -0.41451,-0.14698 -0.60206,-0.26372 -0.14549,-0.0117 -0.0401,-0.28061 -0.23366,-0.22742 -0.15985,0.11166 -0.29843,-0.10669 -0.44332,-0.15258 -0.14671,-0.10352 -0.31384,-0.17296 -0.47067,-0.25531 -0.1377,-0.18471 0.19774,-0.28139 0.32109,-0.35267 0.1982,-0.0577 0.33801,-0.25001 0.53951,-0.27858 0.14026,0.12968 0.18934,-0.0597 0.20009,-0.17297 0.15537,-0.0885 0.34791,-0.13907 0.48999,-0.26371 0.12254,-0.0567 0.2597,-0.22268 0.3796,-0.19749 0.12318,0.10261 0.22875,-0.0245 0.199,-0.15082 0.10018,-0.0852 0.23294,-0.13519 0.34415,-0.21013 0.12735,-0.0684 0.2504,-0.15473 0.39032,-0.19287 0.20186,-0.002 0.17336,0.23083 0.21779,0.36436 0.0196,0.17177 10e-5,0.34443 0.013,0.51642 0.009,0.12216 -0.25374,0.17635 -0.0823,0.28467 0.13874,0.0706 0.0499,0.23413 0.0758,0.3555 0.0123,0.19243 -0.0343,0.38252 -0.015,0.57445 0.0323,0.14004 -0.23491,0.21356 -0.0546,0.32487 0.13522,0.086 0.0528,0.32911 0.048,0.4748 -0.0666,0.15824 0.0303,0.32942 -0.007,0.4949 -0.0355,0.016 -0.0639,0.0517 -0.10624,0.0496 z"
       id="path4561-6-2-9-1-4-8"
       inkscape:connector-curvature="0" />
    <path
       style="fill:#373737;stroke-width:1.33333337"
       d="m 634.53625,510.08352 c -0.19962,-0.077 -0.34114,-0.26018 -0.55415,-0.30657 -0.12933,-0.0516 -0.29929,-0.11078 -0.28109,-0.26802 -0.12495,-0.0572 -0.28631,0.002 -0.36804,-0.14665 -0.21677,-0.0442 -0.41451,-0.14699 -0.60206,-0.26373 -0.14549,-0.0117 -0.0401,-0.2806 -0.23366,-0.22741 -0.15985,0.11165 -0.29843,-0.1067 -0.44332,-0.15259 -0.14671,-0.10352 -0.31384,-0.17296 -0.47067,-0.2553 -0.1377,-0.18472 0.19774,-0.28139 0.32109,-0.35268 0.1982,-0.0577 0.33801,-0.25001 0.53951,-0.27858 0.14026,0.12968 0.18934,-0.0597 0.20009,-0.17296 0.15537,-0.0885 0.34791,-0.13908 0.48999,-0.26371 0.12254,-0.0567 0.2597,-0.22269 0.3796,-0.19749 0.12318,0.10261 0.22875,-0.0245 0.199,-0.15083 0.10018,-0.0852 0.23294,-0.13518 0.34415,-0.21013 0.12735,-0.0684 0.2504,-0.15473 0.39032,-0.19287 0.20186,-0.002 0.17336,0.23084 0.21779,0.36437 0.0196,0.17177 10e-5,0.34442 0.013,0.51641 0.009,0.12216 -0.25374,0.17635 -0.0823,0.28467 0.13874,0.0706 0.0499,0.23413 0.0758,0.3555 0.0123,0.19244 -0.0343,0.38253 -0.015,0.57445 0.0323,0.14005 -0.23491,0.21357 -0.0546,0.32488 0.13522,0.086 0.0528,0.3291 0.048,0.4748 -0.0666,0.15823 0.0303,0.32942 -0.007,0.4949 -0.0355,0.016 -0.0639,0.0517 -0.10624,0.0496 z"
       id="path4561-6-2-9-1-4-6-9"
       inkscape:connector-curvature="0" />
    <path
       style="fill:#373737;stroke-width:1.33333337"
       d="m 634.53624,504.39498 c -0.19962,-0.077 -0.34114,-0.26019 -0.55415,-0.30658 -0.12933,-0.0516 -0.29929,-0.11078 -0.28109,-0.26802 -0.12495,-0.0572 -0.28631,0.002 -0.36804,-0.14665 -0.21677,-0.0442 -0.41451,-0.14699 -0.60206,-0.26373 -0.14549,-0.0117 -0.0401,-0.2806 -0.23366,-0.22741 -0.15985,0.11165 -0.29843,-0.1067 -0.44332,-0.15259 -0.14671,-0.10352 -0.31384,-0.17296 -0.47067,-0.2553 -0.1377,-0.18472 0.19774,-0.28139 0.32109,-0.35268 0.1982,-0.0577 0.33801,-0.25001 0.53951,-0.27858 0.14026,0.12968 0.18934,-0.0597 0.20009,-0.17296 0.15537,-0.0885 0.34791,-0.13908 0.48999,-0.26371 0.12254,-0.0567 0.2597,-0.22269 0.3796,-0.19749 0.12318,0.10261 0.22875,-0.0245 0.199,-0.15083 0.10018,-0.0852 0.23294,-0.13518 0.34415,-0.21013 0.12735,-0.0684 0.2504,-0.15473 0.39032,-0.19287 0.20186,-0.002 0.17336,0.23084 0.21779,0.36437 0.0196,0.17177 10e-5,0.34442 0.013,0.51641 0.009,0.12216 -0.25374,0.17635 -0.0823,0.28467 0.13874,0.0706 0.0499,0.23413 0.0758,0.3555 0.0123,0.19244 -0.0343,0.38253 -0.015,0.57445 0.0323,0.14005 -0.23491,0.21357 -0.0546,0.32488 0.13522,0.086 0.0528,0.3291 0.048,0.4748 -0.0666,0.15823 0.0303,0.32942 -0.007,0.4949 -0.0355,0.016 -0.0639,0.0517 -0.10624,0.0496 z"
       id="path4561-6-2-9-1-4-4-91"
       inkscape:connector-curvature="0" />
    <path
       style="fill:#373737;stroke-width:1.33333337"
       d="m 634.33781,498.90489 c -0.19962,-0.077 -0.34114,-0.26019 -0.55415,-0.30658 -0.12933,-0.0516 -0.29929,-0.11078 -0.28109,-0.26802 -0.12495,-0.0572 -0.28631,0.002 -0.36804,-0.14665 -0.21677,-0.0442 -0.41451,-0.14699 -0.60206,-0.26373 -0.14549,-0.0117 -0.0401,-0.2806 -0.23366,-0.22741 -0.15985,0.11165 -0.29843,-0.1067 -0.44332,-0.15259 -0.14671,-0.10352 -0.31384,-0.17296 -0.47067,-0.2553 -0.1377,-0.18472 0.19774,-0.28139 0.32109,-0.35268 0.1982,-0.0577 0.33801,-0.25001 0.53951,-0.27858 0.14026,0.12968 0.18934,-0.0597 0.20009,-0.17296 0.15537,-0.0885 0.34791,-0.13908 0.48999,-0.26371 0.12254,-0.0567 0.2597,-0.22269 0.3796,-0.19749 0.12318,0.10261 0.22875,-0.0245 0.199,-0.15083 0.10018,-0.0852 0.23294,-0.13518 0.34415,-0.21013 0.12735,-0.0684 0.2504,-0.15473 0.39032,-0.19287 0.20186,-0.002 0.17336,0.23084 0.21779,0.36437 0.0196,0.17177 10e-5,0.34442 0.013,0.51641 0.009,0.12216 -0.25374,0.17635 -0.0823,0.28467 0.13874,0.0706 0.0499,0.23413 0.0758,0.3555 0.0123,0.19244 -0.0343,0.38253 -0.015,0.57445 0.0323,0.14005 -0.23491,0.21357 -0.0546,0.32488 0.13522,0.086 0.0528,0.3291 0.048,0.4748 -0.0666,0.15823 0.0303,0.32942 -0.007,0.4949 -0.0355,0.016 -0.0639,0.0517 -0.10624,0.0496 z"
       id="path4561-6-2-9-1-4-44-5"
       inkscape:connector-curvature="0" />
    <path
       style="fill:#373737;stroke-width:1.33333337"
       d="m 633.94094,493.08405 c -0.19962,-0.077 -0.34114,-0.26019 -0.55415,-0.30658 -0.12933,-0.0516 -0.29929,-0.11078 -0.28109,-0.26802 -0.12495,-0.0572 -0.28631,0.002 -0.36804,-0.14665 -0.21677,-0.0442 -0.41451,-0.14699 -0.60206,-0.26373 -0.14549,-0.0117 -0.0401,-0.2806 -0.23366,-0.22741 -0.15985,0.11165 -0.29843,-0.1067 -0.44332,-0.15259 -0.14671,-0.10352 -0.31384,-0.17296 -0.47067,-0.2553 -0.1377,-0.18472 0.19774,-0.28139 0.32109,-0.35268 0.1982,-0.0577 0.33801,-0.25001 0.53951,-0.27858 0.14026,0.12968 0.18934,-0.0597 0.20009,-0.17296 0.15537,-0.0885 0.34791,-0.13908 0.48999,-0.26371 0.12254,-0.0567 0.2597,-0.22269 0.3796,-0.19749 0.12318,0.10261 0.22875,-0.0245 0.199,-0.15083 0.10018,-0.0852 0.23294,-0.13518 0.34415,-0.21013 0.12735,-0.0684 0.2504,-0.15473 0.39032,-0.19287 0.20186,-0.002 0.17336,0.23084 0.21779,0.36437 0.0196,0.17177 10e-5,0.34442 0.013,0.51641 0.009,0.12216 -0.25374,0.17635 -0.0823,0.28467 0.13874,0.0706 0.0499,0.23413 0.0758,0.3555 0.0123,0.19244 -0.0343,0.38253 -0.015,0.57445 0.0323,0.14005 -0.23491,0.21357 -0.0546,0.32488 0.13522,0.086 0.0528,0.3291 0.048,0.4748 -0.0666,0.15823 0.0303,0.32942 -0.007,0.4949 -0.0355,0.016 -0.0639,0.0517 -0.10624,0.0496 z"
       id="path4561-6-2-9-1-4-6-0-3"
       inkscape:connector-curvature="0" />
    <path
       style="fill:#373737;stroke-width:1.33333337"
       d="m 633.94093,487.3955 c -0.19962,-0.077 -0.34114,-0.26019 -0.55415,-0.30658 -0.12933,-0.0516 -0.29929,-0.11078 -0.28109,-0.26802 -0.12495,-0.0572 -0.28631,0.002 -0.36804,-0.14665 -0.21677,-0.0442 -0.41451,-0.14699 -0.60206,-0.26373 -0.14549,-0.0117 -0.0401,-0.2806 -0.23366,-0.22741 -0.15985,0.11165 -0.29843,-0.1067 -0.44332,-0.15259 -0.14671,-0.10352 -0.31384,-0.17296 -0.47067,-0.2553 -0.1377,-0.18472 0.19774,-0.28139 0.32109,-0.35268 0.1982,-0.0577 0.33801,-0.25001 0.53951,-0.27858 0.14026,0.12968 0.18934,-0.0597 0.20009,-0.17296 0.15537,-0.0885 0.34791,-0.13908 0.48999,-0.26371 0.12254,-0.0567 0.2597,-0.22269 0.3796,-0.19749 0.12318,0.10261 0.22875,-0.0245 0.199,-0.15083 0.10018,-0.0852 0.23294,-0.13518 0.34415,-0.21013 0.12735,-0.0684 0.2504,-0.15473 0.39032,-0.19287 0.20186,-0.002 0.17336,0.23084 0.21779,0.36437 0.0196,0.17177 10e-5,0.34442 0.013,0.51641 0.009,0.12216 -0.25374,0.17635 -0.0823,0.28467 0.13874,0.0706 0.0499,0.23413 0.0758,0.3555 0.0123,0.19244 -0.0343,0.38253 -0.015,0.57445 0.0323,0.14005 -0.23491,0.21357 -0.0546,0.32488 0.13522,0.086 0.0528,0.3291 0.048,0.4748 -0.0666,0.15823 0.0303,0.32942 -0.007,0.4949 -0.0355,0.016 -0.0639,0.0517 -0.10624,0.0496 z"
       id="path4561-6-2-9-1-4-4-9-6"
       inkscape:connector-curvature="0" />
    <path
       style="fill:#373737;stroke-width:1.33333337"
       d="m 634.00708,480.84706 c -0.19962,-0.077 -0.34114,-0.26019 -0.55415,-0.30658 -0.12933,-0.0516 -0.29929,-0.11078 -0.28109,-0.26802 -0.12495,-0.0572 -0.28631,0.002 -0.36804,-0.14665 -0.21677,-0.0442 -0.41451,-0.14699 -0.60206,-0.26373 -0.14549,-0.0117 -0.0401,-0.2806 -0.23366,-0.22741 -0.15985,0.11165 -0.29843,-0.1067 -0.44332,-0.15259 -0.14671,-0.10352 -0.31384,-0.17296 -0.47067,-0.2553 -0.1377,-0.18472 0.19774,-0.28139 0.32109,-0.35268 0.1982,-0.0577 0.33801,-0.25001 0.53951,-0.27858 0.14026,0.12968 0.18934,-0.0597 0.20009,-0.17296 0.15537,-0.0885 0.34791,-0.13908 0.48999,-0.26371 0.12254,-0.0567 0.2597,-0.22269 0.3796,-0.19749 0.12318,0.10261 0.22875,-0.0245 0.199,-0.15083 0.10018,-0.0852 0.23294,-0.13518 0.34415,-0.21013 0.12735,-0.0684 0.2504,-0.15473 0.39032,-0.19287 0.20186,-0.002 0.17336,0.23084 0.21779,0.36437 0.0196,0.17177 10e-5,0.34442 0.013,0.51641 0.009,0.12216 -0.25374,0.17635 -0.0823,0.28467 0.13874,0.0706 0.0499,0.23413 0.0758,0.3555 0.0123,0.19244 -0.0343,0.38253 -0.015,0.57445 0.0323,0.14005 -0.23491,0.21357 -0.0546,0.32488 0.13522,0.086 0.0528,0.3291 0.048,0.4748 -0.0666,0.15823 0.0303,0.32942 -0.007,0.4949 -0.0355,0.016 -0.0639,0.0517 -0.10624,0.0496 z"
       id="path4561-6-2-9-1-4-5"
       inkscape:connector-curvature="0" />
    <path
       style="fill:#373737;stroke-width:1.33333337"
       d="m 633.61021,475.02623 c -0.19962,-0.077 -0.34114,-0.26019 -0.55415,-0.30658 -0.12933,-0.0516 -0.29929,-0.11078 -0.28109,-0.26802 -0.12495,-0.0572 -0.28631,0.002 -0.36804,-0.14665 -0.21677,-0.0442 -0.41451,-0.14699 -0.60206,-0.26373 -0.14549,-0.0117 -0.0401,-0.2806 -0.23366,-0.22741 -0.15985,0.11165 -0.29843,-0.1067 -0.44332,-0.15259 -0.14671,-0.10352 -0.31384,-0.17296 -0.47067,-0.2553 -0.1377,-0.18472 0.19774,-0.28139 0.32109,-0.35268 0.1982,-0.0577 0.33801,-0.25001 0.53951,-0.27858 0.14026,0.12968 0.18934,-0.0597 0.20009,-0.17296 0.15537,-0.0885 0.34791,-0.13908 0.48999,-0.26371 0.12254,-0.0567 0.2597,-0.22269 0.3796,-0.19749 0.12318,0.10261 0.22875,-0.0245 0.199,-0.15083 0.10018,-0.0852 0.23294,-0.13518 0.34415,-0.21013 0.12735,-0.0684 0.2504,-0.15473 0.39032,-0.19287 0.20186,-0.002 0.17336,0.23084 0.21779,0.36437 0.0196,0.17177 1e-4,0.34442 0.013,0.51641 0.009,0.12216 -0.25374,0.17635 -0.0823,0.28467 0.13874,0.0706 0.0499,0.23413 0.0758,0.3555 0.0123,0.19244 -0.0343,0.38253 -0.015,0.57445 0.0323,0.14005 -0.23491,0.21357 -0.0546,0.32488 0.13522,0.086 0.0528,0.3291 0.048,0.4748 -0.0666,0.15823 0.0303,0.32942 -0.007,0.4949 -0.0355,0.016 -0.0639,0.0517 -0.10624,0.0496 z"
       id="path4561-6-2-9-1-4-6-8"
       inkscape:connector-curvature="0" />
    <path
       style="fill:#373737;stroke-width:1.33333337"
       d="m 633.6102,469.33768 c -0.19962,-0.077 -0.34114,-0.26019 -0.55415,-0.30658 -0.12933,-0.0516 -0.29929,-0.11078 -0.28109,-0.26802 -0.12495,-0.0572 -0.28631,0.002 -0.36804,-0.14665 -0.21677,-0.0442 -0.41451,-0.14699 -0.60206,-0.26373 -0.14549,-0.0117 -0.0401,-0.2806 -0.23366,-0.22741 -0.15985,0.11165 -0.29843,-0.1067 -0.44332,-0.15259 -0.14671,-0.10352 -0.31384,-0.17296 -0.47067,-0.2553 -0.1377,-0.18472 0.19774,-0.28139 0.32109,-0.35268 0.1982,-0.0577 0.33801,-0.25001 0.53951,-0.27858 0.14026,0.12968 0.18934,-0.0597 0.20009,-0.17296 0.15537,-0.0885 0.34791,-0.13908 0.48999,-0.26371 0.12254,-0.0567 0.2597,-0.22269 0.3796,-0.19749 0.12318,0.10261 0.22875,-0.0245 0.199,-0.15083 0.10018,-0.0852 0.23294,-0.13518 0.34415,-0.21013 0.12735,-0.0684 0.2504,-0.15473 0.39032,-0.19287 0.20186,-0.002 0.17336,0.23084 0.21779,0.36437 0.0196,0.17177 10e-5,0.34442 0.013,0.51641 0.009,0.12216 -0.25374,0.17635 -0.0823,0.28467 0.13874,0.0706 0.0499,0.23413 0.0758,0.3555 0.0123,0.19244 -0.0343,0.38253 -0.015,0.57445 0.0323,0.14005 -0.23491,0.21357 -0.0546,0.32488 0.13522,0.086 0.0528,0.3291 0.048,0.4748 -0.0666,0.15823 0.0303,0.32942 -0.007,0.4949 -0.0355,0.016 -0.0639,0.0517 -0.10624,0.0496 z"
       id="path4561-6-2-9-1-4-4-6"
       inkscape:connector-curvature="0" />
    <path
       style="fill:#373737;stroke-width:1.33333337"
       d="m 633.41177,463.84759 c -0.19962,-0.077 -0.34114,-0.26019 -0.55415,-0.30658 -0.12933,-0.0516 -0.29929,-0.11078 -0.28109,-0.26802 -0.12495,-0.0572 -0.28631,0.002 -0.36804,-0.14665 -0.21677,-0.0442 -0.41451,-0.14699 -0.60206,-0.26373 -0.14549,-0.0117 -0.0401,-0.2806 -0.23366,-0.22741 -0.15985,0.11165 -0.29843,-0.1067 -0.44332,-0.15259 -0.14671,-0.10352 -0.31384,-0.17296 -0.47067,-0.2553 -0.1377,-0.18472 0.19774,-0.28139 0.32109,-0.35268 0.1982,-0.0577 0.33801,-0.25001 0.53951,-0.27858 0.14026,0.12968 0.18934,-0.0597 0.20009,-0.17296 0.15537,-0.0885 0.34791,-0.13908 0.48999,-0.26371 0.12254,-0.0567 0.2597,-0.22269 0.3796,-0.19749 0.12318,0.10261 0.22875,-0.0245 0.199,-0.15083 0.10018,-0.0852 0.23294,-0.13518 0.34415,-0.21013 0.12735,-0.0684 0.2504,-0.15473 0.39032,-0.19287 0.20186,-0.002 0.17336,0.23084 0.21779,0.36437 0.0196,0.17177 1e-4,0.34442 0.013,0.51641 0.009,0.12216 -0.25374,0.17635 -0.0823,0.28467 0.13874,0.0706 0.0499,0.23413 0.0758,0.3555 0.0123,0.19244 -0.0343,0.38253 -0.015,0.57445 0.0323,0.14005 -0.23491,0.21357 -0.0546,0.32488 0.13522,0.086 0.0528,0.3291 0.048,0.4748 -0.0666,0.15823 0.0303,0.32942 -0.007,0.4949 -0.0355,0.016 -0.0639,0.0517 -0.10624,0.0496 z"
       id="path4561-6-2-9-1-4-44-4"
       inkscape:connector-curvature="0" />
    <path
       style="fill:#373737;stroke-width:1.33333337"
       d="m 633.0149,458.02676 c -0.19962,-0.077 -0.34114,-0.26019 -0.55415,-0.30658 -0.12933,-0.0516 -0.29929,-0.11078 -0.28109,-0.26802 -0.12495,-0.0572 -0.28631,0.002 -0.36804,-0.14665 -0.21677,-0.0442 -0.41451,-0.14699 -0.60206,-0.26373 -0.14549,-0.0117 -0.0401,-0.2806 -0.23366,-0.22741 -0.15985,0.11165 -0.29843,-0.1067 -0.44332,-0.15259 -0.14671,-0.10352 -0.31384,-0.17296 -0.47067,-0.2553 -0.1377,-0.18472 0.19774,-0.28139 0.32109,-0.35268 0.1982,-0.0577 0.33801,-0.25001 0.53951,-0.27858 0.14026,0.12968 0.18934,-0.0597 0.20009,-0.17296 0.15537,-0.0885 0.34791,-0.13908 0.48999,-0.26371 0.12254,-0.0567 0.2597,-0.22269 0.3796,-0.19749 0.12318,0.10261 0.22875,-0.0245 0.199,-0.15083 0.10018,-0.0852 0.23294,-0.13518 0.34415,-0.21013 0.12735,-0.0684 0.2504,-0.15473 0.39032,-0.19287 0.20186,-0.002 0.17336,0.23084 0.21779,0.36437 0.0196,0.17177 10e-5,0.34442 0.013,0.51641 0.009,0.12216 -0.25374,0.17635 -0.0823,0.28467 0.13874,0.0706 0.0499,0.23413 0.0758,0.3555 0.0123,0.19244 -0.0343,0.38253 -0.015,0.57445 0.0323,0.14005 -0.23491,0.21357 -0.0546,0.32488 0.13522,0.086 0.0528,0.3291 0.048,0.4748 -0.0666,0.15823 0.0303,0.32942 -0.007,0.4949 -0.0355,0.016 -0.0639,0.0517 -0.10624,0.0496 z"
       id="path4561-6-2-9-1-4-6-0-5"
       inkscape:connector-curvature="0" />
    <path
       style="fill:#373737;stroke-width:1.33333337"
       d="m 555.6408,549.72141 c -0.19962,-0.077 -0.34114,-0.26019 -0.55415,-0.30658 -0.12933,-0.0516 -0.29929,-0.11078 -0.28109,-0.26802 -0.12495,-0.0572 -0.28631,0.002 -0.36804,-0.14665 -0.21677,-0.0442 -0.41451,-0.14699 -0.60206,-0.26373 -0.14549,-0.0117 -0.0401,-0.2806 -0.23366,-0.22741 -0.15985,0.11165 -0.29843,-0.1067 -0.44332,-0.15259 -0.14671,-0.10352 -0.31384,-0.17296 -0.47067,-0.2553 -0.1377,-0.18472 0.19774,-0.28139 0.32109,-0.35268 0.1982,-0.0577 0.33801,-0.25001 0.53951,-0.27858 0.14026,0.12968 0.18934,-0.0597 0.20009,-0.17296 0.15537,-0.0885 0.34791,-0.13908 0.48999,-0.26371 0.12254,-0.0567 0.2597,-0.22269 0.3796,-0.19749 0.12318,0.10261 0.22875,-0.0245 0.199,-0.15083 0.10018,-0.0852 0.23294,-0.13518 0.34415,-0.21013 0.12735,-0.0684 0.2504,-0.15473 0.39032,-0.19287 0.20186,-0.002 0.17336,0.23084 0.21779,0.36437 0.0196,0.17177 10e-5,0.34442 0.013,0.51641 0.009,0.12216 -0.25374,0.17635 -0.0823,0.28467 0.13874,0.0706 0.0499,0.23413 0.0758,0.3555 0.0123,0.19244 -0.0343,0.38253 -0.015,0.57445 0.0323,0.14005 -0.23491,0.21357 -0.0546,0.32488 0.13522,0.086 0.0528,0.3291 0.048,0.4748 -0.0666,0.15823 0.0303,0.32942 -0.007,0.4949 -0.0355,0.016 -0.0639,0.0517 -0.10624,0.0496 z"
       id="path4561-6-2-9-1-4-7"
       inkscape:connector-curvature="0" />
    <path
       style="fill:#373737;stroke-width:1.33333337"
       d="m 555.24393,543.90058 c -0.19962,-0.077 -0.34114,-0.26019 -0.55415,-0.30658 -0.12933,-0.0516 -0.29929,-0.11078 -0.28109,-0.26802 -0.12495,-0.0572 -0.28631,0.002 -0.36804,-0.14665 -0.21677,-0.0442 -0.41451,-0.14699 -0.60206,-0.26373 -0.14549,-0.0117 -0.0401,-0.2806 -0.23366,-0.22741 -0.15985,0.11165 -0.29843,-0.1067 -0.44332,-0.15259 -0.14671,-0.10352 -0.31384,-0.17296 -0.47067,-0.2553 -0.1377,-0.18472 0.19774,-0.28139 0.32109,-0.35268 0.1982,-0.0577 0.33801,-0.25001 0.53951,-0.27858 0.14026,0.12968 0.18934,-0.0597 0.20009,-0.17296 0.15537,-0.0885 0.34791,-0.13908 0.48999,-0.26371 0.12254,-0.0567 0.2597,-0.22269 0.3796,-0.19749 0.12318,0.10261 0.22875,-0.0245 0.199,-0.15083 0.10018,-0.0852 0.23294,-0.13518 0.34415,-0.21013 0.12735,-0.0684 0.2504,-0.15473 0.39032,-0.19287 0.20186,-0.002 0.17336,0.23084 0.21779,0.36437 0.0196,0.17177 10e-5,0.34442 0.013,0.51641 0.009,0.12216 -0.25374,0.17635 -0.0823,0.28467 0.13874,0.0706 0.0499,0.23413 0.0758,0.3555 0.0123,0.19244 -0.0343,0.38253 -0.015,0.57445 0.0323,0.14005 -0.23491,0.21357 -0.0546,0.32488 0.13522,0.086 0.0528,0.3291 0.048,0.4748 -0.0666,0.15823 0.0303,0.32942 -0.007,0.4949 -0.0355,0.016 -0.0639,0.0517 -0.10624,0.0496 z"
       id="path4561-6-2-9-1-4-6-5"
       inkscape:connector-curvature="0" />
    <path
       style="fill:#373737;stroke-width:1.33333337"
       d="m 555.24392,538.21203 c -0.19962,-0.077 -0.34114,-0.26019 -0.55415,-0.30658 -0.12933,-0.0516 -0.29929,-0.11078 -0.28109,-0.26802 -0.12495,-0.0572 -0.28631,0.002 -0.36804,-0.14665 -0.21677,-0.0442 -0.41451,-0.14699 -0.60206,-0.26373 -0.14549,-0.0117 -0.0401,-0.2806 -0.23366,-0.22741 -0.15985,0.11165 -0.29843,-0.1067 -0.44332,-0.15259 -0.14671,-0.10352 -0.31384,-0.17296 -0.47067,-0.2553 -0.1377,-0.18472 0.19774,-0.28139 0.32109,-0.35268 0.1982,-0.0577 0.33801,-0.25001 0.53951,-0.27858 0.14026,0.12968 0.18934,-0.0597 0.20009,-0.17296 0.15537,-0.0885 0.34791,-0.13908 0.48999,-0.26371 0.12254,-0.0567 0.2597,-0.22269 0.3796,-0.19749 0.12318,0.10261 0.22875,-0.0245 0.199,-0.15083 0.10018,-0.0852 0.23294,-0.13518 0.34415,-0.21013 0.12735,-0.0684 0.2504,-0.15473 0.39032,-0.19287 0.20186,-0.002 0.17336,0.23084 0.21779,0.36437 0.0196,0.17177 10e-5,0.34442 0.013,0.51641 0.009,0.12216 -0.25374,0.17635 -0.0823,0.28467 0.13874,0.0706 0.0499,0.23413 0.0758,0.3555 0.0123,0.19244 -0.0343,0.38253 -0.015,0.57445 0.0323,0.14005 -0.23491,0.21357 -0.0546,0.32488 0.13522,0.086 0.0528,0.3291 0.048,0.4748 -0.0666,0.15823 0.0303,0.32942 -0.007,0.4949 -0.0355,0.016 -0.0639,0.0517 -0.10624,0.0496 z"
       id="path4561-6-2-9-1-4-4-4"
       inkscape:connector-curvature="0" />
    <path
       style="fill:#373737;stroke-width:1.33333337"
       d="m 555.04549,532.72194 c -0.19962,-0.077 -0.34114,-0.26019 -0.55415,-0.30658 -0.12933,-0.0516 -0.29929,-0.11078 -0.28109,-0.26802 -0.12495,-0.0572 -0.28631,0.002 -0.36804,-0.14665 -0.21677,-0.0442 -0.41451,-0.14699 -0.60206,-0.26373 -0.14549,-0.0117 -0.0401,-0.2806 -0.23366,-0.22741 -0.15985,0.11165 -0.29843,-0.1067 -0.44332,-0.15259 -0.14671,-0.10352 -0.31384,-0.17296 -0.47067,-0.2553 -0.1377,-0.18472 0.19774,-0.28139 0.32109,-0.35268 0.1982,-0.0577 0.33801,-0.25001 0.53951,-0.27858 0.14026,0.12968 0.18934,-0.0597 0.20009,-0.17296 0.15537,-0.0885 0.34791,-0.13908 0.48999,-0.26371 0.12254,-0.0567 0.2597,-0.22269 0.3796,-0.19749 0.12318,0.10261 0.22875,-0.0245 0.199,-0.15083 0.10018,-0.0852 0.23294,-0.13518 0.34415,-0.21013 0.12735,-0.0684 0.2504,-0.15473 0.39032,-0.19287 0.20186,-0.002 0.17336,0.23084 0.21779,0.36437 0.0196,0.17177 10e-5,0.34442 0.013,0.51641 0.009,0.12216 -0.25374,0.17635 -0.0823,0.28467 0.13874,0.0706 0.0499,0.23413 0.0758,0.3555 0.0123,0.19244 -0.0343,0.38253 -0.015,0.57445 0.0323,0.14005 -0.23491,0.21357 -0.0546,0.32488 0.13522,0.086 0.0528,0.3291 0.048,0.4748 -0.0666,0.15823 0.0303,0.32942 -0.007,0.4949 -0.0355,0.016 -0.0639,0.0517 -0.10624,0.0496 z"
       id="path4561-6-2-9-1-4-44-1"
       inkscape:connector-curvature="0" />
    <path
       style="fill:#373737;stroke-width:1.33333337"
       d="m 554.64862,526.90111 c -0.19962,-0.077 -0.34114,-0.26019 -0.55415,-0.30658 -0.12933,-0.0516 -0.29929,-0.11078 -0.28109,-0.26802 -0.12495,-0.0572 -0.28631,0.002 -0.36804,-0.14665 -0.21677,-0.0442 -0.41451,-0.14699 -0.60206,-0.26373 -0.14549,-0.0117 -0.0401,-0.2806 -0.23366,-0.22741 -0.15985,0.11165 -0.29843,-0.1067 -0.44332,-0.15259 -0.14671,-0.10352 -0.31384,-0.17296 -0.47067,-0.2553 -0.1377,-0.18472 0.19774,-0.28139 0.32109,-0.35268 0.1982,-0.0577 0.33801,-0.25001 0.53951,-0.27858 0.14026,0.12968 0.18934,-0.0597 0.20009,-0.17296 0.15537,-0.0885 0.34791,-0.13908 0.48999,-0.26371 0.12254,-0.0567 0.2597,-0.22269 0.3796,-0.19749 0.12318,0.10261 0.22875,-0.0245 0.199,-0.15083 0.10018,-0.0852 0.23294,-0.13518 0.34415,-0.21013 0.12735,-0.0684 0.2504,-0.15473 0.39032,-0.19287 0.20186,-0.002 0.17336,0.23084 0.21779,0.36437 0.0196,0.17177 1e-4,0.34442 0.013,0.51641 0.009,0.12216 -0.25374,0.17635 -0.0823,0.28467 0.13874,0.0706 0.0499,0.23413 0.0758,0.3555 0.0123,0.19244 -0.0343,0.38253 -0.015,0.57445 0.0323,0.14005 -0.23491,0.21357 -0.0546,0.32488 0.13522,0.086 0.0528,0.3291 0.048,0.4748 -0.0666,0.15823 0.0303,0.32942 -0.007,0.4949 -0.0355,0.016 -0.0639,0.0517 -0.10624,0.0496 z"
       id="path4561-6-2-9-1-4-6-0-38"
       inkscape:connector-curvature="0" />
    <path
       style="fill:#373737;stroke-width:1.33333337"
       d="m 554.64861,521.21256 c -0.19962,-0.077 -0.34114,-0.26019 -0.55415,-0.30658 -0.12933,-0.0516 -0.29929,-0.11078 -0.28109,-0.26802 -0.12495,-0.0572 -0.28631,0.002 -0.36804,-0.14665 -0.21677,-0.0442 -0.41451,-0.14699 -0.60206,-0.26373 -0.14549,-0.0117 -0.0401,-0.2806 -0.23366,-0.22741 -0.15985,0.11165 -0.29843,-0.1067 -0.44332,-0.15259 -0.14671,-0.10352 -0.31384,-0.17296 -0.47067,-0.2553 -0.1377,-0.18472 0.19774,-0.28139 0.32109,-0.35268 0.1982,-0.0577 0.33801,-0.25001 0.53951,-0.27858 0.14026,0.12968 0.18934,-0.0597 0.20009,-0.17296 0.15537,-0.0885 0.34791,-0.13908 0.48999,-0.26371 0.12254,-0.0567 0.2597,-0.22269 0.3796,-0.19749 0.12318,0.10261 0.22875,-0.0245 0.199,-0.15083 0.10018,-0.0852 0.23294,-0.13518 0.34415,-0.21013 0.12735,-0.0684 0.2504,-0.15473 0.39032,-0.19287 0.20186,-0.002 0.17336,0.23084 0.21779,0.36437 0.0196,0.17177 10e-5,0.34442 0.013,0.51641 0.009,0.12216 -0.25374,0.17635 -0.0823,0.28467 0.13874,0.0706 0.0499,0.23413 0.0758,0.3555 0.0123,0.19244 -0.0343,0.38253 -0.015,0.57445 0.0323,0.14005 -0.23491,0.21357 -0.0546,0.32488 0.13522,0.086 0.0528,0.3291 0.048,0.4748 -0.0666,0.15823 0.0303,0.32942 -0.007,0.4949 -0.0355,0.016 -0.0639,0.0517 -0.10624,0.0496 z"
       id="path4561-6-2-9-1-4-4-9-5"
       inkscape:connector-curvature="0" />
    <path
       style="fill:#373737;stroke-width:1.33333337"
       d="m 554.54939,515.95397 c -0.19962,-0.077 -0.34114,-0.2602 -0.55415,-0.30658 -0.12933,-0.0516 -0.29929,-0.11079 -0.28109,-0.26802 -0.12495,-0.0572 -0.28631,0.002 -0.36804,-0.14666 -0.21677,-0.0442 -0.41451,-0.14698 -0.60206,-0.26372 -0.14549,-0.0117 -0.0401,-0.28061 -0.23366,-0.22742 -0.15985,0.11166 -0.29843,-0.10669 -0.44332,-0.15258 -0.14671,-0.10352 -0.31384,-0.17296 -0.47067,-0.25531 -0.1377,-0.18471 0.19774,-0.28139 0.32109,-0.35267 0.1982,-0.0577 0.33801,-0.25001 0.53951,-0.27858 0.14026,0.12968 0.18934,-0.0597 0.20009,-0.17297 0.15537,-0.0885 0.34791,-0.13907 0.48999,-0.26371 0.12254,-0.0567 0.2597,-0.22268 0.3796,-0.19749 0.12318,0.10261 0.22875,-0.0245 0.199,-0.15082 0.10018,-0.0852 0.23294,-0.13519 0.34415,-0.21013 0.12735,-0.0684 0.2504,-0.15473 0.39032,-0.19287 0.20186,-0.002 0.17336,0.23083 0.21779,0.36436 0.0196,0.17177 10e-5,0.34443 0.013,0.51642 0.009,0.12216 -0.25374,0.17635 -0.0823,0.28467 0.13874,0.0706 0.0499,0.23413 0.0758,0.3555 0.0123,0.19243 -0.0343,0.38252 -0.015,0.57445 0.0323,0.14004 -0.23491,0.21356 -0.0546,0.32487 0.13522,0.086 0.0528,0.32911 0.048,0.4748 -0.0666,0.15824 0.0303,0.32942 -0.007,0.4949 -0.0355,0.016 -0.0639,0.0517 -0.10624,0.0496 z"
       id="path4561-6-2-9-1-4-8-2"
       inkscape:connector-curvature="0" />
    <path
       style="fill:#373737;stroke-width:1.33333337"
       d="m 554.15252,510.13313 c -0.19962,-0.077 -0.34114,-0.26018 -0.55415,-0.30657 -0.12933,-0.0516 -0.29929,-0.11078 -0.28109,-0.26802 -0.12495,-0.0572 -0.28631,0.002 -0.36804,-0.14665 -0.21677,-0.0442 -0.41451,-0.14699 -0.60206,-0.26373 -0.14549,-0.0117 -0.0401,-0.2806 -0.23366,-0.22741 -0.15985,0.11165 -0.29843,-0.1067 -0.44332,-0.15259 -0.14671,-0.10352 -0.31384,-0.17296 -0.47067,-0.2553 -0.1377,-0.18472 0.19774,-0.28139 0.32109,-0.35268 0.1982,-0.0577 0.33801,-0.25001 0.53951,-0.27858 0.14026,0.12968 0.18934,-0.0597 0.20009,-0.17296 0.15537,-0.0885 0.34791,-0.13908 0.48999,-0.26371 0.12254,-0.0567 0.2597,-0.22269 0.3796,-0.19749 0.12318,0.10261 0.22875,-0.0245 0.199,-0.15083 0.10018,-0.0852 0.23294,-0.13518 0.34415,-0.21013 0.12735,-0.0684 0.2504,-0.15473 0.39032,-0.19287 0.20186,-0.002 0.17336,0.23084 0.21779,0.36437 0.0196,0.17177 10e-5,0.34442 0.013,0.51641 0.009,0.12216 -0.25374,0.17635 -0.0823,0.28467 0.13874,0.0706 0.0499,0.23413 0.0758,0.3555 0.0123,0.19244 -0.0343,0.38253 -0.015,0.57445 0.0323,0.14005 -0.23491,0.21357 -0.0546,0.32488 0.13522,0.086 0.0528,0.3291 0.048,0.4748 -0.0666,0.15823 0.0303,0.32942 -0.007,0.4949 -0.0355,0.016 -0.0639,0.0517 -0.10624,0.0496 z"
       id="path4561-6-2-9-1-4-6-9-6"
       inkscape:connector-curvature="0" />
    <path
       style="fill:#373737;stroke-width:1.33333337"
       d="m 554.15251,504.44459 c -0.19962,-0.077 -0.34114,-0.26019 -0.55415,-0.30658 -0.12933,-0.0516 -0.29929,-0.11078 -0.28109,-0.26802 -0.12495,-0.0572 -0.28631,0.002 -0.36804,-0.14665 -0.21677,-0.0442 -0.41451,-0.14699 -0.60206,-0.26373 -0.14549,-0.0117 -0.0401,-0.2806 -0.23366,-0.22741 -0.15985,0.11165 -0.29843,-0.1067 -0.44332,-0.15259 -0.14671,-0.10352 -0.31384,-0.17296 -0.47067,-0.2553 -0.1377,-0.18472 0.19774,-0.28139 0.32109,-0.35268 0.1982,-0.0577 0.33801,-0.25001 0.53951,-0.27858 0.14026,0.12968 0.18934,-0.0597 0.20009,-0.17296 0.15537,-0.0885 0.34791,-0.13908 0.48999,-0.26371 0.12254,-0.0567 0.2597,-0.22269 0.3796,-0.19749 0.12318,0.10261 0.22875,-0.0245 0.199,-0.15083 0.10018,-0.0852 0.23294,-0.13518 0.34415,-0.21013 0.12735,-0.0684 0.2504,-0.15473 0.39032,-0.19287 0.20186,-0.002 0.17336,0.23084 0.21779,0.36437 0.0196,0.17177 10e-5,0.34442 0.013,0.51641 0.009,0.12216 -0.25374,0.17635 -0.0823,0.28467 0.13874,0.0706 0.0499,0.23413 0.0758,0.3555 0.0123,0.19244 -0.0343,0.38253 -0.015,0.57445 0.0323,0.14005 -0.23491,0.21357 -0.0546,0.32488 0.13522,0.086 0.0528,0.3291 0.048,0.4748 -0.0666,0.15823 0.0303,0.32942 -0.007,0.4949 -0.0355,0.016 -0.0639,0.0517 -0.10624,0.0496 z"
       id="path4561-6-2-9-1-4-4-91-6"
       inkscape:connector-curvature="0" />
    <path
       style="fill:#373737;stroke-width:1.33333337"
       d="m 553.95408,498.9545 c -0.19962,-0.077 -0.34114,-0.26019 -0.55415,-0.30658 -0.12933,-0.0516 -0.29929,-0.11078 -0.28109,-0.26802 -0.12495,-0.0572 -0.28631,0.002 -0.36804,-0.14665 -0.21677,-0.0442 -0.41451,-0.14699 -0.60206,-0.26373 -0.14549,-0.0117 -0.0401,-0.2806 -0.23366,-0.22741 -0.15985,0.11165 -0.29843,-0.1067 -0.44332,-0.15259 -0.14671,-0.10352 -0.31384,-0.17296 -0.47067,-0.2553 -0.1377,-0.18472 0.19774,-0.28139 0.32109,-0.35268 0.1982,-0.0577 0.33801,-0.25001 0.53951,-0.27858 0.14026,0.12968 0.18934,-0.0597 0.20009,-0.17296 0.15537,-0.0885 0.34791,-0.13908 0.48999,-0.26371 0.12254,-0.0567 0.2597,-0.22269 0.3796,-0.19749 0.12318,0.10261 0.22875,-0.0245 0.199,-0.15083 0.10018,-0.0852 0.23294,-0.13518 0.34415,-0.21013 0.12735,-0.0684 0.2504,-0.15473 0.39032,-0.19287 0.20186,-0.002 0.17336,0.23084 0.21779,0.36437 0.0196,0.17177 10e-5,0.34442 0.013,0.51641 0.009,0.12216 -0.25374,0.17635 -0.0823,0.28467 0.13874,0.0706 0.0499,0.23413 0.0758,0.3555 0.0123,0.19244 -0.0343,0.38253 -0.015,0.57445 0.0323,0.14005 -0.23491,0.21357 -0.0546,0.32488 0.13522,0.086 0.0528,0.3291 0.048,0.4748 -0.0666,0.15823 0.0303,0.32942 -0.007,0.4949 -0.0355,0.016 -0.0639,0.0517 -0.10624,0.0496 z"
       id="path4561-6-2-9-1-4-44-5-6"
       inkscape:connector-curvature="0" />
    <path
       style="fill:#373737;stroke-width:1.33333337"
       d="m 553.55721,493.13366 c -0.19962,-0.077 -0.34114,-0.26019 -0.55415,-0.30658 -0.12933,-0.0516 -0.29929,-0.11078 -0.28109,-0.26802 -0.12495,-0.0572 -0.28631,0.002 -0.36804,-0.14665 -0.21677,-0.0442 -0.41451,-0.14699 -0.60206,-0.26373 -0.14549,-0.0117 -0.0401,-0.2806 -0.23366,-0.22741 -0.15985,0.11165 -0.29843,-0.1067 -0.44332,-0.15259 -0.14671,-0.10352 -0.31384,-0.17296 -0.47067,-0.2553 -0.1377,-0.18472 0.19774,-0.28139 0.32109,-0.35268 0.1982,-0.0577 0.33801,-0.25001 0.53951,-0.27858 0.14026,0.12968 0.18934,-0.0597 0.20009,-0.17296 0.15537,-0.0885 0.34791,-0.13908 0.48999,-0.26371 0.12254,-0.0567 0.2597,-0.22269 0.3796,-0.19749 0.12318,0.10261 0.22875,-0.0245 0.199,-0.15083 0.10018,-0.0852 0.23294,-0.13518 0.34415,-0.21013 0.12735,-0.0684 0.2504,-0.15473 0.39032,-0.19287 0.20186,-0.002 0.17336,0.23084 0.21779,0.36437 0.0196,0.17177 1e-4,0.34442 0.013,0.51641 0.009,0.12216 -0.25374,0.17635 -0.0823,0.28467 0.13874,0.0706 0.0499,0.23413 0.0758,0.3555 0.0123,0.19244 -0.0343,0.38253 -0.015,0.57445 0.0323,0.14005 -0.23491,0.21357 -0.0546,0.32488 0.13522,0.086 0.0528,0.3291 0.048,0.4748 -0.0666,0.15823 0.0303,0.32942 -0.007,0.4949 -0.0355,0.016 -0.0639,0.0517 -0.10624,0.0496 z"
       id="path4561-6-2-9-1-4-6-0-3-7"
       inkscape:connector-curvature="0" />
    <path
       style="fill:#373737;stroke-width:1.33333337"
       d="m 553.5572,487.44511 c -0.19962,-0.077 -0.34114,-0.26019 -0.55415,-0.30658 -0.12933,-0.0516 -0.29929,-0.11078 -0.28109,-0.26802 -0.12495,-0.0572 -0.28631,0.002 -0.36804,-0.14665 -0.21677,-0.0442 -0.41451,-0.14699 -0.60206,-0.26373 -0.14549,-0.0117 -0.0401,-0.2806 -0.23366,-0.22741 -0.15985,0.11165 -0.29843,-0.1067 -0.44332,-0.15259 -0.14671,-0.10352 -0.31384,-0.17296 -0.47067,-0.2553 -0.1377,-0.18472 0.19774,-0.28139 0.32109,-0.35268 0.1982,-0.0577 0.33801,-0.25001 0.53951,-0.27858 0.14026,0.12968 0.18934,-0.0597 0.20009,-0.17296 0.15537,-0.0885 0.34791,-0.13908 0.48999,-0.26371 0.12254,-0.0567 0.2597,-0.22269 0.3796,-0.19749 0.12318,0.10261 0.22875,-0.0245 0.199,-0.15083 0.10018,-0.0852 0.23294,-0.13518 0.34415,-0.21013 0.12735,-0.0684 0.2504,-0.15473 0.39032,-0.19287 0.20186,-0.002 0.17336,0.23084 0.21779,0.36437 0.0196,0.17177 10e-5,0.34442 0.013,0.51641 0.009,0.12216 -0.25374,0.17635 -0.0823,0.28467 0.13874,0.0706 0.0499,0.23413 0.0758,0.3555 0.0123,0.19244 -0.0343,0.38253 -0.015,0.57445 0.0323,0.14005 -0.23491,0.21357 -0.0546,0.32488 0.13522,0.086 0.0528,0.3291 0.048,0.4748 -0.0666,0.15823 0.0303,0.32942 -0.007,0.4949 -0.0355,0.016 -0.0639,0.0517 -0.10624,0.0496 z"
       id="path4561-6-2-9-1-4-4-9-6-4"
       inkscape:connector-curvature="0" />
    <path
       style="fill:#373737;stroke-width:1.33333337"
       d="m 553.62335,480.89667 c -0.19962,-0.077 -0.34114,-0.26019 -0.55415,-0.30658 -0.12933,-0.0516 -0.29929,-0.11078 -0.28109,-0.26802 -0.12495,-0.0572 -0.28631,0.002 -0.36804,-0.14665 -0.21677,-0.0442 -0.41451,-0.14699 -0.60206,-0.26373 -0.14549,-0.0117 -0.0401,-0.2806 -0.23366,-0.22741 -0.15985,0.11165 -0.29843,-0.1067 -0.44332,-0.15259 -0.14671,-0.10352 -0.31384,-0.17296 -0.47067,-0.2553 -0.1377,-0.18472 0.19774,-0.28139 0.32109,-0.35268 0.1982,-0.0577 0.33801,-0.25001 0.53951,-0.27858 0.14026,0.12968 0.18934,-0.0597 0.20009,-0.17296 0.15537,-0.0885 0.34791,-0.13908 0.48999,-0.26371 0.12254,-0.0567 0.2597,-0.22269 0.3796,-0.19749 0.12318,0.10261 0.22875,-0.0245 0.199,-0.15083 0.10018,-0.0852 0.23294,-0.13518 0.34415,-0.21013 0.12735,-0.0684 0.2504,-0.15473 0.39032,-0.19287 0.20186,-0.002 0.17336,0.23084 0.21779,0.36437 0.0196,0.17177 10e-5,0.34442 0.013,0.51641 0.009,0.12216 -0.25374,0.17635 -0.0823,0.28467 0.13874,0.0706 0.0499,0.23413 0.0758,0.3555 0.0123,0.19244 -0.0343,0.38253 -0.015,0.57445 0.0323,0.14005 -0.23491,0.21357 -0.0546,0.32488 0.13522,0.086 0.0528,0.3291 0.048,0.4748 -0.0666,0.15823 0.0303,0.32942 -0.007,0.4949 -0.0355,0.016 -0.0639,0.0517 -0.10624,0.0496 z"
       id="path4561-6-2-9-1-4-5-9"
       inkscape:connector-curvature="0" />
    <path
       style="fill:#373737;stroke-width:1.33333337"
       d="m 553.22648,475.07584 c -0.19962,-0.077 -0.34114,-0.26019 -0.55415,-0.30658 -0.12933,-0.0516 -0.29929,-0.11078 -0.28109,-0.26802 -0.12495,-0.0572 -0.28631,0.002 -0.36804,-0.14665 -0.21677,-0.0442 -0.41451,-0.14699 -0.60206,-0.26373 -0.14549,-0.0117 -0.0401,-0.2806 -0.23366,-0.22741 -0.15985,0.11165 -0.29843,-0.1067 -0.44332,-0.15259 -0.14671,-0.10352 -0.31384,-0.17296 -0.47067,-0.2553 -0.1377,-0.18472 0.19774,-0.28139 0.32109,-0.35268 0.1982,-0.0577 0.33801,-0.25001 0.53951,-0.27858 0.14026,0.12968 0.18934,-0.0597 0.20009,-0.17296 0.15537,-0.0885 0.34791,-0.13908 0.48999,-0.26371 0.12254,-0.0567 0.2597,-0.22269 0.3796,-0.19749 0.12318,0.10261 0.22875,-0.0245 0.199,-0.15083 0.10018,-0.0852 0.23294,-0.13518 0.34415,-0.21013 0.12735,-0.0684 0.2504,-0.15473 0.39032,-0.19287 0.20186,-0.002 0.17336,0.23084 0.21779,0.36437 0.0196,0.17177 10e-5,0.34442 0.013,0.51641 0.009,0.12216 -0.25374,0.17635 -0.0823,0.28467 0.13874,0.0706 0.0499,0.23413 0.0758,0.3555 0.0123,0.19244 -0.0343,0.38253 -0.015,0.57445 0.0323,0.14005 -0.23491,0.21357 -0.0546,0.32488 0.13522,0.086 0.0528,0.3291 0.048,0.4748 -0.0666,0.15823 0.0303,0.32942 -0.007,0.4949 -0.0355,0.016 -0.0639,0.0517 -0.10624,0.0496 z"
       id="path4561-6-2-9-1-4-6-8-4"
       inkscape:connector-curvature="0" />
    <path
       style="fill:#373737;stroke-width:1.33333337"
       d="m 553.22647,469.38729 c -0.19962,-0.077 -0.34114,-0.26019 -0.55415,-0.30658 -0.12933,-0.0516 -0.29929,-0.11078 -0.28109,-0.26802 -0.12495,-0.0572 -0.28631,0.002 -0.36804,-0.14665 -0.21677,-0.0442 -0.41451,-0.14699 -0.60206,-0.26373 -0.14549,-0.0117 -0.0401,-0.2806 -0.23366,-0.22741 -0.15985,0.11165 -0.29843,-0.1067 -0.44332,-0.15259 -0.14671,-0.10352 -0.31384,-0.17296 -0.47067,-0.2553 -0.1377,-0.18472 0.19774,-0.28139 0.32109,-0.35268 0.1982,-0.0577 0.33801,-0.25001 0.53951,-0.27858 0.14026,0.12968 0.18934,-0.0597 0.20009,-0.17296 0.15537,-0.0885 0.34791,-0.13908 0.48999,-0.26371 0.12254,-0.0567 0.2597,-0.22269 0.3796,-0.19749 0.12318,0.10261 0.22875,-0.0245 0.199,-0.15083 0.10018,-0.0852 0.23294,-0.13518 0.34415,-0.21013 0.12735,-0.0684 0.2504,-0.15473 0.39032,-0.19287 0.20186,-0.002 0.17336,0.23084 0.21779,0.36437 0.0196,0.17177 1e-4,0.34442 0.013,0.51641 0.009,0.12216 -0.25374,0.17635 -0.0823,0.28467 0.13874,0.0706 0.0499,0.23413 0.0758,0.3555 0.0123,0.19244 -0.0343,0.38253 -0.015,0.57445 0.0323,0.14005 -0.23491,0.21357 -0.0546,0.32488 0.13522,0.086 0.0528,0.3291 0.048,0.4748 -0.0666,0.15823 0.0303,0.32942 -0.007,0.4949 -0.0355,0.016 -0.0639,0.0517 -0.10624,0.0496 z"
       id="path4561-6-2-9-1-4-4-6-2"
       inkscape:connector-curvature="0" />
    <path
       style="fill:#373737;stroke-width:1.33333337"
       d="m 553.02804,463.8972 c -0.19962,-0.077 -0.34114,-0.26019 -0.55415,-0.30658 -0.12933,-0.0516 -0.29929,-0.11078 -0.28109,-0.26802 -0.12495,-0.0572 -0.28631,0.002 -0.36804,-0.14665 -0.21677,-0.0442 -0.41451,-0.14699 -0.60206,-0.26373 -0.14549,-0.0117 -0.0401,-0.2806 -0.23366,-0.22741 -0.15985,0.11165 -0.29843,-0.1067 -0.44332,-0.15259 -0.14671,-0.10352 -0.31384,-0.17296 -0.47067,-0.2553 -0.1377,-0.18472 0.19774,-0.28139 0.32109,-0.35268 0.1982,-0.0577 0.33801,-0.25001 0.53951,-0.27858 0.14026,0.12968 0.18934,-0.0597 0.20009,-0.17296 0.15537,-0.0885 0.34791,-0.13908 0.48999,-0.26371 0.12254,-0.0567 0.2597,-0.22269 0.3796,-0.19749 0.12318,0.10261 0.22875,-0.0245 0.199,-0.15083 0.10018,-0.0852 0.23294,-0.13518 0.34415,-0.21013 0.12735,-0.0684 0.2504,-0.15473 0.39032,-0.19287 0.20186,-0.002 0.17336,0.23084 0.21779,0.36437 0.0196,0.17177 10e-5,0.34442 0.013,0.51641 0.009,0.12216 -0.25374,0.17635 -0.0823,0.28467 0.13874,0.0706 0.0499,0.23413 0.0758,0.3555 0.0123,0.19244 -0.0343,0.38253 -0.015,0.57445 0.0323,0.14005 -0.23491,0.21357 -0.0546,0.32488 0.13522,0.086 0.0528,0.3291 0.048,0.4748 -0.0666,0.15823 0.0303,0.32942 -0.007,0.4949 -0.0355,0.016 -0.0639,0.0517 -0.10624,0.0496 z"
       id="path4561-6-2-9-1-4-44-4-1"
       inkscape:connector-curvature="0" />
    <path
       style="fill:#373737;stroke-width:1.33333337"
       d="m 552.63117,458.07637 c -0.19962,-0.077 -0.34114,-0.26019 -0.55415,-0.30658 -0.12933,-0.0516 -0.29929,-0.11078 -0.28109,-0.26802 -0.12495,-0.0572 -0.28631,0.002 -0.36804,-0.14665 -0.21677,-0.0442 -0.41451,-0.14699 -0.60206,-0.26373 -0.14549,-0.0117 -0.0401,-0.2806 -0.23366,-0.22741 -0.15985,0.11165 -0.29843,-0.1067 -0.44332,-0.15259 -0.14671,-0.10352 -0.31384,-0.17296 -0.47067,-0.2553 -0.1377,-0.18472 0.19774,-0.28139 0.32109,-0.35268 0.1982,-0.0577 0.33801,-0.25001 0.53951,-0.27858 0.14026,0.12968 0.18934,-0.0597 0.20009,-0.17296 0.15537,-0.0885 0.34791,-0.13908 0.48999,-0.26371 0.12254,-0.0567 0.2597,-0.22269 0.3796,-0.19749 0.12318,0.10261 0.22875,-0.0245 0.199,-0.15083 0.10018,-0.0852 0.23294,-0.13518 0.34415,-0.21013 0.12735,-0.0684 0.2504,-0.15473 0.39032,-0.19287 0.20186,-0.002 0.17336,0.23084 0.21779,0.36437 0.0196,0.17177 10e-5,0.34442 0.013,0.51641 0.009,0.12216 -0.25374,0.17635 -0.0823,0.28467 0.13874,0.0706 0.0499,0.23413 0.0758,0.3555 0.0123,0.19244 -0.0343,0.38253 -0.015,0.57445 0.0323,0.14005 -0.23491,0.21357 -0.0546,0.32488 0.13522,0.086 0.0528,0.3291 0.048,0.4748 -0.0666,0.15823 0.0303,0.32942 -0.007,0.4949 -0.0355,0.016 -0.0639,0.0517 -0.10624,0.0496 z"
       id="path4561-6-2-9-1-4-6-0-5-7"
       inkscape:connector-curvature="0" />
    <path
       style="fill:#373737;stroke-width:1.33333337"
       d="m 560.42719,503.95669 c -0.19962,-0.077 -0.34114,-0.26019 -0.55415,-0.30658 -0.12933,-0.0516 -0.29929,-0.11078 -0.28109,-0.26802 -0.12495,-0.0572 -0.28631,0.002 -0.36804,-0.14665 -0.21677,-0.0442 -0.41451,-0.14699 -0.60206,-0.26373 -0.14549,-0.0117 -0.0401,-0.2806 -0.23366,-0.22741 -0.15985,0.11165 -0.29843,-0.1067 -0.44332,-0.15259 -0.14671,-0.10352 -0.31384,-0.17296 -0.47067,-0.2553 -0.1377,-0.18472 0.19774,-0.28139 0.32109,-0.35268 0.1982,-0.0577 0.33801,-0.25001 0.53951,-0.27858 0.14026,0.12968 0.18934,-0.0597 0.20009,-0.17296 0.15537,-0.0885 0.34791,-0.13908 0.48999,-0.26371 0.12254,-0.0567 0.2597,-0.22269 0.3796,-0.19749 0.12318,0.10261 0.22875,-0.0245 0.199,-0.15083 0.10018,-0.0852 0.23294,-0.13518 0.34415,-0.21013 0.12735,-0.0684 0.2504,-0.15473 0.39032,-0.19287 0.20186,-0.002 0.17336,0.23084 0.21779,0.36437 0.0196,0.17177 10e-5,0.34442 0.013,0.51641 0.009,0.12216 -0.25374,0.17635 -0.0823,0.28467 0.13874,0.0706 0.0499,0.23413 0.0758,0.3555 0.0123,0.19244 -0.0343,0.38253 -0.015,0.57445 0.0323,0.14005 -0.23491,0.21357 -0.0546,0.32488 0.13522,0.086 0.0528,0.3291 0.048,0.4748 -0.0666,0.15823 0.0303,0.32942 -0.007,0.4949 -0.0355,0.016 -0.0639,0.0517 -0.10624,0.0496 z"
       id="path4561-6-2-9-1-8-1-2-3"
       inkscape:connector-curvature="0" />
    <path
       style="fill:#373737;stroke-width:1.33333337"
       d="m 566.56405,504.23795 c -0.19962,-0.077 -0.34114,-0.26019 -0.55415,-0.30658 -0.12933,-0.0516 -0.29929,-0.11078 -0.28109,-0.26802 -0.12495,-0.0572 -0.28631,0.002 -0.36804,-0.14665 -0.21677,-0.0442 -0.41451,-0.14699 -0.60206,-0.26373 -0.14549,-0.0117 -0.0401,-0.2806 -0.23366,-0.22741 -0.15985,0.11165 -0.29843,-0.1067 -0.44332,-0.15259 -0.14671,-0.10352 -0.31384,-0.17296 -0.47067,-0.2553 -0.1377,-0.18472 0.19774,-0.28139 0.32109,-0.35268 0.1982,-0.0577 0.33801,-0.25001 0.53951,-0.27858 0.14026,0.12968 0.18934,-0.0597 0.20009,-0.17296 0.15537,-0.0885 0.34791,-0.13908 0.48999,-0.26371 0.12254,-0.0567 0.2597,-0.22269 0.3796,-0.19749 0.12318,0.10261 0.22875,-0.0245 0.199,-0.15083 0.10018,-0.0852 0.23294,-0.13518 0.34415,-0.21013 0.12735,-0.0684 0.2504,-0.15473 0.39032,-0.19287 0.20186,-0.002 0.17336,0.23084 0.21779,0.36437 0.0196,0.17177 10e-5,0.34442 0.013,0.51641 0.009,0.12216 -0.25374,0.17635 -0.0823,0.28467 0.13874,0.0706 0.0499,0.23413 0.0758,0.3555 0.0123,0.19244 -0.0343,0.38253 -0.015,0.57445 0.0323,0.14005 -0.23491,0.21357 -0.0546,0.32488 0.13522,0.086 0.0528,0.3291 0.048,0.4748 -0.0666,0.15823 0.0303,0.32942 -0.007,0.4949 -0.0355,0.016 -0.0639,0.0517 -0.10624,0.0496 z"
       id="path4561-6-2-9-1-8-1-2-6-4"
       inkscape:connector-curvature="0" />
    <path
       style="fill:#373737;stroke-width:1.33333337"
       d="m 571.45884,504.37024 c -0.19962,-0.077 -0.34114,-0.26019 -0.55415,-0.30658 -0.12933,-0.0516 -0.29929,-0.11078 -0.28109,-0.26802 -0.12495,-0.0572 -0.28631,0.002 -0.36804,-0.14665 -0.21677,-0.0442 -0.41451,-0.14699 -0.60206,-0.26373 -0.14549,-0.0117 -0.0401,-0.2806 -0.23366,-0.22741 -0.15985,0.11165 -0.29843,-0.1067 -0.44332,-0.15259 -0.14671,-0.10352 -0.31384,-0.17296 -0.47067,-0.2553 -0.1377,-0.18472 0.19774,-0.28139 0.32109,-0.35268 0.1982,-0.0577 0.33801,-0.25001 0.53951,-0.27858 0.14026,0.12968 0.18934,-0.0597 0.20009,-0.17296 0.15537,-0.0885 0.34791,-0.13908 0.48999,-0.26371 0.12254,-0.0567 0.2597,-0.22269 0.3796,-0.19749 0.12318,0.10261 0.22875,-0.0245 0.199,-0.15083 0.10018,-0.0852 0.23294,-0.13518 0.34415,-0.21013 0.12735,-0.0684 0.2504,-0.15473 0.39032,-0.19287 0.20186,-0.002 0.17336,0.23084 0.21779,0.36437 0.0196,0.17177 10e-5,0.34442 0.013,0.51641 0.009,0.12216 -0.25374,0.17635 -0.0823,0.28467 0.13874,0.0706 0.0499,0.23413 0.0758,0.3555 0.0123,0.19244 -0.0343,0.38253 -0.015,0.57445 0.0323,0.14005 -0.23491,0.21357 -0.0546,0.32488 0.13522,0.086 0.0528,0.3291 0.048,0.4748 -0.0666,0.15823 0.0303,0.32942 -0.007,0.4949 -0.0355,0.016 -0.0639,0.0517 -0.10624,0.0496 z"
       id="path4561-6-2-9-1-8-1-2-5-3"
       inkscape:connector-curvature="0" />
    <path
       style="fill:#373737;stroke-width:1.33333337"
       d="m 576.94894,501.59211 c -0.19962,-0.077 -0.34114,-0.26019 -0.55415,-0.30658 -0.12933,-0.0516 -0.29929,-0.11078 -0.28109,-0.26802 -0.12495,-0.0572 -0.28631,0.002 -0.36804,-0.14665 -0.21677,-0.0442 -0.41451,-0.14699 -0.60206,-0.26373 -0.14549,-0.0117 -0.0401,-0.2806 -0.23366,-0.22741 -0.15985,0.11165 -0.29843,-0.1067 -0.44332,-0.15259 -0.14671,-0.10352 -0.31384,-0.17296 -0.47067,-0.2553 -0.1377,-0.18472 0.19774,-0.28139 0.32109,-0.35268 0.1982,-0.0577 0.33801,-0.25001 0.53951,-0.27858 0.14026,0.12968 0.18934,-0.0597 0.20009,-0.17296 0.15537,-0.0885 0.34791,-0.13908 0.48999,-0.26371 0.12254,-0.0567 0.2597,-0.22269 0.3796,-0.19749 0.12318,0.10261 0.22875,-0.0245 0.199,-0.15083 0.10018,-0.0852 0.23294,-0.13518 0.34415,-0.21013 0.12735,-0.0684 0.2504,-0.15473 0.39032,-0.19287 0.20186,-0.002 0.17336,0.23084 0.21779,0.36437 0.0196,0.17177 10e-5,0.34442 0.013,0.51641 0.009,0.12216 -0.25374,0.17635 -0.0823,0.28467 0.13874,0.0706 0.0499,0.23413 0.0758,0.3555 0.0123,0.19244 -0.0343,0.38253 -0.015,0.57445 0.0323,0.14005 -0.23491,0.21357 -0.0546,0.32488 0.13522,0.086 0.0528,0.3291 0.048,0.4748 -0.0666,0.15823 0.0303,0.32942 -0.007,0.4949 -0.0355,0.016 -0.0639,0.0517 -0.10624,0.0496 z"
       id="path4561-6-2-9-1-8-1-2-62-6"
       inkscape:connector-curvature="0" />
    <path
       style="fill:#373737;stroke-width:1.33333337"
       d="m 561.75011,549.20045 c -0.19962,-0.077 -0.34114,-0.26019 -0.55415,-0.30658 -0.12933,-0.0516 -0.29929,-0.11078 -0.28109,-0.26802 -0.12495,-0.0572 -0.28631,0.002 -0.36804,-0.14665 -0.21677,-0.0442 -0.41451,-0.14699 -0.60206,-0.26373 -0.14549,-0.0117 -0.0401,-0.2806 -0.23366,-0.22741 -0.15985,0.11165 -0.29843,-0.1067 -0.44332,-0.15259 -0.14671,-0.10352 -0.31384,-0.17296 -0.47067,-0.2553 -0.1377,-0.18472 0.19774,-0.28139 0.32109,-0.35268 0.1982,-0.0577 0.33801,-0.25001 0.53951,-0.27858 0.14026,0.12968 0.18934,-0.0597 0.20009,-0.17296 0.15537,-0.0885 0.34791,-0.13908 0.48999,-0.26371 0.12254,-0.0567 0.2597,-0.22269 0.3796,-0.19749 0.12318,0.10261 0.22875,-0.0245 0.199,-0.15083 0.10018,-0.0852 0.23294,-0.13518 0.34415,-0.21013 0.12735,-0.0684 0.2504,-0.15473 0.39032,-0.19287 0.20186,-0.002 0.17336,0.23084 0.21779,0.36437 0.0196,0.17177 1e-4,0.34442 0.013,0.51641 0.009,0.12216 -0.25374,0.17635 -0.0823,0.28467 0.13874,0.0706 0.0499,0.23413 0.0758,0.3555 0.0123,0.19244 -0.0343,0.38253 -0.015,0.57445 0.0323,0.14005 -0.23491,0.21357 -0.0546,0.32488 0.13522,0.086 0.0528,0.3291 0.048,0.4748 -0.0666,0.15823 0.0303,0.32942 -0.007,0.4949 -0.0355,0.016 -0.0639,0.0517 -0.10624,0.0496 z"
       id="path4561-6-2-9-1-8-1-2-9"
       inkscape:connector-curvature="0" />
    <path
       style="fill:#373737;stroke-width:1.33333337"
       d="m 567.88697,549.48171 c -0.19962,-0.077 -0.34114,-0.26019 -0.55415,-0.30658 -0.12933,-0.0516 -0.29929,-0.11078 -0.28109,-0.26802 -0.12495,-0.0572 -0.28631,0.002 -0.36804,-0.14665 -0.21677,-0.0442 -0.41451,-0.14699 -0.60206,-0.26373 -0.14549,-0.0117 -0.0401,-0.2806 -0.23366,-0.22741 -0.15985,0.11165 -0.29843,-0.1067 -0.44332,-0.15259 -0.14671,-0.10352 -0.31384,-0.17296 -0.47067,-0.2553 -0.1377,-0.18472 0.19774,-0.28139 0.32109,-0.35268 0.1982,-0.0577 0.33801,-0.25001 0.53951,-0.27858 0.14026,0.12968 0.18934,-0.0597 0.20009,-0.17296 0.15537,-0.0885 0.34791,-0.13908 0.48999,-0.26371 0.12254,-0.0567 0.2597,-0.22269 0.3796,-0.19749 0.12318,0.10261 0.22875,-0.0245 0.199,-0.15083 0.10018,-0.0852 0.23294,-0.13518 0.34415,-0.21013 0.12735,-0.0684 0.2504,-0.15473 0.39032,-0.19287 0.20186,-0.002 0.17336,0.23084 0.21779,0.36437 0.0196,0.17177 10e-5,0.34442 0.013,0.51641 0.009,0.12216 -0.25374,0.17635 -0.0823,0.28467 0.13874,0.0706 0.0499,0.23413 0.0758,0.3555 0.0123,0.19244 -0.0343,0.38253 -0.015,0.57445 0.0323,0.14005 -0.23491,0.21357 -0.0546,0.32488 0.13522,0.086 0.0528,0.3291 0.048,0.4748 -0.0666,0.15823 0.0303,0.32942 -0.007,0.4949 -0.0355,0.016 -0.0639,0.0517 -0.10624,0.0496 z"
       id="path4561-6-2-9-1-8-1-2-6-9"
       inkscape:connector-curvature="0" />
    <path
       style="fill:#373737;stroke-width:1.33333337"
       d="m 572.78176,549.614 c -0.19962,-0.077 -0.34114,-0.26019 -0.55415,-0.30658 -0.12933,-0.0516 -0.29929,-0.11078 -0.28109,-0.26802 -0.12495,-0.0572 -0.28631,0.002 -0.36804,-0.14665 -0.21677,-0.0442 -0.41451,-0.14699 -0.60206,-0.26373 -0.14549,-0.0117 -0.0401,-0.2806 -0.23366,-0.22741 -0.15985,0.11165 -0.29843,-0.1067 -0.44332,-0.15259 -0.14671,-0.10352 -0.31384,-0.17296 -0.47067,-0.2553 -0.1377,-0.18472 0.19774,-0.28139 0.32109,-0.35268 0.1982,-0.0577 0.33801,-0.25001 0.53951,-0.27858 0.14026,0.12968 0.18934,-0.0597 0.20009,-0.17296 0.15537,-0.0885 0.34791,-0.13908 0.48999,-0.26371 0.12254,-0.0567 0.2597,-0.22269 0.3796,-0.19749 0.12318,0.10261 0.22875,-0.0245 0.199,-0.15083 0.10018,-0.0852 0.23294,-0.13518 0.34415,-0.21013 0.12735,-0.0684 0.2504,-0.15473 0.39032,-0.19287 0.20186,-0.002 0.17336,0.23084 0.21779,0.36437 0.0196,0.17177 10e-5,0.34442 0.013,0.51641 0.009,0.12216 -0.25374,0.17635 -0.0823,0.28467 0.13874,0.0706 0.0499,0.23413 0.0758,0.3555 0.0123,0.19244 -0.0343,0.38253 -0.015,0.57445 0.0323,0.14005 -0.23491,0.21357 -0.0546,0.32488 0.13522,0.086 0.0528,0.3291 0.048,0.4748 -0.0666,0.15823 0.0303,0.32942 -0.007,0.4949 -0.0355,0.016 -0.0639,0.0517 -0.10624,0.0496 z"
       id="path4561-6-2-9-1-8-1-2-5-8"
       inkscape:connector-curvature="0" />
    <path
       style="fill:#373737;stroke-width:1.33333337"
       d="m 578.27186,549.21712 c -0.19962,-0.077 -0.34114,-0.26019 -0.55415,-0.30658 -0.12933,-0.0516 -0.29929,-0.11078 -0.28109,-0.26802 -0.12495,-0.0572 -0.28631,0.002 -0.36804,-0.14665 -0.21677,-0.0442 -0.41451,-0.14699 -0.60206,-0.26373 -0.14549,-0.0117 -0.0401,-0.2806 -0.23366,-0.22741 -0.15985,0.11165 -0.29843,-0.1067 -0.44332,-0.15259 -0.14671,-0.10352 -0.31384,-0.17296 -0.47067,-0.2553 -0.1377,-0.18472 0.19774,-0.28139 0.32109,-0.35268 0.1982,-0.0577 0.33801,-0.25001 0.53951,-0.27858 0.14026,0.12968 0.18934,-0.0597 0.20009,-0.17296 0.15537,-0.0885 0.34791,-0.13908 0.48999,-0.26371 0.12254,-0.0567 0.2597,-0.22269 0.3796,-0.19749 0.12318,0.10261 0.22875,-0.0245 0.199,-0.15083 0.10018,-0.0852 0.23294,-0.13518 0.34415,-0.21013 0.12735,-0.0684 0.2504,-0.15473 0.39032,-0.19287 0.20186,-0.002 0.17336,0.23084 0.21779,0.36437 0.0196,0.17177 1e-4,0.34442 0.013,0.51641 0.009,0.12216 -0.25374,0.17635 -0.0823,0.28467 0.13874,0.0706 0.0499,0.23413 0.0758,0.3555 0.0123,0.19244 -0.0343,0.38253 -0.015,0.57445 0.0323,0.14005 -0.23491,0.21357 -0.0546,0.32488 0.13522,0.086 0.0528,0.3291 0.048,0.4748 -0.0666,0.15823 0.0303,0.32942 -0.007,0.4949 -0.0355,0.016 -0.0639,0.0517 -0.10624,0.0496 z"
       id="path4561-6-2-9-1-8-1-2-62-1"
       inkscape:connector-curvature="0" />
    <path
       style="fill:#373737;stroke-width:1.33333337"
       d="m 559.63345,457.65462 c -0.19962,-0.077 -0.34114,-0.26019 -0.55415,-0.30658 -0.12933,-0.0516 -0.29929,-0.11078 -0.28109,-0.26802 -0.12495,-0.0572 -0.28631,0.002 -0.36804,-0.14665 -0.21677,-0.0442 -0.41451,-0.14699 -0.60206,-0.26373 -0.14549,-0.0117 -0.0401,-0.2806 -0.23366,-0.22741 -0.15985,0.11165 -0.29843,-0.1067 -0.44332,-0.15259 -0.14671,-0.10352 -0.31384,-0.17296 -0.47067,-0.2553 -0.1377,-0.18472 0.19774,-0.28139 0.32109,-0.35268 0.1982,-0.0577 0.33801,-0.25001 0.53951,-0.27858 0.14026,0.12968 0.18934,-0.0597 0.20009,-0.17296 0.15537,-0.0885 0.34791,-0.13908 0.48999,-0.26371 0.12254,-0.0567 0.2597,-0.22269 0.3796,-0.19749 0.12318,0.10261 0.22875,-0.0245 0.199,-0.15083 0.10018,-0.0852 0.23294,-0.13518 0.34415,-0.21013 0.12735,-0.0684 0.2504,-0.15473 0.39032,-0.19287 0.20186,-0.002 0.17336,0.23084 0.21779,0.36437 0.0196,0.17177 1e-4,0.34442 0.013,0.51641 0.009,0.12216 -0.25374,0.17635 -0.0823,0.28467 0.13874,0.0706 0.0499,0.23413 0.0758,0.3555 0.0123,0.19244 -0.0343,0.38253 -0.015,0.57445 0.0323,0.14005 -0.23491,0.21357 -0.0546,0.32488 0.13522,0.086 0.0528,0.3291 0.048,0.4748 -0.0666,0.15823 0.0303,0.32942 -0.007,0.4949 -0.0355,0.016 -0.0639,0.0517 -0.10624,0.0496 z"
       id="path4561-6-2-9-1-8-1-2-1"
       inkscape:connector-curvature="0" />
    <path
       style="fill:#373737;stroke-width:1.33333337"
       d="m 565.77031,457.93588 c -0.19962,-0.077 -0.34114,-0.26019 -0.55415,-0.30658 -0.12933,-0.0516 -0.29929,-0.11078 -0.28109,-0.26802 -0.12495,-0.0572 -0.28631,0.002 -0.36804,-0.14665 -0.21677,-0.0442 -0.41451,-0.14699 -0.60206,-0.26373 -0.14549,-0.0117 -0.0401,-0.2806 -0.23366,-0.22741 -0.15985,0.11165 -0.29843,-0.1067 -0.44332,-0.15259 -0.14671,-0.10352 -0.31384,-0.17296 -0.47067,-0.2553 -0.1377,-0.18472 0.19774,-0.28139 0.32109,-0.35268 0.1982,-0.0577 0.33801,-0.25001 0.53951,-0.27858 0.14026,0.12968 0.18934,-0.0597 0.20009,-0.17296 0.15537,-0.0885 0.34791,-0.13908 0.48999,-0.26371 0.12254,-0.0567 0.2597,-0.22269 0.3796,-0.19749 0.12318,0.10261 0.22875,-0.0245 0.199,-0.15083 0.10018,-0.0852 0.23294,-0.13518 0.34415,-0.21013 0.12735,-0.0684 0.2504,-0.15473 0.39032,-0.19287 0.20186,-0.002 0.17336,0.23084 0.21779,0.36437 0.0196,0.17177 10e-5,0.34442 0.013,0.51641 0.009,0.12216 -0.25374,0.17635 -0.0823,0.28467 0.13874,0.0706 0.0499,0.23413 0.0758,0.3555 0.0123,0.19244 -0.0343,0.38253 -0.015,0.57445 0.0323,0.14005 -0.23491,0.21357 -0.0546,0.32488 0.13522,0.086 0.0528,0.3291 0.048,0.4748 -0.0666,0.15823 0.0303,0.32942 -0.007,0.4949 -0.0355,0.016 -0.0639,0.0517 -0.10624,0.0496 z"
       id="path4561-6-2-9-1-8-1-2-6-1"
       inkscape:connector-curvature="0" />
    <path
       style="fill:#373737;stroke-width:1.33333337"
       d="m 570.6651,458.06817 c -0.19962,-0.077 -0.34114,-0.26019 -0.55415,-0.30658 -0.12933,-0.0516 -0.29929,-0.11078 -0.28109,-0.26802 -0.12495,-0.0572 -0.28631,0.002 -0.36804,-0.14665 -0.21677,-0.0442 -0.41451,-0.14699 -0.60206,-0.26373 -0.14549,-0.0117 -0.0401,-0.2806 -0.23366,-0.22741 -0.15985,0.11165 -0.29843,-0.1067 -0.44332,-0.15259 -0.14671,-0.10352 -0.31384,-0.17296 -0.47067,-0.2553 -0.1377,-0.18472 0.19774,-0.28139 0.32109,-0.35268 0.1982,-0.0577 0.33801,-0.25001 0.53951,-0.27858 0.14026,0.12968 0.18934,-0.0597 0.20009,-0.17296 0.15537,-0.0885 0.34791,-0.13908 0.48999,-0.26371 0.12254,-0.0567 0.2597,-0.22269 0.3796,-0.19749 0.12318,0.10261 0.22875,-0.0245 0.199,-0.15083 0.10018,-0.0852 0.23294,-0.13518 0.34415,-0.21013 0.12735,-0.0684 0.2504,-0.15473 0.39032,-0.19287 0.20186,-0.002 0.17336,0.23084 0.21779,0.36437 0.0196,0.17177 1e-4,0.34442 0.013,0.51641 0.009,0.12216 -0.25374,0.17635 -0.0823,0.28467 0.13874,0.0706 0.0499,0.23413 0.0758,0.3555 0.0123,0.19244 -0.0343,0.38253 -0.015,0.57445 0.0323,0.14005 -0.23491,0.21357 -0.0546,0.32488 0.13522,0.086 0.0528,0.3291 0.048,0.4748 -0.0666,0.15823 0.0303,0.32942 -0.007,0.4949 -0.0355,0.016 -0.0639,0.0517 -0.10624,0.0496 z"
       id="path4561-6-2-9-1-8-1-2-5-84"
       inkscape:connector-curvature="0" />
    <path
       style="fill:#373737;stroke-width:1.33333337"
       d="m 576.68437,463.75671 c -0.19962,-0.077 -0.34114,-0.26019 -0.55415,-0.30658 -0.12933,-0.0516 -0.29929,-0.11078 -0.28109,-0.26802 -0.12495,-0.0572 -0.28631,0.002 -0.36804,-0.14665 -0.21677,-0.0442 -0.41451,-0.14699 -0.60206,-0.26373 -0.14549,-0.0117 -0.0401,-0.2806 -0.23366,-0.22741 -0.15985,0.11165 -0.29843,-0.1067 -0.44332,-0.15259 -0.14671,-0.10352 -0.31384,-0.17296 -0.47067,-0.2553 -0.1377,-0.18472 0.19774,-0.28139 0.32109,-0.35268 0.1982,-0.0577 0.33801,-0.25001 0.53951,-0.27858 0.14026,0.12968 0.18934,-0.0597 0.20009,-0.17296 0.15537,-0.0885 0.34791,-0.13908 0.48999,-0.26371 0.12254,-0.0567 0.2597,-0.22269 0.3796,-0.19749 0.12318,0.10261 0.22875,-0.0245 0.199,-0.15083 0.10018,-0.0852 0.23294,-0.13518 0.34415,-0.21013 0.12735,-0.0684 0.2504,-0.15473 0.39032,-0.19287 0.20186,-0.002 0.17336,0.23084 0.21779,0.36437 0.0196,0.17177 1e-4,0.34442 0.013,0.51641 0.009,0.12216 -0.25374,0.17635 -0.0823,0.28467 0.13874,0.0706 0.0499,0.23413 0.0758,0.3555 0.0123,0.19244 -0.0343,0.38253 -0.015,0.57445 0.0323,0.14005 -0.23491,0.21357 -0.0546,0.32488 0.13522,0.086 0.0528,0.3291 0.048,0.4748 -0.0666,0.15823 0.0303,0.32942 -0.007,0.4949 -0.0355,0.016 -0.0639,0.0517 -0.10624,0.0496 z"
       id="path4561-6-2-9-1-8-1-2-62-9"
       inkscape:connector-curvature="0" />
    <path
       style="fill:#373737;stroke-width:1.33333337"
       d="m 581.12349,471.09056 c -0.19962,-0.077 -0.34114,-0.26019 -0.55415,-0.30658 -0.12933,-0.0516 -0.29929,-0.11078 -0.28109,-0.26802 -0.12495,-0.0572 -0.28631,0.002 -0.36804,-0.14665 -0.21677,-0.0442 -0.41451,-0.14699 -0.60206,-0.26373 -0.14549,-0.0117 -0.0401,-0.2806 -0.23366,-0.22741 -0.15985,0.11165 -0.29843,-0.1067 -0.44332,-0.15259 -0.14671,-0.10352 -0.31384,-0.17296 -0.47067,-0.2553 -0.1377,-0.18472 0.19774,-0.28139 0.32109,-0.35268 0.1982,-0.0577 0.33801,-0.25001 0.53951,-0.27858 0.14026,0.12968 0.18934,-0.0597 0.20009,-0.17296 0.15537,-0.0885 0.34791,-0.13908 0.48999,-0.26371 0.12254,-0.0567 0.2597,-0.22269 0.3796,-0.19749 0.12318,0.10261 0.22875,-0.0245 0.199,-0.15083 0.10018,-0.0852 0.23294,-0.13518 0.34415,-0.21013 0.12735,-0.0684 0.2504,-0.15473 0.39032,-0.19287 0.20186,-0.002 0.17336,0.23084 0.21779,0.36437 0.0196,0.17177 1e-4,0.34442 0.013,0.51641 0.009,0.12216 -0.25374,0.17635 -0.0823,0.28467 0.13874,0.0706 0.0499,0.23413 0.0758,0.3555 0.0123,0.19244 -0.0343,0.38253 -0.015,0.57445 0.0323,0.14005 -0.23491,0.21357 -0.0546,0.32488 0.13522,0.086 0.0528,0.3291 0.048,0.4748 -0.0666,0.15823 0.0303,0.32942 -0.007,0.4949 -0.0355,0.016 -0.0639,0.0517 -0.10624,0.0496 z"
       id="path4561-6-2-9-1-8-1-2-62-9-3"
       inkscape:connector-curvature="0" />
    <path
       style="fill:#373737;stroke-width:1.33333337"
       d="m 580.8589,495.69681 c -0.19962,-0.077 -0.34114,-0.26019 -0.55415,-0.30658 -0.12933,-0.0516 -0.29929,-0.11078 -0.28109,-0.26802 -0.12495,-0.0572 -0.28631,0.002 -0.36804,-0.14665 -0.21677,-0.0442 -0.41451,-0.14699 -0.60206,-0.26373 -0.14549,-0.0117 -0.0401,-0.2806 -0.23366,-0.22741 -0.15985,0.11165 -0.29843,-0.1067 -0.44332,-0.15259 -0.14671,-0.10352 -0.31384,-0.17296 -0.47067,-0.2553 -0.1377,-0.18472 0.19774,-0.28139 0.32109,-0.35268 0.1982,-0.0577 0.33801,-0.25001 0.53951,-0.27858 0.14026,0.12968 0.18934,-0.0597 0.20009,-0.17296 0.15537,-0.0885 0.34791,-0.13908 0.48999,-0.26371 0.12254,-0.0567 0.2597,-0.22269 0.3796,-0.19749 0.12318,0.10261 0.22875,-0.0245 0.199,-0.15083 0.10018,-0.0852 0.23294,-0.13518 0.34415,-0.21013 0.12735,-0.0684 0.2504,-0.15473 0.39032,-0.19287 0.20186,-0.002 0.17336,0.23084 0.21779,0.36437 0.0196,0.17177 1e-4,0.34442 0.013,0.51641 0.009,0.12216 -0.25374,0.17635 -0.0823,0.28467 0.13874,0.0706 0.0499,0.23413 0.0758,0.3555 0.0123,0.19244 -0.0343,0.38253 -0.015,0.57445 0.0323,0.14005 -0.23491,0.21357 -0.0546,0.32488 0.13522,0.086 0.0528,0.3291 0.048,0.4748 -0.0666,0.15823 0.0303,0.32942 -0.007,0.4949 -0.0355,0.016 -0.0639,0.0517 -0.10624,0.0496 z"
       id="path4561-6-2-9-1-8-1-2-62-9-8"
       inkscape:connector-curvature="0" />
    <path
       style="fill:#373737;stroke-width:1.33333337"
       d="m 581.88416,484.68352 c -0.19962,-0.077 -0.34114,-0.26019 -0.55415,-0.30658 -0.12933,-0.0516 -0.29929,-0.11078 -0.28109,-0.26802 -0.12495,-0.0572 -0.28631,0.002 -0.36804,-0.14665 -0.21677,-0.0442 -0.41451,-0.14699 -0.60206,-0.26373 -0.14549,-0.0117 -0.0401,-0.2806 -0.23366,-0.22741 -0.15985,0.11165 -0.29843,-0.1067 -0.44332,-0.15259 -0.14671,-0.10352 -0.31384,-0.17296 -0.47067,-0.2553 -0.1377,-0.18472 0.19774,-0.28139 0.32109,-0.35268 0.1982,-0.0577 0.33801,-0.25001 0.53951,-0.27858 0.14026,0.12968 0.18934,-0.0597 0.20009,-0.17296 0.15537,-0.0885 0.34791,-0.13908 0.48999,-0.26371 0.12254,-0.0567 0.2597,-0.22269 0.3796,-0.19749 0.12318,0.10261 0.22875,-0.0245 0.199,-0.15083 0.10018,-0.0852 0.23294,-0.13518 0.34415,-0.21013 0.12735,-0.0684 0.2504,-0.15473 0.39032,-0.19287 0.20186,-0.002 0.17336,0.23084 0.21779,0.36437 0.0196,0.17177 10e-5,0.34442 0.013,0.51641 0.009,0.12216 -0.25374,0.17635 -0.0823,0.28467 0.13874,0.0706 0.0499,0.23413 0.0758,0.3555 0.0123,0.19244 -0.0343,0.38253 -0.015,0.57445 0.0323,0.14005 -0.23491,0.21357 -0.0546,0.32488 0.13522,0.086 0.0528,0.3291 0.048,0.4748 -0.0666,0.15823 0.0303,0.32942 -0.007,0.4949 -0.0355,0.016 -0.0639,0.0517 -0.10624,0.0496 z"
       id="path4561-6-2-9-1-4-4-9-6-4-5"
       inkscape:connector-curvature="0" />
    <path
       style="fill:#373737;stroke-width:1.33333337"
       d="m 581.95031,478.13508 c -0.19962,-0.077 -0.34114,-0.26019 -0.55415,-0.30658 -0.12933,-0.0516 -0.29929,-0.11078 -0.28109,-0.26802 -0.12495,-0.0572 -0.28631,0.002 -0.36804,-0.14665 -0.21677,-0.0442 -0.41451,-0.14699 -0.60206,-0.26373 -0.14549,-0.0117 -0.0401,-0.2806 -0.23366,-0.22741 -0.15985,0.11165 -0.29843,-0.1067 -0.44332,-0.15259 -0.14671,-0.10352 -0.31384,-0.17296 -0.47067,-0.2553 -0.1377,-0.18472 0.19774,-0.28139 0.32109,-0.35268 0.1982,-0.0577 0.33801,-0.25001 0.53951,-0.27858 0.14026,0.12968 0.18934,-0.0597 0.20009,-0.17296 0.15537,-0.0885 0.34791,-0.13908 0.48999,-0.26371 0.12254,-0.0567 0.2597,-0.22269 0.3796,-0.19749 0.12318,0.10261 0.22875,-0.0245 0.199,-0.15083 0.10018,-0.0852 0.23294,-0.13518 0.34415,-0.21013 0.12735,-0.0684 0.2504,-0.15473 0.39032,-0.19287 0.20186,-0.002 0.17336,0.23084 0.21779,0.36437 0.0196,0.17177 1e-4,0.34442 0.013,0.51641 0.009,0.12216 -0.25374,0.17635 -0.0823,0.28467 0.13874,0.0706 0.0499,0.23413 0.0758,0.3555 0.0123,0.19244 -0.0343,0.38253 -0.015,0.57445 0.0323,0.14005 -0.23491,0.21357 -0.0546,0.32488 0.13522,0.086 0.0528,0.3291 0.048,0.4748 -0.0666,0.15823 0.0303,0.32942 -0.007,0.4949 -0.0355,0.016 -0.0639,0.0517 -0.10624,0.0496 z"
       id="path4561-6-2-9-1-4-5-9-8"
       inkscape:connector-curvature="0" />
    <path
       style="fill:#373737;stroke-width:1.33333337"
       d="m 581.91724,491.46348 c -0.19962,-0.077 -0.34114,-0.26019 -0.55415,-0.30658 -0.12933,-0.0516 -0.29929,-0.11078 -0.28109,-0.26802 -0.12495,-0.0572 -0.28631,0.002 -0.36804,-0.14665 -0.21677,-0.0442 -0.41451,-0.14699 -0.60206,-0.26373 -0.14549,-0.0117 -0.0401,-0.2806 -0.23366,-0.22741 -0.15985,0.11165 -0.29843,-0.1067 -0.44332,-0.15259 -0.14671,-0.10352 -0.31384,-0.17296 -0.47067,-0.2553 -0.1377,-0.18472 0.19774,-0.28139 0.32109,-0.35268 0.1982,-0.0577 0.33801,-0.25001 0.53951,-0.27858 0.14026,0.12968 0.18934,-0.0597 0.20009,-0.17296 0.15537,-0.0885 0.34791,-0.13908 0.48999,-0.26371 0.12254,-0.0567 0.2597,-0.22269 0.3796,-0.19749 0.12318,0.10261 0.22875,-0.0245 0.199,-0.15083 0.10018,-0.0852 0.23294,-0.13518 0.34415,-0.21013 0.12735,-0.0684 0.2504,-0.15473 0.39032,-0.19287 0.20186,-0.002 0.17336,0.23084 0.21779,0.36437 0.0196,0.17177 10e-5,0.34442 0.013,0.51641 0.009,0.12216 -0.25374,0.17635 -0.0823,0.28467 0.13874,0.0706 0.0499,0.23413 0.0758,0.3555 0.0123,0.19244 -0.0343,0.38253 -0.015,0.57445 0.0323,0.14005 -0.23491,0.21357 -0.0546,0.32488 0.13522,0.086 0.0528,0.3291 0.048,0.4748 -0.0666,0.15823 0.0303,0.32942 -0.007,0.4949 -0.0355,0.016 -0.0639,0.0517 -0.10624,0.0496 z"
       id="path4561-6-2-9-1-8-1-2-62-9-8-2"
       inkscape:connector-curvature="0" />
    <path
       style="fill:#373737;stroke-width:1.33333337"
       d="m 583.24016,506.28014 c -0.19962,-0.077 -0.34114,-0.26019 -0.55415,-0.30658 -0.12933,-0.0516 -0.29929,-0.11078 -0.28109,-0.26802 -0.12495,-0.0572 -0.28631,0.002 -0.36804,-0.14665 -0.21677,-0.0442 -0.41451,-0.14699 -0.60206,-0.26373 -0.14549,-0.0117 -0.0401,-0.2806 -0.23366,-0.22741 -0.15985,0.11165 -0.29843,-0.1067 -0.44332,-0.15259 -0.14671,-0.10352 -0.31384,-0.17296 -0.47067,-0.2553 -0.1377,-0.18472 0.19774,-0.28139 0.32109,-0.35268 0.1982,-0.0577 0.33801,-0.25001 0.53951,-0.27858 0.14026,0.12968 0.18934,-0.0597 0.20009,-0.17296 0.15537,-0.0885 0.34791,-0.13908 0.48999,-0.26371 0.12254,-0.0567 0.2597,-0.22269 0.3796,-0.19749 0.12318,0.10261 0.22875,-0.0245 0.199,-0.15083 0.10018,-0.0852 0.23294,-0.13518 0.34415,-0.21013 0.12735,-0.0684 0.2504,-0.15473 0.39032,-0.19287 0.20186,-0.002 0.17336,0.23084 0.21779,0.36437 0.0196,0.17177 1e-4,0.34442 0.013,0.51641 0.009,0.12216 -0.25374,0.17635 -0.0823,0.28467 0.13874,0.0706 0.0499,0.23413 0.0758,0.3555 0.0123,0.19244 -0.0343,0.38253 -0.015,0.57445 0.0323,0.14005 -0.23491,0.21357 -0.0546,0.32488 0.13522,0.086 0.0528,0.3291 0.048,0.4748 -0.0666,0.15823 0.0303,0.32942 -0.007,0.4949 -0.0355,0.016 -0.0639,0.0517 -0.10624,0.0496 z"
       id="path4561-6-2-9-1-8-1-2-62-9-8-4"
       inkscape:connector-curvature="0" />
    <path
       style="fill:#373737;stroke-width:1.33333337"
       d="m 587.47349,511.83639 c -0.19962,-0.077 -0.34114,-0.26019 -0.55415,-0.30658 -0.12933,-0.0516 -0.29929,-0.11078 -0.28109,-0.26802 -0.12495,-0.0572 -0.28631,0.002 -0.36804,-0.14665 -0.21677,-0.0442 -0.41451,-0.14699 -0.60206,-0.26373 -0.14549,-0.0117 -0.0401,-0.2806 -0.23366,-0.22741 -0.15985,0.11165 -0.29843,-0.1067 -0.44332,-0.15259 -0.14671,-0.10352 -0.31384,-0.17296 -0.47067,-0.2553 -0.1377,-0.18472 0.19774,-0.28139 0.32109,-0.35268 0.1982,-0.0577 0.33801,-0.25001 0.53951,-0.27858 0.14026,0.12968 0.18934,-0.0597 0.20009,-0.17296 0.15537,-0.0885 0.34791,-0.13908 0.48999,-0.26371 0.12254,-0.0567 0.2597,-0.22269 0.3796,-0.19749 0.12318,0.10261 0.22875,-0.0245 0.199,-0.15083 0.10018,-0.0852 0.23294,-0.13518 0.34415,-0.21013 0.12735,-0.0684 0.2504,-0.15473 0.39032,-0.19287 0.20186,-0.002 0.17336,0.23084 0.21779,0.36437 0.0196,0.17177 10e-5,0.34442 0.013,0.51641 0.009,0.12216 -0.25374,0.17635 -0.0823,0.28467 0.13874,0.0706 0.0499,0.23413 0.0758,0.3555 0.0123,0.19244 -0.0343,0.38253 -0.015,0.57445 0.0323,0.14005 -0.23491,0.21357 -0.0546,0.32488 0.13522,0.086 0.0528,0.3291 0.048,0.4748 -0.0666,0.15823 0.0303,0.32942 -0.007,0.4949 -0.0355,0.016 -0.0639,0.0517 -0.10624,0.0496 z"
       id="path4561-6-2-9-1-8-1-2-62-9-8-1"
       inkscape:connector-curvature="0" />
    <path
       style="fill:#373737;stroke-width:1.33333337"
       d="m 590.64849,517.92181 c -0.19962,-0.077 -0.34114,-0.26019 -0.55415,-0.30658 -0.12933,-0.0516 -0.29929,-0.11078 -0.28109,-0.26802 -0.12495,-0.0572 -0.28631,0.002 -0.36804,-0.14665 -0.21677,-0.0442 -0.41451,-0.14699 -0.60206,-0.26373 -0.14549,-0.0117 -0.0401,-0.2806 -0.23366,-0.22741 -0.15985,0.11165 -0.29843,-0.1067 -0.44332,-0.15259 -0.14671,-0.10352 -0.31384,-0.17296 -0.47067,-0.2553 -0.1377,-0.18472 0.19774,-0.28139 0.32109,-0.35268 0.1982,-0.0577 0.33801,-0.25001 0.53951,-0.27858 0.14026,0.12968 0.18934,-0.0597 0.20009,-0.17296 0.15537,-0.0885 0.34791,-0.13908 0.48999,-0.26371 0.12254,-0.0567 0.2597,-0.22269 0.3796,-0.19749 0.12318,0.10261 0.22875,-0.0245 0.199,-0.15083 0.10018,-0.0852 0.23294,-0.13518 0.34415,-0.21013 0.12735,-0.0684 0.2504,-0.15473 0.39032,-0.19287 0.20186,-0.002 0.17336,0.23084 0.21779,0.36437 0.0196,0.17177 10e-5,0.34442 0.013,0.51641 0.009,0.12216 -0.25374,0.17635 -0.0823,0.28467 0.13874,0.0706 0.0499,0.23413 0.0758,0.3555 0.0123,0.19244 -0.0343,0.38253 -0.015,0.57445 0.0323,0.14005 -0.23491,0.21357 -0.0546,0.32488 0.13522,0.086 0.0528,0.3291 0.048,0.4748 -0.0666,0.15823 0.0303,0.32942 -0.007,0.4949 -0.0355,0.016 -0.0639,0.0517 -0.10624,0.0496 z"
       id="path4561-6-2-9-1-8-1-2-62-9-8-18"
       inkscape:connector-curvature="0" />
    <path
       style="fill:#373737;stroke-width:1.33333337"
       d="m 592.23599,525.59472 c -0.19962,-0.077 -0.34114,-0.26019 -0.55415,-0.30658 -0.12933,-0.0516 -0.29929,-0.11078 -0.28109,-0.26802 -0.12495,-0.0572 -0.28631,0.002 -0.36804,-0.14665 -0.21677,-0.0442 -0.41451,-0.14699 -0.60206,-0.26373 -0.14549,-0.0117 -0.0401,-0.2806 -0.23366,-0.22741 -0.15985,0.11165 -0.29843,-0.1067 -0.44332,-0.15259 -0.14671,-0.10352 -0.31384,-0.17296 -0.47067,-0.2553 -0.1377,-0.18472 0.19774,-0.28139 0.32109,-0.35268 0.1982,-0.0577 0.33801,-0.25001 0.53951,-0.27858 0.14026,0.12968 0.18934,-0.0597 0.20009,-0.17296 0.15537,-0.0885 0.34791,-0.13908 0.48999,-0.26371 0.12254,-0.0567 0.2597,-0.22269 0.3796,-0.19749 0.12318,0.10261 0.22875,-0.0245 0.199,-0.15083 0.10018,-0.0852 0.23294,-0.13518 0.34415,-0.21013 0.12735,-0.0684 0.2504,-0.15473 0.39032,-0.19287 0.20186,-0.002 0.17336,0.23084 0.21779,0.36437 0.0196,0.17177 10e-5,0.34442 0.013,0.51641 0.009,0.12216 -0.25374,0.17635 -0.0823,0.28467 0.13874,0.0706 0.0499,0.23413 0.0758,0.3555 0.0123,0.19244 -0.0343,0.38253 -0.015,0.57445 0.0323,0.14005 -0.23491,0.21357 -0.0546,0.32488 0.13522,0.086 0.0528,0.3291 0.048,0.4748 -0.0666,0.15823 0.0303,0.32942 -0.007,0.4949 -0.0355,0.016 -0.0639,0.0517 -0.10624,0.0496 z"
       id="path4561-6-2-9-1-8-1-2-62-9-8-25"
       inkscape:connector-curvature="0" />
    <path
       style="fill:#373737;stroke-width:1.33333337"
       d="m 593.29433,532.20931 c -0.19962,-0.077 -0.34114,-0.26019 -0.55415,-0.30658 -0.12933,-0.0516 -0.29929,-0.11078 -0.28109,-0.26802 -0.12495,-0.0572 -0.28631,0.002 -0.36804,-0.14665 -0.21677,-0.0442 -0.41451,-0.14699 -0.60206,-0.26373 -0.14549,-0.0117 -0.0401,-0.2806 -0.23366,-0.22741 -0.15985,0.11165 -0.29843,-0.1067 -0.44332,-0.15259 -0.14671,-0.10352 -0.31384,-0.17296 -0.47067,-0.2553 -0.1377,-0.18472 0.19774,-0.28139 0.32109,-0.35268 0.1982,-0.0577 0.33801,-0.25001 0.53951,-0.27858 0.14026,0.12968 0.18934,-0.0597 0.20009,-0.17296 0.15537,-0.0885 0.34791,-0.13908 0.48999,-0.26371 0.12254,-0.0567 0.2597,-0.22269 0.3796,-0.19749 0.12318,0.10261 0.22875,-0.0245 0.199,-0.15083 0.10018,-0.0852 0.23294,-0.13518 0.34415,-0.21013 0.12735,-0.0684 0.2504,-0.15473 0.39032,-0.19287 0.20186,-0.002 0.17336,0.23084 0.21779,0.36437 0.0196,0.17177 1e-4,0.34442 0.013,0.51641 0.009,0.12216 -0.25374,0.17635 -0.0823,0.28467 0.13874,0.0706 0.0499,0.23413 0.0758,0.3555 0.0123,0.19244 -0.0343,0.38253 -0.015,0.57445 0.0323,0.14005 -0.23491,0.21357 -0.0546,0.32488 0.13522,0.086 0.0528,0.3291 0.048,0.4748 -0.0666,0.15823 0.0303,0.32942 -0.007,0.4949 -0.0355,0.016 -0.0639,0.0517 -0.10624,0.0496 z"
       id="path4561-6-2-9-1-8-1-2-62-9-8-8"
       inkscape:connector-curvature="0" />
    <path
       style="fill:#373737;stroke-width:1.33333337"
       d="m 591.97141,538.82389 c -0.19962,-0.077 -0.34114,-0.26019 -0.55415,-0.30658 -0.12933,-0.0516 -0.29929,-0.11078 -0.28109,-0.26802 -0.12495,-0.0572 -0.28631,0.002 -0.36804,-0.14665 -0.21677,-0.0442 -0.41451,-0.14699 -0.60206,-0.26373 -0.14549,-0.0117 -0.0401,-0.2806 -0.23366,-0.22741 -0.15985,0.11165 -0.29843,-0.1067 -0.44332,-0.15259 -0.14671,-0.10352 -0.31384,-0.17296 -0.47067,-0.2553 -0.1377,-0.18472 0.19774,-0.28139 0.32109,-0.35268 0.1982,-0.0577 0.33801,-0.25001 0.53951,-0.27858 0.14026,0.12968 0.18934,-0.0597 0.20009,-0.17296 0.15537,-0.0885 0.34791,-0.13908 0.48999,-0.26371 0.12254,-0.0567 0.2597,-0.22269 0.3796,-0.19749 0.12318,0.10261 0.22875,-0.0245 0.199,-0.15083 0.10018,-0.0852 0.23294,-0.13518 0.34415,-0.21013 0.12735,-0.0684 0.2504,-0.15473 0.39032,-0.19287 0.20186,-0.002 0.17336,0.23084 0.21779,0.36437 0.0196,0.17177 10e-5,0.34442 0.013,0.51641 0.009,0.12216 -0.25374,0.17635 -0.0823,0.28467 0.13874,0.0706 0.0499,0.23413 0.0758,0.3555 0.0123,0.19244 -0.0343,0.38253 -0.015,0.57445 0.0323,0.14005 -0.23491,0.21357 -0.0546,0.32488 0.13522,0.086 0.0528,0.3291 0.048,0.4748 -0.0666,0.15823 0.0303,0.32942 -0.007,0.4949 -0.0355,0.016 -0.0639,0.0517 -0.10624,0.0496 z"
       id="path4561-6-2-9-1-8-1-2-62-9-8-3"
       inkscape:connector-curvature="0" />
    <path
       style="fill:#373737;stroke-width:1.33333337"
       d="m 588.53183,543.85098 c -0.19962,-0.077 -0.34114,-0.26019 -0.55415,-0.30658 -0.12933,-0.0516 -0.29929,-0.11078 -0.28109,-0.26802 -0.12495,-0.0572 -0.28631,0.002 -0.36804,-0.14665 -0.21677,-0.0442 -0.41451,-0.14699 -0.60206,-0.26373 -0.14549,-0.0117 -0.0401,-0.2806 -0.23366,-0.22741 -0.15985,0.11165 -0.29843,-0.1067 -0.44332,-0.15259 -0.14671,-0.10352 -0.31384,-0.17296 -0.47067,-0.2553 -0.1377,-0.18472 0.19774,-0.28139 0.32109,-0.35268 0.1982,-0.0577 0.33801,-0.25001 0.53951,-0.27858 0.14026,0.12968 0.18934,-0.0597 0.20009,-0.17296 0.15537,-0.0885 0.34791,-0.13908 0.48999,-0.26371 0.12254,-0.0567 0.2597,-0.22269 0.3796,-0.19749 0.12318,0.10261 0.22875,-0.0245 0.199,-0.15083 0.10018,-0.0852 0.23294,-0.13518 0.34415,-0.21013 0.12735,-0.0684 0.2504,-0.15473 0.39032,-0.19287 0.20186,-0.002 0.17336,0.23084 0.21779,0.36437 0.0196,0.17177 10e-5,0.34442 0.013,0.51641 0.009,0.12216 -0.25374,0.17635 -0.0823,0.28467 0.13874,0.0706 0.0499,0.23413 0.0758,0.3555 0.0123,0.19244 -0.0343,0.38253 -0.015,0.57445 0.0323,0.14005 -0.23491,0.21357 -0.0546,0.32488 0.13522,0.086 0.0528,0.3291 0.048,0.4748 -0.0666,0.15823 0.0303,0.32942 -0.007,0.4949 -0.0355,0.016 -0.0639,0.0517 -0.10624,0.0496 z"
       id="path4561-6-2-9-1-8-1-2-62-9-8-7"
       inkscape:connector-curvature="0" />
    <path
       style="fill:#373737;stroke-width:1.33333337"
       d="m 585.09224,547.02598 c -0.19962,-0.077 -0.34114,-0.26019 -0.55415,-0.30658 -0.12933,-0.0516 -0.29929,-0.11078 -0.28109,-0.26802 -0.12495,-0.0572 -0.28631,0.002 -0.36804,-0.14665 -0.21677,-0.0442 -0.41451,-0.14699 -0.60206,-0.26373 -0.14549,-0.0117 -0.0401,-0.2806 -0.23366,-0.22741 -0.15985,0.11165 -0.29843,-0.1067 -0.44332,-0.15259 -0.14671,-0.10352 -0.31384,-0.17296 -0.47067,-0.2553 -0.1377,-0.18472 0.19774,-0.28139 0.32109,-0.35268 0.1982,-0.0577 0.33801,-0.25001 0.53951,-0.27858 0.14026,0.12968 0.18934,-0.0597 0.20009,-0.17296 0.15537,-0.0885 0.34791,-0.13908 0.48999,-0.26371 0.12254,-0.0567 0.2597,-0.22269 0.3796,-0.19749 0.12318,0.10261 0.22875,-0.0245 0.199,-0.15083 0.10018,-0.0852 0.23294,-0.13518 0.34415,-0.21013 0.12735,-0.0684 0.2504,-0.15473 0.39032,-0.19287 0.20186,-0.002 0.17336,0.23084 0.21779,0.36437 0.0196,0.17177 1e-4,0.34442 0.013,0.51641 0.009,0.12216 -0.25374,0.17635 -0.0823,0.28467 0.13874,0.0706 0.0499,0.23413 0.0758,0.3555 0.0123,0.19244 -0.0343,0.38253 -0.015,0.57445 0.0323,0.14005 -0.23491,0.21357 -0.0546,0.32488 0.13522,0.086 0.0528,0.3291 0.048,0.4748 -0.0666,0.15823 0.0303,0.32942 -0.007,0.4949 -0.0355,0.016 -0.0639,0.0517 -0.10624,0.0496 z"
       id="path4561-6-2-9-1-8-1-2-62-9-8-0"
       inkscape:connector-curvature="0" />
  </g>
</svg>
