<?xml version="1.0" encoding="UTF-8" standalone="no"?>
<!-- Created with Inkscape (http://www.inkscape.org/) -->

<svg
   xmlns:dc="http://purl.org/dc/elements/1.1/"
   xmlns:cc="http://creativecommons.org/ns#"
   xmlns:rdf="http://www.w3.org/1999/02/22-rdf-syntax-ns#"
   xmlns:svg="http://www.w3.org/2000/svg"
   xmlns="http://www.w3.org/2000/svg"
   xmlns:sodipodi="http://sodipodi.sourceforge.net/DTD/sodipodi-0.dtd"
   xmlns:inkscape="http://www.inkscape.org/namespaces/inkscape"
   width="4096"
   height="4096"
   viewBox="0 0 1083.7333 1083.7334"
   version="1.1"
   id="svg5164"
   inkscape:version="0.91 r13725"
   sodipodi:docname="2.obelisks.svg">
  <defs
     id="defs5158" />
  <sodipodi:namedview
     id="base"
     pagecolor="#ffffff"
     bordercolor="#666666"
     borderopacity="1.0"
     inkscape:pageopacity="0.0"
     inkscape:pageshadow="2"
     inkscape:zoom="0.1767767"
     inkscape:cx="424.99591"
     inkscape:cy="2354.0963"
     inkscape:document-units="mm"
     inkscape:current-layer="layer2"
     showgrid="false"
     units="px"
     inkscape:window-width="1920"
     inkscape:window-height="1017"
     inkscape:window-x="-8"
     inkscape:window-y="-8"
     inkscape:window-maximized="1" />
  <metadata
     id="metadata5161">
    <rdf:RDF>
      <cc:Work
         rdf:about="">
        <dc:format>image/svg+xml</dc:format>
        <dc:type
           rdf:resource="http://purl.org/dc/dcmitype/StillImage" />
        <dc:title />
      </cc:Work>
    </rdf:RDF>
  </metadata>
  <g
     inkscape:groupmode="layer"
     id="layer2"
     inkscape:label="Obelisks">
    <path
       style="fill:#373737;stroke-width:1.33333337"
       d="m 636.02453,549.6718 c -0.19962,-0.077 -0.34114,-0.26019 -0.55415,-0.30658 -0.12933,-0.0516 -0.29929,-0.11078 -0.28109,-0.26802 -0.12495,-0.0572 -0.28631,0.002 -0.36804,-0.14665 -0.21677,-0.0442 -0.41451,-0.14699 -0.60206,-0.26373 -0.14549,-0.0117 -0.0401,-0.2806 -0.23366,-0.22741 -0.15985,0.11165 -0.29843,-0.1067 -0.44332,-0.15259 -0.14671,-0.10352 -0.31384,-0.17296 -0.47067,-0.2553 -0.1377,-0.18472 0.19774,-0.28139 0.32109,-0.35268 0.1982,-0.0577 0.33801,-0.25001 0.53951,-0.27858 0.14026,0.12968 0.18934,-0.0597 0.20009,-0.17296 0.15537,-0.0885 0.34791,-0.13908 0.48999,-0.26371 0.12254,-0.0567 0.2597,-0.22269 0.3796,-0.19749 0.12318,0.10261 0.22875,-0.0245 0.199,-0.15083 0.10018,-0.0852 0.23294,-0.13518 0.34415,-0.21013 0.12735,-0.0684 0.2504,-0.15473 0.39032,-0.19287 0.20186,-0.002 0.17336,0.23084 0.21779,0.36437 0.0196,0.17177 10e-5,0.34442 0.013,0.51641 0.009,0.12216 -0.25374,0.17635 -0.0823,0.28467 0.13874,0.0706 0.0499,0.23413 0.0758,0.3555 0.0123,0.19244 -0.0343,0.38253 -0.015,0.57445 0.0323,0.14005 -0.23491,0.21357 -0.0546,0.32488 0.13522,0.086 0.0528,0.3291 0.048,0.4748 -0.0666,0.15823 0.0303,0.32942 -0.007,0.4949 -0.0355,0.016 -0.0639,0.0517 -0.10624,0.0496 z"
       id="path4561-6-2-9-1-4"
       inkscape:connector-curvature="0" />
    <path
       style="fill:#373737;stroke-width:1.33333337"
       d="m 639.06724,543.85097 c -0.19962,-0.077 -0.34114,-0.26019 -0.55415,-0.30658 -0.12933,-0.0516 -0.29929,-0.11078 -0.28109,-0.26802 -0.12495,-0.0572 -0.28631,0.002 -0.36804,-0.14665 -0.21677,-0.0442 -0.41451,-0.14699 -0.60206,-0.26373 -0.14549,-0.0117 -0.0401,-0.2806 -0.23366,-0.22741 -0.15985,0.11165 -0.29843,-0.1067 -0.44332,-0.15259 -0.14671,-0.10352 -0.31384,-0.17296 -0.47067,-0.2553 -0.1377,-0.18472 0.19774,-0.28139 0.32109,-0.35268 0.1982,-0.0577 0.33801,-0.25001 0.53951,-0.27858 0.14026,0.12968 0.18934,-0.0597 0.20009,-0.17296 0.15537,-0.0885 0.34791,-0.13908 0.48999,-0.26371 0.12254,-0.0567 0.2597,-0.22269 0.3796,-0.19749 0.12318,0.10261 0.22875,-0.0245 0.199,-0.15083 0.10018,-0.0852 0.23294,-0.13518 0.34415,-0.21013 0.12735,-0.0684 0.2504,-0.15473 0.39032,-0.19287 0.20186,-0.002 0.17336,0.23084 0.21779,0.36437 0.0196,0.17177 10e-5,0.34442 0.013,0.51641 0.009,0.12216 -0.25374,0.17635 -0.0823,0.28467 0.13874,0.0706 0.0499,0.23413 0.0758,0.3555 0.0123,0.19244 -0.0343,0.38253 -0.015,0.57445 0.0323,0.14005 -0.23491,0.21357 -0.0546,0.32488 0.13522,0.086 0.0528,0.3291 0.048,0.4748 -0.0666,0.15823 0.0303,0.32942 -0.007,0.4949 -0.0355,0.016 -0.0639,0.0517 -0.10624,0.0496 z"
       id="path4561-6-2-9-1-4-6"
       inkscape:connector-curvature="0" />
    <path
       style="fill:#373737;stroke-width:1.33333337"
       d="m 642.24223,537.89784 c -0.19962,-0.077 -0.34114,-0.26019 -0.55415,-0.30658 -0.12933,-0.0516 -0.29929,-0.11078 -0.28109,-0.26802 -0.12495,-0.0572 -0.28631,0.002 -0.36804,-0.14665 -0.21677,-0.0442 -0.41451,-0.14699 -0.60206,-0.26373 -0.14549,-0.0117 -0.0401,-0.2806 -0.23366,-0.22741 -0.15985,0.11165 -0.29843,-0.1067 -0.44332,-0.15259 -0.14671,-0.10352 -0.31384,-0.17296 -0.47067,-0.2553 -0.1377,-0.18472 0.19774,-0.28139 0.32109,-0.35268 0.1982,-0.0577 0.33801,-0.25001 0.53951,-0.27858 0.14026,0.12968 0.18934,-0.0597 0.20009,-0.17296 0.15537,-0.0885 0.34791,-0.13908 0.48999,-0.26371 0.12254,-0.0567 0.2597,-0.22269 0.3796,-0.19749 0.12318,0.10261 0.22875,-0.0245 0.199,-0.15083 0.10018,-0.0852 0.23294,-0.13518 0.34415,-0.21013 0.12735,-0.0684 0.2504,-0.15473 0.39032,-0.19287 0.20186,-0.002 0.17336,0.23084 0.21779,0.36437 0.0196,0.17177 1e-4,0.34442 0.013,0.51641 0.009,0.12216 -0.25374,0.17635 -0.0823,0.28467 0.13874,0.0706 0.0499,0.23413 0.0758,0.3555 0.0123,0.19244 -0.0343,0.38253 -0.015,0.57445 0.0323,0.14005 -0.23491,0.21357 -0.0546,0.32488 0.13522,0.086 0.0528,0.3291 0.048,0.4748 -0.0666,0.15823 0.0303,0.32942 -0.007,0.4949 -0.0355,0.016 -0.0639,0.0517 -0.10624,0.0496 z"
       id="path4561-6-2-9-1-4-4"
       inkscape:connector-curvature="0" />
    <path
       style="fill:#373737;stroke-width:1.33333337"
       d="m 646.01255,532.40775 c -0.19962,-0.077 -0.34114,-0.26019 -0.55415,-0.30658 -0.12933,-0.0516 -0.29929,-0.11078 -0.28109,-0.26802 -0.12495,-0.0572 -0.28631,0.002 -0.36804,-0.14665 -0.21677,-0.0442 -0.41451,-0.14699 -0.60206,-0.26373 -0.14549,-0.0117 -0.0401,-0.2806 -0.23366,-0.22741 -0.15985,0.11165 -0.29843,-0.1067 -0.44332,-0.15259 -0.14671,-0.10352 -0.31384,-0.17296 -0.47067,-0.2553 -0.1377,-0.18472 0.19774,-0.28139 0.32109,-0.35268 0.1982,-0.0577 0.33801,-0.25001 0.53951,-0.27858 0.14026,0.12968 0.18934,-0.0597 0.20009,-0.17296 0.15537,-0.0885 0.34791,-0.13908 0.48999,-0.26371 0.12254,-0.0567 0.2597,-0.22269 0.3796,-0.19749 0.12318,0.10261 0.22875,-0.0245 0.199,-0.15083 0.10018,-0.0852 0.23294,-0.13518 0.34415,-0.21013 0.12735,-0.0684 0.2504,-0.15473 0.39032,-0.19287 0.20186,-0.002 0.17336,0.23084 0.21779,0.36437 0.0196,0.17177 10e-5,0.34442 0.013,0.51641 0.009,0.12216 -0.25374,0.17635 -0.0823,0.28467 0.13874,0.0706 0.0499,0.23413 0.0758,0.3555 0.0123,0.19244 -0.0343,0.38253 -0.015,0.57445 0.0323,0.14005 -0.23491,0.21357 -0.0546,0.32488 0.13522,0.086 0.0528,0.3291 0.048,0.4748 -0.0666,0.15823 0.0303,0.32942 -0.007,0.4949 -0.0355,0.016 -0.0639,0.0517 -0.10624,0.0496 z"
       id="path4561-6-2-9-1-4-44"
       inkscape:connector-curvature="0" />
    <path
       style="fill:#373737;stroke-width:1.33333337"
       d="m 649.31985,526.58692 c -0.19962,-0.077 -0.34114,-0.26019 -0.55415,-0.30658 -0.12933,-0.0516 -0.29929,-0.11078 -0.28109,-0.26802 -0.12495,-0.0572 -0.28631,0.002 -0.36804,-0.14665 -0.21677,-0.0442 -0.41451,-0.14699 -0.60206,-0.26373 -0.14549,-0.0117 -0.0401,-0.2806 -0.23366,-0.22741 -0.15985,0.11165 -0.29843,-0.1067 -0.44332,-0.15259 -0.14671,-0.10352 -0.31384,-0.17296 -0.47067,-0.2553 -0.1377,-0.18472 0.19774,-0.28139 0.32109,-0.35268 0.1982,-0.0577 0.33801,-0.25001 0.53951,-0.27858 0.14026,0.12968 0.18934,-0.0597 0.20009,-0.17296 0.15537,-0.0885 0.34791,-0.13908 0.48999,-0.26371 0.12254,-0.0567 0.2597,-0.22269 0.3796,-0.19749 0.12318,0.10261 0.22875,-0.0245 0.199,-0.15083 0.10018,-0.0852 0.23294,-0.13518 0.34415,-0.21013 0.12735,-0.0684 0.2504,-0.15473 0.39032,-0.19287 0.20186,-0.002 0.17336,0.23084 0.21779,0.36437 0.0196,0.17177 10e-5,0.34442 0.013,0.51641 0.009,0.12216 -0.25374,0.17635 -0.0823,0.28467 0.13874,0.0706 0.0499,0.23413 0.0758,0.3555 0.0123,0.19244 -0.0343,0.38253 -0.015,0.57445 0.0323,0.14005 -0.23491,0.21357 -0.0546,0.32488 0.13522,0.086 0.0528,0.3291 0.048,0.4748 -0.0666,0.15823 0.0303,0.32942 -0.007,0.4949 -0.0355,0.016 -0.0639,0.0517 -0.10624,0.0496 z"
       id="path4561-6-2-9-1-4-6-0"
       inkscape:connector-curvature="0" />
    <path
       style="fill:#373737;stroke-width:1.33333337"
       d="m 651.96567,520.89837 c -0.19962,-0.077 -0.34114,-0.26019 -0.55415,-0.30658 -0.12933,-0.0516 -0.29929,-0.11078 -0.28109,-0.26802 -0.12495,-0.0572 -0.28631,0.002 -0.36804,-0.14665 -0.21677,-0.0442 -0.41451,-0.14699 -0.60206,-0.26373 -0.14549,-0.0117 -0.0401,-0.2806 -0.23366,-0.22741 -0.15985,0.11165 -0.29843,-0.1067 -0.44332,-0.15259 -0.14671,-0.10352 -0.31384,-0.17296 -0.47067,-0.2553 -0.1377,-0.18472 0.19774,-0.28139 0.32109,-0.35268 0.1982,-0.0577 0.33801,-0.25001 0.53951,-0.27858 0.14026,0.12968 0.18934,-0.0597 0.20009,-0.17296 0.15537,-0.0885 0.34791,-0.13908 0.48999,-0.26371 0.12254,-0.0567 0.2597,-0.22269 0.3796,-0.19749 0.12318,0.10261 0.22875,-0.0245 0.199,-0.15083 0.10018,-0.0852 0.23294,-0.13518 0.34415,-0.21013 0.12735,-0.0684 0.2504,-0.15473 0.39032,-0.19287 0.20186,-0.002 0.17336,0.23084 0.21779,0.36437 0.0196,0.17177 1e-4,0.34442 0.013,0.51641 0.009,0.12216 -0.25374,0.17635 -0.0823,0.28467 0.13874,0.0706 0.0499,0.23413 0.0758,0.3555 0.0123,0.19244 -0.0343,0.38253 -0.015,0.57445 0.0323,0.14005 -0.23491,0.21357 -0.0546,0.32488 0.13522,0.086 0.0528,0.3291 0.048,0.4748 -0.0666,0.15823 0.0303,0.32942 -0.007,0.4949 -0.0355,0.016 -0.0639,0.0517 -0.10624,0.0496 z"
       id="path4561-6-2-9-1-4-4-9"
       inkscape:connector-curvature="0" />
    <path
       style="fill:#373737;stroke-width:1.33333337"
       d="m 655.04145,516.43353 c -0.19962,-0.077 -0.34114,-0.2602 -0.55415,-0.30658 -0.12933,-0.0516 -0.29929,-0.11079 -0.28109,-0.26802 -0.12495,-0.0572 -0.28631,0.002 -0.36804,-0.14666 -0.21677,-0.0442 -0.41451,-0.14698 -0.60206,-0.26372 -0.14549,-0.0117 -0.0401,-0.28061 -0.23366,-0.22742 -0.15985,0.11166 -0.29843,-0.10669 -0.44332,-0.15258 -0.14671,-0.10352 -0.31384,-0.17296 -0.47067,-0.25531 -0.1377,-0.18471 0.19774,-0.28139 0.32109,-0.35267 0.1982,-0.0577 0.33801,-0.25001 0.53951,-0.27858 0.14026,0.12968 0.18934,-0.0597 0.20009,-0.17297 0.15537,-0.0885 0.34791,-0.13907 0.48999,-0.26371 0.12254,-0.0567 0.2597,-0.22268 0.3796,-0.19749 0.12318,0.10261 0.22875,-0.0245 0.199,-0.15082 0.10018,-0.0852 0.23294,-0.13519 0.34415,-0.21013 0.12735,-0.0684 0.2504,-0.15473 0.39032,-0.19287 0.20186,-0.002 0.17336,0.23083 0.21779,0.36436 0.0196,0.17177 1e-4,0.34443 0.013,0.51642 0.009,0.12216 -0.25374,0.17635 -0.0823,0.28467 0.13874,0.0706 0.0499,0.23413 0.0758,0.3555 0.0123,0.19243 -0.0343,0.38252 -0.015,0.57445 0.0323,0.14004 -0.23491,0.21356 -0.0546,0.32487 0.13522,0.086 0.0528,0.32911 0.048,0.4748 -0.0666,0.15824 0.0303,0.32942 -0.007,0.4949 -0.0355,0.016 -0.0639,0.0517 -0.10624,0.0496 z"
       id="path4561-6-2-9-1-4-8"
       inkscape:connector-curvature="0" />
    <path
       style="fill:#373737;stroke-width:1.33333337"
       d="m 658.34875,510.87727 c -0.19962,-0.077 -0.34114,-0.26018 -0.55415,-0.30657 -0.12933,-0.0516 -0.29929,-0.11078 -0.28109,-0.26802 -0.12495,-0.0572 -0.28631,0.002 -0.36804,-0.14665 -0.21677,-0.0442 -0.41451,-0.14699 -0.60206,-0.26373 -0.14549,-0.0117 -0.0401,-0.2806 -0.23366,-0.22741 -0.15985,0.11165 -0.29843,-0.1067 -0.44332,-0.15259 -0.14671,-0.10352 -0.31384,-0.17296 -0.47067,-0.2553 -0.1377,-0.18472 0.19774,-0.28139 0.32109,-0.35268 0.1982,-0.0577 0.33801,-0.25001 0.53951,-0.27858 0.14026,0.12968 0.18934,-0.0597 0.20009,-0.17296 0.15537,-0.0885 0.34791,-0.13908 0.48999,-0.26371 0.12254,-0.0567 0.2597,-0.22269 0.3796,-0.19749 0.12318,0.10261 0.22875,-0.0245 0.199,-0.15083 0.10018,-0.0852 0.23294,-0.13518 0.34415,-0.21013 0.12735,-0.0684 0.2504,-0.15473 0.39032,-0.19287 0.20186,-0.002 0.17336,0.23084 0.21779,0.36437 0.0196,0.17177 10e-5,0.34442 0.013,0.51641 0.009,0.12216 -0.25374,0.17635 -0.0823,0.28467 0.13874,0.0706 0.0499,0.23413 0.0758,0.3555 0.0123,0.19244 -0.0343,0.38253 -0.015,0.57445 0.0323,0.14005 -0.23491,0.21357 -0.0546,0.32488 0.13522,0.086 0.0528,0.3291 0.048,0.4748 -0.0666,0.15823 0.0303,0.32942 -0.007,0.4949 -0.0355,0.016 -0.0639,0.0517 -0.10624,0.0496 z"
       id="path4561-6-2-9-1-4-6-9"
       inkscape:connector-curvature="0" />
    <path
       style="fill:#373737;stroke-width:1.33333337"
       d="m 662.05291,504.92415 c -0.19962,-0.077 -0.34114,-0.26019 -0.55415,-0.30658 -0.12933,-0.0516 -0.29929,-0.11078 -0.28109,-0.26802 -0.12495,-0.0572 -0.28631,0.002 -0.36804,-0.14665 -0.21677,-0.0442 -0.41451,-0.14699 -0.60206,-0.26373 -0.14549,-0.0117 -0.0401,-0.2806 -0.23366,-0.22741 -0.15985,0.11165 -0.29843,-0.1067 -0.44332,-0.15259 -0.14671,-0.10352 -0.31384,-0.17296 -0.47067,-0.2553 -0.1377,-0.18472 0.19774,-0.28139 0.32109,-0.35268 0.1982,-0.0577 0.33801,-0.25001 0.53951,-0.27858 0.14026,0.12968 0.18934,-0.0597 0.20009,-0.17296 0.15537,-0.0885 0.34791,-0.13908 0.48999,-0.26371 0.12254,-0.0567 0.2597,-0.22269 0.3796,-0.19749 0.12318,0.10261 0.22875,-0.0245 0.199,-0.15083 0.10018,-0.0852 0.23294,-0.13518 0.34415,-0.21013 0.12735,-0.0684 0.2504,-0.15473 0.39032,-0.19287 0.20186,-0.002 0.17336,0.23084 0.21779,0.36437 0.0196,0.17177 10e-5,0.34442 0.013,0.51641 0.009,0.12216 -0.25374,0.17635 -0.0823,0.28467 0.13874,0.0706 0.0499,0.23413 0.0758,0.3555 0.0123,0.19244 -0.0343,0.38253 -0.015,0.57445 0.0323,0.14005 -0.23491,0.21357 -0.0546,0.32488 0.13522,0.086 0.0528,0.3291 0.048,0.4748 -0.0666,0.15823 0.0303,0.32942 -0.007,0.4949 -0.0355,0.016 -0.0639,0.0517 -0.10624,0.0496 z"
       id="path4561-6-2-9-1-4-4-91"
       inkscape:connector-curvature="0" />
    <path
       style="fill:#373737;stroke-width:1.33333337"
       d="m 665.29406,498.90489 c -0.19962,-0.077 -0.34114,-0.26019 -0.55415,-0.30658 -0.12933,-0.0516 -0.29929,-0.11078 -0.28109,-0.26802 -0.12495,-0.0572 -0.28631,0.002 -0.36804,-0.14665 -0.21677,-0.0442 -0.41451,-0.14699 -0.60206,-0.26373 -0.14549,-0.0117 -0.0401,-0.2806 -0.23366,-0.22741 -0.15985,0.11165 -0.29843,-0.1067 -0.44332,-0.15259 -0.14671,-0.10352 -0.31384,-0.17296 -0.47067,-0.2553 -0.1377,-0.18472 0.19774,-0.28139 0.32109,-0.35268 0.1982,-0.0577 0.33801,-0.25001 0.53951,-0.27858 0.14026,0.12968 0.18934,-0.0597 0.20009,-0.17296 0.15537,-0.0885 0.34791,-0.13908 0.48999,-0.26371 0.12254,-0.0567 0.2597,-0.22269 0.3796,-0.19749 0.12318,0.10261 0.22875,-0.0245 0.199,-0.15083 0.10018,-0.0852 0.23294,-0.13518 0.34415,-0.21013 0.12735,-0.0684 0.2504,-0.15473 0.39032,-0.19287 0.20186,-0.002 0.17336,0.23084 0.21779,0.36437 0.0196,0.17177 1e-4,0.34442 0.013,0.51641 0.009,0.12216 -0.25374,0.17635 -0.0823,0.28467 0.13874,0.0706 0.0499,0.23413 0.0758,0.3555 0.0123,0.19244 -0.0343,0.38253 -0.015,0.57445 0.0323,0.14005 -0.23491,0.21357 -0.0546,0.32488 0.13522,0.086 0.0528,0.3291 0.048,0.4748 -0.0666,0.15823 0.0303,0.32942 -0.007,0.4949 -0.0355,0.016 -0.0639,0.0517 -0.10624,0.0496 z"
       id="path4561-6-2-9-1-4-44-5"
       inkscape:connector-curvature="0" />
    <path
       style="fill:#373737;stroke-width:1.33333337"
       d="m 668.07219,492.81947 c -0.19962,-0.077 -0.34114,-0.26019 -0.55415,-0.30658 -0.12933,-0.0516 -0.29929,-0.11078 -0.28109,-0.26802 -0.12495,-0.0572 -0.28631,0.002 -0.36804,-0.14665 -0.21677,-0.0442 -0.41451,-0.14699 -0.60206,-0.26373 -0.14549,-0.0117 -0.0401,-0.2806 -0.23366,-0.22741 -0.15985,0.11165 -0.29843,-0.1067 -0.44332,-0.15259 -0.14671,-0.10352 -0.31384,-0.17296 -0.47067,-0.2553 -0.1377,-0.18472 0.19774,-0.28139 0.32109,-0.35268 0.1982,-0.0577 0.33801,-0.25001 0.53951,-0.27858 0.14026,0.12968 0.18934,-0.0597 0.20009,-0.17296 0.15537,-0.0885 0.34791,-0.13908 0.48999,-0.26371 0.12254,-0.0567 0.2597,-0.22269 0.3796,-0.19749 0.12318,0.10261 0.22875,-0.0245 0.199,-0.15083 0.10018,-0.0852 0.23294,-0.13518 0.34415,-0.21013 0.12735,-0.0684 0.2504,-0.15473 0.39032,-0.19287 0.20186,-0.002 0.17336,0.23084 0.21779,0.36437 0.0196,0.17177 10e-5,0.34442 0.013,0.51641 0.009,0.12216 -0.25374,0.17635 -0.0823,0.28467 0.13874,0.0706 0.0499,0.23413 0.0758,0.3555 0.0123,0.19244 -0.0343,0.38253 -0.015,0.57445 0.0323,0.14005 -0.23491,0.21357 -0.0546,0.32488 0.13522,0.086 0.0528,0.3291 0.048,0.4748 -0.0666,0.15823 0.0303,0.32942 -0.007,0.4949 -0.0355,0.016 -0.0639,0.0517 -0.10624,0.0496 z"
       id="path4561-6-2-9-1-4-6-0-3"
       inkscape:connector-curvature="0" />
    <path
       style="fill:#373737;stroke-width:1.33333337"
       d="m 669.92426,487.3955 c -0.19962,-0.077 -0.34114,-0.26019 -0.55415,-0.30658 -0.12933,-0.0516 -0.29929,-0.11078 -0.28109,-0.26802 -0.12495,-0.0572 -0.28631,0.002 -0.36804,-0.14665 -0.21677,-0.0442 -0.41451,-0.14699 -0.60206,-0.26373 -0.14549,-0.0117 -0.0401,-0.2806 -0.23366,-0.22741 -0.15985,0.11165 -0.29843,-0.1067 -0.44332,-0.15259 -0.14671,-0.10352 -0.31384,-0.17296 -0.47067,-0.2553 -0.1377,-0.18472 0.19774,-0.28139 0.32109,-0.35268 0.1982,-0.0577 0.33801,-0.25001 0.53951,-0.27858 0.14026,0.12968 0.18934,-0.0597 0.20009,-0.17296 0.15537,-0.0885 0.34791,-0.13908 0.48999,-0.26371 0.12254,-0.0567 0.2597,-0.22269 0.3796,-0.19749 0.12318,0.10261 0.22875,-0.0245 0.199,-0.15083 0.10018,-0.0852 0.23294,-0.13518 0.34415,-0.21013 0.12735,-0.0684 0.2504,-0.15473 0.39032,-0.19287 0.20186,-0.002 0.17336,0.23084 0.21779,0.36437 0.0196,0.17177 10e-5,0.34442 0.013,0.51641 0.009,0.12216 -0.25374,0.17635 -0.0823,0.28467 0.13874,0.0706 0.0499,0.23413 0.0758,0.3555 0.0123,0.19244 -0.0343,0.38253 -0.015,0.57445 0.0323,0.14005 -0.23491,0.21357 -0.0546,0.32488 0.13522,0.086 0.0528,0.3291 0.048,0.4748 -0.0666,0.15823 0.0303,0.32942 -0.007,0.4949 -0.0355,0.016 -0.0639,0.0517 -0.10624,0.0496 z"
       id="path4561-6-2-9-1-4-4-9-6"
       inkscape:connector-curvature="0" />
    <path
       style="fill:#373737;stroke-width:1.33333337"
       d="m 672.63625,482.16998 c -0.19962,-0.077 -0.34114,-0.26019 -0.55415,-0.30658 -0.12933,-0.0516 -0.29929,-0.11078 -0.28109,-0.26802 -0.12495,-0.0572 -0.28631,0.002 -0.36804,-0.14665 -0.21677,-0.0442 -0.41451,-0.14699 -0.60206,-0.26373 -0.14549,-0.0117 -0.0401,-0.2806 -0.23366,-0.22741 -0.15985,0.11165 -0.29843,-0.1067 -0.44332,-0.15259 -0.14671,-0.10352 -0.31384,-0.17296 -0.47067,-0.2553 -0.1377,-0.18472 0.19774,-0.28139 0.32109,-0.35268 0.1982,-0.0577 0.33801,-0.25001 0.53951,-0.27858 0.14026,0.12968 0.18934,-0.0597 0.20009,-0.17296 0.15537,-0.0885 0.34791,-0.13908 0.48999,-0.26371 0.12254,-0.0567 0.2597,-0.22269 0.3796,-0.19749 0.12318,0.10261 0.22875,-0.0245 0.199,-0.15083 0.10018,-0.0852 0.23294,-0.13518 0.34415,-0.21013 0.12735,-0.0684 0.2504,-0.15473 0.39032,-0.19287 0.20186,-0.002 0.17336,0.23084 0.21779,0.36437 0.0196,0.17177 10e-5,0.34442 0.013,0.51641 0.009,0.12216 -0.25374,0.17635 -0.0823,0.28467 0.13874,0.0706 0.0499,0.23413 0.0758,0.3555 0.0123,0.19244 -0.0343,0.38253 -0.015,0.57445 0.0323,0.14005 -0.23491,0.21357 -0.0546,0.32488 0.13522,0.086 0.0528,0.3291 0.048,0.4748 -0.0666,0.15823 0.0303,0.32942 -0.007,0.4949 -0.0355,0.016 -0.0639,0.0517 -0.10624,0.0496 z"
       id="path4561-6-2-9-1-4-5"
       inkscape:connector-curvature="0" />
    <path
       style="fill:#373737;stroke-width:1.33333337"
       d="m 673.29771,476.08456 c -0.19962,-0.077 -0.34114,-0.26019 -0.55415,-0.30658 -0.12933,-0.0516 -0.29929,-0.11078 -0.28109,-0.26802 -0.12495,-0.0572 -0.28631,0.002 -0.36804,-0.14665 -0.21677,-0.0442 -0.41451,-0.14699 -0.60206,-0.26373 -0.14549,-0.0117 -0.0401,-0.2806 -0.23366,-0.22741 -0.15985,0.11165 -0.29843,-0.1067 -0.44332,-0.15259 -0.14671,-0.10352 -0.31384,-0.17296 -0.47067,-0.2553 -0.1377,-0.18472 0.19774,-0.28139 0.32109,-0.35268 0.1982,-0.0577 0.33801,-0.25001 0.53951,-0.27858 0.14026,0.12968 0.18934,-0.0597 0.20009,-0.17296 0.15537,-0.0885 0.34791,-0.13908 0.48999,-0.26371 0.12254,-0.0567 0.2597,-0.22269 0.3796,-0.19749 0.12318,0.10261 0.22875,-0.0245 0.199,-0.15083 0.10018,-0.0852 0.23294,-0.13518 0.34415,-0.21013 0.12735,-0.0684 0.2504,-0.15473 0.39032,-0.19287 0.20186,-0.002 0.17336,0.23084 0.21779,0.36437 0.0196,0.17177 1e-4,0.34442 0.013,0.51641 0.009,0.12216 -0.25374,0.17635 -0.0823,0.28467 0.13874,0.0706 0.0499,0.23413 0.0758,0.3555 0.0123,0.19244 -0.0343,0.38253 -0.015,0.57445 0.0323,0.14005 -0.23491,0.21357 -0.0546,0.32488 0.13522,0.086 0.0528,0.3291 0.048,0.4748 -0.0666,0.15823 0.0303,0.32942 -0.007,0.4949 -0.0355,0.016 -0.0639,0.0517 -0.10624,0.0496 z"
       id="path4561-6-2-9-1-4-6-8"
       inkscape:connector-curvature="0" />
    <path
       style="fill:#373737;stroke-width:1.33333337"
       d="m 672.76853,470.39601 c -0.19962,-0.077 -0.34114,-0.26019 -0.55415,-0.30658 -0.12933,-0.0516 -0.29929,-0.11078 -0.28109,-0.26802 -0.12495,-0.0572 -0.28631,0.002 -0.36804,-0.14665 -0.21677,-0.0442 -0.41451,-0.14699 -0.60206,-0.26373 -0.14549,-0.0117 -0.0401,-0.2806 -0.23366,-0.22741 -0.15985,0.11165 -0.29843,-0.1067 -0.44332,-0.15259 -0.14671,-0.10352 -0.31384,-0.17296 -0.47067,-0.2553 -0.1377,-0.18472 0.19774,-0.28139 0.32109,-0.35268 0.1982,-0.0577 0.33801,-0.25001 0.53951,-0.27858 0.14026,0.12968 0.18934,-0.0597 0.20009,-0.17296 0.15537,-0.0885 0.34791,-0.13908 0.48999,-0.26371 0.12254,-0.0567 0.2597,-0.22269 0.3796,-0.19749 0.12318,0.10261 0.22875,-0.0245 0.199,-0.15083 0.10018,-0.0852 0.23294,-0.13518 0.34415,-0.21013 0.12735,-0.0684 0.2504,-0.15473 0.39032,-0.19287 0.20186,-0.002 0.17336,0.23084 0.21779,0.36437 0.0196,0.17177 1e-4,0.34442 0.013,0.51641 0.009,0.12216 -0.25374,0.17635 -0.0823,0.28467 0.13874,0.0706 0.0499,0.23413 0.0758,0.3555 0.0123,0.19244 -0.0343,0.38253 -0.015,0.57445 0.0323,0.14005 -0.23491,0.21357 -0.0546,0.32488 0.13522,0.086 0.0528,0.3291 0.048,0.4748 -0.0666,0.15823 0.0303,0.32942 -0.007,0.4949 -0.0355,0.016 -0.0639,0.0517 -0.10624,0.0496 z"
       id="path4561-6-2-9-1-4-4-6"
       inkscape:connector-curvature="0" />
    <path
       style="fill:#373737;stroke-width:1.33333337"
       d="m 669.13052,465.43509 c -0.19962,-0.077 -0.34114,-0.26019 -0.55415,-0.30658 -0.12933,-0.0516 -0.29929,-0.11078 -0.28109,-0.26802 -0.12495,-0.0572 -0.28631,0.002 -0.36804,-0.14665 -0.21677,-0.0442 -0.41451,-0.14699 -0.60206,-0.26373 -0.14549,-0.0117 -0.0401,-0.2806 -0.23366,-0.22741 -0.15985,0.11165 -0.29843,-0.1067 -0.44332,-0.15259 -0.14671,-0.10352 -0.31384,-0.17296 -0.47067,-0.2553 -0.1377,-0.18472 0.19774,-0.28139 0.32109,-0.35268 0.1982,-0.0577 0.33801,-0.25001 0.53951,-0.27858 0.14026,0.12968 0.18934,-0.0597 0.20009,-0.17296 0.15537,-0.0885 0.34791,-0.13908 0.48999,-0.26371 0.12254,-0.0567 0.2597,-0.22269 0.3796,-0.19749 0.12318,0.10261 0.22875,-0.0245 0.199,-0.15083 0.10018,-0.0852 0.23294,-0.13518 0.34415,-0.21013 0.12735,-0.0684 0.2504,-0.15473 0.39032,-0.19287 0.20186,-0.002 0.17336,0.23084 0.21779,0.36437 0.0196,0.17177 1e-4,0.34442 0.013,0.51641 0.009,0.12216 -0.25374,0.17635 -0.0823,0.28467 0.13874,0.0706 0.0499,0.23413 0.0758,0.3555 0.0123,0.19244 -0.0343,0.38253 -0.015,0.57445 0.0323,0.14005 -0.23491,0.21357 -0.0546,0.32488 0.13522,0.086 0.0528,0.3291 0.048,0.4748 -0.0666,0.15823 0.0303,0.32942 -0.007,0.4949 -0.0355,0.016 -0.0639,0.0517 -0.10624,0.0496 z"
       id="path4561-6-2-9-1-4-44-4"
       inkscape:connector-curvature="0" />
    <path
       style="fill:#373737;stroke-width:1.33333337"
       d="m 663.70657,461.46634 c -0.19962,-0.077 -0.34114,-0.26019 -0.55415,-0.30658 -0.12933,-0.0516 -0.29929,-0.11078 -0.28109,-0.26802 -0.12495,-0.0572 -0.28631,0.002 -0.36804,-0.14665 -0.21677,-0.0442 -0.41451,-0.14699 -0.60206,-0.26373 -0.14549,-0.0117 -0.0401,-0.2806 -0.23366,-0.22741 -0.15985,0.11165 -0.29843,-0.1067 -0.44332,-0.15259 -0.14671,-0.10352 -0.31384,-0.17296 -0.47067,-0.2553 -0.1377,-0.18472 0.19774,-0.28139 0.32109,-0.35268 0.1982,-0.0577 0.33801,-0.25001 0.53951,-0.27858 0.14026,0.12968 0.18934,-0.0597 0.20009,-0.17296 0.15537,-0.0885 0.34791,-0.13908 0.48999,-0.26371 0.12254,-0.0567 0.2597,-0.22269 0.3796,-0.19749 0.12318,0.10261 0.22875,-0.0245 0.199,-0.15083 0.10018,-0.0852 0.23294,-0.13518 0.34415,-0.21013 0.12735,-0.0684 0.2504,-0.15473 0.39032,-0.19287 0.20186,-0.002 0.17336,0.23084 0.21779,0.36437 0.0196,0.17177 1e-4,0.34442 0.013,0.51641 0.009,0.12216 -0.25374,0.17635 -0.0823,0.28467 0.13874,0.0706 0.0499,0.23413 0.0758,0.3555 0.0123,0.19244 -0.0343,0.38253 -0.015,0.57445 0.0323,0.14005 -0.23491,0.21357 -0.0546,0.32488 0.13522,0.086 0.0528,0.3291 0.048,0.4748 -0.0666,0.15823 0.0303,0.32942 -0.007,0.4949 -0.0355,0.016 -0.0639,0.0517 -0.10624,0.0496 z"
       id="path4561-6-2-9-1-4-6-0-5"
       inkscape:connector-curvature="0" />
    <path
       style="fill:#373737;stroke-width:1.33333337"
       d="m 661.12688,548.64654 c -0.19963,-0.077 -0.34114,-0.26019 -0.55415,-0.30658 -0.12934,-0.0516 -0.29929,-0.11078 -0.2811,-0.26802 -0.12495,-0.0572 -0.28631,0.002 -0.36804,-0.14665 -0.21677,-0.0442 -0.41451,-0.14699 -0.60206,-0.26373 -0.14549,-0.0117 -0.0401,-0.2806 -0.23366,-0.22741 -0.15985,0.11165 -0.29843,-0.1067 -0.44332,-0.15259 -0.14671,-0.10352 -0.31384,-0.17296 -0.47067,-0.2553 -0.1377,-0.18472 0.19774,-0.28139 0.32109,-0.35268 0.1982,-0.0577 0.33801,-0.25001 0.53951,-0.27858 0.14026,0.12968 0.18934,-0.0597 0.20009,-0.17296 0.15537,-0.0885 0.34791,-0.13908 0.48999,-0.26371 0.12254,-0.0567 0.2597,-0.22269 0.3796,-0.19749 0.12318,0.10261 0.22875,-0.0245 0.199,-0.15083 0.10018,-0.0852 0.23294,-0.13518 0.34415,-0.21013 0.12735,-0.0684 0.2504,-0.15473 0.39033,-0.19287 0.20185,-0.002 0.17336,0.23084 0.21778,0.36437 0.0196,0.17177 1e-4,0.34442 0.013,0.51641 0.009,0.12216 -0.25374,0.17635 -0.0823,0.28467 0.13874,0.0706 0.0499,0.23413 0.0758,0.3555 0.0123,0.19244 -0.0343,0.38253 -0.015,0.57445 0.0323,0.14005 -0.23491,0.21357 -0.0546,0.32488 0.13522,0.086 0.0528,0.3291 0.048,0.4748 -0.0666,0.15823 0.0303,0.32942 -0.007,0.4949 -0.0355,0.016 -0.0639,0.0517 -0.10624,0.0496 z"
       id="path4561-6-2-9-1-4-6-8-3"
       inkscape:connector-curvature="0" />
    <path
       style="fill:#373737;stroke-width:1.33333337"
       d="m 667.11309,548.61347 c -0.19963,-0.077 -0.34114,-0.26019 -0.55415,-0.30658 -0.12934,-0.0516 -0.29929,-0.11078 -0.2811,-0.26802 -0.12495,-0.0572 -0.2863,0.002 -0.36804,-0.14665 -0.21677,-0.0442 -0.41451,-0.14699 -0.60206,-0.26373 -0.14549,-0.0117 -0.0401,-0.2806 -0.23366,-0.22741 -0.15985,0.11165 -0.29843,-0.1067 -0.44332,-0.15259 -0.14671,-0.10352 -0.31384,-0.17296 -0.47067,-0.2553 -0.1377,-0.18472 0.19774,-0.28139 0.32109,-0.35268 0.1982,-0.0577 0.33801,-0.25001 0.53951,-0.27858 0.14026,0.12968 0.18934,-0.0597 0.20009,-0.17296 0.15537,-0.0885 0.34791,-0.13908 0.48999,-0.26371 0.12254,-0.0567 0.2597,-0.22269 0.3796,-0.19749 0.12318,0.10261 0.22875,-0.0245 0.199,-0.15083 0.10018,-0.0852 0.23294,-0.13518 0.34416,-0.21013 0.12734,-0.0684 0.25039,-0.15473 0.39032,-0.19287 0.20185,-0.002 0.17336,0.23084 0.21778,0.36437 0.0196,0.17177 10e-5,0.34442 0.013,0.51641 0.009,0.12216 -0.25374,0.17635 -0.0823,0.28467 0.13875,0.0706 0.0499,0.23413 0.0758,0.3555 0.0123,0.19244 -0.0343,0.38253 -0.015,0.57445 0.0323,0.14005 -0.23491,0.21357 -0.0546,0.32488 0.13522,0.086 0.0528,0.3291 0.048,0.4748 -0.0666,0.15823 0.0303,0.32942 -0.007,0.4949 -0.0355,0.016 -0.0639,0.0517 -0.10624,0.0496 z"
       id="path4561-6-2-9-1-4-5-1-9-7"
       inkscape:connector-curvature="0" />
    <path
       style="fill:#373737;stroke-width:1.33333337"
       d="m 672.66934,548.61347 c -0.19963,-0.077 -0.34114,-0.26019 -0.55415,-0.30658 -0.12934,-0.0516 -0.29929,-0.11078 -0.2811,-0.26802 -0.12495,-0.0572 -0.2863,0.002 -0.36804,-0.14665 -0.21677,-0.0442 -0.41451,-0.14699 -0.60206,-0.26373 -0.14549,-0.0117 -0.0401,-0.2806 -0.23366,-0.22741 -0.15985,0.11165 -0.29843,-0.1067 -0.44332,-0.15259 -0.14671,-0.10352 -0.31384,-0.17296 -0.47067,-0.2553 -0.1377,-0.18472 0.19774,-0.28139 0.32109,-0.35268 0.1982,-0.0577 0.33801,-0.25001 0.53951,-0.27858 0.14026,0.12968 0.18934,-0.0597 0.20009,-0.17296 0.15537,-0.0885 0.34791,-0.13908 0.48999,-0.26371 0.12254,-0.0567 0.2597,-0.22269 0.3796,-0.19749 0.12318,0.10261 0.22875,-0.0245 0.199,-0.15083 0.10018,-0.0852 0.23294,-0.13518 0.34416,-0.21013 0.12734,-0.0684 0.25039,-0.15473 0.39032,-0.19287 0.20185,-0.002 0.17336,0.23084 0.21778,0.36437 0.0196,0.17177 1e-4,0.34442 0.013,0.51641 0.009,0.12216 -0.25374,0.17635 -0.0823,0.28467 0.13875,0.0706 0.0499,0.23413 0.0758,0.3555 0.0123,0.19244 -0.0343,0.38253 -0.015,0.57445 0.0323,0.14005 -0.23491,0.21357 -0.0546,0.32488 0.13522,0.086 0.0528,0.3291 0.048,0.4748 -0.0666,0.15823 0.0303,0.32942 -0.007,0.4949 -0.0355,0.016 -0.0639,0.0517 -0.10624,0.0496 z"
       id="path4561-6-2-9-1-4-5-1-9-7-8"
       inkscape:connector-curvature="0" />
    <path
       style="fill:#373737;stroke-width:1.33333337"
       d="m 678.22559,548.34889 c -0.19963,-0.077 -0.34114,-0.26019 -0.55415,-0.30658 -0.12934,-0.0516 -0.29929,-0.11078 -0.2811,-0.26802 -0.12495,-0.0572 -0.2863,0.002 -0.36804,-0.14665 -0.21677,-0.0442 -0.41451,-0.14699 -0.60206,-0.26373 -0.14549,-0.0117 -0.0401,-0.2806 -0.23366,-0.22741 -0.15985,0.11165 -0.29843,-0.1067 -0.44332,-0.15259 -0.14671,-0.10352 -0.31384,-0.17296 -0.47067,-0.2553 -0.1377,-0.18472 0.19774,-0.28139 0.32109,-0.35268 0.1982,-0.0577 0.33801,-0.25001 0.53951,-0.27858 0.14026,0.12968 0.18934,-0.0597 0.20009,-0.17296 0.15537,-0.0885 0.34791,-0.13908 0.48999,-0.26371 0.12254,-0.0567 0.2597,-0.22269 0.3796,-0.19749 0.12318,0.10261 0.22875,-0.0245 0.199,-0.15083 0.10018,-0.0852 0.23294,-0.13518 0.34416,-0.21013 0.12734,-0.0684 0.25039,-0.15473 0.39032,-0.19287 0.20185,-0.002 0.17336,0.23084 0.21778,0.36437 0.0196,0.17177 10e-5,0.34442 0.013,0.51641 0.009,0.12216 -0.25374,0.17635 -0.0823,0.28467 0.13875,0.0706 0.0499,0.23413 0.0758,0.3555 0.0123,0.19244 -0.0343,0.38253 -0.015,0.57445 0.0323,0.14005 -0.23491,0.21357 -0.0546,0.32488 0.13522,0.086 0.0528,0.3291 0.048,0.4748 -0.0666,0.15823 0.0303,0.32942 -0.007,0.4949 -0.0355,0.016 -0.0639,0.0517 -0.10624,0.0496 z"
       id="path4561-6-2-9-1-4-5-1-9-7-8-1"
       inkscape:connector-curvature="0" />
    <path
       style="fill:#373737;stroke-width:1.33333337"
       d="m 643.82975,549.01034 c -0.19963,-0.077 -0.34114,-0.26019 -0.55415,-0.30658 -0.12934,-0.0516 -0.29929,-0.11078 -0.2811,-0.26802 -0.12495,-0.0572 -0.2863,0.002 -0.36804,-0.14665 -0.21677,-0.0442 -0.41451,-0.14699 -0.60206,-0.26373 -0.14549,-0.0117 -0.0401,-0.2806 -0.23366,-0.22741 -0.15985,0.11165 -0.29843,-0.1067 -0.44332,-0.15259 -0.14671,-0.10352 -0.31384,-0.17296 -0.47067,-0.2553 -0.1377,-0.18472 0.19774,-0.28139 0.32109,-0.35268 0.1982,-0.0577 0.33801,-0.25001 0.53951,-0.27858 0.14026,0.12968 0.18934,-0.0597 0.20009,-0.17296 0.15537,-0.0885 0.34791,-0.13908 0.48999,-0.26371 0.12254,-0.0567 0.2597,-0.22269 0.3796,-0.19749 0.12318,0.10261 0.22875,-0.0245 0.199,-0.15083 0.10018,-0.0852 0.23294,-0.13518 0.34416,-0.21013 0.12734,-0.0684 0.25039,-0.15473 0.39032,-0.19287 0.20185,-0.002 0.17336,0.23084 0.21778,0.36437 0.0196,0.17177 10e-5,0.34442 0.013,0.51641 0.009,0.12216 -0.25374,0.17635 -0.0823,0.28467 0.13875,0.0706 0.0499,0.23413 0.0758,0.3555 0.0123,0.19244 -0.0343,0.38253 -0.015,0.57445 0.0323,0.14005 -0.23491,0.21357 -0.0546,0.32488 0.13522,0.086 0.0528,0.3291 0.048,0.4748 -0.0666,0.15823 0.0303,0.32942 -0.007,0.4949 -0.0355,0.016 -0.0639,0.0517 -0.10624,0.0496 z"
       id="path4561-6-2-9-1-4-5-1-9-7-1"
       inkscape:connector-curvature="0" />
    <path
       style="fill:#373737;stroke-width:1.33333337"
       d="m 649.386,549.01034 c -0.19963,-0.077 -0.34114,-0.26019 -0.55415,-0.30658 -0.12934,-0.0516 -0.29929,-0.11078 -0.2811,-0.26802 -0.12495,-0.0572 -0.2863,0.002 -0.36804,-0.14665 -0.21677,-0.0442 -0.41451,-0.14699 -0.60206,-0.26373 -0.14549,-0.0117 -0.0401,-0.2806 -0.23366,-0.22741 -0.15985,0.11165 -0.29843,-0.1067 -0.44332,-0.15259 -0.14671,-0.10352 -0.31384,-0.17296 -0.47067,-0.2553 -0.1377,-0.18472 0.19774,-0.28139 0.32109,-0.35268 0.1982,-0.0577 0.33801,-0.25001 0.53951,-0.27858 0.14026,0.12968 0.18934,-0.0597 0.20009,-0.17296 0.15537,-0.0885 0.34791,-0.13908 0.48999,-0.26371 0.12254,-0.0567 0.2597,-0.22269 0.3796,-0.19749 0.12318,0.10261 0.22875,-0.0245 0.199,-0.15083 0.10018,-0.0852 0.23294,-0.13518 0.34416,-0.21013 0.12734,-0.0684 0.25039,-0.15473 0.39032,-0.19287 0.20185,-0.002 0.17336,0.23084 0.21778,0.36437 0.0196,0.17177 10e-5,0.34442 0.013,0.51641 0.009,0.12216 -0.25374,0.17635 -0.0823,0.28467 0.13875,0.0706 0.0499,0.23413 0.0758,0.3555 0.0123,0.19244 -0.0343,0.38253 -0.015,0.57445 0.0323,0.14005 -0.23491,0.21357 -0.0546,0.32488 0.13522,0.086 0.0528,0.3291 0.048,0.4748 -0.0666,0.15823 0.0303,0.32942 -0.007,0.4949 -0.0355,0.016 -0.0639,0.0517 -0.10624,0.0496 z"
       id="path4561-6-2-9-1-4-5-1-9-7-8-9"
       inkscape:connector-curvature="0" />
    <path
       style="fill:#373737;stroke-width:1.33333337"
       d="m 654.94225,548.74576 c -0.19963,-0.077 -0.34114,-0.26019 -0.55415,-0.30658 -0.12934,-0.0516 -0.29929,-0.11078 -0.2811,-0.26802 -0.12495,-0.0572 -0.2863,0.002 -0.36804,-0.14665 -0.21677,-0.0442 -0.41451,-0.14699 -0.60206,-0.26373 -0.14549,-0.0117 -0.0401,-0.2806 -0.23366,-0.22741 -0.15985,0.11165 -0.29843,-0.1067 -0.44332,-0.15259 -0.14671,-0.10352 -0.31384,-0.17296 -0.47067,-0.2553 -0.1377,-0.18472 0.19774,-0.28139 0.32109,-0.35268 0.1982,-0.0577 0.33801,-0.25001 0.53951,-0.27858 0.14026,0.12968 0.18934,-0.0597 0.20009,-0.17296 0.15537,-0.0885 0.34791,-0.13908 0.48999,-0.26371 0.12254,-0.0567 0.2597,-0.22269 0.3796,-0.19749 0.12318,0.10261 0.22875,-0.0245 0.199,-0.15083 0.10018,-0.0852 0.23294,-0.13518 0.34416,-0.21013 0.12734,-0.0684 0.25039,-0.15473 0.39032,-0.19287 0.20185,-0.002 0.17336,0.23084 0.21778,0.36437 0.0196,0.17177 10e-5,0.34442 0.013,0.51641 0.009,0.12216 -0.25374,0.17635 -0.0823,0.28467 0.13875,0.0706 0.0499,0.23413 0.0758,0.3555 0.0123,0.19244 -0.0343,0.38253 -0.015,0.57445 0.0323,0.14005 -0.23491,0.21357 -0.0546,0.32488 0.13522,0.086 0.0528,0.3291 0.048,0.4748 -0.0666,0.15823 0.0303,0.32942 -0.007,0.4949 -0.0355,0.016 -0.0639,0.0517 -0.10624,0.0496 z"
       id="path4561-6-2-9-1-4-5-1-9-7-8-1-4"
       inkscape:connector-curvature="0" />
    <path
       style="fill:#373737;stroke-width:1.33333337"
       d="m 657.32349,461.03639 c -0.19962,-0.077 -0.34114,-0.26019 -0.55415,-0.30658 -0.12933,-0.0516 -0.29929,-0.11078 -0.28109,-0.26802 -0.12495,-0.0572 -0.28631,0.002 -0.36804,-0.14665 -0.21677,-0.0442 -0.41451,-0.14699 -0.60206,-0.26373 -0.14549,-0.0117 -0.0401,-0.2806 -0.23366,-0.22741 -0.15985,0.11165 -0.29843,-0.1067 -0.44332,-0.15259 -0.14671,-0.10352 -0.31384,-0.17296 -0.47067,-0.2553 -0.1377,-0.18472 0.19774,-0.28139 0.32109,-0.35268 0.1982,-0.0577 0.33801,-0.25001 0.53951,-0.27858 0.14026,0.12968 0.18934,-0.0597 0.20009,-0.17296 0.15537,-0.0885 0.34791,-0.13908 0.48999,-0.26371 0.12254,-0.0567 0.2597,-0.22269 0.3796,-0.19749 0.12318,0.10261 0.22875,-0.0245 0.199,-0.15083 0.10018,-0.0852 0.23294,-0.13518 0.34415,-0.21013 0.12735,-0.0684 0.2504,-0.15473 0.39032,-0.19287 0.20186,-0.002 0.17336,0.23084 0.21779,0.36437 0.0196,0.17177 10e-5,0.34442 0.013,0.51641 0.009,0.12216 -0.25374,0.17635 -0.0823,0.28467 0.13874,0.0706 0.0499,0.23413 0.0758,0.3555 0.0123,0.19244 -0.0343,0.38253 -0.015,0.57445 0.0323,0.14005 -0.23491,0.21357 -0.0546,0.32488 0.13522,0.086 0.0528,0.3291 0.048,0.4748 -0.0666,0.15823 0.0303,0.32942 -0.007,0.4949 -0.0355,0.016 -0.0639,0.0517 -0.10624,0.0496 z"
       id="path4561-6-2-9-1-4-6-0-5-1"
       inkscape:connector-curvature="0" />
    <path
       style="fill:#373737;stroke-width:1.33333337"
       d="m 645.15266,465.53431 c -0.19962,-0.077 -0.34114,-0.26019 -0.55415,-0.30658 -0.12933,-0.0516 -0.29929,-0.11078 -0.28109,-0.26802 -0.12495,-0.0572 -0.28631,0.002 -0.36804,-0.14665 -0.21677,-0.0442 -0.41451,-0.14699 -0.60206,-0.26373 -0.14549,-0.0117 -0.0401,-0.2806 -0.23366,-0.22741 -0.15985,0.11165 -0.29843,-0.1067 -0.44332,-0.15259 -0.14671,-0.10352 -0.31384,-0.17296 -0.47067,-0.2553 -0.1377,-0.18472 0.19774,-0.28139 0.32109,-0.35268 0.1982,-0.0577 0.33801,-0.25001 0.53951,-0.27858 0.14026,0.12968 0.18934,-0.0597 0.20009,-0.17296 0.15537,-0.0885 0.34791,-0.13908 0.48999,-0.26371 0.12254,-0.0567 0.2597,-0.22269 0.3796,-0.19749 0.12318,0.10261 0.22875,-0.0245 0.199,-0.15083 0.10018,-0.0852 0.23294,-0.13518 0.34415,-0.21013 0.12735,-0.0684 0.2504,-0.15473 0.39032,-0.19287 0.20186,-0.002 0.17336,0.23084 0.21779,0.36437 0.0196,0.17177 10e-5,0.34442 0.013,0.51641 0.009,0.12216 -0.25374,0.17635 -0.0823,0.28467 0.13874,0.0706 0.0499,0.23413 0.0758,0.3555 0.0123,0.19244 -0.0343,0.38253 -0.015,0.57445 0.0323,0.14005 -0.23491,0.21357 -0.0546,0.32488 0.13522,0.086 0.0528,0.3291 0.048,0.4748 -0.0666,0.15823 0.0303,0.32942 -0.007,0.4949 -0.0355,0.016 -0.0639,0.0517 -0.10624,0.0496 z"
       id="path4561-6-2-9-1-4-6-0-5-1-8"
       inkscape:connector-curvature="0" />
    <path
       style="fill:#373737;stroke-width:1.33333337"
       d="m 650.44432,461.83013 c -0.19962,-0.077 -0.34114,-0.26019 -0.55415,-0.30658 -0.12933,-0.0516 -0.29929,-0.11078 -0.28109,-0.26802 -0.12495,-0.0572 -0.28631,0.002 -0.36804,-0.14665 -0.21677,-0.0442 -0.41451,-0.14699 -0.60206,-0.26373 -0.14549,-0.0117 -0.0401,-0.2806 -0.23366,-0.22741 -0.15985,0.11165 -0.29843,-0.1067 -0.44332,-0.15259 -0.14671,-0.10352 -0.31384,-0.17296 -0.47067,-0.2553 -0.1377,-0.18472 0.19774,-0.28139 0.32109,-0.35268 0.1982,-0.0577 0.33801,-0.25001 0.53951,-0.27858 0.14026,0.12968 0.18934,-0.0597 0.20009,-0.17296 0.15537,-0.0885 0.34791,-0.13908 0.48999,-0.26371 0.12254,-0.0567 0.2597,-0.22269 0.3796,-0.19749 0.12318,0.10261 0.22875,-0.0245 0.199,-0.15083 0.10018,-0.0852 0.23294,-0.13518 0.34415,-0.21013 0.12735,-0.0684 0.2504,-0.15473 0.39032,-0.19287 0.20186,-0.002 0.17336,0.23084 0.21779,0.36437 0.0196,0.17177 1e-4,0.34442 0.013,0.51641 0.009,0.12216 -0.25374,0.17635 -0.0823,0.28467 0.13874,0.0706 0.0499,0.23413 0.0758,0.3555 0.0123,0.19244 -0.0343,0.38253 -0.015,0.57445 0.0323,0.14005 -0.23491,0.21357 -0.0546,0.32488 0.13522,0.086 0.0528,0.3291 0.048,0.4748 -0.0666,0.15823 0.0303,0.32942 -0.007,0.4949 -0.0355,0.016 -0.0639,0.0517 -0.10624,0.0496 z"
       id="path4561-6-2-9-1-4-6-0-5-1-8-0"
       inkscape:connector-curvature="0" />
    <path
       style="fill:#373737;stroke-width:1.33333337"
       d="m 640.43004,469.21369 c -0.19962,-0.077 -0.34114,-0.26019 -0.55415,-0.30658 -0.12933,-0.0516 -0.29929,-0.11078 -0.28109,-0.26802 -0.12495,-0.0572 -0.28631,0.002 -0.36804,-0.14665 -0.21677,-0.0442 -0.41451,-0.14699 -0.60206,-0.26373 -0.14549,-0.0117 -0.0401,-0.2806 -0.23366,-0.22741 -0.15985,0.11165 -0.29843,-0.1067 -0.44332,-0.15259 -0.14671,-0.10352 -0.31384,-0.17296 -0.47067,-0.2553 -0.1377,-0.18472 0.19774,-0.28139 0.32109,-0.35268 0.1982,-0.0577 0.33801,-0.25001 0.53951,-0.27858 0.14026,0.12968 0.18934,-0.0597 0.20009,-0.17296 0.15537,-0.0885 0.34791,-0.13908 0.48999,-0.26371 0.12254,-0.0567 0.2597,-0.22269 0.3796,-0.19749 0.12318,0.10261 0.22875,-0.0245 0.199,-0.15083 0.10018,-0.0852 0.23294,-0.13518 0.34415,-0.21013 0.12735,-0.0684 0.2504,-0.15473 0.39032,-0.19287 0.20186,-0.002 0.17336,0.23084 0.21779,0.36437 0.0196,0.17177 10e-5,0.34442 0.013,0.51641 0.009,0.12216 -0.25374,0.17635 -0.0823,0.28467 0.13874,0.0706 0.0499,0.23413 0.0758,0.3555 0.0123,0.19244 -0.0343,0.38253 -0.015,0.57445 0.0323,0.14005 -0.23491,0.21357 -0.0546,0.32488 0.13522,0.086 0.0528,0.3291 0.048,0.4748 -0.0666,0.15823 0.0303,0.32942 -0.007,0.4949 -0.0355,0.016 -0.0639,0.0517 -0.10624,0.0496 z"
       id="path4561-6-2-9-1-4-6-0-5-1-8-1"
       inkscape:connector-curvature="0" />
    <path
       style="fill:#373737;stroke-width:1.33333337"
       d="m 637.61643,473.86019 c -0.19962,-0.077 -0.34114,-0.26019 -0.55415,-0.30658 -0.12933,-0.0516 -0.29929,-0.11078 -0.28109,-0.26802 -0.12495,-0.0572 -0.28631,0.002 -0.36804,-0.14665 -0.21677,-0.0442 -0.41451,-0.14699 -0.60206,-0.26373 -0.14549,-0.0117 -0.0401,-0.2806 -0.23366,-0.22741 -0.15985,0.11165 -0.29843,-0.1067 -0.44332,-0.15259 -0.14671,-0.10352 -0.31384,-0.17296 -0.47067,-0.2553 -0.1377,-0.18472 0.19774,-0.28139 0.32109,-0.35268 0.1982,-0.0577 0.33801,-0.25001 0.53951,-0.27858 0.14026,0.12968 0.18934,-0.0597 0.20009,-0.17296 0.15537,-0.0885 0.34791,-0.13908 0.48999,-0.26371 0.12254,-0.0567 0.2597,-0.22269 0.3796,-0.19749 0.12318,0.10261 0.22875,-0.0245 0.199,-0.15083 0.10018,-0.0852 0.23294,-0.13518 0.34415,-0.21013 0.12735,-0.0684 0.2504,-0.15473 0.39032,-0.19287 0.20186,-0.002 0.17336,0.23084 0.21779,0.36437 0.0196,0.17177 10e-5,0.34442 0.013,0.51641 0.009,0.12216 -0.25374,0.17635 -0.0823,0.28467 0.13874,0.0706 0.0499,0.23413 0.0758,0.3555 0.0123,0.19244 -0.0343,0.38253 -0.015,0.57445 0.0323,0.14005 -0.23491,0.21357 -0.0546,0.32488 0.13522,0.086 0.0528,0.3291 0.048,0.4748 -0.0666,0.15823 0.0303,0.32942 -0.007,0.4949 -0.0355,0.016 -0.0639,0.0517 -0.10624,0.0496 z"
       id="path4561-6-2-9-1-4-6-0-5-1-8-1-6"
       inkscape:connector-curvature="0" />
    <path
       style="fill:#373737;stroke-width:1.33333337"
       d="m 634.62301,479.5664 c -0.19962,-0.077 -0.34114,-0.26019 -0.55415,-0.30658 -0.12933,-0.0516 -0.29929,-0.11078 -0.28109,-0.26802 -0.12495,-0.0572 -0.28631,0.002 -0.36804,-0.14665 -0.21677,-0.0442 -0.41451,-0.14699 -0.60206,-0.26373 -0.14549,-0.0117 -0.0401,-0.2806 -0.23366,-0.22741 -0.15985,0.11165 -0.29843,-0.1067 -0.44332,-0.15259 -0.14671,-0.10352 -0.31384,-0.17296 -0.47067,-0.2553 -0.1377,-0.18472 0.19774,-0.28139 0.32109,-0.35268 0.1982,-0.0577 0.33801,-0.25001 0.53951,-0.27858 0.14026,0.12968 0.18934,-0.0597 0.20009,-0.17296 0.15537,-0.0885 0.34791,-0.13908 0.48999,-0.26371 0.12254,-0.0567 0.2597,-0.22269 0.3796,-0.19749 0.12318,0.10261 0.22875,-0.0245 0.199,-0.15083 0.10018,-0.0852 0.23294,-0.13518 0.34415,-0.21013 0.12735,-0.0684 0.2504,-0.15473 0.39032,-0.19287 0.20186,-0.002 0.17336,0.23084 0.21779,0.36437 0.0196,0.17177 10e-5,0.34442 0.013,0.51641 0.009,0.12216 -0.25374,0.17635 -0.0823,0.28467 0.13874,0.0706 0.0499,0.23413 0.0758,0.3555 0.0123,0.19244 -0.0343,0.38253 -0.015,0.57445 0.0323,0.14005 -0.23491,0.21357 -0.0546,0.32488 0.13522,0.086 0.0528,0.3291 0.048,0.4748 -0.0666,0.15823 0.0303,0.32942 -0.007,0.4949 -0.0355,0.016 -0.0639,0.0517 -0.10624,0.0496 z"
       id="path4561-6-2-9-1-4-6-0-5-1-8-1-6-2"
       inkscape:connector-curvature="0" />
    <path
       style="fill:#373737;stroke-width:1.33333337"
       d="m 545.36545,553.75665 c -0.19962,-0.077 -0.34114,-0.26019 -0.55415,-0.30658 -0.12933,-0.0516 -0.29929,-0.11078 -0.28109,-0.26802 -0.12495,-0.0572 -0.28631,0.002 -0.36804,-0.14665 -0.21677,-0.0442 -0.41451,-0.14699 -0.60206,-0.26373 -0.14549,-0.0117 -0.0401,-0.2806 -0.23366,-0.22741 -0.15985,0.11165 -0.29843,-0.1067 -0.44332,-0.15259 -0.14671,-0.10352 -0.31384,-0.17296 -0.47067,-0.2553 -0.1377,-0.18472 0.19774,-0.28139 0.32109,-0.35268 0.1982,-0.0577 0.33801,-0.25001 0.53951,-0.27858 0.14026,0.12968 0.18934,-0.0597 0.20009,-0.17296 0.15537,-0.0885 0.34791,-0.13908 0.48999,-0.26371 0.12254,-0.0567 0.2597,-0.22269 0.3796,-0.19749 0.12318,0.10261 0.22875,-0.0245 0.199,-0.15083 0.10018,-0.0852 0.23294,-0.13518 0.34415,-0.21013 0.12735,-0.0684 0.2504,-0.15473 0.39032,-0.19287 0.20186,-0.002 0.17336,0.23084 0.21779,0.36437 0.0196,0.17177 10e-5,0.34442 0.013,0.51641 0.009,0.12216 -0.25374,0.17635 -0.0823,0.28467 0.13874,0.0706 0.0499,0.23413 0.0758,0.3555 0.0123,0.19244 -0.0343,0.38253 -0.015,0.57445 0.0323,0.14005 -0.23491,0.21357 -0.0546,0.32488 0.13522,0.086 0.0528,0.3291 0.048,0.4748 -0.0666,0.15823 0.0303,0.32942 -0.007,0.4949 -0.0355,0.016 -0.0639,0.0517 -0.10624,0.0496 z"
       id="path4561-6-2-9-1-4-7"
       inkscape:connector-curvature="0" />
    <path
       style="fill:#373737;stroke-width:1.33333337"
       d="m 544.96858,547.93582 c -0.19962,-0.077 -0.34114,-0.26019 -0.55415,-0.30658 -0.12933,-0.0516 -0.29929,-0.11078 -0.28109,-0.26802 -0.12495,-0.0572 -0.28631,0.002 -0.36804,-0.14665 -0.21677,-0.0442 -0.41451,-0.14699 -0.60206,-0.26373 -0.14549,-0.0117 -0.0401,-0.2806 -0.23366,-0.22741 -0.15985,0.11165 -0.29843,-0.1067 -0.44332,-0.15259 -0.14671,-0.10352 -0.31384,-0.17296 -0.47067,-0.2553 -0.1377,-0.18472 0.19774,-0.28139 0.32109,-0.35268 0.1982,-0.0577 0.33801,-0.25001 0.53951,-0.27858 0.14026,0.12968 0.18934,-0.0597 0.20009,-0.17296 0.15537,-0.0885 0.34791,-0.13908 0.48999,-0.26371 0.12254,-0.0567 0.2597,-0.22269 0.3796,-0.19749 0.12318,0.10261 0.22875,-0.0245 0.199,-0.15083 0.10018,-0.0852 0.23294,-0.13518 0.34415,-0.21013 0.12735,-0.0684 0.2504,-0.15473 0.39032,-0.19287 0.20186,-0.002 0.17336,0.23084 0.21779,0.36437 0.0196,0.17177 10e-5,0.34442 0.013,0.51641 0.009,0.12216 -0.25374,0.17635 -0.0823,0.28467 0.13874,0.0706 0.0499,0.23413 0.0758,0.3555 0.0123,0.19244 -0.0343,0.38253 -0.015,0.57445 0.0323,0.14005 -0.23491,0.21357 -0.0546,0.32488 0.13522,0.086 0.0528,0.3291 0.048,0.4748 -0.0666,0.15823 0.0303,0.32942 -0.007,0.4949 -0.0355,0.016 -0.0639,0.0517 -0.10624,0.0496 z"
       id="path4561-6-2-9-1-4-6-5"
       inkscape:connector-curvature="0" />
    <path
       style="fill:#373737;stroke-width:1.33333337"
       d="m 544.96857,542.24727 c -0.19962,-0.077 -0.34114,-0.26019 -0.55415,-0.30658 -0.12933,-0.0516 -0.29929,-0.11078 -0.28109,-0.26802 -0.12495,-0.0572 -0.28631,0.002 -0.36804,-0.14665 -0.21677,-0.0442 -0.41451,-0.14699 -0.60206,-0.26373 -0.14549,-0.0117 -0.0401,-0.2806 -0.23366,-0.22741 -0.15985,0.11165 -0.29843,-0.1067 -0.44332,-0.15259 -0.14671,-0.10352 -0.31384,-0.17296 -0.47067,-0.2553 -0.1377,-0.18472 0.19774,-0.28139 0.32109,-0.35268 0.1982,-0.0577 0.33801,-0.25001 0.53951,-0.27858 0.14026,0.12968 0.18934,-0.0597 0.20009,-0.17296 0.15537,-0.0885 0.34791,-0.13908 0.48999,-0.26371 0.12254,-0.0567 0.2597,-0.22269 0.3796,-0.19749 0.12318,0.10261 0.22875,-0.0245 0.199,-0.15083 0.10018,-0.0852 0.23294,-0.13518 0.34415,-0.21013 0.12735,-0.0684 0.2504,-0.15473 0.39032,-0.19287 0.20186,-0.002 0.17336,0.23084 0.21779,0.36437 0.0196,0.17177 10e-5,0.34442 0.013,0.51641 0.009,0.12216 -0.25374,0.17635 -0.0823,0.28467 0.13874,0.0706 0.0499,0.23413 0.0758,0.3555 0.0123,0.19244 -0.0343,0.38253 -0.015,0.57445 0.0323,0.14005 -0.23491,0.21357 -0.0546,0.32488 0.13522,0.086 0.0528,0.3291 0.048,0.4748 -0.0666,0.15823 0.0303,0.32942 -0.007,0.4949 -0.0355,0.016 -0.0639,0.0517 -0.10624,0.0496 z"
       id="path4561-6-2-9-1-4-4-4"
       inkscape:connector-curvature="0" />
    <path
       style="fill:#373737;stroke-width:1.33333337"
       d="m 544.77014,536.75718 c -0.19962,-0.077 -0.34114,-0.26019 -0.55415,-0.30658 -0.12933,-0.0516 -0.29929,-0.11078 -0.28109,-0.26802 -0.12495,-0.0572 -0.28631,0.002 -0.36804,-0.14665 -0.21677,-0.0442 -0.41451,-0.14699 -0.60206,-0.26373 -0.14549,-0.0117 -0.0401,-0.2806 -0.23366,-0.22741 -0.15985,0.11165 -0.29843,-0.1067 -0.44332,-0.15259 -0.14671,-0.10352 -0.31384,-0.17296 -0.47067,-0.2553 -0.1377,-0.18472 0.19774,-0.28139 0.32109,-0.35268 0.1982,-0.0577 0.33801,-0.25001 0.53951,-0.27858 0.14026,0.12968 0.18934,-0.0597 0.20009,-0.17296 0.15537,-0.0885 0.34791,-0.13908 0.48999,-0.26371 0.12254,-0.0567 0.2597,-0.22269 0.3796,-0.19749 0.12318,0.10261 0.22875,-0.0245 0.199,-0.15083 0.10018,-0.0852 0.23294,-0.13518 0.34415,-0.21013 0.12735,-0.0684 0.2504,-0.15473 0.39032,-0.19287 0.20186,-0.002 0.17336,0.23084 0.21779,0.36437 0.0196,0.17177 10e-5,0.34442 0.013,0.51641 0.009,0.12216 -0.25374,0.17635 -0.0823,0.28467 0.13874,0.0706 0.0499,0.23413 0.0758,0.3555 0.0123,0.19244 -0.0343,0.38253 -0.015,0.57445 0.0323,0.14005 -0.23491,0.21357 -0.0546,0.32488 0.13522,0.086 0.0528,0.3291 0.048,0.4748 -0.0666,0.15823 0.0303,0.32942 -0.007,0.4949 -0.0355,0.016 -0.0639,0.0517 -0.10624,0.0496 z"
       id="path4561-6-2-9-1-4-44-1"
       inkscape:connector-curvature="0" />
    <path
       style="fill:#373737;stroke-width:1.33333337"
       d="m 544.37327,530.93635 c -0.19962,-0.077 -0.34114,-0.26019 -0.55415,-0.30658 -0.12933,-0.0516 -0.29929,-0.11078 -0.28109,-0.26802 -0.12495,-0.0572 -0.28631,0.002 -0.36804,-0.14665 -0.21677,-0.0442 -0.41451,-0.14699 -0.60206,-0.26373 -0.14549,-0.0117 -0.0401,-0.2806 -0.23366,-0.22741 -0.15985,0.11165 -0.29843,-0.1067 -0.44332,-0.15259 -0.14671,-0.10352 -0.31384,-0.17296 -0.47067,-0.2553 -0.1377,-0.18472 0.19774,-0.28139 0.32109,-0.35268 0.1982,-0.0577 0.33801,-0.25001 0.53951,-0.27858 0.14026,0.12968 0.18934,-0.0597 0.20009,-0.17296 0.15537,-0.0885 0.34791,-0.13908 0.48999,-0.26371 0.12254,-0.0567 0.2597,-0.22269 0.3796,-0.19749 0.12318,0.10261 0.22875,-0.0245 0.199,-0.15083 0.10018,-0.0852 0.23294,-0.13518 0.34415,-0.21013 0.12735,-0.0684 0.2504,-0.15473 0.39032,-0.19287 0.20186,-0.002 0.17336,0.23084 0.21779,0.36437 0.0196,0.17177 1e-4,0.34442 0.013,0.51641 0.009,0.12216 -0.25374,0.17635 -0.0823,0.28467 0.13874,0.0706 0.0499,0.23413 0.0758,0.3555 0.0123,0.19244 -0.0343,0.38253 -0.015,0.57445 0.0323,0.14005 -0.23491,0.21357 -0.0546,0.32488 0.13522,0.086 0.0528,0.3291 0.048,0.4748 -0.0666,0.15823 0.0303,0.32942 -0.007,0.4949 -0.0355,0.016 -0.0639,0.0517 -0.10624,0.0496 z"
       id="path4561-6-2-9-1-4-6-0-38"
       inkscape:connector-curvature="0" />
    <path
       style="fill:#373737;stroke-width:1.33333337"
       d="m 544.37326,525.2478 c -0.19962,-0.077 -0.34114,-0.26019 -0.55415,-0.30658 -0.12933,-0.0516 -0.29929,-0.11078 -0.28109,-0.26802 -0.12495,-0.0572 -0.28631,0.002 -0.36804,-0.14665 -0.21677,-0.0442 -0.41451,-0.14699 -0.60206,-0.26373 -0.14549,-0.0117 -0.0401,-0.2806 -0.23366,-0.22741 -0.15985,0.11165 -0.29843,-0.1067 -0.44332,-0.15259 -0.14671,-0.10352 -0.31384,-0.17296 -0.47067,-0.2553 -0.1377,-0.18472 0.19774,-0.28139 0.32109,-0.35268 0.1982,-0.0577 0.33801,-0.25001 0.53951,-0.27858 0.14026,0.12968 0.18934,-0.0597 0.20009,-0.17296 0.15537,-0.0885 0.34791,-0.13908 0.48999,-0.26371 0.12254,-0.0567 0.2597,-0.22269 0.3796,-0.19749 0.12318,0.10261 0.22875,-0.0245 0.199,-0.15083 0.10018,-0.0852 0.23294,-0.13518 0.34415,-0.21013 0.12735,-0.0684 0.2504,-0.15473 0.39032,-0.19287 0.20186,-0.002 0.17336,0.23084 0.21779,0.36437 0.0196,0.17177 10e-5,0.34442 0.013,0.51641 0.009,0.12216 -0.25374,0.17635 -0.0823,0.28467 0.13874,0.0706 0.0499,0.23413 0.0758,0.3555 0.0123,0.19244 -0.0343,0.38253 -0.015,0.57445 0.0323,0.14005 -0.23491,0.21357 -0.0546,0.32488 0.13522,0.086 0.0528,0.3291 0.048,0.4748 -0.0666,0.15823 0.0303,0.32942 -0.007,0.4949 -0.0355,0.016 -0.0639,0.0517 -0.10624,0.0496 z"
       id="path4561-6-2-9-1-4-4-9-5"
       inkscape:connector-curvature="0" />
    <path
       style="fill:#373737;stroke-width:1.33333337"
       d="m 544.27404,519.98921 c -0.19962,-0.077 -0.34114,-0.2602 -0.55415,-0.30658 -0.12933,-0.0516 -0.29929,-0.11079 -0.28109,-0.26802 -0.12495,-0.0572 -0.28631,0.002 -0.36804,-0.14666 -0.21677,-0.0442 -0.41451,-0.14698 -0.60206,-0.26372 -0.14549,-0.0117 -0.0401,-0.28061 -0.23366,-0.22742 -0.15985,0.11166 -0.29843,-0.10669 -0.44332,-0.15258 -0.14671,-0.10352 -0.31384,-0.17296 -0.47067,-0.25531 -0.1377,-0.18471 0.19774,-0.28139 0.32109,-0.35267 0.1982,-0.0577 0.33801,-0.25001 0.53951,-0.27858 0.14026,0.12968 0.18934,-0.0597 0.20009,-0.17297 0.15537,-0.0885 0.34791,-0.13907 0.48999,-0.26371 0.12254,-0.0567 0.2597,-0.22268 0.3796,-0.19749 0.12318,0.10261 0.22875,-0.0245 0.199,-0.15082 0.10018,-0.0852 0.23294,-0.13519 0.34415,-0.21013 0.12735,-0.0684 0.2504,-0.15473 0.39032,-0.19287 0.20186,-0.002 0.17336,0.23083 0.21779,0.36436 0.0196,0.17177 10e-5,0.34443 0.013,0.51642 0.009,0.12216 -0.25374,0.17635 -0.0823,0.28467 0.13874,0.0706 0.0499,0.23413 0.0758,0.3555 0.0123,0.19243 -0.0343,0.38252 -0.015,0.57445 0.0323,0.14004 -0.23491,0.21356 -0.0546,0.32487 0.13522,0.086 0.0528,0.32911 0.048,0.4748 -0.0666,0.15824 0.0303,0.32942 -0.007,0.4949 -0.0355,0.016 -0.0639,0.0517 -0.10624,0.0496 z"
       id="path4561-6-2-9-1-4-8-2"
       inkscape:connector-curvature="0" />
    <path
       style="fill:#373737;stroke-width:1.33333337"
       d="m 543.87717,514.16837 c -0.19962,-0.077 -0.34114,-0.26018 -0.55415,-0.30657 -0.12933,-0.0516 -0.29929,-0.11078 -0.28109,-0.26802 -0.12495,-0.0572 -0.28631,0.002 -0.36804,-0.14665 -0.21677,-0.0442 -0.41451,-0.14699 -0.60206,-0.26373 -0.14549,-0.0117 -0.0401,-0.2806 -0.23366,-0.22741 -0.15985,0.11165 -0.29843,-0.1067 -0.44332,-0.15259 -0.14671,-0.10352 -0.31384,-0.17296 -0.47067,-0.2553 -0.1377,-0.18472 0.19774,-0.28139 0.32109,-0.35268 0.1982,-0.0577 0.33801,-0.25001 0.53951,-0.27858 0.14026,0.12968 0.18934,-0.0597 0.20009,-0.17296 0.15537,-0.0885 0.34791,-0.13908 0.48999,-0.26371 0.12254,-0.0567 0.2597,-0.22269 0.3796,-0.19749 0.12318,0.10261 0.22875,-0.0245 0.199,-0.15083 0.10018,-0.0852 0.23294,-0.13518 0.34415,-0.21013 0.12735,-0.0684 0.2504,-0.15473 0.39032,-0.19287 0.20186,-0.002 0.17336,0.23084 0.21779,0.36437 0.0196,0.17177 10e-5,0.34442 0.013,0.51641 0.009,0.12216 -0.25374,0.17635 -0.0823,0.28467 0.13874,0.0706 0.0499,0.23413 0.0758,0.3555 0.0123,0.19244 -0.0343,0.38253 -0.015,0.57445 0.0323,0.14005 -0.23491,0.21357 -0.0546,0.32488 0.13522,0.086 0.0528,0.3291 0.048,0.4748 -0.0666,0.15823 0.0303,0.32942 -0.007,0.4949 -0.0355,0.016 -0.0639,0.0517 -0.10624,0.0496 z"
       id="path4561-6-2-9-1-4-6-9-6"
       inkscape:connector-curvature="0" />
    <path
       style="fill:#373737;stroke-width:1.33333337"
       d="m 543.87716,508.47983 c -0.19962,-0.077 -0.34114,-0.26019 -0.55415,-0.30658 -0.12933,-0.0516 -0.29929,-0.11078 -0.28109,-0.26802 -0.12495,-0.0572 -0.28631,0.002 -0.36804,-0.14665 -0.21677,-0.0442 -0.41451,-0.14699 -0.60206,-0.26373 -0.14549,-0.0117 -0.0401,-0.2806 -0.23366,-0.22741 -0.15985,0.11165 -0.29843,-0.1067 -0.44332,-0.15259 -0.14671,-0.10352 -0.31384,-0.17296 -0.47067,-0.2553 -0.1377,-0.18472 0.19774,-0.28139 0.32109,-0.35268 0.1982,-0.0577 0.33801,-0.25001 0.53951,-0.27858 0.14026,0.12968 0.18934,-0.0597 0.20009,-0.17296 0.15537,-0.0885 0.34791,-0.13908 0.48999,-0.26371 0.12254,-0.0567 0.2597,-0.22269 0.3796,-0.19749 0.12318,0.10261 0.22875,-0.0245 0.199,-0.15083 0.10018,-0.0852 0.23294,-0.13518 0.34415,-0.21013 0.12735,-0.0684 0.2504,-0.15473 0.39032,-0.19287 0.20186,-0.002 0.17336,0.23084 0.21779,0.36437 0.0196,0.17177 10e-5,0.34442 0.013,0.51641 0.009,0.12216 -0.25374,0.17635 -0.0823,0.28467 0.13874,0.0706 0.0499,0.23413 0.0758,0.3555 0.0123,0.19244 -0.0343,0.38253 -0.015,0.57445 0.0323,0.14005 -0.23491,0.21357 -0.0546,0.32488 0.13522,0.086 0.0528,0.3291 0.048,0.4748 -0.0666,0.15823 0.0303,0.32942 -0.007,0.4949 -0.0355,0.016 -0.0639,0.0517 -0.10624,0.0496 z"
       id="path4561-6-2-9-1-4-4-91-6"
       inkscape:connector-curvature="0" />
    <path
       style="fill:#373737;stroke-width:1.33333337"
       d="m 543.67873,502.98974 c -0.19962,-0.077 -0.34114,-0.26019 -0.55415,-0.30658 -0.12933,-0.0516 -0.29929,-0.11078 -0.28109,-0.26802 -0.12495,-0.0572 -0.28631,0.002 -0.36804,-0.14665 -0.21677,-0.0442 -0.41451,-0.14699 -0.60206,-0.26373 -0.14549,-0.0117 -0.0401,-0.2806 -0.23366,-0.22741 -0.15985,0.11165 -0.29843,-0.1067 -0.44332,-0.15259 -0.14671,-0.10352 -0.31384,-0.17296 -0.47067,-0.2553 -0.1377,-0.18472 0.19774,-0.28139 0.32109,-0.35268 0.1982,-0.0577 0.33801,-0.25001 0.53951,-0.27858 0.14026,0.12968 0.18934,-0.0597 0.20009,-0.17296 0.15537,-0.0885 0.34791,-0.13908 0.48999,-0.26371 0.12254,-0.0567 0.2597,-0.22269 0.3796,-0.19749 0.12318,0.10261 0.22875,-0.0245 0.199,-0.15083 0.10018,-0.0852 0.23294,-0.13518 0.34415,-0.21013 0.12735,-0.0684 0.2504,-0.15473 0.39032,-0.19287 0.20186,-0.002 0.17336,0.23084 0.21779,0.36437 0.0196,0.17177 10e-5,0.34442 0.013,0.51641 0.009,0.12216 -0.25374,0.17635 -0.0823,0.28467 0.13874,0.0706 0.0499,0.23413 0.0758,0.3555 0.0123,0.19244 -0.0343,0.38253 -0.015,0.57445 0.0323,0.14005 -0.23491,0.21357 -0.0546,0.32488 0.13522,0.086 0.0528,0.3291 0.048,0.4748 -0.0666,0.15823 0.0303,0.32942 -0.007,0.4949 -0.0355,0.016 -0.0639,0.0517 -0.10624,0.0496 z"
       id="path4561-6-2-9-1-4-44-5-6"
       inkscape:connector-curvature="0" />
    <path
       style="fill:#373737;stroke-width:1.33333337"
       d="m 543.28186,497.1689 c -0.19962,-0.077 -0.34114,-0.26019 -0.55415,-0.30658 -0.12933,-0.0516 -0.29929,-0.11078 -0.28109,-0.26802 -0.12495,-0.0572 -0.28631,0.002 -0.36804,-0.14665 -0.21677,-0.0442 -0.41451,-0.14699 -0.60206,-0.26373 -0.14549,-0.0117 -0.0401,-0.2806 -0.23366,-0.22741 -0.15985,0.11165 -0.29843,-0.1067 -0.44332,-0.15259 -0.14671,-0.10352 -0.31384,-0.17296 -0.47067,-0.2553 -0.1377,-0.18472 0.19774,-0.28139 0.32109,-0.35268 0.1982,-0.0577 0.33801,-0.25001 0.53951,-0.27858 0.14026,0.12968 0.18934,-0.0597 0.20009,-0.17296 0.15537,-0.0885 0.34791,-0.13908 0.48999,-0.26371 0.12254,-0.0567 0.2597,-0.22269 0.3796,-0.19749 0.12318,0.10261 0.22875,-0.0245 0.199,-0.15083 0.10018,-0.0852 0.23294,-0.13518 0.34415,-0.21013 0.12735,-0.0684 0.2504,-0.15473 0.39032,-0.19287 0.20186,-0.002 0.17336,0.23084 0.21779,0.36437 0.0196,0.17177 1e-4,0.34442 0.013,0.51641 0.009,0.12216 -0.25374,0.17635 -0.0823,0.28467 0.13874,0.0706 0.0499,0.23413 0.0758,0.3555 0.0123,0.19244 -0.0343,0.38253 -0.015,0.57445 0.0323,0.14005 -0.23491,0.21357 -0.0546,0.32488 0.13522,0.086 0.0528,0.3291 0.048,0.4748 -0.0666,0.15823 0.0303,0.32942 -0.007,0.4949 -0.0355,0.016 -0.0639,0.0517 -0.10624,0.0496 z"
       id="path4561-6-2-9-1-4-6-0-3-7"
       inkscape:connector-curvature="0" />
    <path
       style="fill:#373737;stroke-width:1.33333337"
       d="m 543.28185,491.48035 c -0.19962,-0.077 -0.34114,-0.26019 -0.55415,-0.30658 -0.12933,-0.0516 -0.29929,-0.11078 -0.28109,-0.26802 -0.12495,-0.0572 -0.28631,0.002 -0.36804,-0.14665 -0.21677,-0.0442 -0.41451,-0.14699 -0.60206,-0.26373 -0.14549,-0.0117 -0.0401,-0.2806 -0.23366,-0.22741 -0.15985,0.11165 -0.29843,-0.1067 -0.44332,-0.15259 -0.14671,-0.10352 -0.31384,-0.17296 -0.47067,-0.2553 -0.1377,-0.18472 0.19774,-0.28139 0.32109,-0.35268 0.1982,-0.0577 0.33801,-0.25001 0.53951,-0.27858 0.14026,0.12968 0.18934,-0.0597 0.20009,-0.17296 0.15537,-0.0885 0.34791,-0.13908 0.48999,-0.26371 0.12254,-0.0567 0.2597,-0.22269 0.3796,-0.19749 0.12318,0.10261 0.22875,-0.0245 0.199,-0.15083 0.10018,-0.0852 0.23294,-0.13518 0.34415,-0.21013 0.12735,-0.0684 0.2504,-0.15473 0.39032,-0.19287 0.20186,-0.002 0.17336,0.23084 0.21779,0.36437 0.0196,0.17177 10e-5,0.34442 0.013,0.51641 0.009,0.12216 -0.25374,0.17635 -0.0823,0.28467 0.13874,0.0706 0.0499,0.23413 0.0758,0.3555 0.0123,0.19244 -0.0343,0.38253 -0.015,0.57445 0.0323,0.14005 -0.23491,0.21357 -0.0546,0.32488 0.13522,0.086 0.0528,0.3291 0.048,0.4748 -0.0666,0.15823 0.0303,0.32942 -0.007,0.4949 -0.0355,0.016 -0.0639,0.0517 -0.10624,0.0496 z"
       id="path4561-6-2-9-1-4-4-9-6-4"
       inkscape:connector-curvature="0" />
    <path
       style="fill:#373737;stroke-width:1.33333337"
       d="m 543.348,484.93191 c -0.19962,-0.077 -0.34114,-0.26019 -0.55415,-0.30658 -0.12933,-0.0516 -0.29929,-0.11078 -0.28109,-0.26802 -0.12495,-0.0572 -0.28631,0.002 -0.36804,-0.14665 -0.21677,-0.0442 -0.41451,-0.14699 -0.60206,-0.26373 -0.14549,-0.0117 -0.0401,-0.2806 -0.23366,-0.22741 -0.15985,0.11165 -0.29843,-0.1067 -0.44332,-0.15259 -0.14671,-0.10352 -0.31384,-0.17296 -0.47067,-0.2553 -0.1377,-0.18472 0.19774,-0.28139 0.32109,-0.35268 0.1982,-0.0577 0.33801,-0.25001 0.53951,-0.27858 0.14026,0.12968 0.18934,-0.0597 0.20009,-0.17296 0.15537,-0.0885 0.34791,-0.13908 0.48999,-0.26371 0.12254,-0.0567 0.2597,-0.22269 0.3796,-0.19749 0.12318,0.10261 0.22875,-0.0245 0.199,-0.15083 0.10018,-0.0852 0.23294,-0.13518 0.34415,-0.21013 0.12735,-0.0684 0.2504,-0.15473 0.39032,-0.19287 0.20186,-0.002 0.17336,0.23084 0.21779,0.36437 0.0196,0.17177 10e-5,0.34442 0.013,0.51641 0.009,0.12216 -0.25374,0.17635 -0.0823,0.28467 0.13874,0.0706 0.0499,0.23413 0.0758,0.3555 0.0123,0.19244 -0.0343,0.38253 -0.015,0.57445 0.0323,0.14005 -0.23491,0.21357 -0.0546,0.32488 0.13522,0.086 0.0528,0.3291 0.048,0.4748 -0.0666,0.15823 0.0303,0.32942 -0.007,0.4949 -0.0355,0.016 -0.0639,0.0517 -0.10624,0.0496 z"
       id="path4561-6-2-9-1-4-5-9"
       inkscape:connector-curvature="0" />
    <path
       style="fill:#373737;stroke-width:1.33333337"
       d="m 542.95113,479.11108 c -0.19962,-0.077 -0.34114,-0.26019 -0.55415,-0.30658 -0.12933,-0.0516 -0.29929,-0.11078 -0.28109,-0.26802 -0.12495,-0.0572 -0.28631,0.002 -0.36804,-0.14665 -0.21677,-0.0442 -0.41451,-0.14699 -0.60206,-0.26373 -0.14549,-0.0117 -0.0401,-0.2806 -0.23366,-0.22741 -0.15985,0.11165 -0.29843,-0.1067 -0.44332,-0.15259 -0.14671,-0.10352 -0.31384,-0.17296 -0.47067,-0.2553 -0.1377,-0.18472 0.19774,-0.28139 0.32109,-0.35268 0.1982,-0.0577 0.33801,-0.25001 0.53951,-0.27858 0.14026,0.12968 0.18934,-0.0597 0.20009,-0.17296 0.15537,-0.0885 0.34791,-0.13908 0.48999,-0.26371 0.12254,-0.0567 0.2597,-0.22269 0.3796,-0.19749 0.12318,0.10261 0.22875,-0.0245 0.199,-0.15083 0.10018,-0.0852 0.23294,-0.13518 0.34415,-0.21013 0.12735,-0.0684 0.2504,-0.15473 0.39032,-0.19287 0.20186,-0.002 0.17336,0.23084 0.21779,0.36437 0.0196,0.17177 10e-5,0.34442 0.013,0.51641 0.009,0.12216 -0.25374,0.17635 -0.0823,0.28467 0.13874,0.0706 0.0499,0.23413 0.0758,0.3555 0.0123,0.19244 -0.0343,0.38253 -0.015,0.57445 0.0323,0.14005 -0.23491,0.21357 -0.0546,0.32488 0.13522,0.086 0.0528,0.3291 0.048,0.4748 -0.0666,0.15823 0.0303,0.32942 -0.007,0.4949 -0.0355,0.016 -0.0639,0.0517 -0.10624,0.0496 z"
       id="path4561-6-2-9-1-4-6-8-4"
       inkscape:connector-curvature="0" />
    <path
       style="fill:#373737;stroke-width:1.33333337"
       d="m 542.95112,473.42253 c -0.19962,-0.077 -0.34114,-0.26019 -0.55415,-0.30658 -0.12933,-0.0516 -0.29929,-0.11078 -0.28109,-0.26802 -0.12495,-0.0572 -0.28631,0.002 -0.36804,-0.14665 -0.21677,-0.0442 -0.41451,-0.14699 -0.60206,-0.26373 -0.14549,-0.0117 -0.0401,-0.2806 -0.23366,-0.22741 -0.15985,0.11165 -0.29843,-0.1067 -0.44332,-0.15259 -0.14671,-0.10352 -0.31384,-0.17296 -0.47067,-0.2553 -0.1377,-0.18472 0.19774,-0.28139 0.32109,-0.35268 0.1982,-0.0577 0.33801,-0.25001 0.53951,-0.27858 0.14026,0.12968 0.18934,-0.0597 0.20009,-0.17296 0.15537,-0.0885 0.34791,-0.13908 0.48999,-0.26371 0.12254,-0.0567 0.2597,-0.22269 0.3796,-0.19749 0.12318,0.10261 0.22875,-0.0245 0.199,-0.15083 0.10018,-0.0852 0.23294,-0.13518 0.34415,-0.21013 0.12735,-0.0684 0.2504,-0.15473 0.39032,-0.19287 0.20186,-0.002 0.17336,0.23084 0.21779,0.36437 0.0196,0.17177 1e-4,0.34442 0.013,0.51641 0.009,0.12216 -0.25374,0.17635 -0.0823,0.28467 0.13874,0.0706 0.0499,0.23413 0.0758,0.3555 0.0123,0.19244 -0.0343,0.38253 -0.015,0.57445 0.0323,0.14005 -0.23491,0.21357 -0.0546,0.32488 0.13522,0.086 0.0528,0.3291 0.048,0.4748 -0.0666,0.15823 0.0303,0.32942 -0.007,0.4949 -0.0355,0.016 -0.0639,0.0517 -0.10624,0.0496 z"
       id="path4561-6-2-9-1-4-4-6-2"
       inkscape:connector-curvature="0" />
    <path
       style="fill:#373737;stroke-width:1.33333337"
       d="m 542.75269,467.93244 c -0.19962,-0.077 -0.34114,-0.26019 -0.55415,-0.30658 -0.12933,-0.0516 -0.29929,-0.11078 -0.28109,-0.26802 -0.12495,-0.0572 -0.28631,0.002 -0.36804,-0.14665 -0.21677,-0.0442 -0.41451,-0.14699 -0.60206,-0.26373 -0.14549,-0.0117 -0.0401,-0.2806 -0.23366,-0.22741 -0.15985,0.11165 -0.29843,-0.1067 -0.44332,-0.15259 -0.14671,-0.10352 -0.31384,-0.17296 -0.47067,-0.2553 -0.1377,-0.18472 0.19774,-0.28139 0.32109,-0.35268 0.1982,-0.0577 0.33801,-0.25001 0.53951,-0.27858 0.14026,0.12968 0.18934,-0.0597 0.20009,-0.17296 0.15537,-0.0885 0.34791,-0.13908 0.48999,-0.26371 0.12254,-0.0567 0.2597,-0.22269 0.3796,-0.19749 0.12318,0.10261 0.22875,-0.0245 0.199,-0.15083 0.10018,-0.0852 0.23294,-0.13518 0.34415,-0.21013 0.12735,-0.0684 0.2504,-0.15473 0.39032,-0.19287 0.20186,-0.002 0.17336,0.23084 0.21779,0.36437 0.0196,0.17177 10e-5,0.34442 0.013,0.51641 0.009,0.12216 -0.25374,0.17635 -0.0823,0.28467 0.13874,0.0706 0.0499,0.23413 0.0758,0.3555 0.0123,0.19244 -0.0343,0.38253 -0.015,0.57445 0.0323,0.14005 -0.23491,0.21357 -0.0546,0.32488 0.13522,0.086 0.0528,0.3291 0.048,0.4748 -0.0666,0.15823 0.0303,0.32942 -0.007,0.4949 -0.0355,0.016 -0.0639,0.0517 -0.10624,0.0496 z"
       id="path4561-6-2-9-1-4-44-4-1"
       inkscape:connector-curvature="0" />
    <path
       style="fill:#373737;stroke-width:1.33333337"
       d="m 542.35582,462.11161 c -0.19962,-0.077 -0.34114,-0.26019 -0.55415,-0.30658 -0.12933,-0.0516 -0.29929,-0.11078 -0.28109,-0.26802 -0.12495,-0.0572 -0.28631,0.002 -0.36804,-0.14665 -0.21677,-0.0442 -0.41451,-0.14699 -0.60206,-0.26373 -0.14549,-0.0117 -0.0401,-0.2806 -0.23366,-0.22741 -0.15985,0.11165 -0.29843,-0.1067 -0.44332,-0.15259 -0.14671,-0.10352 -0.31384,-0.17296 -0.47067,-0.2553 -0.1377,-0.18472 0.19774,-0.28139 0.32109,-0.35268 0.1982,-0.0577 0.33801,-0.25001 0.53951,-0.27858 0.14026,0.12968 0.18934,-0.0597 0.20009,-0.17296 0.15537,-0.0885 0.34791,-0.13908 0.48999,-0.26371 0.12254,-0.0567 0.2597,-0.22269 0.3796,-0.19749 0.12318,0.10261 0.22875,-0.0245 0.199,-0.15083 0.10018,-0.0852 0.23294,-0.13518 0.34415,-0.21013 0.12735,-0.0684 0.2504,-0.15473 0.39032,-0.19287 0.20186,-0.002 0.17336,0.23084 0.21779,0.36437 0.0196,0.17177 10e-5,0.34442 0.013,0.51641 0.009,0.12216 -0.25374,0.17635 -0.0823,0.28467 0.13874,0.0706 0.0499,0.23413 0.0758,0.3555 0.0123,0.19244 -0.0343,0.38253 -0.015,0.57445 0.0323,0.14005 -0.23491,0.21357 -0.0546,0.32488 0.13522,0.086 0.0528,0.3291 0.048,0.4748 -0.0666,0.15823 0.0303,0.32942 -0.007,0.4949 -0.0355,0.016 -0.0639,0.0517 -0.10624,0.0496 z"
       id="path4561-6-2-9-1-4-6-0-5-7"
       inkscape:connector-curvature="0" />
    <path
       style="fill:#373737;stroke-width:1.33333337"
       d="m 550.15184,507.99193 c -0.19962,-0.077 -0.34114,-0.26019 -0.55415,-0.30658 -0.12933,-0.0516 -0.29929,-0.11078 -0.28109,-0.26802 -0.12495,-0.0572 -0.28631,0.002 -0.36804,-0.14665 -0.21677,-0.0442 -0.41451,-0.14699 -0.60206,-0.26373 -0.14549,-0.0117 -0.0401,-0.2806 -0.23366,-0.22741 -0.15985,0.11165 -0.29843,-0.1067 -0.44332,-0.15259 -0.14671,-0.10352 -0.31384,-0.17296 -0.47067,-0.2553 -0.1377,-0.18472 0.19774,-0.28139 0.32109,-0.35268 0.1982,-0.0577 0.33801,-0.25001 0.53951,-0.27858 0.14026,0.12968 0.18934,-0.0597 0.20009,-0.17296 0.15537,-0.0885 0.34791,-0.13908 0.48999,-0.26371 0.12254,-0.0567 0.2597,-0.22269 0.3796,-0.19749 0.12318,0.10261 0.22875,-0.0245 0.199,-0.15083 0.10018,-0.0852 0.23294,-0.13518 0.34415,-0.21013 0.12735,-0.0684 0.2504,-0.15473 0.39032,-0.19287 0.20186,-0.002 0.17336,0.23084 0.21779,0.36437 0.0196,0.17177 10e-5,0.34442 0.013,0.51641 0.009,0.12216 -0.25374,0.17635 -0.0823,0.28467 0.13874,0.0706 0.0499,0.23413 0.0758,0.3555 0.0123,0.19244 -0.0343,0.38253 -0.015,0.57445 0.0323,0.14005 -0.23491,0.21357 -0.0546,0.32488 0.13522,0.086 0.0528,0.3291 0.048,0.4748 -0.0666,0.15823 0.0303,0.32942 -0.007,0.4949 -0.0355,0.016 -0.0639,0.0517 -0.10624,0.0496 z"
       id="path4561-6-2-9-1-8-1-2-3"
       inkscape:connector-curvature="0" />
    <path
       style="fill:#373737;stroke-width:1.33333337"
       d="m 556.2887,508.27319 c -0.19962,-0.077 -0.34114,-0.26019 -0.55415,-0.30658 -0.12933,-0.0516 -0.29929,-0.11078 -0.28109,-0.26802 -0.12495,-0.0572 -0.28631,0.002 -0.36804,-0.14665 -0.21677,-0.0442 -0.41451,-0.14699 -0.60206,-0.26373 -0.14549,-0.0117 -0.0401,-0.2806 -0.23366,-0.22741 -0.15985,0.11165 -0.29843,-0.1067 -0.44332,-0.15259 -0.14671,-0.10352 -0.31384,-0.17296 -0.47067,-0.2553 -0.1377,-0.18472 0.19774,-0.28139 0.32109,-0.35268 0.1982,-0.0577 0.33801,-0.25001 0.53951,-0.27858 0.14026,0.12968 0.18934,-0.0597 0.20009,-0.17296 0.15537,-0.0885 0.34791,-0.13908 0.48999,-0.26371 0.12254,-0.0567 0.2597,-0.22269 0.3796,-0.19749 0.12318,0.10261 0.22875,-0.0245 0.199,-0.15083 0.10018,-0.0852 0.23294,-0.13518 0.34415,-0.21013 0.12735,-0.0684 0.2504,-0.15473 0.39032,-0.19287 0.20186,-0.002 0.17336,0.23084 0.21779,0.36437 0.0196,0.17177 1e-4,0.34442 0.013,0.51641 0.009,0.12216 -0.25374,0.17635 -0.0823,0.28467 0.13874,0.0706 0.0499,0.23413 0.0758,0.3555 0.0123,0.19244 -0.0343,0.38253 -0.015,0.57445 0.0323,0.14005 -0.23491,0.21357 -0.0546,0.32488 0.13522,0.086 0.0528,0.3291 0.048,0.4748 -0.0666,0.15823 0.0303,0.32942 -0.007,0.4949 -0.0355,0.016 -0.0639,0.0517 -0.10624,0.0496 z"
       id="path4561-6-2-9-1-8-1-2-6-4"
       inkscape:connector-curvature="0" />
    <path
       style="fill:#373737;stroke-width:1.33333337"
       d="m 561.18349,508.40548 c -0.19962,-0.077 -0.34114,-0.26019 -0.55415,-0.30658 -0.12933,-0.0516 -0.29929,-0.11078 -0.28109,-0.26802 -0.12495,-0.0572 -0.28631,0.002 -0.36804,-0.14665 -0.21677,-0.0442 -0.41451,-0.14699 -0.60206,-0.26373 -0.14549,-0.0117 -0.0401,-0.2806 -0.23366,-0.22741 -0.15985,0.11165 -0.29843,-0.1067 -0.44332,-0.15259 -0.14671,-0.10352 -0.31384,-0.17296 -0.47067,-0.2553 -0.1377,-0.18472 0.19774,-0.28139 0.32109,-0.35268 0.1982,-0.0577 0.33801,-0.25001 0.53951,-0.27858 0.14026,0.12968 0.18934,-0.0597 0.20009,-0.17296 0.15537,-0.0885 0.34791,-0.13908 0.48999,-0.26371 0.12254,-0.0567 0.2597,-0.22269 0.3796,-0.19749 0.12318,0.10261 0.22875,-0.0245 0.199,-0.15083 0.10018,-0.0852 0.23294,-0.13518 0.34415,-0.21013 0.12735,-0.0684 0.2504,-0.15473 0.39032,-0.19287 0.20186,-0.002 0.17336,0.23084 0.21779,0.36437 0.0196,0.17177 10e-5,0.34442 0.013,0.51641 0.009,0.12216 -0.25374,0.17635 -0.0823,0.28467 0.13874,0.0706 0.0499,0.23413 0.0758,0.3555 0.0123,0.19244 -0.0343,0.38253 -0.015,0.57445 0.0323,0.14005 -0.23491,0.21357 -0.0546,0.32488 0.13522,0.086 0.0528,0.3291 0.048,0.4748 -0.0666,0.15823 0.0303,0.32942 -0.007,0.4949 -0.0355,0.016 -0.0639,0.0517 -0.10624,0.0496 z"
       id="path4561-6-2-9-1-8-1-2-5-3"
       inkscape:connector-curvature="0" />
    <path
       style="fill:#373737;stroke-width:1.33333337"
       d="m 566.67359,505.62735 c -0.19962,-0.077 -0.34114,-0.26019 -0.55415,-0.30658 -0.12933,-0.0516 -0.29929,-0.11078 -0.28109,-0.26802 -0.12495,-0.0572 -0.28631,0.002 -0.36804,-0.14665 -0.21677,-0.0442 -0.41451,-0.14699 -0.60206,-0.26373 -0.14549,-0.0117 -0.0401,-0.2806 -0.23366,-0.22741 -0.15985,0.11165 -0.29843,-0.1067 -0.44332,-0.15259 -0.14671,-0.10352 -0.31384,-0.17296 -0.47067,-0.2553 -0.1377,-0.18472 0.19774,-0.28139 0.32109,-0.35268 0.1982,-0.0577 0.33801,-0.25001 0.53951,-0.27858 0.14026,0.12968 0.18934,-0.0597 0.20009,-0.17296 0.15537,-0.0885 0.34791,-0.13908 0.48999,-0.26371 0.12254,-0.0567 0.2597,-0.22269 0.3796,-0.19749 0.12318,0.10261 0.22875,-0.0245 0.199,-0.15083 0.10018,-0.0852 0.23294,-0.13518 0.34415,-0.21013 0.12735,-0.0684 0.2504,-0.15473 0.39032,-0.19287 0.20186,-0.002 0.17336,0.23084 0.21779,0.36437 0.0196,0.17177 10e-5,0.34442 0.013,0.51641 0.009,0.12216 -0.25374,0.17635 -0.0823,0.28467 0.13874,0.0706 0.0499,0.23413 0.0758,0.3555 0.0123,0.19244 -0.0343,0.38253 -0.015,0.57445 0.0323,0.14005 -0.23491,0.21357 -0.0546,0.32488 0.13522,0.086 0.0528,0.3291 0.048,0.4748 -0.0666,0.15823 0.0303,0.32942 -0.007,0.4949 -0.0355,0.016 -0.0639,0.0517 -0.10624,0.0496 z"
       id="path4561-6-2-9-1-8-1-2-62-6"
       inkscape:connector-curvature="0" />
    <path
       style="fill:#373737;stroke-width:1.33333337"
       d="m 551.47476,553.23569 c -0.19962,-0.077 -0.34114,-0.26019 -0.55415,-0.30658 -0.12933,-0.0516 -0.29929,-0.11078 -0.28109,-0.26802 -0.12495,-0.0572 -0.28631,0.002 -0.36804,-0.14665 -0.21677,-0.0442 -0.41451,-0.14699 -0.60206,-0.26373 -0.14549,-0.0117 -0.0401,-0.2806 -0.23366,-0.22741 -0.15985,0.11165 -0.29843,-0.1067 -0.44332,-0.15259 -0.14671,-0.10352 -0.31384,-0.17296 -0.47067,-0.2553 -0.1377,-0.18472 0.19774,-0.28139 0.32109,-0.35268 0.1982,-0.0577 0.33801,-0.25001 0.53951,-0.27858 0.14026,0.12968 0.18934,-0.0597 0.20009,-0.17296 0.15537,-0.0885 0.34791,-0.13908 0.48999,-0.26371 0.12254,-0.0567 0.2597,-0.22269 0.3796,-0.19749 0.12318,0.10261 0.22875,-0.0245 0.199,-0.15083 0.10018,-0.0852 0.23294,-0.13518 0.34415,-0.21013 0.12735,-0.0684 0.2504,-0.15473 0.39032,-0.19287 0.20186,-0.002 0.17336,0.23084 0.21779,0.36437 0.0196,0.17177 1e-4,0.34442 0.013,0.51641 0.009,0.12216 -0.25374,0.17635 -0.0823,0.28467 0.13874,0.0706 0.0499,0.23413 0.0758,0.3555 0.0123,0.19244 -0.0343,0.38253 -0.015,0.57445 0.0323,0.14005 -0.23491,0.21357 -0.0546,0.32488 0.13522,0.086 0.0528,0.3291 0.048,0.4748 -0.0666,0.15823 0.0303,0.32942 -0.007,0.4949 -0.0355,0.016 -0.0639,0.0517 -0.10624,0.0496 z"
       id="path4561-6-2-9-1-8-1-2-9"
       inkscape:connector-curvature="0" />
    <path
       style="fill:#373737;stroke-width:1.33333337"
       d="m 557.61162,553.51695 c -0.19962,-0.077 -0.34114,-0.26019 -0.55415,-0.30658 -0.12933,-0.0516 -0.29929,-0.11078 -0.28109,-0.26802 -0.12495,-0.0572 -0.28631,0.002 -0.36804,-0.14665 -0.21677,-0.0442 -0.41451,-0.14699 -0.60206,-0.26373 -0.14549,-0.0117 -0.0401,-0.2806 -0.23366,-0.22741 -0.15985,0.11165 -0.29843,-0.1067 -0.44332,-0.15259 -0.14671,-0.10352 -0.31384,-0.17296 -0.47067,-0.2553 -0.1377,-0.18472 0.19774,-0.28139 0.32109,-0.35268 0.1982,-0.0577 0.33801,-0.25001 0.53951,-0.27858 0.14026,0.12968 0.18934,-0.0597 0.20009,-0.17296 0.15537,-0.0885 0.34791,-0.13908 0.48999,-0.26371 0.12254,-0.0567 0.2597,-0.22269 0.3796,-0.19749 0.12318,0.10261 0.22875,-0.0245 0.199,-0.15083 0.10018,-0.0852 0.23294,-0.13518 0.34415,-0.21013 0.12735,-0.0684 0.2504,-0.15473 0.39032,-0.19287 0.20186,-0.002 0.17336,0.23084 0.21779,0.36437 0.0196,0.17177 10e-5,0.34442 0.013,0.51641 0.009,0.12216 -0.25374,0.17635 -0.0823,0.28467 0.13874,0.0706 0.0499,0.23413 0.0758,0.3555 0.0123,0.19244 -0.0343,0.38253 -0.015,0.57445 0.0323,0.14005 -0.23491,0.21357 -0.0546,0.32488 0.13522,0.086 0.0528,0.3291 0.048,0.4748 -0.0666,0.15823 0.0303,0.32942 -0.007,0.4949 -0.0355,0.016 -0.0639,0.0517 -0.10624,0.0496 z"
       id="path4561-6-2-9-1-8-1-2-6-9"
       inkscape:connector-curvature="0" />
    <path
       style="fill:#373737;stroke-width:1.33333337"
       d="m 562.50641,553.64924 c -0.19962,-0.077 -0.34114,-0.26019 -0.55415,-0.30658 -0.12933,-0.0516 -0.29929,-0.11078 -0.28109,-0.26802 -0.12495,-0.0572 -0.28631,0.002 -0.36804,-0.14665 -0.21677,-0.0442 -0.41451,-0.14699 -0.60206,-0.26373 -0.14549,-0.0117 -0.0401,-0.2806 -0.23366,-0.22741 -0.15985,0.11165 -0.29843,-0.1067 -0.44332,-0.15259 -0.14671,-0.10352 -0.31384,-0.17296 -0.47067,-0.2553 -0.1377,-0.18472 0.19774,-0.28139 0.32109,-0.35268 0.1982,-0.0577 0.33801,-0.25001 0.53951,-0.27858 0.14026,0.12968 0.18934,-0.0597 0.20009,-0.17296 0.15537,-0.0885 0.34791,-0.13908 0.48999,-0.26371 0.12254,-0.0567 0.2597,-0.22269 0.3796,-0.19749 0.12318,0.10261 0.22875,-0.0245 0.199,-0.15083 0.10018,-0.0852 0.23294,-0.13518 0.34415,-0.21013 0.12735,-0.0684 0.2504,-0.15473 0.39032,-0.19287 0.20186,-0.002 0.17336,0.23084 0.21779,0.36437 0.0196,0.17177 10e-5,0.34442 0.013,0.51641 0.009,0.12216 -0.25374,0.17635 -0.0823,0.28467 0.13874,0.0706 0.0499,0.23413 0.0758,0.3555 0.0123,0.19244 -0.0343,0.38253 -0.015,0.57445 0.0323,0.14005 -0.23491,0.21357 -0.0546,0.32488 0.13522,0.086 0.0528,0.3291 0.048,0.4748 -0.0666,0.15823 0.0303,0.32942 -0.007,0.4949 -0.0355,0.016 -0.0639,0.0517 -0.10624,0.0496 z"
       id="path4561-6-2-9-1-8-1-2-5-8"
       inkscape:connector-curvature="0" />
    <path
       style="fill:#373737;stroke-width:1.33333337"
       d="m 567.99651,553.25236 c -0.19962,-0.077 -0.34114,-0.26019 -0.55415,-0.30658 -0.12933,-0.0516 -0.29929,-0.11078 -0.28109,-0.26802 -0.12495,-0.0572 -0.28631,0.002 -0.36804,-0.14665 -0.21677,-0.0442 -0.41451,-0.14699 -0.60206,-0.26373 -0.14549,-0.0117 -0.0401,-0.2806 -0.23366,-0.22741 -0.15985,0.11165 -0.29843,-0.1067 -0.44332,-0.15259 -0.14671,-0.10352 -0.31384,-0.17296 -0.47067,-0.2553 -0.1377,-0.18472 0.19774,-0.28139 0.32109,-0.35268 0.1982,-0.0577 0.33801,-0.25001 0.53951,-0.27858 0.14026,0.12968 0.18934,-0.0597 0.20009,-0.17296 0.15537,-0.0885 0.34791,-0.13908 0.48999,-0.26371 0.12254,-0.0567 0.2597,-0.22269 0.3796,-0.19749 0.12318,0.10261 0.22875,-0.0245 0.199,-0.15083 0.10018,-0.0852 0.23294,-0.13518 0.34415,-0.21013 0.12735,-0.0684 0.2504,-0.15473 0.39032,-0.19287 0.20186,-0.002 0.17336,0.23084 0.21779,0.36437 0.0196,0.17177 1e-4,0.34442 0.013,0.51641 0.009,0.12216 -0.25374,0.17635 -0.0823,0.28467 0.13874,0.0706 0.0499,0.23413 0.0758,0.3555 0.0123,0.19244 -0.0343,0.38253 -0.015,0.57445 0.0323,0.14005 -0.23491,0.21357 -0.0546,0.32488 0.13522,0.086 0.0528,0.3291 0.048,0.4748 -0.0666,0.15823 0.0303,0.32942 -0.007,0.4949 -0.0355,0.016 -0.0639,0.0517 -0.10624,0.0496 z"
       id="path4561-6-2-9-1-8-1-2-62-1"
       inkscape:connector-curvature="0" />
    <path
       style="fill:#373737;stroke-width:1.33333337"
       d="m 549.3581,461.68986 c -0.19962,-0.077 -0.34114,-0.26019 -0.55415,-0.30658 -0.12933,-0.0516 -0.29929,-0.11078 -0.28109,-0.26802 -0.12495,-0.0572 -0.28631,0.002 -0.36804,-0.14665 -0.21677,-0.0442 -0.41451,-0.14699 -0.60206,-0.26373 -0.14549,-0.0117 -0.0401,-0.2806 -0.23366,-0.22741 -0.15985,0.11165 -0.29843,-0.1067 -0.44332,-0.15259 -0.14671,-0.10352 -0.31384,-0.17296 -0.47067,-0.2553 -0.1377,-0.18472 0.19774,-0.28139 0.32109,-0.35268 0.1982,-0.0577 0.33801,-0.25001 0.53951,-0.27858 0.14026,0.12968 0.18934,-0.0597 0.20009,-0.17296 0.15537,-0.0885 0.34791,-0.13908 0.48999,-0.26371 0.12254,-0.0567 0.2597,-0.22269 0.3796,-0.19749 0.12318,0.10261 0.22875,-0.0245 0.199,-0.15083 0.10018,-0.0852 0.23294,-0.13518 0.34415,-0.21013 0.12735,-0.0684 0.2504,-0.15473 0.39032,-0.19287 0.20186,-0.002 0.17336,0.23084 0.21779,0.36437 0.0196,0.17177 10e-5,0.34442 0.013,0.51641 0.009,0.12216 -0.25374,0.17635 -0.0823,0.28467 0.13874,0.0706 0.0499,0.23413 0.0758,0.3555 0.0123,0.19244 -0.0343,0.38253 -0.015,0.57445 0.0323,0.14005 -0.23491,0.21357 -0.0546,0.32488 0.13522,0.086 0.0528,0.3291 0.048,0.4748 -0.0666,0.15823 0.0303,0.32942 -0.007,0.4949 -0.0355,0.016 -0.0639,0.0517 -0.10624,0.0496 z"
       id="path4561-6-2-9-1-8-1-2-1"
       inkscape:connector-curvature="0" />
    <path
       style="fill:#373737;stroke-width:1.33333337"
       d="m 555.49496,461.97112 c -0.19962,-0.077 -0.34114,-0.26019 -0.55415,-0.30658 -0.12933,-0.0516 -0.29929,-0.11078 -0.28109,-0.26802 -0.12495,-0.0572 -0.28631,0.002 -0.36804,-0.14665 -0.21677,-0.0442 -0.41451,-0.14699 -0.60206,-0.26373 -0.14549,-0.0117 -0.0401,-0.2806 -0.23366,-0.22741 -0.15985,0.11165 -0.29843,-0.1067 -0.44332,-0.15259 -0.14671,-0.10352 -0.31384,-0.17296 -0.47067,-0.2553 -0.1377,-0.18472 0.19774,-0.28139 0.32109,-0.35268 0.1982,-0.0577 0.33801,-0.25001 0.53951,-0.27858 0.14026,0.12968 0.18934,-0.0597 0.20009,-0.17296 0.15537,-0.0885 0.34791,-0.13908 0.48999,-0.26371 0.12254,-0.0567 0.2597,-0.22269 0.3796,-0.19749 0.12318,0.10261 0.22875,-0.0245 0.199,-0.15083 0.10018,-0.0852 0.23294,-0.13518 0.34415,-0.21013 0.12735,-0.0684 0.2504,-0.15473 0.39032,-0.19287 0.20186,-0.002 0.17336,0.23084 0.21779,0.36437 0.0196,0.17177 10e-5,0.34442 0.013,0.51641 0.009,0.12216 -0.25374,0.17635 -0.0823,0.28467 0.13874,0.0706 0.0499,0.23413 0.0758,0.3555 0.0123,0.19244 -0.0343,0.38253 -0.015,0.57445 0.0323,0.14005 -0.23491,0.21357 -0.0546,0.32488 0.13522,0.086 0.0528,0.3291 0.048,0.4748 -0.0666,0.15823 0.0303,0.32942 -0.007,0.4949 -0.0355,0.016 -0.0639,0.0517 -0.10624,0.0496 z"
       id="path4561-6-2-9-1-8-1-2-6-1"
       inkscape:connector-curvature="0" />
    <path
       style="fill:#373737;stroke-width:1.33333337"
       d="m 560.38975,462.10341 c -0.19962,-0.077 -0.34114,-0.26019 -0.55415,-0.30658 -0.12933,-0.0516 -0.29929,-0.11078 -0.28109,-0.26802 -0.12495,-0.0572 -0.28631,0.002 -0.36804,-0.14665 -0.21677,-0.0442 -0.41451,-0.14699 -0.60206,-0.26373 -0.14549,-0.0117 -0.0401,-0.2806 -0.23366,-0.22741 -0.15985,0.11165 -0.29843,-0.1067 -0.44332,-0.15259 -0.14671,-0.10352 -0.31384,-0.17296 -0.47067,-0.2553 -0.1377,-0.18472 0.19774,-0.28139 0.32109,-0.35268 0.1982,-0.0577 0.33801,-0.25001 0.53951,-0.27858 0.14026,0.12968 0.18934,-0.0597 0.20009,-0.17296 0.15537,-0.0885 0.34791,-0.13908 0.48999,-0.26371 0.12254,-0.0567 0.2597,-0.22269 0.3796,-0.19749 0.12318,0.10261 0.22875,-0.0245 0.199,-0.15083 0.10018,-0.0852 0.23294,-0.13518 0.34415,-0.21013 0.12735,-0.0684 0.2504,-0.15473 0.39032,-0.19287 0.20186,-0.002 0.17336,0.23084 0.21779,0.36437 0.0196,0.17177 1e-4,0.34442 0.013,0.51641 0.009,0.12216 -0.25374,0.17635 -0.0823,0.28467 0.13874,0.0706 0.0499,0.23413 0.0758,0.3555 0.0123,0.19244 -0.0343,0.38253 -0.015,0.57445 0.0323,0.14005 -0.23491,0.21357 -0.0546,0.32488 0.13522,0.086 0.0528,0.3291 0.048,0.4748 -0.0666,0.15823 0.0303,0.32942 -0.007,0.4949 -0.0355,0.016 -0.0639,0.0517 -0.10624,0.0496 z"
       id="path4561-6-2-9-1-8-1-2-5-84"
       inkscape:connector-curvature="0" />
    <path
       style="fill:#373737;stroke-width:1.33333337"
       d="m 566.40902,467.79195 c -0.19962,-0.077 -0.34114,-0.26019 -0.55415,-0.30658 -0.12933,-0.0516 -0.29929,-0.11078 -0.28109,-0.26802 -0.12495,-0.0572 -0.28631,0.002 -0.36804,-0.14665 -0.21677,-0.0442 -0.41451,-0.14699 -0.60206,-0.26373 -0.14549,-0.0117 -0.0401,-0.2806 -0.23366,-0.22741 -0.15985,0.11165 -0.29843,-0.1067 -0.44332,-0.15259 -0.14671,-0.10352 -0.31384,-0.17296 -0.47067,-0.2553 -0.1377,-0.18472 0.19774,-0.28139 0.32109,-0.35268 0.1982,-0.0577 0.33801,-0.25001 0.53951,-0.27858 0.14026,0.12968 0.18934,-0.0597 0.20009,-0.17296 0.15537,-0.0885 0.34791,-0.13908 0.48999,-0.26371 0.12254,-0.0567 0.2597,-0.22269 0.3796,-0.19749 0.12318,0.10261 0.22875,-0.0245 0.199,-0.15083 0.10018,-0.0852 0.23294,-0.13518 0.34415,-0.21013 0.12735,-0.0684 0.2504,-0.15473 0.39032,-0.19287 0.20186,-0.002 0.17336,0.23084 0.21779,0.36437 0.0196,0.17177 1e-4,0.34442 0.013,0.51641 0.009,0.12216 -0.25374,0.17635 -0.0823,0.28467 0.13874,0.0706 0.0499,0.23413 0.0758,0.3555 0.0123,0.19244 -0.0343,0.38253 -0.015,0.57445 0.0323,0.14005 -0.23491,0.21357 -0.0546,0.32488 0.13522,0.086 0.0528,0.3291 0.048,0.4748 -0.0666,0.15823 0.0303,0.32942 -0.007,0.4949 -0.0355,0.016 -0.0639,0.0517 -0.10624,0.0496 z"
       id="path4561-6-2-9-1-8-1-2-62-9"
       inkscape:connector-curvature="0" />
    <path
       style="fill:#373737;stroke-width:1.33333337"
       d="m 570.84814,475.1258 c -0.19962,-0.077 -0.34114,-0.26019 -0.55415,-0.30658 -0.12933,-0.0516 -0.29929,-0.11078 -0.28109,-0.26802 -0.12495,-0.0572 -0.28631,0.002 -0.36804,-0.14665 -0.21677,-0.0442 -0.41451,-0.14699 -0.60206,-0.26373 -0.14549,-0.0117 -0.0401,-0.2806 -0.23366,-0.22741 -0.15985,0.11165 -0.29843,-0.1067 -0.44332,-0.15259 -0.14671,-0.10352 -0.31384,-0.17296 -0.47067,-0.2553 -0.1377,-0.18472 0.19774,-0.28139 0.32109,-0.35268 0.1982,-0.0577 0.33801,-0.25001 0.53951,-0.27858 0.14026,0.12968 0.18934,-0.0597 0.20009,-0.17296 0.15537,-0.0885 0.34791,-0.13908 0.48999,-0.26371 0.12254,-0.0567 0.2597,-0.22269 0.3796,-0.19749 0.12318,0.10261 0.22875,-0.0245 0.199,-0.15083 0.10018,-0.0852 0.23294,-0.13518 0.34415,-0.21013 0.12735,-0.0684 0.2504,-0.15473 0.39032,-0.19287 0.20186,-0.002 0.17336,0.23084 0.21779,0.36437 0.0196,0.17177 1e-4,0.34442 0.013,0.51641 0.009,0.12216 -0.25374,0.17635 -0.0823,0.28467 0.13874,0.0706 0.0499,0.23413 0.0758,0.3555 0.0123,0.19244 -0.0343,0.38253 -0.015,0.57445 0.0323,0.14005 -0.23491,0.21357 -0.0546,0.32488 0.13522,0.086 0.0528,0.3291 0.048,0.4748 -0.0666,0.15823 0.0303,0.32942 -0.007,0.4949 -0.0355,0.016 -0.0639,0.0517 -0.10624,0.0496 z"
       id="path4561-6-2-9-1-8-1-2-62-9-3"
       inkscape:connector-curvature="0" />
    <path
       style="fill:#373737;stroke-width:1.33333337"
       d="m 570.58355,499.73205 c -0.19962,-0.077 -0.34114,-0.26019 -0.55415,-0.30658 -0.12933,-0.0516 -0.29929,-0.11078 -0.28109,-0.26802 -0.12495,-0.0572 -0.28631,0.002 -0.36804,-0.14665 -0.21677,-0.0442 -0.41451,-0.14699 -0.60206,-0.26373 -0.14549,-0.0117 -0.0401,-0.2806 -0.23366,-0.22741 -0.15985,0.11165 -0.29843,-0.1067 -0.44332,-0.15259 -0.14671,-0.10352 -0.31384,-0.17296 -0.47067,-0.2553 -0.1377,-0.18472 0.19774,-0.28139 0.32109,-0.35268 0.1982,-0.0577 0.33801,-0.25001 0.53951,-0.27858 0.14026,0.12968 0.18934,-0.0597 0.20009,-0.17296 0.15537,-0.0885 0.34791,-0.13908 0.48999,-0.26371 0.12254,-0.0567 0.2597,-0.22269 0.3796,-0.19749 0.12318,0.10261 0.22875,-0.0245 0.199,-0.15083 0.10018,-0.0852 0.23294,-0.13518 0.34415,-0.21013 0.12735,-0.0684 0.2504,-0.15473 0.39032,-0.19287 0.20186,-0.002 0.17336,0.23084 0.21779,0.36437 0.0196,0.17177 1e-4,0.34442 0.013,0.51641 0.009,0.12216 -0.25374,0.17635 -0.0823,0.28467 0.13874,0.0706 0.0499,0.23413 0.0758,0.3555 0.0123,0.19244 -0.0343,0.38253 -0.015,0.57445 0.0323,0.14005 -0.23491,0.21357 -0.0546,0.32488 0.13522,0.086 0.0528,0.3291 0.048,0.4748 -0.0666,0.15823 0.0303,0.32942 -0.007,0.4949 -0.0355,0.016 -0.0639,0.0517 -0.10624,0.0496 z"
       id="path4561-6-2-9-1-8-1-2-62-9-8"
       inkscape:connector-curvature="0" />
    <path
       style="fill:#373737;stroke-width:1.33333337"
       d="m 571.60881,488.71876 c -0.19962,-0.077 -0.34114,-0.26019 -0.55415,-0.30658 -0.12933,-0.0516 -0.29929,-0.11078 -0.28109,-0.26802 -0.12495,-0.0572 -0.28631,0.002 -0.36804,-0.14665 -0.21677,-0.0442 -0.41451,-0.14699 -0.60206,-0.26373 -0.14549,-0.0117 -0.0401,-0.2806 -0.23366,-0.22741 -0.15985,0.11165 -0.29843,-0.1067 -0.44332,-0.15259 -0.14671,-0.10352 -0.31384,-0.17296 -0.47067,-0.2553 -0.1377,-0.18472 0.19774,-0.28139 0.32109,-0.35268 0.1982,-0.0577 0.33801,-0.25001 0.53951,-0.27858 0.14026,0.12968 0.18934,-0.0597 0.20009,-0.17296 0.15537,-0.0885 0.34791,-0.13908 0.48999,-0.26371 0.12254,-0.0567 0.2597,-0.22269 0.3796,-0.19749 0.12318,0.10261 0.22875,-0.0245 0.199,-0.15083 0.10018,-0.0852 0.23294,-0.13518 0.34415,-0.21013 0.12735,-0.0684 0.2504,-0.15473 0.39032,-0.19287 0.20186,-0.002 0.17336,0.23084 0.21779,0.36437 0.0196,0.17177 1e-4,0.34442 0.013,0.51641 0.009,0.12216 -0.25374,0.17635 -0.0823,0.28467 0.13874,0.0706 0.0499,0.23413 0.0758,0.3555 0.0123,0.19244 -0.0343,0.38253 -0.015,0.57445 0.0323,0.14005 -0.23491,0.21357 -0.0546,0.32488 0.13522,0.086 0.0528,0.3291 0.048,0.4748 -0.0666,0.15823 0.0303,0.32942 -0.007,0.4949 -0.0355,0.016 -0.0639,0.0517 -0.10624,0.0496 z"
       id="path4561-6-2-9-1-4-4-9-6-4-5"
       inkscape:connector-curvature="0" />
    <path
       style="fill:#373737;stroke-width:1.33333337"
       d="m 571.67496,482.17032 c -0.19962,-0.077 -0.34114,-0.26019 -0.55415,-0.30658 -0.12933,-0.0516 -0.29929,-0.11078 -0.28109,-0.26802 -0.12495,-0.0572 -0.28631,0.002 -0.36804,-0.14665 -0.21677,-0.0442 -0.41451,-0.14699 -0.60206,-0.26373 -0.14549,-0.0117 -0.0401,-0.2806 -0.23366,-0.22741 -0.15985,0.11165 -0.29843,-0.1067 -0.44332,-0.15259 -0.14671,-0.10352 -0.31384,-0.17296 -0.47067,-0.2553 -0.1377,-0.18472 0.19774,-0.28139 0.32109,-0.35268 0.1982,-0.0577 0.33801,-0.25001 0.53951,-0.27858 0.14026,0.12968 0.18934,-0.0597 0.20009,-0.17296 0.15537,-0.0885 0.34791,-0.13908 0.48999,-0.26371 0.12254,-0.0567 0.2597,-0.22269 0.3796,-0.19749 0.12318,0.10261 0.22875,-0.0245 0.199,-0.15083 0.10018,-0.0852 0.23294,-0.13518 0.34415,-0.21013 0.12735,-0.0684 0.2504,-0.15473 0.39032,-0.19287 0.20186,-0.002 0.17336,0.23084 0.21779,0.36437 0.0196,0.17177 1e-4,0.34442 0.013,0.51641 0.009,0.12216 -0.25374,0.17635 -0.0823,0.28467 0.13874,0.0706 0.0499,0.23413 0.0758,0.3555 0.0123,0.19244 -0.0343,0.38253 -0.015,0.57445 0.0323,0.14005 -0.23491,0.21357 -0.0546,0.32488 0.13522,0.086 0.0528,0.3291 0.048,0.4748 -0.0666,0.15823 0.0303,0.32942 -0.007,0.4949 -0.0355,0.016 -0.0639,0.0517 -0.10624,0.0496 z"
       id="path4561-6-2-9-1-4-5-9-8"
       inkscape:connector-curvature="0" />
    <path
       style="fill:#373737;stroke-width:1.33333337"
       d="m 571.64189,495.49872 c -0.19962,-0.077 -0.34114,-0.26019 -0.55415,-0.30658 -0.12933,-0.0516 -0.29929,-0.11078 -0.28109,-0.26802 -0.12495,-0.0572 -0.28631,0.002 -0.36804,-0.14665 -0.21677,-0.0442 -0.41451,-0.14699 -0.60206,-0.26373 -0.14549,-0.0117 -0.0401,-0.2806 -0.23366,-0.22741 -0.15985,0.11165 -0.29843,-0.1067 -0.44332,-0.15259 -0.14671,-0.10352 -0.31384,-0.17296 -0.47067,-0.2553 -0.1377,-0.18472 0.19774,-0.28139 0.32109,-0.35268 0.1982,-0.0577 0.33801,-0.25001 0.53951,-0.27858 0.14026,0.12968 0.18934,-0.0597 0.20009,-0.17296 0.15537,-0.0885 0.34791,-0.13908 0.48999,-0.26371 0.12254,-0.0567 0.2597,-0.22269 0.3796,-0.19749 0.12318,0.10261 0.22875,-0.0245 0.199,-0.15083 0.10018,-0.0852 0.23294,-0.13518 0.34415,-0.21013 0.12735,-0.0684 0.2504,-0.15473 0.39032,-0.19287 0.20186,-0.002 0.17336,0.23084 0.21779,0.36437 0.0196,0.17177 10e-5,0.34442 0.013,0.51641 0.009,0.12216 -0.25374,0.17635 -0.0823,0.28467 0.13874,0.0706 0.0499,0.23413 0.0758,0.3555 0.0123,0.19244 -0.0343,0.38253 -0.015,0.57445 0.0323,0.14005 -0.23491,0.21357 -0.0546,0.32488 0.13522,0.086 0.0528,0.3291 0.048,0.4748 -0.0666,0.15823 0.0303,0.32942 -0.007,0.4949 -0.0355,0.016 -0.0639,0.0517 -0.10624,0.0496 z"
       id="path4561-6-2-9-1-8-1-2-62-9-8-2"
       inkscape:connector-curvature="0" />
    <path
       style="fill:#373737;stroke-width:1.33333337"
       d="m 572.96481,510.31538 c -0.19962,-0.077 -0.34114,-0.26019 -0.55415,-0.30658 -0.12933,-0.0516 -0.29929,-0.11078 -0.28109,-0.26802 -0.12495,-0.0572 -0.28631,0.002 -0.36804,-0.14665 -0.21677,-0.0442 -0.41451,-0.14699 -0.60206,-0.26373 -0.14549,-0.0117 -0.0401,-0.2806 -0.23366,-0.22741 -0.15985,0.11165 -0.29843,-0.1067 -0.44332,-0.15259 -0.14671,-0.10352 -0.31384,-0.17296 -0.47067,-0.2553 -0.1377,-0.18472 0.19774,-0.28139 0.32109,-0.35268 0.1982,-0.0577 0.33801,-0.25001 0.53951,-0.27858 0.14026,0.12968 0.18934,-0.0597 0.20009,-0.17296 0.15537,-0.0885 0.34791,-0.13908 0.48999,-0.26371 0.12254,-0.0567 0.2597,-0.22269 0.3796,-0.19749 0.12318,0.10261 0.22875,-0.0245 0.199,-0.15083 0.10018,-0.0852 0.23294,-0.13518 0.34415,-0.21013 0.12735,-0.0684 0.2504,-0.15473 0.39032,-0.19287 0.20186,-0.002 0.17336,0.23084 0.21779,0.36437 0.0196,0.17177 1e-4,0.34442 0.013,0.51641 0.009,0.12216 -0.25374,0.17635 -0.0823,0.28467 0.13874,0.0706 0.0499,0.23413 0.0758,0.3555 0.0123,0.19244 -0.0343,0.38253 -0.015,0.57445 0.0323,0.14005 -0.23491,0.21357 -0.0546,0.32488 0.13522,0.086 0.0528,0.3291 0.048,0.4748 -0.0666,0.15823 0.0303,0.32942 -0.007,0.4949 -0.0355,0.016 -0.0639,0.0517 -0.10624,0.0496 z"
       id="path4561-6-2-9-1-8-1-2-62-9-8-4"
       inkscape:connector-curvature="0" />
    <path
       style="fill:#373737;stroke-width:1.33333337"
       d="m 577.19814,515.87163 c -0.19962,-0.077 -0.34114,-0.26019 -0.55415,-0.30658 -0.12933,-0.0516 -0.29929,-0.11078 -0.28109,-0.26802 -0.12495,-0.0572 -0.28631,0.002 -0.36804,-0.14665 -0.21677,-0.0442 -0.41451,-0.14699 -0.60206,-0.26373 -0.14549,-0.0117 -0.0401,-0.2806 -0.23366,-0.22741 -0.15985,0.11165 -0.29843,-0.1067 -0.44332,-0.15259 -0.14671,-0.10352 -0.31384,-0.17296 -0.47067,-0.2553 -0.1377,-0.18472 0.19774,-0.28139 0.32109,-0.35268 0.1982,-0.0577 0.33801,-0.25001 0.53951,-0.27858 0.14026,0.12968 0.18934,-0.0597 0.20009,-0.17296 0.15537,-0.0885 0.34791,-0.13908 0.48999,-0.26371 0.12254,-0.0567 0.2597,-0.22269 0.3796,-0.19749 0.12318,0.10261 0.22875,-0.0245 0.199,-0.15083 0.10018,-0.0852 0.23294,-0.13518 0.34415,-0.21013 0.12735,-0.0684 0.2504,-0.15473 0.39032,-0.19287 0.20186,-0.002 0.17336,0.23084 0.21779,0.36437 0.0196,0.17177 10e-5,0.34442 0.013,0.51641 0.009,0.12216 -0.25374,0.17635 -0.0823,0.28467 0.13874,0.0706 0.0499,0.23413 0.0758,0.3555 0.0123,0.19244 -0.0343,0.38253 -0.015,0.57445 0.0323,0.14005 -0.23491,0.21357 -0.0546,0.32488 0.13522,0.086 0.0528,0.3291 0.048,0.4748 -0.0666,0.15823 0.0303,0.32942 -0.007,0.4949 -0.0355,0.016 -0.0639,0.0517 -0.10624,0.0496 z"
       id="path4561-6-2-9-1-8-1-2-62-9-8-1"
       inkscape:connector-curvature="0" />
    <path
       style="fill:#373737;stroke-width:1.33333337"
       d="m 580.37314,521.95705 c -0.19962,-0.077 -0.34114,-0.26019 -0.55415,-0.30658 -0.12933,-0.0516 -0.29929,-0.11078 -0.28109,-0.26802 -0.12495,-0.0572 -0.28631,0.002 -0.36804,-0.14665 -0.21677,-0.0442 -0.41451,-0.14699 -0.60206,-0.26373 -0.14549,-0.0117 -0.0401,-0.2806 -0.23366,-0.22741 -0.15985,0.11165 -0.29843,-0.1067 -0.44332,-0.15259 -0.14671,-0.10352 -0.31384,-0.17296 -0.47067,-0.2553 -0.1377,-0.18472 0.19774,-0.28139 0.32109,-0.35268 0.1982,-0.0577 0.33801,-0.25001 0.53951,-0.27858 0.14026,0.12968 0.18934,-0.0597 0.20009,-0.17296 0.15537,-0.0885 0.34791,-0.13908 0.48999,-0.26371 0.12254,-0.0567 0.2597,-0.22269 0.3796,-0.19749 0.12318,0.10261 0.22875,-0.0245 0.199,-0.15083 0.10018,-0.0852 0.23294,-0.13518 0.34415,-0.21013 0.12735,-0.0684 0.2504,-0.15473 0.39032,-0.19287 0.20186,-0.002 0.17336,0.23084 0.21779,0.36437 0.0196,0.17177 10e-5,0.34442 0.013,0.51641 0.009,0.12216 -0.25374,0.17635 -0.0823,0.28467 0.13874,0.0706 0.0499,0.23413 0.0758,0.3555 0.0123,0.19244 -0.0343,0.38253 -0.015,0.57445 0.0323,0.14005 -0.23491,0.21357 -0.0546,0.32488 0.13522,0.086 0.0528,0.3291 0.048,0.4748 -0.0666,0.15823 0.0303,0.32942 -0.007,0.4949 -0.0355,0.016 -0.0639,0.0517 -0.10624,0.0496 z"
       id="path4561-6-2-9-1-8-1-2-62-9-8-18"
       inkscape:connector-curvature="0" />
    <path
       style="fill:#373737;stroke-width:1.33333337"
       d="m 581.96064,529.62996 c -0.19962,-0.077 -0.34114,-0.26019 -0.55415,-0.30658 -0.12933,-0.0516 -0.29929,-0.11078 -0.28109,-0.26802 -0.12495,-0.0572 -0.28631,0.002 -0.36804,-0.14665 -0.21677,-0.0442 -0.41451,-0.14699 -0.60206,-0.26373 -0.14549,-0.0117 -0.0401,-0.2806 -0.23366,-0.22741 -0.15985,0.11165 -0.29843,-0.1067 -0.44332,-0.15259 -0.14671,-0.10352 -0.31384,-0.17296 -0.47067,-0.2553 -0.1377,-0.18472 0.19774,-0.28139 0.32109,-0.35268 0.1982,-0.0577 0.33801,-0.25001 0.53951,-0.27858 0.14026,0.12968 0.18934,-0.0597 0.20009,-0.17296 0.15537,-0.0885 0.34791,-0.13908 0.48999,-0.26371 0.12254,-0.0567 0.2597,-0.22269 0.3796,-0.19749 0.12318,0.10261 0.22875,-0.0245 0.199,-0.15083 0.10018,-0.0852 0.23294,-0.13518 0.34415,-0.21013 0.12735,-0.0684 0.2504,-0.15473 0.39032,-0.19287 0.20186,-0.002 0.17336,0.23084 0.21779,0.36437 0.0196,0.17177 10e-5,0.34442 0.013,0.51641 0.009,0.12216 -0.25374,0.17635 -0.0823,0.28467 0.13874,0.0706 0.0499,0.23413 0.0758,0.3555 0.0123,0.19244 -0.0343,0.38253 -0.015,0.57445 0.0323,0.14005 -0.23491,0.21357 -0.0546,0.32488 0.13522,0.086 0.0528,0.3291 0.048,0.4748 -0.0666,0.15823 0.0303,0.32942 -0.007,0.4949 -0.0355,0.016 -0.0639,0.0517 -0.10624,0.0496 z"
       id="path4561-6-2-9-1-8-1-2-62-9-8-25"
       inkscape:connector-curvature="0" />
    <path
       style="fill:#373737;stroke-width:1.33333337"
       d="m 583.01898,536.24455 c -0.19962,-0.077 -0.34114,-0.26019 -0.55415,-0.30658 -0.12933,-0.0516 -0.29929,-0.11078 -0.28109,-0.26802 -0.12495,-0.0572 -0.28631,0.002 -0.36804,-0.14665 -0.21677,-0.0442 -0.41451,-0.14699 -0.60206,-0.26373 -0.14549,-0.0117 -0.0401,-0.2806 -0.23366,-0.22741 -0.15985,0.11165 -0.29843,-0.1067 -0.44332,-0.15259 -0.14671,-0.10352 -0.31384,-0.17296 -0.47067,-0.2553 -0.1377,-0.18472 0.19774,-0.28139 0.32109,-0.35268 0.1982,-0.0577 0.33801,-0.25001 0.53951,-0.27858 0.14026,0.12968 0.18934,-0.0597 0.20009,-0.17296 0.15537,-0.0885 0.34791,-0.13908 0.48999,-0.26371 0.12254,-0.0567 0.2597,-0.22269 0.3796,-0.19749 0.12318,0.10261 0.22875,-0.0245 0.199,-0.15083 0.10018,-0.0852 0.23294,-0.13518 0.34415,-0.21013 0.12735,-0.0684 0.2504,-0.15473 0.39032,-0.19287 0.20186,-0.002 0.17336,0.23084 0.21779,0.36437 0.0196,0.17177 1e-4,0.34442 0.013,0.51641 0.009,0.12216 -0.25374,0.17635 -0.0823,0.28467 0.13874,0.0706 0.0499,0.23413 0.0758,0.3555 0.0123,0.19244 -0.0343,0.38253 -0.015,0.57445 0.0323,0.14005 -0.23491,0.21357 -0.0546,0.32488 0.13522,0.086 0.0528,0.3291 0.048,0.4748 -0.0666,0.15823 0.0303,0.32942 -0.007,0.4949 -0.0355,0.016 -0.0639,0.0517 -0.10624,0.0496 z"
       id="path4561-6-2-9-1-8-1-2-62-9-8-8"
       inkscape:connector-curvature="0" />
    <path
       style="fill:#373737;stroke-width:1.33333337"
       d="m 581.69606,542.85913 c -0.19962,-0.077 -0.34114,-0.26019 -0.55415,-0.30658 -0.12933,-0.0516 -0.29929,-0.11078 -0.28109,-0.26802 -0.12495,-0.0572 -0.28631,0.002 -0.36804,-0.14665 -0.21677,-0.0442 -0.41451,-0.14699 -0.60206,-0.26373 -0.14549,-0.0117 -0.0401,-0.2806 -0.23366,-0.22741 -0.15985,0.11165 -0.29843,-0.1067 -0.44332,-0.15259 -0.14671,-0.10352 -0.31384,-0.17296 -0.47067,-0.2553 -0.1377,-0.18472 0.19774,-0.28139 0.32109,-0.35268 0.1982,-0.0577 0.33801,-0.25001 0.53951,-0.27858 0.14026,0.12968 0.18934,-0.0597 0.20009,-0.17296 0.15537,-0.0885 0.34791,-0.13908 0.48999,-0.26371 0.12254,-0.0567 0.2597,-0.22269 0.3796,-0.19749 0.12318,0.10261 0.22875,-0.0245 0.199,-0.15083 0.10018,-0.0852 0.23294,-0.13518 0.34415,-0.21013 0.12735,-0.0684 0.2504,-0.15473 0.39032,-0.19287 0.20186,-0.002 0.17336,0.23084 0.21779,0.36437 0.0196,0.17177 10e-5,0.34442 0.013,0.51641 0.009,0.12216 -0.25374,0.17635 -0.0823,0.28467 0.13874,0.0706 0.0499,0.23413 0.0758,0.3555 0.0123,0.19244 -0.0343,0.38253 -0.015,0.57445 0.0323,0.14005 -0.23491,0.21357 -0.0546,0.32488 0.13522,0.086 0.0528,0.3291 0.048,0.4748 -0.0666,0.15823 0.0303,0.32942 -0.007,0.4949 -0.0355,0.016 -0.0639,0.0517 -0.10624,0.0496 z"
       id="path4561-6-2-9-1-8-1-2-62-9-8-3"
       inkscape:connector-curvature="0" />
    <path
       style="fill:#373737;stroke-width:1.33333337"
       d="m 578.25648,547.88622 c -0.19962,-0.077 -0.34114,-0.26019 -0.55415,-0.30658 -0.12933,-0.0516 -0.29929,-0.11078 -0.28109,-0.26802 -0.12495,-0.0572 -0.28631,0.002 -0.36804,-0.14665 -0.21677,-0.0442 -0.41451,-0.14699 -0.60206,-0.26373 -0.14549,-0.0117 -0.0401,-0.2806 -0.23366,-0.22741 -0.15985,0.11165 -0.29843,-0.1067 -0.44332,-0.15259 -0.14671,-0.10352 -0.31384,-0.17296 -0.47067,-0.2553 -0.1377,-0.18472 0.19774,-0.28139 0.32109,-0.35268 0.1982,-0.0577 0.33801,-0.25001 0.53951,-0.27858 0.14026,0.12968 0.18934,-0.0597 0.20009,-0.17296 0.15537,-0.0885 0.34791,-0.13908 0.48999,-0.26371 0.12254,-0.0567 0.2597,-0.22269 0.3796,-0.19749 0.12318,0.10261 0.22875,-0.0245 0.199,-0.15083 0.10018,-0.0852 0.23294,-0.13518 0.34415,-0.21013 0.12735,-0.0684 0.2504,-0.15473 0.39032,-0.19287 0.20186,-0.002 0.17336,0.23084 0.21779,0.36437 0.0196,0.17177 10e-5,0.34442 0.013,0.51641 0.009,0.12216 -0.25374,0.17635 -0.0823,0.28467 0.13874,0.0706 0.0499,0.23413 0.0758,0.3555 0.0123,0.19244 -0.0343,0.38253 -0.015,0.57445 0.0323,0.14005 -0.23491,0.21357 -0.0546,0.32488 0.13522,0.086 0.0528,0.3291 0.048,0.4748 -0.0666,0.15823 0.0303,0.32942 -0.007,0.4949 -0.0355,0.016 -0.0639,0.0517 -0.10624,0.0496 z"
       id="path4561-6-2-9-1-8-1-2-62-9-8-7"
       inkscape:connector-curvature="0" />
    <path
       style="fill:#373737;stroke-width:1.33333337"
       d="m 574.81689,551.06122 c -0.19962,-0.077 -0.34114,-0.26019 -0.55415,-0.30658 -0.12933,-0.0516 -0.29929,-0.11078 -0.28109,-0.26802 -0.12495,-0.0572 -0.28631,0.002 -0.36804,-0.14665 -0.21677,-0.0442 -0.41451,-0.14699 -0.60206,-0.26373 -0.14549,-0.0117 -0.0401,-0.2806 -0.23366,-0.22741 -0.15985,0.11165 -0.29843,-0.1067 -0.44332,-0.15259 -0.14671,-0.10352 -0.31384,-0.17296 -0.47067,-0.2553 -0.1377,-0.18472 0.19774,-0.28139 0.32109,-0.35268 0.1982,-0.0577 0.33801,-0.25001 0.53951,-0.27858 0.14026,0.12968 0.18934,-0.0597 0.20009,-0.17296 0.15537,-0.0885 0.34791,-0.13908 0.48999,-0.26371 0.12254,-0.0567 0.2597,-0.22269 0.3796,-0.19749 0.12318,0.10261 0.22875,-0.0245 0.199,-0.15083 0.10018,-0.0852 0.23294,-0.13518 0.34415,-0.21013 0.12735,-0.0684 0.2504,-0.15473 0.39032,-0.19287 0.20186,-0.002 0.17336,0.23084 0.21779,0.36437 0.0196,0.17177 1e-4,0.34442 0.013,0.51641 0.009,0.12216 -0.25374,0.17635 -0.0823,0.28467 0.13874,0.0706 0.0499,0.23413 0.0758,0.3555 0.0123,0.19244 -0.0343,0.38253 -0.015,0.57445 0.0323,0.14005 -0.23491,0.21357 -0.0546,0.32488 0.13522,0.086 0.0528,0.3291 0.048,0.4748 -0.0666,0.15823 0.0303,0.32942 -0.007,0.4949 -0.0355,0.016 -0.0639,0.0517 -0.10624,0.0496 z"
       id="path4561-6-2-9-1-8-1-2-62-9-8-0"
       inkscape:connector-curvature="0" />
  </g>
</svg>
