<?xml version="1.0" encoding="UTF-8" standalone="no"?>
<!-- Created with Inkscape (http://www.inkscape.org/) -->

<svg
   xmlns:dc="http://purl.org/dc/elements/1.1/"
   xmlns:cc="http://creativecommons.org/ns#"
   xmlns:rdf="http://www.w3.org/1999/02/22-rdf-syntax-ns#"
   xmlns:svg="http://www.w3.org/2000/svg"
   xmlns="http://www.w3.org/2000/svg"
   xmlns:sodipodi="http://sodipodi.sourceforge.net/DTD/sodipodi-0.dtd"
   xmlns:inkscape="http://www.inkscape.org/namespaces/inkscape"
   width="4096"
   height="4096"
   viewBox="0 0 1083.7333 1083.7334"
   version="1.1"
   id="svg5164"
   inkscape:version="0.91 r13725"
   sodipodi:docname="2.obelisks.svg">
  <defs
     id="defs5158" />
  <sodipodi:namedview
     id="base"
     pagecolor="#ffffff"
     bordercolor="#666666"
     borderopacity="1.0"
     inkscape:pageopacity="0.0"
     inkscape:pageshadow="2"
     inkscape:zoom="0.1767767"
     inkscape:cx="1270.6956"
     inkscape:cy="2354.0963"
     inkscape:document-units="mm"
     inkscape:current-layer="layer2"
     showgrid="false"
     units="px"
     inkscape:window-width="1920"
     inkscape:window-height="1017"
     inkscape:window-x="-8"
     inkscape:window-y="-8"
     inkscape:window-maximized="1" />
  <metadata
     id="metadata5161">
    <rdf:RDF>
      <cc:Work
         rdf:about="">
        <dc:format>image/svg+xml</dc:format>
        <dc:type
           rdf:resource="http://purl.org/dc/dcmitype/StillImage" />
        <dc:title />
      </cc:Work>
    </rdf:RDF>
  </metadata>
  <g
     inkscape:groupmode="layer"
     id="layer2"
     inkscape:label="Obelisks">
    <path
       style="fill:#373737;stroke-width:1.33333337"
       d="m 543.13664,547.85376 c -0.19962,-0.077 -0.34114,-0.26019 -0.55415,-0.30658 -0.12933,-0.0516 -0.29929,-0.11078 -0.28109,-0.26802 -0.12495,-0.0572 -0.28631,0.002 -0.36804,-0.14665 -0.21677,-0.0442 -0.41451,-0.14699 -0.60206,-0.26373 -0.14549,-0.0117 -0.0401,-0.2806 -0.23366,-0.22741 -0.15985,0.11165 -0.29843,-0.1067 -0.44332,-0.15259 -0.14671,-0.10352 -0.31384,-0.17296 -0.47067,-0.2553 -0.1377,-0.18472 0.19774,-0.28139 0.32109,-0.35268 0.1982,-0.0577 0.33801,-0.25001 0.53951,-0.27858 0.14026,0.12968 0.18934,-0.0597 0.20009,-0.17296 0.15537,-0.0885 0.34791,-0.13908 0.48999,-0.26371 0.12254,-0.0567 0.2597,-0.22269 0.3796,-0.19749 0.12318,0.10261 0.22875,-0.0245 0.199,-0.15083 0.10018,-0.0852 0.23294,-0.13518 0.34415,-0.21013 0.12735,-0.0684 0.2504,-0.15473 0.39032,-0.19287 0.20186,-0.002 0.17336,0.23084 0.21779,0.36437 0.0196,0.17177 1e-4,0.34442 0.013,0.51641 0.009,0.12216 -0.25374,0.17635 -0.0823,0.28467 0.13874,0.0706 0.0499,0.23413 0.0758,0.3555 0.0123,0.19244 -0.0343,0.38253 -0.015,0.57445 0.0323,0.14005 -0.23491,0.21357 -0.0546,0.32488 0.13522,0.086 0.0528,0.3291 0.048,0.4748 -0.0666,0.15823 0.0303,0.32942 -0.007,0.4949 -0.0355,0.016 -0.0639,0.0517 -0.10624,0.0496 z"
       id="path4561-6-2-9-1"
       inkscape:connector-curvature="0" />
    <path
       style="fill:#373737;stroke-width:1.33333337"
       d="m 545.10108,541.77338 c -0.19962,-0.077 -0.34114,-0.26019 -0.55415,-0.30658 -0.12933,-0.0516 -0.29929,-0.11078 -0.28109,-0.26802 -0.12495,-0.0572 -0.28631,0.002 -0.36804,-0.14665 -0.21677,-0.0442 -0.41451,-0.14699 -0.60206,-0.26373 -0.14549,-0.0117 -0.0401,-0.2806 -0.23366,-0.22741 -0.15985,0.11165 -0.29843,-0.1067 -0.44332,-0.15259 -0.14671,-0.10352 -0.31384,-0.17296 -0.47067,-0.2553 -0.1377,-0.18472 0.19774,-0.28139 0.32109,-0.35268 0.1982,-0.0577 0.33801,-0.25001 0.53951,-0.27858 0.14026,0.12968 0.18934,-0.0597 0.20009,-0.17296 0.15537,-0.0885 0.34791,-0.13908 0.48999,-0.26371 0.12254,-0.0567 0.2597,-0.22269 0.3796,-0.19749 0.12318,0.10261 0.22875,-0.0245 0.199,-0.15083 0.10018,-0.0852 0.23294,-0.13518 0.34415,-0.21013 0.12735,-0.0684 0.2504,-0.15473 0.39032,-0.19287 0.20186,-0.002 0.17336,0.23084 0.21779,0.36437 0.0196,0.17177 10e-5,0.34442 0.013,0.51641 0.009,0.12216 -0.25374,0.17635 -0.0823,0.28467 0.13874,0.0706 0.0499,0.23413 0.0758,0.3555 0.0123,0.19244 -0.0343,0.38253 -0.015,0.57445 0.0323,0.14005 -0.23491,0.21357 -0.0546,0.32488 0.13522,0.086 0.0528,0.3291 0.048,0.4748 -0.0666,0.15823 0.0303,0.32942 -0.007,0.4949 -0.0355,0.016 -0.0639,0.0517 -0.10624,0.0496 z"
       id="path4561-6-2-9-1-7"
       inkscape:connector-curvature="0" />
    <path
       style="fill:#373737;stroke-width:1.33333337"
       d="m 546.50424,535.88009 c -0.19962,-0.077 -0.34114,-0.26019 -0.55415,-0.30658 -0.12933,-0.0516 -0.29929,-0.11078 -0.28109,-0.26802 -0.12495,-0.0572 -0.28631,0.002 -0.36804,-0.14665 -0.21677,-0.0442 -0.41451,-0.14699 -0.60206,-0.26373 -0.14549,-0.0117 -0.0401,-0.2806 -0.23366,-0.22741 -0.15985,0.11165 -0.29843,-0.1067 -0.44332,-0.15259 -0.14671,-0.10352 -0.31384,-0.17296 -0.47067,-0.2553 -0.1377,-0.18472 0.19774,-0.28139 0.32109,-0.35268 0.1982,-0.0577 0.33801,-0.25001 0.53951,-0.27858 0.14026,0.12968 0.18934,-0.0597 0.20009,-0.17296 0.15537,-0.0885 0.34791,-0.13908 0.48999,-0.26371 0.12254,-0.0567 0.2597,-0.22269 0.3796,-0.19749 0.12318,0.10261 0.22875,-0.0245 0.199,-0.15083 0.10018,-0.0852 0.23294,-0.13518 0.34415,-0.21013 0.12735,-0.0684 0.2504,-0.15473 0.39032,-0.19287 0.20186,-0.002 0.17336,0.23084 0.21779,0.36437 0.0196,0.17177 10e-5,0.34442 0.013,0.51641 0.009,0.12216 -0.25374,0.17635 -0.0823,0.28467 0.13874,0.0706 0.0499,0.23413 0.0758,0.3555 0.0123,0.19244 -0.0343,0.38253 -0.015,0.57445 0.0323,0.14005 -0.23491,0.21357 -0.0546,0.32488 0.13522,0.086 0.0528,0.3291 0.048,0.4748 -0.0666,0.15823 0.0303,0.32942 -0.007,0.4949 -0.0355,0.016 -0.0639,0.0517 -0.10624,0.0496 z"
       id="path4561-6-2-9-1-1"
       inkscape:connector-curvature="0" />
    <path
       style="fill:#373737;stroke-width:1.33333337"
       d="m 547.90741,529.89325 c -0.19962,-0.077 -0.34114,-0.26019 -0.55415,-0.30658 -0.12933,-0.0516 -0.29929,-0.11078 -0.28109,-0.26802 -0.12495,-0.0572 -0.28631,0.002 -0.36804,-0.14665 -0.21677,-0.0442 -0.41451,-0.14699 -0.60206,-0.26373 -0.14549,-0.0117 -0.0401,-0.2806 -0.23366,-0.22741 -0.15985,0.11165 -0.29843,-0.1067 -0.44332,-0.15259 -0.14671,-0.10352 -0.31384,-0.17296 -0.47067,-0.2553 -0.1377,-0.18472 0.19774,-0.28139 0.32109,-0.35268 0.1982,-0.0577 0.33801,-0.25001 0.53951,-0.27858 0.14026,0.12968 0.18934,-0.0597 0.20009,-0.17296 0.15537,-0.0885 0.34791,-0.13908 0.48999,-0.26371 0.12254,-0.0567 0.2597,-0.22269 0.3796,-0.19749 0.12318,0.10261 0.22875,-0.0245 0.199,-0.15083 0.10018,-0.0852 0.23294,-0.13518 0.34415,-0.21013 0.12735,-0.0684 0.2504,-0.15473 0.39032,-0.19287 0.20186,-0.002 0.17336,0.23084 0.21779,0.36437 0.0196,0.17177 10e-5,0.34442 0.013,0.51641 0.009,0.12216 -0.25374,0.17635 -0.0823,0.28467 0.13874,0.0706 0.0499,0.23413 0.0758,0.3555 0.0123,0.19244 -0.0343,0.38253 -0.015,0.57445 0.0323,0.14005 -0.23491,0.21357 -0.0546,0.32488 0.13522,0.086 0.0528,0.3291 0.048,0.4748 -0.0666,0.15823 0.0303,0.32942 -0.007,0.4949 -0.0355,0.016 -0.0639,0.0517 -0.10624,0.0496 z"
       id="path4561-6-2-9-1-8"
       inkscape:connector-curvature="0" />
    <path
       style="fill:#373737;stroke-width:1.33333337"
       d="m 549.21702,524.18705 c -0.19962,-0.077 -0.34114,-0.26019 -0.55415,-0.30658 -0.12933,-0.0516 -0.29929,-0.11078 -0.28109,-0.26802 -0.12495,-0.0572 -0.28631,0.002 -0.36804,-0.14665 -0.21677,-0.0442 -0.41451,-0.14699 -0.60206,-0.26373 -0.14549,-0.0117 -0.0401,-0.2806 -0.23366,-0.22741 -0.15985,0.11165 -0.29843,-0.1067 -0.44332,-0.15259 -0.14671,-0.10352 -0.31384,-0.17296 -0.47067,-0.2553 -0.1377,-0.18472 0.19774,-0.28139 0.32109,-0.35268 0.1982,-0.0577 0.33801,-0.25001 0.53951,-0.27858 0.14026,0.12968 0.18934,-0.0597 0.20009,-0.17296 0.15537,-0.0885 0.34791,-0.13908 0.48999,-0.26371 0.12254,-0.0567 0.2597,-0.22269 0.3796,-0.19749 0.12318,0.10261 0.22875,-0.0245 0.199,-0.15083 0.10018,-0.0852 0.23294,-0.13518 0.34415,-0.21013 0.12735,-0.0684 0.2504,-0.15473 0.39032,-0.19287 0.20186,-0.002 0.17336,0.23084 0.21779,0.36437 0.0196,0.17177 1e-4,0.34442 0.013,0.51641 0.009,0.12216 -0.25374,0.17635 -0.0823,0.28467 0.13874,0.0706 0.0499,0.23413 0.0758,0.3555 0.0123,0.19244 -0.0343,0.38253 -0.015,0.57445 0.0323,0.14005 -0.23491,0.21357 -0.0546,0.32488 0.13522,0.086 0.0528,0.3291 0.048,0.4748 -0.0666,0.15823 0.0303,0.32942 -0.007,0.4949 -0.0355,0.016 -0.0639,0.0517 -0.10624,0.0496 z"
       id="path4561-6-2-9-1-18"
       inkscape:connector-curvature="0" />
    <path
       style="fill:#373737;stroke-width:1.33333337"
       d="m 550.71373,518.76147 c -0.19962,-0.077 -0.34114,-0.26019 -0.55415,-0.30658 -0.12933,-0.0516 -0.29929,-0.11078 -0.28109,-0.26802 -0.12495,-0.0572 -0.28631,0.002 -0.36804,-0.14665 -0.21677,-0.0442 -0.41451,-0.14699 -0.60206,-0.26373 -0.14549,-0.0117 -0.0401,-0.2806 -0.23366,-0.22741 -0.15985,0.11165 -0.29843,-0.1067 -0.44332,-0.15259 -0.14671,-0.10352 -0.31384,-0.17296 -0.47067,-0.2553 -0.1377,-0.18472 0.19774,-0.28139 0.32109,-0.35268 0.1982,-0.0577 0.33801,-0.25001 0.53951,-0.27858 0.14026,0.12968 0.18934,-0.0597 0.20009,-0.17296 0.15537,-0.0885 0.34791,-0.13908 0.48999,-0.26371 0.12254,-0.0567 0.2597,-0.22269 0.3796,-0.19749 0.12318,0.10261 0.22875,-0.0245 0.199,-0.15083 0.10018,-0.0852 0.23294,-0.13518 0.34415,-0.21013 0.12735,-0.0684 0.2504,-0.15473 0.39032,-0.19287 0.20186,-0.002 0.17336,0.23084 0.21779,0.36437 0.0196,0.17177 1e-4,0.34442 0.013,0.51641 0.009,0.12216 -0.25374,0.17635 -0.0823,0.28467 0.13874,0.0706 0.0499,0.23413 0.0758,0.3555 0.0123,0.19244 -0.0343,0.38253 -0.015,0.57445 0.0323,0.14005 -0.23491,0.21357 -0.0546,0.32488 0.13522,0.086 0.0528,0.3291 0.048,0.4748 -0.0666,0.15823 0.0303,0.32942 -0.007,0.4949 -0.0355,0.016 -0.0639,0.0517 -0.10624,0.0496 z"
       id="path4561-6-2-9-1-5"
       inkscape:connector-curvature="0" />
    <path
       style="fill:#373737;stroke-width:1.33333337"
       d="m 552.67817,512.54078 c -0.19962,-0.077 -0.34114,-0.26019 -0.55415,-0.30658 -0.12933,-0.0516 -0.29929,-0.11078 -0.28109,-0.26802 -0.12495,-0.0572 -0.28631,0.002 -0.36804,-0.14665 -0.21677,-0.0442 -0.41451,-0.14699 -0.60206,-0.26373 -0.14549,-0.0117 -0.0401,-0.2806 -0.23366,-0.22741 -0.15985,0.11165 -0.29843,-0.1067 -0.44332,-0.15259 -0.14671,-0.10352 -0.31384,-0.17296 -0.47067,-0.2553 -0.1377,-0.18472 0.19774,-0.28139 0.32109,-0.35268 0.1982,-0.0577 0.33801,-0.25001 0.53951,-0.27858 0.14026,0.12968 0.18934,-0.0597 0.20009,-0.17296 0.15537,-0.0885 0.34791,-0.13908 0.48999,-0.26371 0.12254,-0.0567 0.2597,-0.22269 0.3796,-0.19749 0.12318,0.10261 0.22875,-0.0245 0.199,-0.15083 0.10018,-0.0852 0.23294,-0.13518 0.34415,-0.21013 0.12735,-0.0684 0.2504,-0.15473 0.39032,-0.19287 0.20186,-0.002 0.17336,0.23084 0.21779,0.36437 0.0196,0.17177 10e-5,0.34442 0.013,0.51641 0.009,0.12216 -0.25374,0.17635 -0.0823,0.28467 0.13874,0.0706 0.0499,0.23413 0.0758,0.3555 0.0123,0.19244 -0.0343,0.38253 -0.015,0.57445 0.0323,0.14005 -0.23491,0.21357 -0.0546,0.32488 0.13522,0.086 0.0528,0.3291 0.048,0.4748 -0.0666,0.15823 0.0303,0.32942 -0.007,0.4949 -0.0355,0.016 -0.0639,0.0517 -0.10624,0.0496 z"
       id="path4561-6-2-9-1-8-1"
       inkscape:connector-curvature="0" />
    <path
       style="fill:#373737;stroke-width:1.33333337"
       d="m 553.98778,506.83458 c -0.19962,-0.077 -0.34114,-0.26019 -0.55415,-0.30658 -0.12933,-0.0516 -0.29929,-0.11078 -0.28109,-0.26802 -0.12495,-0.0572 -0.28631,0.002 -0.36804,-0.14665 -0.21677,-0.0442 -0.41451,-0.14699 -0.60206,-0.26373 -0.14549,-0.0117 -0.0401,-0.2806 -0.23366,-0.22741 -0.15985,0.11165 -0.29843,-0.1067 -0.44332,-0.15259 -0.14671,-0.10352 -0.31384,-0.17296 -0.47067,-0.2553 -0.1377,-0.18472 0.19774,-0.28139 0.32109,-0.35268 0.1982,-0.0577 0.33801,-0.25001 0.53951,-0.27858 0.14026,0.12968 0.18934,-0.0597 0.20009,-0.17296 0.15537,-0.0885 0.34791,-0.13908 0.48999,-0.26371 0.12254,-0.0567 0.2597,-0.22269 0.3796,-0.19749 0.12318,0.10261 0.22875,-0.0245 0.199,-0.15083 0.10018,-0.0852 0.23294,-0.13518 0.34415,-0.21013 0.12735,-0.0684 0.2504,-0.15473 0.39032,-0.19287 0.20186,-0.002 0.17336,0.23084 0.21779,0.36437 0.0196,0.17177 1e-4,0.34442 0.013,0.51641 0.009,0.12216 -0.25374,0.17635 -0.0823,0.28467 0.13874,0.0706 0.0499,0.23413 0.0758,0.3555 0.0123,0.19244 -0.0343,0.38253 -0.015,0.57445 0.0323,0.14005 -0.23491,0.21357 -0.0546,0.32488 0.13522,0.086 0.0528,0.3291 0.048,0.4748 -0.0666,0.15823 0.0303,0.32942 -0.007,0.4949 -0.0355,0.016 -0.0639,0.0517 -0.10624,0.0496 z"
       id="path4561-6-2-9-1-18-6"
       inkscape:connector-curvature="0" />
    <path
       style="fill:#373737;stroke-width:1.33333337"
       d="m 555.48449,501.409 c -0.19962,-0.077 -0.34114,-0.26019 -0.55415,-0.30658 -0.12933,-0.0516 -0.29929,-0.11078 -0.28109,-0.26802 -0.12495,-0.0572 -0.28631,0.002 -0.36804,-0.14665 -0.21677,-0.0442 -0.41451,-0.14699 -0.60206,-0.26373 -0.14549,-0.0117 -0.0401,-0.2806 -0.23366,-0.22741 -0.15985,0.11165 -0.29843,-0.1067 -0.44332,-0.15259 -0.14671,-0.10352 -0.31384,-0.17296 -0.47067,-0.2553 -0.1377,-0.18472 0.19774,-0.28139 0.32109,-0.35268 0.1982,-0.0577 0.33801,-0.25001 0.53951,-0.27858 0.14026,0.12968 0.18934,-0.0597 0.20009,-0.17296 0.15537,-0.0885 0.34791,-0.13908 0.48999,-0.26371 0.12254,-0.0567 0.2597,-0.22269 0.3796,-0.19749 0.12318,0.10261 0.22875,-0.0245 0.199,-0.15083 0.10018,-0.0852 0.23294,-0.13518 0.34415,-0.21013 0.12735,-0.0684 0.2504,-0.15473 0.39032,-0.19287 0.20186,-0.002 0.17336,0.23084 0.21779,0.36437 0.0196,0.17177 1e-4,0.34442 0.013,0.51641 0.009,0.12216 -0.25374,0.17635 -0.0823,0.28467 0.13874,0.0706 0.0499,0.23413 0.0758,0.3555 0.0123,0.19244 -0.0343,0.38253 -0.015,0.57445 0.0323,0.14005 -0.23491,0.21357 -0.0546,0.32488 0.13522,0.086 0.0528,0.3291 0.048,0.4748 -0.0666,0.15823 0.0303,0.32942 -0.007,0.4949 -0.0355,0.016 -0.0639,0.0517 -0.10624,0.0496 z"
       id="path4561-6-2-9-1-5-5"
       inkscape:connector-curvature="0" />
    <path
       style="fill:#373737;stroke-width:1.33333337"
       d="m 556.79412,495.32862 c -0.19962,-0.077 -0.34114,-0.26019 -0.55415,-0.30658 -0.12933,-0.0516 -0.29929,-0.11078 -0.28109,-0.26802 -0.12495,-0.0572 -0.28631,0.002 -0.36804,-0.14665 -0.21677,-0.0442 -0.41451,-0.14699 -0.60206,-0.26373 -0.14549,-0.0117 -0.0401,-0.2806 -0.23366,-0.22741 -0.15985,0.11165 -0.29843,-0.1067 -0.44332,-0.15259 -0.14671,-0.10352 -0.31384,-0.17296 -0.47067,-0.2553 -0.1377,-0.18472 0.19774,-0.28139 0.32109,-0.35268 0.1982,-0.0577 0.33801,-0.25001 0.53951,-0.27858 0.14026,0.12968 0.18934,-0.0597 0.20009,-0.17296 0.15537,-0.0885 0.34791,-0.13908 0.48999,-0.26371 0.12254,-0.0567 0.2597,-0.22269 0.3796,-0.19749 0.12318,0.10261 0.22875,-0.0245 0.199,-0.15083 0.10018,-0.0852 0.23294,-0.13518 0.34415,-0.21013 0.12735,-0.0684 0.2504,-0.15473 0.39032,-0.19287 0.20186,-0.002 0.17336,0.23084 0.21779,0.36437 0.0196,0.17177 10e-5,0.34442 0.013,0.51641 0.009,0.12216 -0.25374,0.17635 -0.0823,0.28467 0.13874,0.0706 0.0499,0.23413 0.0758,0.3555 0.0123,0.19244 -0.0343,0.38253 -0.015,0.57445 0.0323,0.14005 -0.23491,0.21357 -0.0546,0.32488 0.13522,0.086 0.0528,0.3291 0.048,0.4748 -0.0666,0.15823 0.0303,0.32942 -0.007,0.4949 -0.0355,0.016 -0.0639,0.0517 -0.10624,0.0496 z"
       id="path4561-6-2-9-1-8-9"
       inkscape:connector-curvature="0" />
    <path
       style="fill:#373737;stroke-width:1.33333337"
       d="m 558.10373,489.62242 c -0.19962,-0.077 -0.34114,-0.26019 -0.55415,-0.30658 -0.12933,-0.0516 -0.29929,-0.11078 -0.28109,-0.26802 -0.12495,-0.0572 -0.28631,0.002 -0.36804,-0.14665 -0.21677,-0.0442 -0.41451,-0.14699 -0.60206,-0.26373 -0.14549,-0.0117 -0.0401,-0.2806 -0.23366,-0.22741 -0.15985,0.11165 -0.29843,-0.1067 -0.44332,-0.15259 -0.14671,-0.10352 -0.31384,-0.17296 -0.47067,-0.2553 -0.1377,-0.18472 0.19774,-0.28139 0.32109,-0.35268 0.1982,-0.0577 0.33801,-0.25001 0.53951,-0.27858 0.14026,0.12968 0.18934,-0.0597 0.20009,-0.17296 0.15537,-0.0885 0.34791,-0.13908 0.48999,-0.26371 0.12254,-0.0567 0.2597,-0.22269 0.3796,-0.19749 0.12318,0.10261 0.22875,-0.0245 0.199,-0.15083 0.10018,-0.0852 0.23294,-0.13518 0.34415,-0.21013 0.12735,-0.0684 0.2504,-0.15473 0.39032,-0.19287 0.20186,-0.002 0.17336,0.23084 0.21779,0.36437 0.0196,0.17177 1e-4,0.34442 0.013,0.51641 0.009,0.12216 -0.25374,0.17635 -0.0823,0.28467 0.13874,0.0706 0.0499,0.23413 0.0758,0.3555 0.0123,0.19244 -0.0343,0.38253 -0.015,0.57445 0.0323,0.14005 -0.23491,0.21357 -0.0546,0.32488 0.13522,0.086 0.0528,0.3291 0.048,0.4748 -0.0666,0.15823 0.0303,0.32942 -0.007,0.4949 -0.0355,0.016 -0.0639,0.0517 -0.10624,0.0496 z"
       id="path4561-6-2-9-1-18-9"
       inkscape:connector-curvature="0" />
    <path
       style="fill:#373737;stroke-width:1.33333337"
       d="m 559.60044,484.19684 c -0.19962,-0.077 -0.34114,-0.26019 -0.55415,-0.30658 -0.12933,-0.0516 -0.29929,-0.11078 -0.28109,-0.26802 -0.12495,-0.0572 -0.28631,0.002 -0.36804,-0.14665 -0.21677,-0.0442 -0.41451,-0.14699 -0.60206,-0.26373 -0.14549,-0.0117 -0.0401,-0.2806 -0.23366,-0.22741 -0.15985,0.11165 -0.29843,-0.1067 -0.44332,-0.15259 -0.14671,-0.10352 -0.31384,-0.17296 -0.47067,-0.2553 -0.1377,-0.18472 0.19774,-0.28139 0.32109,-0.35268 0.1982,-0.0577 0.33801,-0.25001 0.53951,-0.27858 0.14026,0.12968 0.18934,-0.0597 0.20009,-0.17296 0.15537,-0.0885 0.34791,-0.13908 0.48999,-0.26371 0.12254,-0.0567 0.2597,-0.22269 0.3796,-0.19749 0.12318,0.10261 0.22875,-0.0245 0.199,-0.15083 0.10018,-0.0852 0.23294,-0.13518 0.34415,-0.21013 0.12735,-0.0684 0.2504,-0.15473 0.39032,-0.19287 0.20186,-0.002 0.17336,0.23084 0.21779,0.36437 0.0196,0.17177 1e-4,0.34442 0.013,0.51641 0.009,0.12216 -0.25374,0.17635 -0.0823,0.28467 0.13874,0.0706 0.0499,0.23413 0.0758,0.3555 0.0123,0.19244 -0.0343,0.38253 -0.015,0.57445 0.0323,0.14005 -0.23491,0.21357 -0.0546,0.32488 0.13522,0.086 0.0528,0.3291 0.048,0.4748 -0.0666,0.15823 0.0303,0.32942 -0.007,0.4949 -0.0355,0.016 -0.0639,0.0517 -0.10624,0.0496 z"
       id="path4561-6-2-9-1-5-7"
       inkscape:connector-curvature="0" />
    <path
       style="fill:#373737;stroke-width:1.33333337"
       d="m 561.28425,478.11647 c -0.19962,-0.077 -0.34114,-0.26019 -0.55415,-0.30658 -0.12933,-0.0516 -0.29929,-0.11078 -0.28109,-0.26802 -0.12495,-0.0572 -0.28631,0.002 -0.36804,-0.14665 -0.21677,-0.0442 -0.41451,-0.14699 -0.60206,-0.26373 -0.14549,-0.0117 -0.0401,-0.2806 -0.23366,-0.22741 -0.15985,0.11165 -0.29843,-0.1067 -0.44332,-0.15259 -0.14671,-0.10352 -0.31384,-0.17296 -0.47067,-0.2553 -0.1377,-0.18472 0.19774,-0.28139 0.32109,-0.35268 0.1982,-0.0577 0.33801,-0.25001 0.53951,-0.27858 0.14026,0.12968 0.18934,-0.0597 0.20009,-0.17296 0.15537,-0.0885 0.34791,-0.13908 0.48999,-0.26371 0.12254,-0.0567 0.2597,-0.22269 0.3796,-0.19749 0.12318,0.10261 0.22875,-0.0245 0.199,-0.15083 0.10018,-0.0852 0.23294,-0.13518 0.34415,-0.21013 0.12735,-0.0684 0.2504,-0.15473 0.39032,-0.19287 0.20186,-0.002 0.17336,0.23084 0.21779,0.36437 0.0196,0.17177 1e-4,0.34442 0.013,0.51641 0.009,0.12216 -0.25374,0.17635 -0.0823,0.28467 0.13874,0.0706 0.0499,0.23413 0.0758,0.3555 0.0123,0.19244 -0.0343,0.38253 -0.015,0.57445 0.0323,0.14005 -0.23491,0.21357 -0.0546,0.32488 0.13522,0.086 0.0528,0.3291 0.048,0.4748 -0.0666,0.15823 0.0303,0.32942 -0.007,0.4949 -0.0355,0.016 -0.0639,0.0517 -0.10624,0.0496 z"
       id="path4561-6-2-9-1-8-6"
       inkscape:connector-curvature="0" />
    <path
       style="fill:#373737;stroke-width:1.33333337"
       d="m 562.59386,472.41027 c -0.19962,-0.077 -0.34114,-0.26019 -0.55415,-0.30658 -0.12933,-0.0516 -0.29929,-0.11078 -0.28109,-0.26802 -0.12495,-0.0572 -0.28631,0.002 -0.36804,-0.14665 -0.21677,-0.0442 -0.41451,-0.14699 -0.60206,-0.26373 -0.14549,-0.0117 -0.0401,-0.2806 -0.23366,-0.22741 -0.15985,0.11165 -0.29843,-0.1067 -0.44332,-0.15259 -0.14671,-0.10352 -0.31384,-0.17296 -0.47067,-0.2553 -0.1377,-0.18472 0.19774,-0.28139 0.32109,-0.35268 0.1982,-0.0577 0.33801,-0.25001 0.53951,-0.27858 0.14026,0.12968 0.18934,-0.0597 0.20009,-0.17296 0.15537,-0.0885 0.34791,-0.13908 0.48999,-0.26371 0.12254,-0.0567 0.2597,-0.22269 0.3796,-0.19749 0.12318,0.10261 0.22875,-0.0245 0.199,-0.15083 0.10018,-0.0852 0.23294,-0.13518 0.34415,-0.21013 0.12735,-0.0684 0.2504,-0.15473 0.39032,-0.19287 0.20186,-0.002 0.17336,0.23084 0.21779,0.36437 0.0196,0.17177 1e-4,0.34442 0.013,0.51641 0.009,0.12216 -0.25374,0.17635 -0.0823,0.28467 0.13874,0.0706 0.0499,0.23413 0.0758,0.3555 0.0123,0.19244 -0.0343,0.38253 -0.015,0.57445 0.0323,0.14005 -0.23491,0.21357 -0.0546,0.32488 0.13522,0.086 0.0528,0.3291 0.048,0.4748 -0.0666,0.15823 0.0303,0.32942 -0.007,0.4949 -0.0355,0.016 -0.0639,0.0517 -0.10624,0.0496 z"
       id="path4561-6-2-9-1-18-3"
       inkscape:connector-curvature="0" />
    <path
       style="fill:#373737;stroke-width:1.33333337"
       d="m 564.09057,466.98469 c -0.19962,-0.077 -0.34114,-0.26019 -0.55415,-0.30658 -0.12933,-0.0516 -0.29929,-0.11078 -0.28109,-0.26802 -0.12495,-0.0572 -0.28631,0.002 -0.36804,-0.14665 -0.21677,-0.0442 -0.41451,-0.14699 -0.60206,-0.26373 -0.14549,-0.0117 -0.0401,-0.2806 -0.23366,-0.22741 -0.15985,0.11165 -0.29843,-0.1067 -0.44332,-0.15259 -0.14671,-0.10352 -0.31384,-0.17296 -0.47067,-0.2553 -0.1377,-0.18472 0.19774,-0.28139 0.32109,-0.35268 0.1982,-0.0577 0.33801,-0.25001 0.53951,-0.27858 0.14026,0.12968 0.18934,-0.0597 0.20009,-0.17296 0.15537,-0.0885 0.34791,-0.13908 0.48999,-0.26371 0.12254,-0.0567 0.2597,-0.22269 0.3796,-0.19749 0.12318,0.10261 0.22875,-0.0245 0.199,-0.15083 0.10018,-0.0852 0.23294,-0.13518 0.34415,-0.21013 0.12735,-0.0684 0.2504,-0.15473 0.39032,-0.19287 0.20186,-0.002 0.17336,0.23084 0.21779,0.36437 0.0196,0.17177 10e-5,0.34442 0.013,0.51641 0.009,0.12216 -0.25374,0.17635 -0.0823,0.28467 0.13874,0.0706 0.0499,0.23413 0.0758,0.3555 0.0123,0.19244 -0.0343,0.38253 -0.015,0.57445 0.0323,0.14005 -0.23491,0.21357 -0.0546,0.32488 0.13522,0.086 0.0528,0.3291 0.048,0.4748 -0.0666,0.15823 0.0303,0.32942 -0.007,0.4949 -0.0355,0.016 -0.0639,0.0517 -0.10624,0.0496 z"
       id="path4561-6-2-9-1-5-59"
       inkscape:connector-curvature="0" />
    <path
       style="fill:#373737;stroke-width:1.33333337"
       d="m 588.79276,549.2803 c 0.21734,-0.0838 0.37142,-0.28329 0.60334,-0.3338 0.14081,-0.0562 0.32585,-0.12061 0.30604,-0.29181 0.13604,-0.0623 0.31172,0.002 0.40071,-0.15966 0.23601,-0.0481 0.4513,-0.16004 0.6555,-0.28714 0.1584,-0.0127 0.0437,-0.30551 0.2544,-0.2476 0.17404,0.12156 0.32492,-0.11617 0.48267,-0.16613 0.15973,-0.11271 0.34169,-0.18832 0.51245,-0.27796 0.14992,-0.20112 -0.2153,-0.30637 -0.3496,-0.38399 -0.21579,-0.0628 -0.36801,-0.2722 -0.58739,-0.30331 -0.15271,0.14119 -0.20615,-0.065 -0.21786,-0.18831 -0.16916,-0.0964 -0.37879,-0.15142 -0.53348,-0.28712 -0.13342,-0.0617 -0.28275,-0.24245 -0.41329,-0.21502 -0.13412,0.11172 -0.24906,-0.0267 -0.21667,-0.16422 -0.10907,-0.0928 -0.25361,-0.14717 -0.37469,-0.22878 -0.13866,-0.0745 -0.27263,-0.16846 -0.42497,-0.20999 -0.21978,-0.002 -0.18875,0.25133 -0.23712,0.39672 -0.0213,0.18701 -1.1e-4,0.37499 -0.0142,0.56224 -0.01,0.13301 0.27627,0.19201 0.0896,0.30994 -0.15106,0.0769 -0.0543,0.25491 -0.0825,0.38706 -0.0134,0.20952 0.0373,0.41648 0.0163,0.62544 -0.0352,0.15248 0.25576,0.23253 0.0594,0.35372 -0.14722,0.0936 -0.0575,0.35831 -0.0523,0.51694 0.0725,0.17228 -0.033,0.35866 0.008,0.53883 0.0386,0.0174 0.0696,0.0563 0.11567,0.054 z"
       id="path4561-6-2-9-1-56"
       inkscape:connector-curvature="0" />
    <path
       style="fill:#373737;stroke-width:1.33333337"
       d="m 586.65395,542.6602 c 0.21734,-0.0838 0.37142,-0.28328 0.60334,-0.33379 0.1408,-0.0562 0.32585,-0.12062 0.30604,-0.29181 0.13604,-0.0623 0.31172,0.002 0.4007,-0.15967 0.23602,-0.0481 0.45131,-0.16004 0.65551,-0.28714 0.1584,-0.0127 0.0436,-0.30551 0.2544,-0.24759 0.17403,0.12156 0.32492,-0.11618 0.48267,-0.16614 0.15973,-0.11271 0.34169,-0.18831 0.51244,-0.27796 0.14993,-0.20112 -0.21529,-0.30637 -0.34959,-0.38399 -0.21579,-0.0628 -0.36801,-0.2722 -0.5874,-0.3033 -0.15271,0.14119 -0.20614,-0.065 -0.21785,-0.18832 -0.16916,-0.0964 -0.37879,-0.15142 -0.53348,-0.28711 -0.13342,-0.0617 -0.28275,-0.24246 -0.41329,-0.21502 -0.13412,0.11171 -0.24906,-0.0267 -0.21667,-0.16422 -0.10907,-0.0928 -0.25361,-0.14718 -0.3747,-0.22878 -0.13865,-0.0745 -0.27262,-0.16847 -0.42496,-0.20999 -0.21978,-0.002 -0.18875,0.25133 -0.23712,0.39671 -0.0213,0.18702 -1.1e-4,0.37499 -0.0142,0.56225 -0.01,0.133 0.27627,0.192 0.0896,0.30994 -0.15106,0.0769 -0.0543,0.25491 -0.0825,0.38705 -0.0134,0.20952 0.0373,0.41649 0.0163,0.62544 -0.0352,0.15248 0.25576,0.23253 0.0595,0.35372 -0.14723,0.0936 -0.0575,0.35831 -0.0523,0.51694 0.0725,0.17228 -0.033,0.35866 0.008,0.53883 0.0387,0.0174 0.0696,0.0563 0.11567,0.054 z"
       id="path4561-6-2-9-1-7-7"
       inkscape:connector-curvature="0" />
    <path
       style="fill:#373737;stroke-width:1.33333337"
       d="m 585.12624,536.2438 c 0.21734,-0.0838 0.37142,-0.28328 0.60334,-0.33379 0.14081,-0.0562 0.32585,-0.12061 0.30604,-0.29181 0.13604,-0.0623 0.31172,0.002 0.4007,-0.15967 0.23602,-0.0481 0.45131,-0.16004 0.65551,-0.28714 0.1584,-0.0127 0.0437,-0.30551 0.2544,-0.24759 0.17404,0.12156 0.32492,-0.11618 0.48267,-0.16614 0.15973,-0.11271 0.34169,-0.18831 0.51245,-0.27796 0.14992,-0.20112 -0.2153,-0.30637 -0.3496,-0.38399 -0.21579,-0.0628 -0.36801,-0.2722 -0.58739,-0.3033 -0.15271,0.14119 -0.20615,-0.065 -0.21786,-0.18832 -0.16916,-0.0964 -0.37879,-0.15142 -0.53348,-0.28711 -0.13342,-0.0617 -0.28275,-0.24246 -0.41329,-0.21502 -0.13412,0.11171 -0.24906,-0.0267 -0.21667,-0.16422 -0.10907,-0.0928 -0.25361,-0.14718 -0.3747,-0.22878 -0.13865,-0.0745 -0.27262,-0.16847 -0.42496,-0.20999 -0.21978,-0.002 -0.18875,0.25133 -0.23712,0.39671 -0.0213,0.18702 -1.1e-4,0.37499 -0.0142,0.56225 -0.01,0.133 0.27627,0.192 0.0896,0.30994 -0.15106,0.0769 -0.0543,0.25491 -0.0825,0.38705 -0.0134,0.20952 0.0373,0.41649 0.0163,0.62544 -0.0352,0.15248 0.25576,0.23253 0.0594,0.35372 -0.14722,0.0936 -0.0575,0.35831 -0.0523,0.51694 0.0725,0.17228 -0.033,0.35866 0.008,0.53883 0.0386,0.0174 0.0696,0.0563 0.11567,0.054 z"
       id="path4561-6-2-9-1-1-9"
       inkscape:connector-curvature="0" />
    <path
       style="fill:#373737;stroke-width:1.33333337"
       d="m 583.59852,529.72555 c 0.21734,-0.0838 0.37142,-0.28329 0.60334,-0.33379 0.14081,-0.0562 0.32585,-0.12062 0.30604,-0.29182 0.13604,-0.0623 0.31172,0.002 0.4007,-0.15966 0.23602,-0.0481 0.45131,-0.16004 0.65551,-0.28714 0.1584,-0.0127 0.0436,-0.30551 0.2544,-0.2476 0.17403,0.12156 0.32492,-0.11617 0.48267,-0.16613 0.15973,-0.11271 0.34169,-0.18831 0.51244,-0.27796 0.14993,-0.20112 -0.21529,-0.30637 -0.34959,-0.38399 -0.21579,-0.0628 -0.36801,-0.2722 -0.5874,-0.30331 -0.1527,0.14119 -0.20614,-0.065 -0.21785,-0.18831 -0.16916,-0.0964 -0.37879,-0.15142 -0.53348,-0.28712 -0.13342,-0.0617 -0.28275,-0.24245 -0.41329,-0.21502 -0.13412,0.11172 -0.24906,-0.0267 -0.21667,-0.16421 -0.10907,-0.0928 -0.25361,-0.14718 -0.3747,-0.22879 -0.13865,-0.0745 -0.27262,-0.16846 -0.42496,-0.20999 -0.21978,-0.002 -0.18875,0.25133 -0.23712,0.39672 -0.0213,0.18701 -1.1e-4,0.37499 -0.0142,0.56224 -0.01,0.13301 0.27627,0.19201 0.0896,0.30994 -0.15106,0.0769 -0.0543,0.25492 -0.0825,0.38706 -0.0134,0.20952 0.0373,0.41648 0.0163,0.62544 -0.0352,0.15248 0.25576,0.23253 0.0595,0.35372 -0.14723,0.0936 -0.0575,0.35831 -0.0523,0.51694 0.0725,0.17228 -0.033,0.35866 0.008,0.53883 0.0387,0.0174 0.0696,0.0563 0.11567,0.054 z"
       id="path4561-6-2-9-1-8-16"
       inkscape:connector-curvature="0" />
    <path
       style="fill:#373737;stroke-width:1.33333337"
       d="m 582.17266,523.51285 c 0.21734,-0.0838 0.37142,-0.28329 0.60334,-0.3338 0.14081,-0.0562 0.32586,-0.12061 0.30604,-0.29181 0.13604,-0.0623 0.31172,0.002 0.40071,-0.15967 0.23601,-0.0481 0.4513,-0.16003 0.6555,-0.28713 0.1584,-0.0127 0.0437,-0.30551 0.2544,-0.2476 0.17404,0.12156 0.32492,-0.11617 0.48267,-0.16613 0.15973,-0.11271 0.3417,-0.18832 0.51245,-0.27797 0.14992,-0.20111 -0.21529,-0.30636 -0.34959,-0.38398 -0.21579,-0.0628 -0.36801,-0.2722 -0.5874,-0.30331 -0.15271,0.14119 -0.20615,-0.065 -0.21785,-0.18831 -0.16916,-0.0964 -0.37879,-0.15143 -0.53348,-0.28712 -0.13342,-0.0617 -0.28276,-0.24246 -0.4133,-0.21502 -0.13411,0.11172 -0.24905,-0.0267 -0.21666,-0.16422 -0.10908,-0.0928 -0.25362,-0.14718 -0.3747,-0.22878 -0.13866,-0.0745 -0.27263,-0.16846 -0.42497,-0.20999 -0.21978,-0.002 -0.18875,0.25133 -0.23712,0.39671 -0.0213,0.18702 -1.1e-4,0.375 -0.0141,0.56225 -0.01,0.13301 0.27626,0.19201 0.0896,0.30994 -0.15105,0.0769 -0.0543,0.25491 -0.0825,0.38706 -0.0134,0.20952 0.0374,0.41648 0.0163,0.62544 -0.0352,0.15248 0.25576,0.23252 0.0594,0.35371 -0.14722,0.0936 -0.0575,0.35832 -0.0523,0.51695 0.0725,0.17227 -0.033,0.35866 0.008,0.53883 0.0386,0.0174 0.0696,0.0563 0.11567,0.054 z"
       id="path4561-6-2-9-1-18-5"
       inkscape:connector-curvature="0" />
    <path
       style="fill:#373737;stroke-width:1.33333337"
       d="m 580.5431,517.60567 c 0.21734,-0.0838 0.37142,-0.28328 0.60334,-0.33379 0.14081,-0.0562 0.32585,-0.12061 0.30604,-0.29181 0.13604,-0.0623 0.31172,0.002 0.40071,-0.15967 0.23601,-0.0481 0.4513,-0.16004 0.6555,-0.28714 0.1584,-0.0127 0.0437,-0.30551 0.2544,-0.24759 0.17404,0.12156 0.32492,-0.11618 0.48267,-0.16614 0.15973,-0.11271 0.3417,-0.18831 0.51245,-0.27796 0.14992,-0.20112 -0.2153,-0.30637 -0.3496,-0.38399 -0.21579,-0.0628 -0.36801,-0.2722 -0.58739,-0.3033 -0.15271,0.14119 -0.20615,-0.065 -0.21785,-0.18832 -0.16917,-0.0963 -0.3788,-0.15142 -0.53349,-0.28711 -0.13342,-0.0617 -0.28275,-0.24246 -0.41329,-0.21502 -0.13412,0.11171 -0.24906,-0.0267 -0.21667,-0.16422 -0.10907,-0.0928 -0.25361,-0.14718 -0.37469,-0.22878 -0.13866,-0.0745 -0.27263,-0.16847 -0.42497,-0.20999 -0.21978,-0.002 -0.18875,0.25133 -0.23712,0.39671 -0.0213,0.18702 -1.1e-4,0.37499 -0.0142,0.56225 -0.01,0.133 0.27627,0.192 0.0896,0.30994 -0.15106,0.0769 -0.0543,0.25491 -0.0825,0.38705 -0.0134,0.20952 0.0373,0.41649 0.0163,0.62544 -0.0352,0.15248 0.25576,0.23253 0.0594,0.35372 -0.14722,0.0936 -0.0575,0.35831 -0.0523,0.51694 0.0725,0.17228 -0.033,0.35866 0.008,0.53883 0.0386,0.0174 0.0696,0.0563 0.11567,0.054 z"
       id="path4561-6-2-9-1-5-6"
       inkscape:connector-curvature="0" />
    <path
       style="fill:#373737;stroke-width:1.33333337"
       d="m 578.40429,510.83281 c 0.21734,-0.0838 0.37142,-0.28328 0.60334,-0.33379 0.14081,-0.0562 0.32585,-0.12062 0.30604,-0.29181 0.13604,-0.0623 0.31172,0.002 0.4007,-0.15967 0.23602,-0.0481 0.45131,-0.16004 0.65551,-0.28714 0.1584,-0.0127 0.0437,-0.30551 0.2544,-0.2476 0.17403,0.12157 0.32492,-0.11617 0.48267,-0.16613 0.15973,-0.11271 0.34169,-0.18831 0.51245,-0.27796 0.14992,-0.20112 -0.2153,-0.30637 -0.3496,-0.38399 -0.21579,-0.0628 -0.36801,-0.2722 -0.58739,-0.3033 -0.15271,0.14119 -0.20615,-0.065 -0.21786,-0.18832 -0.16916,-0.0964 -0.37879,-0.15142 -0.53348,-0.28711 -0.13342,-0.0617 -0.28275,-0.24246 -0.41329,-0.21502 -0.13412,0.11171 -0.24906,-0.0267 -0.21667,-0.16422 -0.10907,-0.0928 -0.25361,-0.14718 -0.3747,-0.22878 -0.13865,-0.0745 -0.27262,-0.16847 -0.42496,-0.20999 -0.21978,-0.002 -0.18875,0.25133 -0.23712,0.39671 -0.0213,0.18702 -1.1e-4,0.37499 -0.0142,0.56225 -0.01,0.133 0.27627,0.192 0.0896,0.30994 -0.15106,0.0769 -0.0543,0.25491 -0.0825,0.38705 -0.0134,0.20952 0.0373,0.41649 0.0163,0.62544 -0.0352,0.15248 0.25576,0.23253 0.0594,0.35372 -0.14722,0.0936 -0.0575,0.35831 -0.0523,0.51694 0.0725,0.17228 -0.033,0.35866 0.008,0.53883 0.0386,0.0174 0.0696,0.0563 0.11567,0.054 z"
       id="path4561-6-2-9-1-8-1-0"
       inkscape:connector-curvature="0" />
    <path
       style="fill:#373737;stroke-width:1.33333337"
       d="m 576.97843,504.62011 c 0.21734,-0.0838 0.37142,-0.28329 0.60334,-0.33379 0.14081,-0.0562 0.32586,-0.12062 0.30604,-0.29182 0.13604,-0.0623 0.31172,0.002 0.40071,-0.15966 0.23601,-0.0481 0.4513,-0.16004 0.6555,-0.28714 0.1584,-0.0127 0.0437,-0.30551 0.2544,-0.2476 0.17404,0.12156 0.32492,-0.11617 0.48267,-0.16613 0.15973,-0.11271 0.3417,-0.18831 0.51245,-0.27796 0.14992,-0.20112 -0.21529,-0.30637 -0.34959,-0.38399 -0.21579,-0.0628 -0.36801,-0.2722 -0.5874,-0.30331 -0.15271,0.14119 -0.20615,-0.065 -0.21785,-0.18831 -0.16916,-0.0964 -0.37879,-0.15142 -0.53348,-0.28712 -0.13342,-0.0617 -0.28276,-0.24245 -0.4133,-0.21502 -0.13411,0.11172 -0.24905,-0.0267 -0.21666,-0.16422 -0.10908,-0.0928 -0.25362,-0.14717 -0.3747,-0.22878 -0.13866,-0.0745 -0.27263,-0.16846 -0.42497,-0.20999 -0.21978,-0.002 -0.18875,0.25133 -0.23712,0.39672 -0.0213,0.18701 -1.1e-4,0.37499 -0.0141,0.56224 -0.01,0.13301 0.27626,0.19201 0.0896,0.30994 -0.15105,0.0769 -0.0543,0.25491 -0.0825,0.38706 -0.0134,0.20952 0.0373,0.41648 0.0163,0.62544 -0.0352,0.15248 0.25576,0.23253 0.0594,0.35372 -0.14722,0.0936 -0.0575,0.35831 -0.0523,0.51694 0.0725,0.17228 -0.033,0.35866 0.008,0.53883 0.0387,0.0174 0.0696,0.0563 0.11567,0.054 z"
       id="path4561-6-2-9-1-18-6-9"
       inkscape:connector-curvature="0" />
    <path
       style="fill:#373737;stroke-width:1.33333337"
       d="m 575.34887,498.71293 c 0.21734,-0.0838 0.37142,-0.28328 0.60334,-0.33379 0.14081,-0.0562 0.32585,-0.12061 0.30604,-0.29181 0.13604,-0.0623 0.31172,0.002 0.40071,-0.15967 0.23601,-0.0481 0.4513,-0.16003 0.6555,-0.28714 0.1584,-0.0127 0.0437,-0.3055 0.2544,-0.24759 0.17404,0.12156 0.32492,-0.11617 0.48267,-0.16614 0.15973,-0.11271 0.3417,-0.18831 0.51245,-0.27796 0.14992,-0.20111 -0.2153,-0.30636 -0.34959,-0.38398 -0.2158,-0.0628 -0.36802,-0.2722 -0.5874,-0.30331 -0.15271,0.14119 -0.20615,-0.065 -0.21785,-0.18831 -0.16917,-0.0964 -0.3788,-0.15143 -0.53349,-0.28712 -0.13341,-0.0617 -0.28275,-0.24246 -0.41329,-0.21502 -0.13412,0.11172 -0.24906,-0.0267 -0.21667,-0.16422 -0.10907,-0.0928 -0.25361,-0.14718 -0.37469,-0.22878 -0.13866,-0.0745 -0.27263,-0.16847 -0.42497,-0.20999 -0.21978,-0.002 -0.18875,0.25133 -0.23712,0.39671 -0.0213,0.18702 -1.1e-4,0.37499 -0.0142,0.56225 -0.01,0.133 0.27627,0.192 0.0896,0.30994 -0.15106,0.0769 -0.0543,0.25491 -0.0825,0.38705 -0.0134,0.20953 0.0373,0.41649 0.0163,0.62544 -0.0352,0.15249 0.25576,0.23253 0.0594,0.35372 -0.14722,0.0936 -0.0575,0.35831 -0.0523,0.51695 0.0725,0.17227 -0.033,0.35866 0.008,0.53883 0.0386,0.0174 0.0696,0.0563 0.11567,0.054 z"
       id="path4561-6-2-9-1-5-5-2"
       inkscape:connector-curvature="0" />
    <path
       style="fill:#373737;stroke-width:1.33333337"
       d="m 573.92299,492.09284 c 0.21734,-0.0838 0.37142,-0.28329 0.60334,-0.3338 0.14081,-0.0562 0.32586,-0.12061 0.30604,-0.29181 0.13604,-0.0623 0.31172,0.002 0.40071,-0.15966 0.23601,-0.0481 0.4513,-0.16004 0.6555,-0.28714 0.1584,-0.0127 0.0437,-0.30551 0.2544,-0.2476 0.17404,0.12156 0.32492,-0.11617 0.48267,-0.16613 0.15973,-0.11271 0.3417,-0.18832 0.51245,-0.27796 0.14992,-0.20112 -0.21529,-0.30637 -0.34959,-0.38399 -0.2158,-0.0628 -0.36802,-0.2722 -0.5874,-0.30331 -0.15271,0.14119 -0.20615,-0.065 -0.21785,-0.18831 -0.16916,-0.0963 -0.37879,-0.15142 -0.53349,-0.28712 -0.13341,-0.0617 -0.28275,-0.24245 -0.41329,-0.21502 -0.13411,0.11172 -0.24905,-0.0267 -0.21666,-0.16422 -0.10908,-0.0928 -0.25362,-0.14717 -0.3747,-0.22878 -0.13866,-0.0745 -0.27263,-0.16846 -0.42497,-0.20999 -0.21978,-0.002 -0.18875,0.25133 -0.23712,0.39672 -0.0213,0.18701 -1.1e-4,0.37499 -0.0141,0.56224 -0.01,0.13301 0.27626,0.19201 0.0896,0.30994 -0.15105,0.0769 -0.0543,0.25491 -0.0825,0.38706 -0.0134,0.20952 0.0373,0.41648 0.0163,0.62544 -0.0352,0.15248 0.25577,0.23253 0.0594,0.35372 -0.14722,0.0936 -0.0575,0.35831 -0.0523,0.51694 0.0725,0.17228 -0.033,0.35866 0.008,0.53883 0.0386,0.0174 0.0696,0.0563 0.11567,0.054 z"
       id="path4561-6-2-9-1-8-9-5"
       inkscape:connector-curvature="0" />
    <path
       style="fill:#373737;stroke-width:1.33333337"
       d="m 572.49714,485.88014 c 0.21733,-0.0838 0.37142,-0.28329 0.60333,-0.3338 0.14081,-0.0562 0.32586,-0.12061 0.30604,-0.29181 0.13604,-0.0623 0.31173,0.002 0.40071,-0.15967 0.23601,-0.0481 0.45131,-0.16003 0.6555,-0.28714 0.15841,-0.0127 0.0437,-0.3055 0.2544,-0.24759 0.17404,0.12156 0.32492,-0.11617 0.48267,-0.16614 0.15974,-0.1127 0.3417,-0.18831 0.51245,-0.27796 0.14993,-0.20111 -0.21529,-0.30636 -0.34959,-0.38398 -0.21579,-0.0628 -0.36801,-0.2722 -0.5874,-0.30331 -0.15271,0.14119 -0.20614,-0.065 -0.21785,-0.18831 -0.16916,-0.0964 -0.37879,-0.15143 -0.53348,-0.28712 -0.13342,-0.0617 -0.28275,-0.24246 -0.4133,-0.21502 -0.13411,0.11172 -0.24905,-0.0267 -0.21666,-0.16422 -0.10907,-0.0928 -0.25362,-0.14718 -0.3747,-0.22878 -0.13865,-0.0745 -0.27262,-0.16846 -0.42496,-0.20999 -0.21978,-0.002 -0.18875,0.25133 -0.23713,0.39671 -0.0213,0.18702 -10e-5,0.37499 -0.0141,0.56225 -0.01,0.133 0.27626,0.192 0.0896,0.30994 -0.15106,0.0769 -0.0543,0.25491 -0.0825,0.38706 -0.0134,0.20952 0.0373,0.41648 0.0163,0.62544 -0.0352,0.15248 0.25576,0.23252 0.0594,0.35371 -0.14723,0.0936 -0.0575,0.35831 -0.0523,0.51695 0.0725,0.17227 -0.033,0.35866 0.008,0.53883 0.0386,0.0174 0.0696,0.0563 0.11567,0.054 z"
       id="path4561-6-2-9-1-18-9-5"
       inkscape:connector-curvature="0" />
    <path
       style="fill:#373737;stroke-width:1.33333337"
       d="m 570.86757,479.97296 c 0.21734,-0.0838 0.37142,-0.28328 0.60334,-0.33379 0.14081,-0.0562 0.32586,-0.12062 0.30604,-0.29181 0.13604,-0.0623 0.31172,0.002 0.40071,-0.15967 0.23601,-0.0481 0.4513,-0.16004 0.6555,-0.28714 0.1584,-0.0127 0.0437,-0.30551 0.2544,-0.24759 0.17404,0.12156 0.32492,-0.11618 0.48267,-0.16614 0.15973,-0.11271 0.3417,-0.18831 0.51245,-0.27796 0.14992,-0.20112 -0.21529,-0.30637 -0.34959,-0.38399 -0.21579,-0.0628 -0.36801,-0.2722 -0.5874,-0.3033 -0.15271,0.14119 -0.20615,-0.065 -0.21785,-0.18832 -0.16916,-0.0964 -0.37879,-0.15142 -0.53348,-0.28711 -0.13342,-0.0617 -0.28276,-0.24246 -0.4133,-0.21502 -0.13411,0.11171 -0.24905,-0.0267 -0.21666,-0.16422 -0.10908,-0.0928 -0.25362,-0.14718 -0.3747,-0.22878 -0.13865,-0.0745 -0.27263,-0.16847 -0.42497,-0.20999 -0.21977,-0.002 -0.18875,0.25133 -0.23712,0.39671 -0.0213,0.18702 -1.1e-4,0.37499 -0.0141,0.56225 -0.01,0.133 0.27626,0.192 0.0896,0.30994 -0.15105,0.0769 -0.0543,0.25491 -0.0825,0.38705 -0.0134,0.20952 0.0373,0.41649 0.0163,0.62544 -0.0352,0.15248 0.25576,0.23253 0.0594,0.35372 -0.14722,0.0936 -0.0575,0.35831 -0.0523,0.51694 0.0725,0.17228 -0.033,0.35866 0.008,0.53883 0.0387,0.0174 0.0696,0.0563 0.11567,0.054 z"
       id="path4561-6-2-9-1-5-7-2"
       inkscape:connector-curvature="0" />
    <path
       style="fill:#373737;stroke-width:1.33333337"
       d="m 569.0343,473.35288 c 0.21734,-0.0838 0.37142,-0.28329 0.60334,-0.3338 0.14081,-0.0562 0.32586,-0.12061 0.30604,-0.29181 0.13604,-0.0623 0.31172,0.002 0.40071,-0.15966 0.23601,-0.0481 0.4513,-0.16004 0.6555,-0.28714 0.1584,-0.0127 0.0437,-0.30551 0.2544,-0.2476 0.17404,0.12156 0.32492,-0.11617 0.48267,-0.16613 0.15973,-0.11271 0.3417,-0.18832 0.51245,-0.27797 0.14992,-0.20111 -0.21529,-0.30636 -0.34959,-0.38398 -0.2158,-0.0628 -0.36802,-0.2722 -0.5874,-0.30331 -0.15271,0.14119 -0.20615,-0.065 -0.21785,-0.18831 -0.16916,-0.0964 -0.37879,-0.15143 -0.53349,-0.28712 -0.13341,-0.0617 -0.28275,-0.24246 -0.41329,-0.21502 -0.13411,0.11172 -0.24905,-0.0267 -0.21666,-0.16422 -0.10908,-0.0928 -0.25362,-0.14718 -0.3747,-0.22878 -0.13866,-0.0745 -0.27263,-0.16846 -0.42497,-0.20999 -0.21978,-0.002 -0.18875,0.25133 -0.23712,0.39671 -0.0213,0.18702 -1.1e-4,0.375 -0.0141,0.56225 -0.01,0.13301 0.27626,0.19201 0.0896,0.30994 -0.15105,0.0769 -0.0543,0.25491 -0.0825,0.38706 -0.0134,0.20952 0.0373,0.41648 0.0163,0.62544 -0.0352,0.15248 0.25577,0.23252 0.0594,0.35371 -0.14722,0.0936 -0.0575,0.35832 -0.0523,0.51695 0.0725,0.17227 -0.033,0.35866 0.008,0.53883 0.0386,0.0174 0.0696,0.0563 0.11567,0.054 z"
       id="path4561-6-2-9-1-8-6-3"
       inkscape:connector-curvature="0" />
    <path
       style="fill:#373737;stroke-width:1.33333337"
       d="m 567.60844,467.14017 c 0.21734,-0.0838 0.37143,-0.28328 0.60334,-0.33379 0.14081,-0.0562 0.32586,-0.12061 0.30604,-0.29181 0.13604,-0.0623 0.31173,0.002 0.40071,-0.15967 0.23601,-0.0481 0.45131,-0.16004 0.6555,-0.28714 0.15841,-0.0127 0.0437,-0.3055 0.2544,-0.24759 0.17404,0.12156 0.32492,-0.11617 0.48267,-0.16614 0.15974,-0.11271 0.3417,-0.18831 0.51245,-0.27796 0.14993,-0.20112 -0.21529,-0.30637 -0.34959,-0.38398 -0.21579,-0.0628 -0.36801,-0.27221 -0.5874,-0.30331 -0.15271,0.14119 -0.20614,-0.065 -0.21785,-0.18831 -0.16916,-0.0964 -0.37879,-0.15143 -0.53348,-0.28712 -0.13342,-0.0617 -0.28275,-0.24246 -0.4133,-0.21502 -0.13411,0.11172 -0.24905,-0.0267 -0.21666,-0.16422 -0.10907,-0.0928 -0.25362,-0.14718 -0.3747,-0.22878 -0.13865,-0.0745 -0.27262,-0.16847 -0.42496,-0.20999 -0.21978,-0.002 -0.18875,0.25133 -0.23713,0.39671 -0.0213,0.18702 -10e-5,0.37499 -0.0141,0.56225 -0.01,0.133 0.27626,0.192 0.0896,0.30994 -0.15106,0.0769 -0.0543,0.25491 -0.0825,0.38705 -0.0134,0.20952 0.0373,0.41649 0.0163,0.62544 -0.0352,0.15248 0.25576,0.23253 0.0594,0.35372 -0.14723,0.0936 -0.0575,0.35831 -0.0523,0.51695 0.0725,0.17227 -0.033,0.35866 0.008,0.53882 0.0386,0.0174 0.0696,0.0563 0.11567,0.054 z"
       id="path4561-6-2-9-1-18-3-6"
       inkscape:connector-curvature="0" />
    <path
       style="fill:#373737;stroke-width:1.33333337"
       d="m 565.97888,461.233 c 0.21734,-0.0838 0.37142,-0.28329 0.60334,-0.33379 0.14081,-0.0562 0.32586,-0.12062 0.30604,-0.29181 0.13604,-0.0623 0.31172,0.002 0.40071,-0.15967 0.23601,-0.0481 0.4513,-0.16004 0.6555,-0.28714 0.1584,-0.0127 0.0437,-0.30551 0.2544,-0.2476 0.17404,0.12156 0.32492,-0.11617 0.48267,-0.16613 0.15973,-0.11271 0.3417,-0.18831 0.51245,-0.27796 0.14992,-0.20112 -0.21529,-0.30637 -0.34959,-0.38399 -0.21579,-0.0628 -0.36801,-0.2722 -0.5874,-0.30331 -0.15271,0.1412 -0.20615,-0.065 -0.21785,-0.18831 -0.16916,-0.0964 -0.37879,-0.15142 -0.53348,-0.28712 -0.13342,-0.0617 -0.28276,-0.24245 -0.4133,-0.21502 -0.13411,0.11172 -0.24905,-0.0267 -0.21666,-0.16421 -0.10908,-0.0928 -0.25362,-0.14718 -0.3747,-0.22879 -0.13865,-0.0745 -0.27263,-0.16846 -0.42497,-0.20999 -0.21977,-0.002 -0.18875,0.25133 -0.23712,0.39672 -0.0213,0.18701 -1.1e-4,0.37499 -0.0141,0.56225 -0.01,0.133 0.27626,0.192 0.0896,0.30993 -0.15105,0.0769 -0.0543,0.25492 -0.0825,0.38706 -0.0134,0.20952 0.0373,0.41648 0.0163,0.62544 -0.0352,0.15248 0.25576,0.23253 0.0594,0.35372 -0.14722,0.0936 -0.0575,0.35831 -0.0523,0.51694 0.0725,0.17228 -0.033,0.35866 0.008,0.53883 0.0387,0.0174 0.0696,0.0563 0.11567,0.054 z"
       id="path4561-6-2-9-1-5-59-1"
       inkscape:connector-curvature="0" />
    <path
       style="fill:#373737;stroke-width:1.33333337"
       d="m 558.71476,519.02961 c -0.19962,-0.077 -0.34114,-0.26019 -0.55415,-0.30658 -0.12933,-0.0516 -0.29929,-0.11078 -0.28109,-0.26802 -0.12495,-0.0572 -0.28631,0.002 -0.36804,-0.14665 -0.21677,-0.0442 -0.41451,-0.14699 -0.60206,-0.26373 -0.14549,-0.0117 -0.0401,-0.2806 -0.23366,-0.22741 -0.15985,0.11165 -0.29843,-0.1067 -0.44332,-0.15259 -0.14671,-0.10352 -0.31384,-0.17296 -0.47067,-0.2553 -0.1377,-0.18472 0.19774,-0.28139 0.32109,-0.35268 0.1982,-0.0577 0.33801,-0.25001 0.53951,-0.27858 0.14026,0.12968 0.18934,-0.0597 0.20009,-0.17296 0.15537,-0.0885 0.34791,-0.13908 0.48999,-0.26371 0.12254,-0.0567 0.2597,-0.22269 0.3796,-0.19749 0.12318,0.10261 0.22875,-0.0245 0.199,-0.15083 0.10018,-0.0852 0.23294,-0.13518 0.34415,-0.21013 0.12735,-0.0684 0.2504,-0.15473 0.39032,-0.19287 0.20186,-0.002 0.17336,0.23084 0.21779,0.36437 0.0196,0.17177 10e-5,0.34442 0.013,0.51641 0.009,0.12216 -0.25374,0.17635 -0.0823,0.28467 0.13874,0.0706 0.0499,0.23413 0.0758,0.3555 0.0123,0.19244 -0.0343,0.38253 -0.015,0.57445 0.0323,0.14005 -0.23491,0.21357 -0.0546,0.32488 0.13522,0.086 0.0528,0.3291 0.048,0.4748 -0.0666,0.15823 0.0303,0.32942 -0.007,0.4949 -0.0355,0.016 -0.0639,0.0517 -0.10624,0.0496 z"
       id="path4561-6-2-9-1-8-1-2"
       inkscape:connector-curvature="0" />
    <path
       style="fill:#373737;stroke-width:1.33333337"
       d="m 564.85162,519.31087 c -0.19962,-0.077 -0.34114,-0.26019 -0.55415,-0.30658 -0.12933,-0.0516 -0.29929,-0.11078 -0.28109,-0.26802 -0.12495,-0.0572 -0.28631,0.002 -0.36804,-0.14665 -0.21677,-0.0442 -0.41451,-0.14699 -0.60206,-0.26373 -0.14549,-0.0117 -0.0401,-0.2806 -0.23366,-0.22741 -0.15985,0.11165 -0.29843,-0.1067 -0.44332,-0.15259 -0.14671,-0.10352 -0.31384,-0.17296 -0.47067,-0.2553 -0.1377,-0.18472 0.19774,-0.28139 0.32109,-0.35268 0.1982,-0.0577 0.33801,-0.25001 0.53951,-0.27858 0.14026,0.12968 0.18934,-0.0597 0.20009,-0.17296 0.15537,-0.0885 0.34791,-0.13908 0.48999,-0.26371 0.12254,-0.0567 0.2597,-0.22269 0.3796,-0.19749 0.12318,0.10261 0.22875,-0.0245 0.199,-0.15083 0.10018,-0.0852 0.23294,-0.13518 0.34415,-0.21013 0.12735,-0.0684 0.2504,-0.15473 0.39032,-0.19287 0.20186,-0.002 0.17336,0.23084 0.21779,0.36437 0.0196,0.17177 10e-5,0.34442 0.013,0.51641 0.009,0.12216 -0.25374,0.17635 -0.0823,0.28467 0.13874,0.0706 0.0499,0.23413 0.0758,0.3555 0.0123,0.19244 -0.0343,0.38253 -0.015,0.57445 0.0323,0.14005 -0.23491,0.21357 -0.0546,0.32488 0.13522,0.086 0.0528,0.3291 0.048,0.4748 -0.0666,0.15823 0.0303,0.32942 -0.007,0.4949 -0.0355,0.016 -0.0639,0.0517 -0.10624,0.0496 z"
       id="path4561-6-2-9-1-8-1-2-6"
       inkscape:connector-curvature="0" />
    <path
       style="fill:#373737;stroke-width:1.33333337"
       d="m 569.74641,519.44316 c -0.19962,-0.077 -0.34114,-0.26019 -0.55415,-0.30658 -0.12933,-0.0516 -0.29929,-0.11078 -0.28109,-0.26802 -0.12495,-0.0572 -0.28631,0.002 -0.36804,-0.14665 -0.21677,-0.0442 -0.41451,-0.14699 -0.60206,-0.26373 -0.14549,-0.0117 -0.0401,-0.2806 -0.23366,-0.22741 -0.15985,0.11165 -0.29843,-0.1067 -0.44332,-0.15259 -0.14671,-0.10352 -0.31384,-0.17296 -0.47067,-0.2553 -0.1377,-0.18472 0.19774,-0.28139 0.32109,-0.35268 0.1982,-0.0577 0.33801,-0.25001 0.53951,-0.27858 0.14026,0.12968 0.18934,-0.0597 0.20009,-0.17296 0.15537,-0.0885 0.34791,-0.13908 0.48999,-0.26371 0.12254,-0.0567 0.2597,-0.22269 0.3796,-0.19749 0.12318,0.10261 0.22875,-0.0245 0.199,-0.15083 0.10018,-0.0852 0.23294,-0.13518 0.34415,-0.21013 0.12735,-0.0684 0.2504,-0.15473 0.39032,-0.19287 0.20186,-0.002 0.17336,0.23084 0.21779,0.36437 0.0196,0.17177 10e-5,0.34442 0.013,0.51641 0.009,0.12216 -0.25374,0.17635 -0.0823,0.28467 0.13874,0.0706 0.0499,0.23413 0.0758,0.3555 0.0123,0.19244 -0.0343,0.38253 -0.015,0.57445 0.0323,0.14005 -0.23491,0.21357 -0.0546,0.32488 0.13522,0.086 0.0528,0.3291 0.048,0.4748 -0.0666,0.15823 0.0303,0.32942 -0.007,0.4949 -0.0355,0.016 -0.0639,0.0517 -0.10624,0.0496 z"
       id="path4561-6-2-9-1-8-1-2-5"
       inkscape:connector-curvature="0" />
    <path
       style="fill:#373737;stroke-width:1.33333337"
       d="m 575.23651,519.04628 c -0.19962,-0.077 -0.34114,-0.26019 -0.55415,-0.30658 -0.12933,-0.0516 -0.29929,-0.11078 -0.28109,-0.26802 -0.12495,-0.0572 -0.28631,0.002 -0.36804,-0.14665 -0.21677,-0.0442 -0.41451,-0.14699 -0.60206,-0.26373 -0.14549,-0.0117 -0.0401,-0.2806 -0.23366,-0.22741 -0.15985,0.11165 -0.29843,-0.1067 -0.44332,-0.15259 -0.14671,-0.10352 -0.31384,-0.17296 -0.47067,-0.2553 -0.1377,-0.18472 0.19774,-0.28139 0.32109,-0.35268 0.1982,-0.0577 0.33801,-0.25001 0.53951,-0.27858 0.14026,0.12968 0.18934,-0.0597 0.20009,-0.17296 0.15537,-0.0885 0.34791,-0.13908 0.48999,-0.26371 0.12254,-0.0567 0.2597,-0.22269 0.3796,-0.19749 0.12318,0.10261 0.22875,-0.0245 0.199,-0.15083 0.10018,-0.0852 0.23294,-0.13518 0.34415,-0.21013 0.12735,-0.0684 0.2504,-0.15473 0.39032,-0.19287 0.20186,-0.002 0.17336,0.23084 0.21779,0.36437 0.0196,0.17177 10e-5,0.34442 0.013,0.51641 0.009,0.12216 -0.25374,0.17635 -0.0823,0.28467 0.13874,0.0706 0.0499,0.23413 0.0758,0.3555 0.0123,0.19244 -0.0343,0.38253 -0.015,0.57445 0.0323,0.14005 -0.23491,0.21357 -0.0546,0.32488 0.13522,0.086 0.0528,0.3291 0.048,0.4748 -0.0666,0.15823 0.0303,0.32942 -0.007,0.4949 -0.0355,0.016 -0.0639,0.0517 -0.10624,0.0496 z"
       id="path4561-6-2-9-1-8-1-2-62"
       inkscape:connector-curvature="0" />
    <path
       style="fill:#373737;stroke-width:1.33333337"
       d="m 636.02453,549.6718 c -0.19962,-0.077 -0.34114,-0.26019 -0.55415,-0.30658 -0.12933,-0.0516 -0.29929,-0.11078 -0.28109,-0.26802 -0.12495,-0.0572 -0.28631,0.002 -0.36804,-0.14665 -0.21677,-0.0442 -0.41451,-0.14699 -0.60206,-0.26373 -0.14549,-0.0117 -0.0401,-0.2806 -0.23366,-0.22741 -0.15985,0.11165 -0.29843,-0.1067 -0.44332,-0.15259 -0.14671,-0.10352 -0.31384,-0.17296 -0.47067,-0.2553 -0.1377,-0.18472 0.19774,-0.28139 0.32109,-0.35268 0.1982,-0.0577 0.33801,-0.25001 0.53951,-0.27858 0.14026,0.12968 0.18934,-0.0597 0.20009,-0.17296 0.15537,-0.0885 0.34791,-0.13908 0.48999,-0.26371 0.12254,-0.0567 0.2597,-0.22269 0.3796,-0.19749 0.12318,0.10261 0.22875,-0.0245 0.199,-0.15083 0.10018,-0.0852 0.23294,-0.13518 0.34415,-0.21013 0.12735,-0.0684 0.2504,-0.15473 0.39032,-0.19287 0.20186,-0.002 0.17336,0.23084 0.21779,0.36437 0.0196,0.17177 10e-5,0.34442 0.013,0.51641 0.009,0.12216 -0.25374,0.17635 -0.0823,0.28467 0.13874,0.0706 0.0499,0.23413 0.0758,0.3555 0.0123,0.19244 -0.0343,0.38253 -0.015,0.57445 0.0323,0.14005 -0.23491,0.21357 -0.0546,0.32488 0.13522,0.086 0.0528,0.3291 0.048,0.4748 -0.0666,0.15823 0.0303,0.32942 -0.007,0.4949 -0.0355,0.016 -0.0639,0.0517 -0.10624,0.0496 z"
       id="path4561-6-2-9-1-4"
       inkscape:connector-curvature="0" />
    <path
       style="fill:#373737;stroke-width:1.33333337"
       d="m 639.06724,543.85097 c -0.19962,-0.077 -0.34114,-0.26019 -0.55415,-0.30658 -0.12933,-0.0516 -0.29929,-0.11078 -0.28109,-0.26802 -0.12495,-0.0572 -0.28631,0.002 -0.36804,-0.14665 -0.21677,-0.0442 -0.41451,-0.14699 -0.60206,-0.26373 -0.14549,-0.0117 -0.0401,-0.2806 -0.23366,-0.22741 -0.15985,0.11165 -0.29843,-0.1067 -0.44332,-0.15259 -0.14671,-0.10352 -0.31384,-0.17296 -0.47067,-0.2553 -0.1377,-0.18472 0.19774,-0.28139 0.32109,-0.35268 0.1982,-0.0577 0.33801,-0.25001 0.53951,-0.27858 0.14026,0.12968 0.18934,-0.0597 0.20009,-0.17296 0.15537,-0.0885 0.34791,-0.13908 0.48999,-0.26371 0.12254,-0.0567 0.2597,-0.22269 0.3796,-0.19749 0.12318,0.10261 0.22875,-0.0245 0.199,-0.15083 0.10018,-0.0852 0.23294,-0.13518 0.34415,-0.21013 0.12735,-0.0684 0.2504,-0.15473 0.39032,-0.19287 0.20186,-0.002 0.17336,0.23084 0.21779,0.36437 0.0196,0.17177 10e-5,0.34442 0.013,0.51641 0.009,0.12216 -0.25374,0.17635 -0.0823,0.28467 0.13874,0.0706 0.0499,0.23413 0.0758,0.3555 0.0123,0.19244 -0.0343,0.38253 -0.015,0.57445 0.0323,0.14005 -0.23491,0.21357 -0.0546,0.32488 0.13522,0.086 0.0528,0.3291 0.048,0.4748 -0.0666,0.15823 0.0303,0.32942 -0.007,0.4949 -0.0355,0.016 -0.0639,0.0517 -0.10624,0.0496 z"
       id="path4561-6-2-9-1-4-6"
       inkscape:connector-curvature="0" />
    <path
       style="fill:#373737;stroke-width:1.33333337"
       d="m 642.24223,537.89784 c -0.19962,-0.077 -0.34114,-0.26019 -0.55415,-0.30658 -0.12933,-0.0516 -0.29929,-0.11078 -0.28109,-0.26802 -0.12495,-0.0572 -0.28631,0.002 -0.36804,-0.14665 -0.21677,-0.0442 -0.41451,-0.14699 -0.60206,-0.26373 -0.14549,-0.0117 -0.0401,-0.2806 -0.23366,-0.22741 -0.15985,0.11165 -0.29843,-0.1067 -0.44332,-0.15259 -0.14671,-0.10352 -0.31384,-0.17296 -0.47067,-0.2553 -0.1377,-0.18472 0.19774,-0.28139 0.32109,-0.35268 0.1982,-0.0577 0.33801,-0.25001 0.53951,-0.27858 0.14026,0.12968 0.18934,-0.0597 0.20009,-0.17296 0.15537,-0.0885 0.34791,-0.13908 0.48999,-0.26371 0.12254,-0.0567 0.2597,-0.22269 0.3796,-0.19749 0.12318,0.10261 0.22875,-0.0245 0.199,-0.15083 0.10018,-0.0852 0.23294,-0.13518 0.34415,-0.21013 0.12735,-0.0684 0.2504,-0.15473 0.39032,-0.19287 0.20186,-0.002 0.17336,0.23084 0.21779,0.36437 0.0196,0.17177 1e-4,0.34442 0.013,0.51641 0.009,0.12216 -0.25374,0.17635 -0.0823,0.28467 0.13874,0.0706 0.0499,0.23413 0.0758,0.3555 0.0123,0.19244 -0.0343,0.38253 -0.015,0.57445 0.0323,0.14005 -0.23491,0.21357 -0.0546,0.32488 0.13522,0.086 0.0528,0.3291 0.048,0.4748 -0.0666,0.15823 0.0303,0.32942 -0.007,0.4949 -0.0355,0.016 -0.0639,0.0517 -0.10624,0.0496 z"
       id="path4561-6-2-9-1-4-4"
       inkscape:connector-curvature="0" />
    <path
       style="fill:#373737;stroke-width:1.33333337"
       d="m 646.01255,532.40775 c -0.19962,-0.077 -0.34114,-0.26019 -0.55415,-0.30658 -0.12933,-0.0516 -0.29929,-0.11078 -0.28109,-0.26802 -0.12495,-0.0572 -0.28631,0.002 -0.36804,-0.14665 -0.21677,-0.0442 -0.41451,-0.14699 -0.60206,-0.26373 -0.14549,-0.0117 -0.0401,-0.2806 -0.23366,-0.22741 -0.15985,0.11165 -0.29843,-0.1067 -0.44332,-0.15259 -0.14671,-0.10352 -0.31384,-0.17296 -0.47067,-0.2553 -0.1377,-0.18472 0.19774,-0.28139 0.32109,-0.35268 0.1982,-0.0577 0.33801,-0.25001 0.53951,-0.27858 0.14026,0.12968 0.18934,-0.0597 0.20009,-0.17296 0.15537,-0.0885 0.34791,-0.13908 0.48999,-0.26371 0.12254,-0.0567 0.2597,-0.22269 0.3796,-0.19749 0.12318,0.10261 0.22875,-0.0245 0.199,-0.15083 0.10018,-0.0852 0.23294,-0.13518 0.34415,-0.21013 0.12735,-0.0684 0.2504,-0.15473 0.39032,-0.19287 0.20186,-0.002 0.17336,0.23084 0.21779,0.36437 0.0196,0.17177 10e-5,0.34442 0.013,0.51641 0.009,0.12216 -0.25374,0.17635 -0.0823,0.28467 0.13874,0.0706 0.0499,0.23413 0.0758,0.3555 0.0123,0.19244 -0.0343,0.38253 -0.015,0.57445 0.0323,0.14005 -0.23491,0.21357 -0.0546,0.32488 0.13522,0.086 0.0528,0.3291 0.048,0.4748 -0.0666,0.15823 0.0303,0.32942 -0.007,0.4949 -0.0355,0.016 -0.0639,0.0517 -0.10624,0.0496 z"
       id="path4561-6-2-9-1-4-44"
       inkscape:connector-curvature="0" />
    <path
       style="fill:#373737;stroke-width:1.33333337"
       d="m 649.31985,526.58692 c -0.19962,-0.077 -0.34114,-0.26019 -0.55415,-0.30658 -0.12933,-0.0516 -0.29929,-0.11078 -0.28109,-0.26802 -0.12495,-0.0572 -0.28631,0.002 -0.36804,-0.14665 -0.21677,-0.0442 -0.41451,-0.14699 -0.60206,-0.26373 -0.14549,-0.0117 -0.0401,-0.2806 -0.23366,-0.22741 -0.15985,0.11165 -0.29843,-0.1067 -0.44332,-0.15259 -0.14671,-0.10352 -0.31384,-0.17296 -0.47067,-0.2553 -0.1377,-0.18472 0.19774,-0.28139 0.32109,-0.35268 0.1982,-0.0577 0.33801,-0.25001 0.53951,-0.27858 0.14026,0.12968 0.18934,-0.0597 0.20009,-0.17296 0.15537,-0.0885 0.34791,-0.13908 0.48999,-0.26371 0.12254,-0.0567 0.2597,-0.22269 0.3796,-0.19749 0.12318,0.10261 0.22875,-0.0245 0.199,-0.15083 0.10018,-0.0852 0.23294,-0.13518 0.34415,-0.21013 0.12735,-0.0684 0.2504,-0.15473 0.39032,-0.19287 0.20186,-0.002 0.17336,0.23084 0.21779,0.36437 0.0196,0.17177 10e-5,0.34442 0.013,0.51641 0.009,0.12216 -0.25374,0.17635 -0.0823,0.28467 0.13874,0.0706 0.0499,0.23413 0.0758,0.3555 0.0123,0.19244 -0.0343,0.38253 -0.015,0.57445 0.0323,0.14005 -0.23491,0.21357 -0.0546,0.32488 0.13522,0.086 0.0528,0.3291 0.048,0.4748 -0.0666,0.15823 0.0303,0.32942 -0.007,0.4949 -0.0355,0.016 -0.0639,0.0517 -0.10624,0.0496 z"
       id="path4561-6-2-9-1-4-6-0"
       inkscape:connector-curvature="0" />
    <path
       style="fill:#373737;stroke-width:1.33333337"
       d="m 651.96567,520.89837 c -0.19962,-0.077 -0.34114,-0.26019 -0.55415,-0.30658 -0.12933,-0.0516 -0.29929,-0.11078 -0.28109,-0.26802 -0.12495,-0.0572 -0.28631,0.002 -0.36804,-0.14665 -0.21677,-0.0442 -0.41451,-0.14699 -0.60206,-0.26373 -0.14549,-0.0117 -0.0401,-0.2806 -0.23366,-0.22741 -0.15985,0.11165 -0.29843,-0.1067 -0.44332,-0.15259 -0.14671,-0.10352 -0.31384,-0.17296 -0.47067,-0.2553 -0.1377,-0.18472 0.19774,-0.28139 0.32109,-0.35268 0.1982,-0.0577 0.33801,-0.25001 0.53951,-0.27858 0.14026,0.12968 0.18934,-0.0597 0.20009,-0.17296 0.15537,-0.0885 0.34791,-0.13908 0.48999,-0.26371 0.12254,-0.0567 0.2597,-0.22269 0.3796,-0.19749 0.12318,0.10261 0.22875,-0.0245 0.199,-0.15083 0.10018,-0.0852 0.23294,-0.13518 0.34415,-0.21013 0.12735,-0.0684 0.2504,-0.15473 0.39032,-0.19287 0.20186,-0.002 0.17336,0.23084 0.21779,0.36437 0.0196,0.17177 1e-4,0.34442 0.013,0.51641 0.009,0.12216 -0.25374,0.17635 -0.0823,0.28467 0.13874,0.0706 0.0499,0.23413 0.0758,0.3555 0.0123,0.19244 -0.0343,0.38253 -0.015,0.57445 0.0323,0.14005 -0.23491,0.21357 -0.0546,0.32488 0.13522,0.086 0.0528,0.3291 0.048,0.4748 -0.0666,0.15823 0.0303,0.32942 -0.007,0.4949 -0.0355,0.016 -0.0639,0.0517 -0.10624,0.0496 z"
       id="path4561-6-2-9-1-4-4-9"
       inkscape:connector-curvature="0" />
    <path
       style="fill:#373737;stroke-width:1.33333337"
       d="m 655.04145,516.43353 c -0.19962,-0.077 -0.34114,-0.2602 -0.55415,-0.30658 -0.12933,-0.0516 -0.29929,-0.11079 -0.28109,-0.26802 -0.12495,-0.0572 -0.28631,0.002 -0.36804,-0.14666 -0.21677,-0.0442 -0.41451,-0.14698 -0.60206,-0.26372 -0.14549,-0.0117 -0.0401,-0.28061 -0.23366,-0.22742 -0.15985,0.11166 -0.29843,-0.10669 -0.44332,-0.15258 -0.14671,-0.10352 -0.31384,-0.17296 -0.47067,-0.25531 -0.1377,-0.18471 0.19774,-0.28139 0.32109,-0.35267 0.1982,-0.0577 0.33801,-0.25001 0.53951,-0.27858 0.14026,0.12968 0.18934,-0.0597 0.20009,-0.17297 0.15537,-0.0885 0.34791,-0.13907 0.48999,-0.26371 0.12254,-0.0567 0.2597,-0.22268 0.3796,-0.19749 0.12318,0.10261 0.22875,-0.0245 0.199,-0.15082 0.10018,-0.0852 0.23294,-0.13519 0.34415,-0.21013 0.12735,-0.0684 0.2504,-0.15473 0.39032,-0.19287 0.20186,-0.002 0.17336,0.23083 0.21779,0.36436 0.0196,0.17177 1e-4,0.34443 0.013,0.51642 0.009,0.12216 -0.25374,0.17635 -0.0823,0.28467 0.13874,0.0706 0.0499,0.23413 0.0758,0.3555 0.0123,0.19243 -0.0343,0.38252 -0.015,0.57445 0.0323,0.14004 -0.23491,0.21356 -0.0546,0.32487 0.13522,0.086 0.0528,0.32911 0.048,0.4748 -0.0666,0.15824 0.0303,0.32942 -0.007,0.4949 -0.0355,0.016 -0.0639,0.0517 -0.10624,0.0496 z"
       id="path4561-6-2-9-1-4-8"
       inkscape:connector-curvature="0" />
    <path
       style="fill:#373737;stroke-width:1.33333337"
       d="m 658.34875,510.87727 c -0.19962,-0.077 -0.34114,-0.26018 -0.55415,-0.30657 -0.12933,-0.0516 -0.29929,-0.11078 -0.28109,-0.26802 -0.12495,-0.0572 -0.28631,0.002 -0.36804,-0.14665 -0.21677,-0.0442 -0.41451,-0.14699 -0.60206,-0.26373 -0.14549,-0.0117 -0.0401,-0.2806 -0.23366,-0.22741 -0.15985,0.11165 -0.29843,-0.1067 -0.44332,-0.15259 -0.14671,-0.10352 -0.31384,-0.17296 -0.47067,-0.2553 -0.1377,-0.18472 0.19774,-0.28139 0.32109,-0.35268 0.1982,-0.0577 0.33801,-0.25001 0.53951,-0.27858 0.14026,0.12968 0.18934,-0.0597 0.20009,-0.17296 0.15537,-0.0885 0.34791,-0.13908 0.48999,-0.26371 0.12254,-0.0567 0.2597,-0.22269 0.3796,-0.19749 0.12318,0.10261 0.22875,-0.0245 0.199,-0.15083 0.10018,-0.0852 0.23294,-0.13518 0.34415,-0.21013 0.12735,-0.0684 0.2504,-0.15473 0.39032,-0.19287 0.20186,-0.002 0.17336,0.23084 0.21779,0.36437 0.0196,0.17177 10e-5,0.34442 0.013,0.51641 0.009,0.12216 -0.25374,0.17635 -0.0823,0.28467 0.13874,0.0706 0.0499,0.23413 0.0758,0.3555 0.0123,0.19244 -0.0343,0.38253 -0.015,0.57445 0.0323,0.14005 -0.23491,0.21357 -0.0546,0.32488 0.13522,0.086 0.0528,0.3291 0.048,0.4748 -0.0666,0.15823 0.0303,0.32942 -0.007,0.4949 -0.0355,0.016 -0.0639,0.0517 -0.10624,0.0496 z"
       id="path4561-6-2-9-1-4-6-9"
       inkscape:connector-curvature="0" />
    <path
       style="fill:#373737;stroke-width:1.33333337"
       d="m 662.05291,504.92415 c -0.19962,-0.077 -0.34114,-0.26019 -0.55415,-0.30658 -0.12933,-0.0516 -0.29929,-0.11078 -0.28109,-0.26802 -0.12495,-0.0572 -0.28631,0.002 -0.36804,-0.14665 -0.21677,-0.0442 -0.41451,-0.14699 -0.60206,-0.26373 -0.14549,-0.0117 -0.0401,-0.2806 -0.23366,-0.22741 -0.15985,0.11165 -0.29843,-0.1067 -0.44332,-0.15259 -0.14671,-0.10352 -0.31384,-0.17296 -0.47067,-0.2553 -0.1377,-0.18472 0.19774,-0.28139 0.32109,-0.35268 0.1982,-0.0577 0.33801,-0.25001 0.53951,-0.27858 0.14026,0.12968 0.18934,-0.0597 0.20009,-0.17296 0.15537,-0.0885 0.34791,-0.13908 0.48999,-0.26371 0.12254,-0.0567 0.2597,-0.22269 0.3796,-0.19749 0.12318,0.10261 0.22875,-0.0245 0.199,-0.15083 0.10018,-0.0852 0.23294,-0.13518 0.34415,-0.21013 0.12735,-0.0684 0.2504,-0.15473 0.39032,-0.19287 0.20186,-0.002 0.17336,0.23084 0.21779,0.36437 0.0196,0.17177 10e-5,0.34442 0.013,0.51641 0.009,0.12216 -0.25374,0.17635 -0.0823,0.28467 0.13874,0.0706 0.0499,0.23413 0.0758,0.3555 0.0123,0.19244 -0.0343,0.38253 -0.015,0.57445 0.0323,0.14005 -0.23491,0.21357 -0.0546,0.32488 0.13522,0.086 0.0528,0.3291 0.048,0.4748 -0.0666,0.15823 0.0303,0.32942 -0.007,0.4949 -0.0355,0.016 -0.0639,0.0517 -0.10624,0.0496 z"
       id="path4561-6-2-9-1-4-4-91"
       inkscape:connector-curvature="0" />
    <path
       style="fill:#373737;stroke-width:1.33333337"
       d="m 665.29406,498.90489 c -0.19962,-0.077 -0.34114,-0.26019 -0.55415,-0.30658 -0.12933,-0.0516 -0.29929,-0.11078 -0.28109,-0.26802 -0.12495,-0.0572 -0.28631,0.002 -0.36804,-0.14665 -0.21677,-0.0442 -0.41451,-0.14699 -0.60206,-0.26373 -0.14549,-0.0117 -0.0401,-0.2806 -0.23366,-0.22741 -0.15985,0.11165 -0.29843,-0.1067 -0.44332,-0.15259 -0.14671,-0.10352 -0.31384,-0.17296 -0.47067,-0.2553 -0.1377,-0.18472 0.19774,-0.28139 0.32109,-0.35268 0.1982,-0.0577 0.33801,-0.25001 0.53951,-0.27858 0.14026,0.12968 0.18934,-0.0597 0.20009,-0.17296 0.15537,-0.0885 0.34791,-0.13908 0.48999,-0.26371 0.12254,-0.0567 0.2597,-0.22269 0.3796,-0.19749 0.12318,0.10261 0.22875,-0.0245 0.199,-0.15083 0.10018,-0.0852 0.23294,-0.13518 0.34415,-0.21013 0.12735,-0.0684 0.2504,-0.15473 0.39032,-0.19287 0.20186,-0.002 0.17336,0.23084 0.21779,0.36437 0.0196,0.17177 1e-4,0.34442 0.013,0.51641 0.009,0.12216 -0.25374,0.17635 -0.0823,0.28467 0.13874,0.0706 0.0499,0.23413 0.0758,0.3555 0.0123,0.19244 -0.0343,0.38253 -0.015,0.57445 0.0323,0.14005 -0.23491,0.21357 -0.0546,0.32488 0.13522,0.086 0.0528,0.3291 0.048,0.4748 -0.0666,0.15823 0.0303,0.32942 -0.007,0.4949 -0.0355,0.016 -0.0639,0.0517 -0.10624,0.0496 z"
       id="path4561-6-2-9-1-4-44-5"
       inkscape:connector-curvature="0" />
    <path
       style="fill:#373737;stroke-width:1.33333337"
       d="m 668.07219,492.81947 c -0.19962,-0.077 -0.34114,-0.26019 -0.55415,-0.30658 -0.12933,-0.0516 -0.29929,-0.11078 -0.28109,-0.26802 -0.12495,-0.0572 -0.28631,0.002 -0.36804,-0.14665 -0.21677,-0.0442 -0.41451,-0.14699 -0.60206,-0.26373 -0.14549,-0.0117 -0.0401,-0.2806 -0.23366,-0.22741 -0.15985,0.11165 -0.29843,-0.1067 -0.44332,-0.15259 -0.14671,-0.10352 -0.31384,-0.17296 -0.47067,-0.2553 -0.1377,-0.18472 0.19774,-0.28139 0.32109,-0.35268 0.1982,-0.0577 0.33801,-0.25001 0.53951,-0.27858 0.14026,0.12968 0.18934,-0.0597 0.20009,-0.17296 0.15537,-0.0885 0.34791,-0.13908 0.48999,-0.26371 0.12254,-0.0567 0.2597,-0.22269 0.3796,-0.19749 0.12318,0.10261 0.22875,-0.0245 0.199,-0.15083 0.10018,-0.0852 0.23294,-0.13518 0.34415,-0.21013 0.12735,-0.0684 0.2504,-0.15473 0.39032,-0.19287 0.20186,-0.002 0.17336,0.23084 0.21779,0.36437 0.0196,0.17177 10e-5,0.34442 0.013,0.51641 0.009,0.12216 -0.25374,0.17635 -0.0823,0.28467 0.13874,0.0706 0.0499,0.23413 0.0758,0.3555 0.0123,0.19244 -0.0343,0.38253 -0.015,0.57445 0.0323,0.14005 -0.23491,0.21357 -0.0546,0.32488 0.13522,0.086 0.0528,0.3291 0.048,0.4748 -0.0666,0.15823 0.0303,0.32942 -0.007,0.4949 -0.0355,0.016 -0.0639,0.0517 -0.10624,0.0496 z"
       id="path4561-6-2-9-1-4-6-0-3"
       inkscape:connector-curvature="0" />
    <path
       style="fill:#373737;stroke-width:1.33333337"
       d="m 669.92426,487.3955 c -0.19962,-0.077 -0.34114,-0.26019 -0.55415,-0.30658 -0.12933,-0.0516 -0.29929,-0.11078 -0.28109,-0.26802 -0.12495,-0.0572 -0.28631,0.002 -0.36804,-0.14665 -0.21677,-0.0442 -0.41451,-0.14699 -0.60206,-0.26373 -0.14549,-0.0117 -0.0401,-0.2806 -0.23366,-0.22741 -0.15985,0.11165 -0.29843,-0.1067 -0.44332,-0.15259 -0.14671,-0.10352 -0.31384,-0.17296 -0.47067,-0.2553 -0.1377,-0.18472 0.19774,-0.28139 0.32109,-0.35268 0.1982,-0.0577 0.33801,-0.25001 0.53951,-0.27858 0.14026,0.12968 0.18934,-0.0597 0.20009,-0.17296 0.15537,-0.0885 0.34791,-0.13908 0.48999,-0.26371 0.12254,-0.0567 0.2597,-0.22269 0.3796,-0.19749 0.12318,0.10261 0.22875,-0.0245 0.199,-0.15083 0.10018,-0.0852 0.23294,-0.13518 0.34415,-0.21013 0.12735,-0.0684 0.2504,-0.15473 0.39032,-0.19287 0.20186,-0.002 0.17336,0.23084 0.21779,0.36437 0.0196,0.17177 10e-5,0.34442 0.013,0.51641 0.009,0.12216 -0.25374,0.17635 -0.0823,0.28467 0.13874,0.0706 0.0499,0.23413 0.0758,0.3555 0.0123,0.19244 -0.0343,0.38253 -0.015,0.57445 0.0323,0.14005 -0.23491,0.21357 -0.0546,0.32488 0.13522,0.086 0.0528,0.3291 0.048,0.4748 -0.0666,0.15823 0.0303,0.32942 -0.007,0.4949 -0.0355,0.016 -0.0639,0.0517 -0.10624,0.0496 z"
       id="path4561-6-2-9-1-4-4-9-6"
       inkscape:connector-curvature="0" />
    <path
       style="fill:#373737;stroke-width:1.33333337"
       d="m 672.63625,482.16998 c -0.19962,-0.077 -0.34114,-0.26019 -0.55415,-0.30658 -0.12933,-0.0516 -0.29929,-0.11078 -0.28109,-0.26802 -0.12495,-0.0572 -0.28631,0.002 -0.36804,-0.14665 -0.21677,-0.0442 -0.41451,-0.14699 -0.60206,-0.26373 -0.14549,-0.0117 -0.0401,-0.2806 -0.23366,-0.22741 -0.15985,0.11165 -0.29843,-0.1067 -0.44332,-0.15259 -0.14671,-0.10352 -0.31384,-0.17296 -0.47067,-0.2553 -0.1377,-0.18472 0.19774,-0.28139 0.32109,-0.35268 0.1982,-0.0577 0.33801,-0.25001 0.53951,-0.27858 0.14026,0.12968 0.18934,-0.0597 0.20009,-0.17296 0.15537,-0.0885 0.34791,-0.13908 0.48999,-0.26371 0.12254,-0.0567 0.2597,-0.22269 0.3796,-0.19749 0.12318,0.10261 0.22875,-0.0245 0.199,-0.15083 0.10018,-0.0852 0.23294,-0.13518 0.34415,-0.21013 0.12735,-0.0684 0.2504,-0.15473 0.39032,-0.19287 0.20186,-0.002 0.17336,0.23084 0.21779,0.36437 0.0196,0.17177 10e-5,0.34442 0.013,0.51641 0.009,0.12216 -0.25374,0.17635 -0.0823,0.28467 0.13874,0.0706 0.0499,0.23413 0.0758,0.3555 0.0123,0.19244 -0.0343,0.38253 -0.015,0.57445 0.0323,0.14005 -0.23491,0.21357 -0.0546,0.32488 0.13522,0.086 0.0528,0.3291 0.048,0.4748 -0.0666,0.15823 0.0303,0.32942 -0.007,0.4949 -0.0355,0.016 -0.0639,0.0517 -0.10624,0.0496 z"
       id="path4561-6-2-9-1-4-5"
       inkscape:connector-curvature="0" />
    <path
       style="fill:#373737;stroke-width:1.33333337"
       d="m 673.29771,476.08456 c -0.19962,-0.077 -0.34114,-0.26019 -0.55415,-0.30658 -0.12933,-0.0516 -0.29929,-0.11078 -0.28109,-0.26802 -0.12495,-0.0572 -0.28631,0.002 -0.36804,-0.14665 -0.21677,-0.0442 -0.41451,-0.14699 -0.60206,-0.26373 -0.14549,-0.0117 -0.0401,-0.2806 -0.23366,-0.22741 -0.15985,0.11165 -0.29843,-0.1067 -0.44332,-0.15259 -0.14671,-0.10352 -0.31384,-0.17296 -0.47067,-0.2553 -0.1377,-0.18472 0.19774,-0.28139 0.32109,-0.35268 0.1982,-0.0577 0.33801,-0.25001 0.53951,-0.27858 0.14026,0.12968 0.18934,-0.0597 0.20009,-0.17296 0.15537,-0.0885 0.34791,-0.13908 0.48999,-0.26371 0.12254,-0.0567 0.2597,-0.22269 0.3796,-0.19749 0.12318,0.10261 0.22875,-0.0245 0.199,-0.15083 0.10018,-0.0852 0.23294,-0.13518 0.34415,-0.21013 0.12735,-0.0684 0.2504,-0.15473 0.39032,-0.19287 0.20186,-0.002 0.17336,0.23084 0.21779,0.36437 0.0196,0.17177 1e-4,0.34442 0.013,0.51641 0.009,0.12216 -0.25374,0.17635 -0.0823,0.28467 0.13874,0.0706 0.0499,0.23413 0.0758,0.3555 0.0123,0.19244 -0.0343,0.38253 -0.015,0.57445 0.0323,0.14005 -0.23491,0.21357 -0.0546,0.32488 0.13522,0.086 0.0528,0.3291 0.048,0.4748 -0.0666,0.15823 0.0303,0.32942 -0.007,0.4949 -0.0355,0.016 -0.0639,0.0517 -0.10624,0.0496 z"
       id="path4561-6-2-9-1-4-6-8"
       inkscape:connector-curvature="0" />
    <path
       style="fill:#373737;stroke-width:1.33333337"
       d="m 672.76853,470.39601 c -0.19962,-0.077 -0.34114,-0.26019 -0.55415,-0.30658 -0.12933,-0.0516 -0.29929,-0.11078 -0.28109,-0.26802 -0.12495,-0.0572 -0.28631,0.002 -0.36804,-0.14665 -0.21677,-0.0442 -0.41451,-0.14699 -0.60206,-0.26373 -0.14549,-0.0117 -0.0401,-0.2806 -0.23366,-0.22741 -0.15985,0.11165 -0.29843,-0.1067 -0.44332,-0.15259 -0.14671,-0.10352 -0.31384,-0.17296 -0.47067,-0.2553 -0.1377,-0.18472 0.19774,-0.28139 0.32109,-0.35268 0.1982,-0.0577 0.33801,-0.25001 0.53951,-0.27858 0.14026,0.12968 0.18934,-0.0597 0.20009,-0.17296 0.15537,-0.0885 0.34791,-0.13908 0.48999,-0.26371 0.12254,-0.0567 0.2597,-0.22269 0.3796,-0.19749 0.12318,0.10261 0.22875,-0.0245 0.199,-0.15083 0.10018,-0.0852 0.23294,-0.13518 0.34415,-0.21013 0.12735,-0.0684 0.2504,-0.15473 0.39032,-0.19287 0.20186,-0.002 0.17336,0.23084 0.21779,0.36437 0.0196,0.17177 1e-4,0.34442 0.013,0.51641 0.009,0.12216 -0.25374,0.17635 -0.0823,0.28467 0.13874,0.0706 0.0499,0.23413 0.0758,0.3555 0.0123,0.19244 -0.0343,0.38253 -0.015,0.57445 0.0323,0.14005 -0.23491,0.21357 -0.0546,0.32488 0.13522,0.086 0.0528,0.3291 0.048,0.4748 -0.0666,0.15823 0.0303,0.32942 -0.007,0.4949 -0.0355,0.016 -0.0639,0.0517 -0.10624,0.0496 z"
       id="path4561-6-2-9-1-4-4-6"
       inkscape:connector-curvature="0" />
    <path
       style="fill:#373737;stroke-width:1.33333337"
       d="m 669.13052,465.43509 c -0.19962,-0.077 -0.34114,-0.26019 -0.55415,-0.30658 -0.12933,-0.0516 -0.29929,-0.11078 -0.28109,-0.26802 -0.12495,-0.0572 -0.28631,0.002 -0.36804,-0.14665 -0.21677,-0.0442 -0.41451,-0.14699 -0.60206,-0.26373 -0.14549,-0.0117 -0.0401,-0.2806 -0.23366,-0.22741 -0.15985,0.11165 -0.29843,-0.1067 -0.44332,-0.15259 -0.14671,-0.10352 -0.31384,-0.17296 -0.47067,-0.2553 -0.1377,-0.18472 0.19774,-0.28139 0.32109,-0.35268 0.1982,-0.0577 0.33801,-0.25001 0.53951,-0.27858 0.14026,0.12968 0.18934,-0.0597 0.20009,-0.17296 0.15537,-0.0885 0.34791,-0.13908 0.48999,-0.26371 0.12254,-0.0567 0.2597,-0.22269 0.3796,-0.19749 0.12318,0.10261 0.22875,-0.0245 0.199,-0.15083 0.10018,-0.0852 0.23294,-0.13518 0.34415,-0.21013 0.12735,-0.0684 0.2504,-0.15473 0.39032,-0.19287 0.20186,-0.002 0.17336,0.23084 0.21779,0.36437 0.0196,0.17177 1e-4,0.34442 0.013,0.51641 0.009,0.12216 -0.25374,0.17635 -0.0823,0.28467 0.13874,0.0706 0.0499,0.23413 0.0758,0.3555 0.0123,0.19244 -0.0343,0.38253 -0.015,0.57445 0.0323,0.14005 -0.23491,0.21357 -0.0546,0.32488 0.13522,0.086 0.0528,0.3291 0.048,0.4748 -0.0666,0.15823 0.0303,0.32942 -0.007,0.4949 -0.0355,0.016 -0.0639,0.0517 -0.10624,0.0496 z"
       id="path4561-6-2-9-1-4-44-4"
       inkscape:connector-curvature="0" />
    <path
       style="fill:#373737;stroke-width:1.33333337"
       d="m 663.70657,461.46634 c -0.19962,-0.077 -0.34114,-0.26019 -0.55415,-0.30658 -0.12933,-0.0516 -0.29929,-0.11078 -0.28109,-0.26802 -0.12495,-0.0572 -0.28631,0.002 -0.36804,-0.14665 -0.21677,-0.0442 -0.41451,-0.14699 -0.60206,-0.26373 -0.14549,-0.0117 -0.0401,-0.2806 -0.23366,-0.22741 -0.15985,0.11165 -0.29843,-0.1067 -0.44332,-0.15259 -0.14671,-0.10352 -0.31384,-0.17296 -0.47067,-0.2553 -0.1377,-0.18472 0.19774,-0.28139 0.32109,-0.35268 0.1982,-0.0577 0.33801,-0.25001 0.53951,-0.27858 0.14026,0.12968 0.18934,-0.0597 0.20009,-0.17296 0.15537,-0.0885 0.34791,-0.13908 0.48999,-0.26371 0.12254,-0.0567 0.2597,-0.22269 0.3796,-0.19749 0.12318,0.10261 0.22875,-0.0245 0.199,-0.15083 0.10018,-0.0852 0.23294,-0.13518 0.34415,-0.21013 0.12735,-0.0684 0.2504,-0.15473 0.39032,-0.19287 0.20186,-0.002 0.17336,0.23084 0.21779,0.36437 0.0196,0.17177 1e-4,0.34442 0.013,0.51641 0.009,0.12216 -0.25374,0.17635 -0.0823,0.28467 0.13874,0.0706 0.0499,0.23413 0.0758,0.3555 0.0123,0.19244 -0.0343,0.38253 -0.015,0.57445 0.0323,0.14005 -0.23491,0.21357 -0.0546,0.32488 0.13522,0.086 0.0528,0.3291 0.048,0.4748 -0.0666,0.15823 0.0303,0.32942 -0.007,0.4949 -0.0355,0.016 -0.0639,0.0517 -0.10624,0.0496 z"
       id="path4561-6-2-9-1-4-6-0-5"
       inkscape:connector-curvature="0" />
    <path
       style="fill:#373737;stroke-width:1.33333337"
       d="m 661.12688,548.64654 c -0.19963,-0.077 -0.34114,-0.26019 -0.55415,-0.30658 -0.12934,-0.0516 -0.29929,-0.11078 -0.2811,-0.26802 -0.12495,-0.0572 -0.28631,0.002 -0.36804,-0.14665 -0.21677,-0.0442 -0.41451,-0.14699 -0.60206,-0.26373 -0.14549,-0.0117 -0.0401,-0.2806 -0.23366,-0.22741 -0.15985,0.11165 -0.29843,-0.1067 -0.44332,-0.15259 -0.14671,-0.10352 -0.31384,-0.17296 -0.47067,-0.2553 -0.1377,-0.18472 0.19774,-0.28139 0.32109,-0.35268 0.1982,-0.0577 0.33801,-0.25001 0.53951,-0.27858 0.14026,0.12968 0.18934,-0.0597 0.20009,-0.17296 0.15537,-0.0885 0.34791,-0.13908 0.48999,-0.26371 0.12254,-0.0567 0.2597,-0.22269 0.3796,-0.19749 0.12318,0.10261 0.22875,-0.0245 0.199,-0.15083 0.10018,-0.0852 0.23294,-0.13518 0.34415,-0.21013 0.12735,-0.0684 0.2504,-0.15473 0.39033,-0.19287 0.20185,-0.002 0.17336,0.23084 0.21778,0.36437 0.0196,0.17177 1e-4,0.34442 0.013,0.51641 0.009,0.12216 -0.25374,0.17635 -0.0823,0.28467 0.13874,0.0706 0.0499,0.23413 0.0758,0.3555 0.0123,0.19244 -0.0343,0.38253 -0.015,0.57445 0.0323,0.14005 -0.23491,0.21357 -0.0546,0.32488 0.13522,0.086 0.0528,0.3291 0.048,0.4748 -0.0666,0.15823 0.0303,0.32942 -0.007,0.4949 -0.0355,0.016 -0.0639,0.0517 -0.10624,0.0496 z"
       id="path4561-6-2-9-1-4-6-8-3"
       inkscape:connector-curvature="0" />
    <path
       style="fill:#373737;stroke-width:1.33333337"
       d="m 667.11309,548.61347 c -0.19963,-0.077 -0.34114,-0.26019 -0.55415,-0.30658 -0.12934,-0.0516 -0.29929,-0.11078 -0.2811,-0.26802 -0.12495,-0.0572 -0.2863,0.002 -0.36804,-0.14665 -0.21677,-0.0442 -0.41451,-0.14699 -0.60206,-0.26373 -0.14549,-0.0117 -0.0401,-0.2806 -0.23366,-0.22741 -0.15985,0.11165 -0.29843,-0.1067 -0.44332,-0.15259 -0.14671,-0.10352 -0.31384,-0.17296 -0.47067,-0.2553 -0.1377,-0.18472 0.19774,-0.28139 0.32109,-0.35268 0.1982,-0.0577 0.33801,-0.25001 0.53951,-0.27858 0.14026,0.12968 0.18934,-0.0597 0.20009,-0.17296 0.15537,-0.0885 0.34791,-0.13908 0.48999,-0.26371 0.12254,-0.0567 0.2597,-0.22269 0.3796,-0.19749 0.12318,0.10261 0.22875,-0.0245 0.199,-0.15083 0.10018,-0.0852 0.23294,-0.13518 0.34416,-0.21013 0.12734,-0.0684 0.25039,-0.15473 0.39032,-0.19287 0.20185,-0.002 0.17336,0.23084 0.21778,0.36437 0.0196,0.17177 10e-5,0.34442 0.013,0.51641 0.009,0.12216 -0.25374,0.17635 -0.0823,0.28467 0.13875,0.0706 0.0499,0.23413 0.0758,0.3555 0.0123,0.19244 -0.0343,0.38253 -0.015,0.57445 0.0323,0.14005 -0.23491,0.21357 -0.0546,0.32488 0.13522,0.086 0.0528,0.3291 0.048,0.4748 -0.0666,0.15823 0.0303,0.32942 -0.007,0.4949 -0.0355,0.016 -0.0639,0.0517 -0.10624,0.0496 z"
       id="path4561-6-2-9-1-4-5-1-9-7"
       inkscape:connector-curvature="0" />
    <path
       style="fill:#373737;stroke-width:1.33333337"
       d="m 672.66934,548.61347 c -0.19963,-0.077 -0.34114,-0.26019 -0.55415,-0.30658 -0.12934,-0.0516 -0.29929,-0.11078 -0.2811,-0.26802 -0.12495,-0.0572 -0.2863,0.002 -0.36804,-0.14665 -0.21677,-0.0442 -0.41451,-0.14699 -0.60206,-0.26373 -0.14549,-0.0117 -0.0401,-0.2806 -0.23366,-0.22741 -0.15985,0.11165 -0.29843,-0.1067 -0.44332,-0.15259 -0.14671,-0.10352 -0.31384,-0.17296 -0.47067,-0.2553 -0.1377,-0.18472 0.19774,-0.28139 0.32109,-0.35268 0.1982,-0.0577 0.33801,-0.25001 0.53951,-0.27858 0.14026,0.12968 0.18934,-0.0597 0.20009,-0.17296 0.15537,-0.0885 0.34791,-0.13908 0.48999,-0.26371 0.12254,-0.0567 0.2597,-0.22269 0.3796,-0.19749 0.12318,0.10261 0.22875,-0.0245 0.199,-0.15083 0.10018,-0.0852 0.23294,-0.13518 0.34416,-0.21013 0.12734,-0.0684 0.25039,-0.15473 0.39032,-0.19287 0.20185,-0.002 0.17336,0.23084 0.21778,0.36437 0.0196,0.17177 1e-4,0.34442 0.013,0.51641 0.009,0.12216 -0.25374,0.17635 -0.0823,0.28467 0.13875,0.0706 0.0499,0.23413 0.0758,0.3555 0.0123,0.19244 -0.0343,0.38253 -0.015,0.57445 0.0323,0.14005 -0.23491,0.21357 -0.0546,0.32488 0.13522,0.086 0.0528,0.3291 0.048,0.4748 -0.0666,0.15823 0.0303,0.32942 -0.007,0.4949 -0.0355,0.016 -0.0639,0.0517 -0.10624,0.0496 z"
       id="path4561-6-2-9-1-4-5-1-9-7-8"
       inkscape:connector-curvature="0" />
    <path
       style="fill:#373737;stroke-width:1.33333337"
       d="m 678.22559,548.34889 c -0.19963,-0.077 -0.34114,-0.26019 -0.55415,-0.30658 -0.12934,-0.0516 -0.29929,-0.11078 -0.2811,-0.26802 -0.12495,-0.0572 -0.2863,0.002 -0.36804,-0.14665 -0.21677,-0.0442 -0.41451,-0.14699 -0.60206,-0.26373 -0.14549,-0.0117 -0.0401,-0.2806 -0.23366,-0.22741 -0.15985,0.11165 -0.29843,-0.1067 -0.44332,-0.15259 -0.14671,-0.10352 -0.31384,-0.17296 -0.47067,-0.2553 -0.1377,-0.18472 0.19774,-0.28139 0.32109,-0.35268 0.1982,-0.0577 0.33801,-0.25001 0.53951,-0.27858 0.14026,0.12968 0.18934,-0.0597 0.20009,-0.17296 0.15537,-0.0885 0.34791,-0.13908 0.48999,-0.26371 0.12254,-0.0567 0.2597,-0.22269 0.3796,-0.19749 0.12318,0.10261 0.22875,-0.0245 0.199,-0.15083 0.10018,-0.0852 0.23294,-0.13518 0.34416,-0.21013 0.12734,-0.0684 0.25039,-0.15473 0.39032,-0.19287 0.20185,-0.002 0.17336,0.23084 0.21778,0.36437 0.0196,0.17177 10e-5,0.34442 0.013,0.51641 0.009,0.12216 -0.25374,0.17635 -0.0823,0.28467 0.13875,0.0706 0.0499,0.23413 0.0758,0.3555 0.0123,0.19244 -0.0343,0.38253 -0.015,0.57445 0.0323,0.14005 -0.23491,0.21357 -0.0546,0.32488 0.13522,0.086 0.0528,0.3291 0.048,0.4748 -0.0666,0.15823 0.0303,0.32942 -0.007,0.4949 -0.0355,0.016 -0.0639,0.0517 -0.10624,0.0496 z"
       id="path4561-6-2-9-1-4-5-1-9-7-8-1"
       inkscape:connector-curvature="0" />
    <path
       style="fill:#373737;stroke-width:1.33333337"
       d="m 643.82975,549.01034 c -0.19963,-0.077 -0.34114,-0.26019 -0.55415,-0.30658 -0.12934,-0.0516 -0.29929,-0.11078 -0.2811,-0.26802 -0.12495,-0.0572 -0.2863,0.002 -0.36804,-0.14665 -0.21677,-0.0442 -0.41451,-0.14699 -0.60206,-0.26373 -0.14549,-0.0117 -0.0401,-0.2806 -0.23366,-0.22741 -0.15985,0.11165 -0.29843,-0.1067 -0.44332,-0.15259 -0.14671,-0.10352 -0.31384,-0.17296 -0.47067,-0.2553 -0.1377,-0.18472 0.19774,-0.28139 0.32109,-0.35268 0.1982,-0.0577 0.33801,-0.25001 0.53951,-0.27858 0.14026,0.12968 0.18934,-0.0597 0.20009,-0.17296 0.15537,-0.0885 0.34791,-0.13908 0.48999,-0.26371 0.12254,-0.0567 0.2597,-0.22269 0.3796,-0.19749 0.12318,0.10261 0.22875,-0.0245 0.199,-0.15083 0.10018,-0.0852 0.23294,-0.13518 0.34416,-0.21013 0.12734,-0.0684 0.25039,-0.15473 0.39032,-0.19287 0.20185,-0.002 0.17336,0.23084 0.21778,0.36437 0.0196,0.17177 10e-5,0.34442 0.013,0.51641 0.009,0.12216 -0.25374,0.17635 -0.0823,0.28467 0.13875,0.0706 0.0499,0.23413 0.0758,0.3555 0.0123,0.19244 -0.0343,0.38253 -0.015,0.57445 0.0323,0.14005 -0.23491,0.21357 -0.0546,0.32488 0.13522,0.086 0.0528,0.3291 0.048,0.4748 -0.0666,0.15823 0.0303,0.32942 -0.007,0.4949 -0.0355,0.016 -0.0639,0.0517 -0.10624,0.0496 z"
       id="path4561-6-2-9-1-4-5-1-9-7-1"
       inkscape:connector-curvature="0" />
    <path
       style="fill:#373737;stroke-width:1.33333337"
       d="m 649.386,549.01034 c -0.19963,-0.077 -0.34114,-0.26019 -0.55415,-0.30658 -0.12934,-0.0516 -0.29929,-0.11078 -0.2811,-0.26802 -0.12495,-0.0572 -0.2863,0.002 -0.36804,-0.14665 -0.21677,-0.0442 -0.41451,-0.14699 -0.60206,-0.26373 -0.14549,-0.0117 -0.0401,-0.2806 -0.23366,-0.22741 -0.15985,0.11165 -0.29843,-0.1067 -0.44332,-0.15259 -0.14671,-0.10352 -0.31384,-0.17296 -0.47067,-0.2553 -0.1377,-0.18472 0.19774,-0.28139 0.32109,-0.35268 0.1982,-0.0577 0.33801,-0.25001 0.53951,-0.27858 0.14026,0.12968 0.18934,-0.0597 0.20009,-0.17296 0.15537,-0.0885 0.34791,-0.13908 0.48999,-0.26371 0.12254,-0.0567 0.2597,-0.22269 0.3796,-0.19749 0.12318,0.10261 0.22875,-0.0245 0.199,-0.15083 0.10018,-0.0852 0.23294,-0.13518 0.34416,-0.21013 0.12734,-0.0684 0.25039,-0.15473 0.39032,-0.19287 0.20185,-0.002 0.17336,0.23084 0.21778,0.36437 0.0196,0.17177 10e-5,0.34442 0.013,0.51641 0.009,0.12216 -0.25374,0.17635 -0.0823,0.28467 0.13875,0.0706 0.0499,0.23413 0.0758,0.3555 0.0123,0.19244 -0.0343,0.38253 -0.015,0.57445 0.0323,0.14005 -0.23491,0.21357 -0.0546,0.32488 0.13522,0.086 0.0528,0.3291 0.048,0.4748 -0.0666,0.15823 0.0303,0.32942 -0.007,0.4949 -0.0355,0.016 -0.0639,0.0517 -0.10624,0.0496 z"
       id="path4561-6-2-9-1-4-5-1-9-7-8-9"
       inkscape:connector-curvature="0" />
    <path
       style="fill:#373737;stroke-width:1.33333337"
       d="m 654.94225,548.74576 c -0.19963,-0.077 -0.34114,-0.26019 -0.55415,-0.30658 -0.12934,-0.0516 -0.29929,-0.11078 -0.2811,-0.26802 -0.12495,-0.0572 -0.2863,0.002 -0.36804,-0.14665 -0.21677,-0.0442 -0.41451,-0.14699 -0.60206,-0.26373 -0.14549,-0.0117 -0.0401,-0.2806 -0.23366,-0.22741 -0.15985,0.11165 -0.29843,-0.1067 -0.44332,-0.15259 -0.14671,-0.10352 -0.31384,-0.17296 -0.47067,-0.2553 -0.1377,-0.18472 0.19774,-0.28139 0.32109,-0.35268 0.1982,-0.0577 0.33801,-0.25001 0.53951,-0.27858 0.14026,0.12968 0.18934,-0.0597 0.20009,-0.17296 0.15537,-0.0885 0.34791,-0.13908 0.48999,-0.26371 0.12254,-0.0567 0.2597,-0.22269 0.3796,-0.19749 0.12318,0.10261 0.22875,-0.0245 0.199,-0.15083 0.10018,-0.0852 0.23294,-0.13518 0.34416,-0.21013 0.12734,-0.0684 0.25039,-0.15473 0.39032,-0.19287 0.20185,-0.002 0.17336,0.23084 0.21778,0.36437 0.0196,0.17177 10e-5,0.34442 0.013,0.51641 0.009,0.12216 -0.25374,0.17635 -0.0823,0.28467 0.13875,0.0706 0.0499,0.23413 0.0758,0.3555 0.0123,0.19244 -0.0343,0.38253 -0.015,0.57445 0.0323,0.14005 -0.23491,0.21357 -0.0546,0.32488 0.13522,0.086 0.0528,0.3291 0.048,0.4748 -0.0666,0.15823 0.0303,0.32942 -0.007,0.4949 -0.0355,0.016 -0.0639,0.0517 -0.10624,0.0496 z"
       id="path4561-6-2-9-1-4-5-1-9-7-8-1-4"
       inkscape:connector-curvature="0" />
    <path
       style="fill:#373737;stroke-width:1.33333337"
       d="m 657.32349,461.03639 c -0.19962,-0.077 -0.34114,-0.26019 -0.55415,-0.30658 -0.12933,-0.0516 -0.29929,-0.11078 -0.28109,-0.26802 -0.12495,-0.0572 -0.28631,0.002 -0.36804,-0.14665 -0.21677,-0.0442 -0.41451,-0.14699 -0.60206,-0.26373 -0.14549,-0.0117 -0.0401,-0.2806 -0.23366,-0.22741 -0.15985,0.11165 -0.29843,-0.1067 -0.44332,-0.15259 -0.14671,-0.10352 -0.31384,-0.17296 -0.47067,-0.2553 -0.1377,-0.18472 0.19774,-0.28139 0.32109,-0.35268 0.1982,-0.0577 0.33801,-0.25001 0.53951,-0.27858 0.14026,0.12968 0.18934,-0.0597 0.20009,-0.17296 0.15537,-0.0885 0.34791,-0.13908 0.48999,-0.26371 0.12254,-0.0567 0.2597,-0.22269 0.3796,-0.19749 0.12318,0.10261 0.22875,-0.0245 0.199,-0.15083 0.10018,-0.0852 0.23294,-0.13518 0.34415,-0.21013 0.12735,-0.0684 0.2504,-0.15473 0.39032,-0.19287 0.20186,-0.002 0.17336,0.23084 0.21779,0.36437 0.0196,0.17177 10e-5,0.34442 0.013,0.51641 0.009,0.12216 -0.25374,0.17635 -0.0823,0.28467 0.13874,0.0706 0.0499,0.23413 0.0758,0.3555 0.0123,0.19244 -0.0343,0.38253 -0.015,0.57445 0.0323,0.14005 -0.23491,0.21357 -0.0546,0.32488 0.13522,0.086 0.0528,0.3291 0.048,0.4748 -0.0666,0.15823 0.0303,0.32942 -0.007,0.4949 -0.0355,0.016 -0.0639,0.0517 -0.10624,0.0496 z"
       id="path4561-6-2-9-1-4-6-0-5-1"
       inkscape:connector-curvature="0" />
    <path
       style="fill:#373737;stroke-width:1.33333337"
       d="m 645.15266,465.53431 c -0.19962,-0.077 -0.34114,-0.26019 -0.55415,-0.30658 -0.12933,-0.0516 -0.29929,-0.11078 -0.28109,-0.26802 -0.12495,-0.0572 -0.28631,0.002 -0.36804,-0.14665 -0.21677,-0.0442 -0.41451,-0.14699 -0.60206,-0.26373 -0.14549,-0.0117 -0.0401,-0.2806 -0.23366,-0.22741 -0.15985,0.11165 -0.29843,-0.1067 -0.44332,-0.15259 -0.14671,-0.10352 -0.31384,-0.17296 -0.47067,-0.2553 -0.1377,-0.18472 0.19774,-0.28139 0.32109,-0.35268 0.1982,-0.0577 0.33801,-0.25001 0.53951,-0.27858 0.14026,0.12968 0.18934,-0.0597 0.20009,-0.17296 0.15537,-0.0885 0.34791,-0.13908 0.48999,-0.26371 0.12254,-0.0567 0.2597,-0.22269 0.3796,-0.19749 0.12318,0.10261 0.22875,-0.0245 0.199,-0.15083 0.10018,-0.0852 0.23294,-0.13518 0.34415,-0.21013 0.12735,-0.0684 0.2504,-0.15473 0.39032,-0.19287 0.20186,-0.002 0.17336,0.23084 0.21779,0.36437 0.0196,0.17177 10e-5,0.34442 0.013,0.51641 0.009,0.12216 -0.25374,0.17635 -0.0823,0.28467 0.13874,0.0706 0.0499,0.23413 0.0758,0.3555 0.0123,0.19244 -0.0343,0.38253 -0.015,0.57445 0.0323,0.14005 -0.23491,0.21357 -0.0546,0.32488 0.13522,0.086 0.0528,0.3291 0.048,0.4748 -0.0666,0.15823 0.0303,0.32942 -0.007,0.4949 -0.0355,0.016 -0.0639,0.0517 -0.10624,0.0496 z"
       id="path4561-6-2-9-1-4-6-0-5-1-8"
       inkscape:connector-curvature="0" />
    <path
       style="fill:#373737;stroke-width:1.33333337"
       d="m 650.44432,461.83013 c -0.19962,-0.077 -0.34114,-0.26019 -0.55415,-0.30658 -0.12933,-0.0516 -0.29929,-0.11078 -0.28109,-0.26802 -0.12495,-0.0572 -0.28631,0.002 -0.36804,-0.14665 -0.21677,-0.0442 -0.41451,-0.14699 -0.60206,-0.26373 -0.14549,-0.0117 -0.0401,-0.2806 -0.23366,-0.22741 -0.15985,0.11165 -0.29843,-0.1067 -0.44332,-0.15259 -0.14671,-0.10352 -0.31384,-0.17296 -0.47067,-0.2553 -0.1377,-0.18472 0.19774,-0.28139 0.32109,-0.35268 0.1982,-0.0577 0.33801,-0.25001 0.53951,-0.27858 0.14026,0.12968 0.18934,-0.0597 0.20009,-0.17296 0.15537,-0.0885 0.34791,-0.13908 0.48999,-0.26371 0.12254,-0.0567 0.2597,-0.22269 0.3796,-0.19749 0.12318,0.10261 0.22875,-0.0245 0.199,-0.15083 0.10018,-0.0852 0.23294,-0.13518 0.34415,-0.21013 0.12735,-0.0684 0.2504,-0.15473 0.39032,-0.19287 0.20186,-0.002 0.17336,0.23084 0.21779,0.36437 0.0196,0.17177 1e-4,0.34442 0.013,0.51641 0.009,0.12216 -0.25374,0.17635 -0.0823,0.28467 0.13874,0.0706 0.0499,0.23413 0.0758,0.3555 0.0123,0.19244 -0.0343,0.38253 -0.015,0.57445 0.0323,0.14005 -0.23491,0.21357 -0.0546,0.32488 0.13522,0.086 0.0528,0.3291 0.048,0.4748 -0.0666,0.15823 0.0303,0.32942 -0.007,0.4949 -0.0355,0.016 -0.0639,0.0517 -0.10624,0.0496 z"
       id="path4561-6-2-9-1-4-6-0-5-1-8-0"
       inkscape:connector-curvature="0" />
    <path
       style="fill:#373737;stroke-width:1.33333337"
       d="m 640.43004,469.21369 c -0.19962,-0.077 -0.34114,-0.26019 -0.55415,-0.30658 -0.12933,-0.0516 -0.29929,-0.11078 -0.28109,-0.26802 -0.12495,-0.0572 -0.28631,0.002 -0.36804,-0.14665 -0.21677,-0.0442 -0.41451,-0.14699 -0.60206,-0.26373 -0.14549,-0.0117 -0.0401,-0.2806 -0.23366,-0.22741 -0.15985,0.11165 -0.29843,-0.1067 -0.44332,-0.15259 -0.14671,-0.10352 -0.31384,-0.17296 -0.47067,-0.2553 -0.1377,-0.18472 0.19774,-0.28139 0.32109,-0.35268 0.1982,-0.0577 0.33801,-0.25001 0.53951,-0.27858 0.14026,0.12968 0.18934,-0.0597 0.20009,-0.17296 0.15537,-0.0885 0.34791,-0.13908 0.48999,-0.26371 0.12254,-0.0567 0.2597,-0.22269 0.3796,-0.19749 0.12318,0.10261 0.22875,-0.0245 0.199,-0.15083 0.10018,-0.0852 0.23294,-0.13518 0.34415,-0.21013 0.12735,-0.0684 0.2504,-0.15473 0.39032,-0.19287 0.20186,-0.002 0.17336,0.23084 0.21779,0.36437 0.0196,0.17177 10e-5,0.34442 0.013,0.51641 0.009,0.12216 -0.25374,0.17635 -0.0823,0.28467 0.13874,0.0706 0.0499,0.23413 0.0758,0.3555 0.0123,0.19244 -0.0343,0.38253 -0.015,0.57445 0.0323,0.14005 -0.23491,0.21357 -0.0546,0.32488 0.13522,0.086 0.0528,0.3291 0.048,0.4748 -0.0666,0.15823 0.0303,0.32942 -0.007,0.4949 -0.0355,0.016 -0.0639,0.0517 -0.10624,0.0496 z"
       id="path4561-6-2-9-1-4-6-0-5-1-8-1"
       inkscape:connector-curvature="0" />
    <path
       style="fill:#373737;stroke-width:1.33333337"
       d="m 637.61643,473.86019 c -0.19962,-0.077 -0.34114,-0.26019 -0.55415,-0.30658 -0.12933,-0.0516 -0.29929,-0.11078 -0.28109,-0.26802 -0.12495,-0.0572 -0.28631,0.002 -0.36804,-0.14665 -0.21677,-0.0442 -0.41451,-0.14699 -0.60206,-0.26373 -0.14549,-0.0117 -0.0401,-0.2806 -0.23366,-0.22741 -0.15985,0.11165 -0.29843,-0.1067 -0.44332,-0.15259 -0.14671,-0.10352 -0.31384,-0.17296 -0.47067,-0.2553 -0.1377,-0.18472 0.19774,-0.28139 0.32109,-0.35268 0.1982,-0.0577 0.33801,-0.25001 0.53951,-0.27858 0.14026,0.12968 0.18934,-0.0597 0.20009,-0.17296 0.15537,-0.0885 0.34791,-0.13908 0.48999,-0.26371 0.12254,-0.0567 0.2597,-0.22269 0.3796,-0.19749 0.12318,0.10261 0.22875,-0.0245 0.199,-0.15083 0.10018,-0.0852 0.23294,-0.13518 0.34415,-0.21013 0.12735,-0.0684 0.2504,-0.15473 0.39032,-0.19287 0.20186,-0.002 0.17336,0.23084 0.21779,0.36437 0.0196,0.17177 10e-5,0.34442 0.013,0.51641 0.009,0.12216 -0.25374,0.17635 -0.0823,0.28467 0.13874,0.0706 0.0499,0.23413 0.0758,0.3555 0.0123,0.19244 -0.0343,0.38253 -0.015,0.57445 0.0323,0.14005 -0.23491,0.21357 -0.0546,0.32488 0.13522,0.086 0.0528,0.3291 0.048,0.4748 -0.0666,0.15823 0.0303,0.32942 -0.007,0.4949 -0.0355,0.016 -0.0639,0.0517 -0.10624,0.0496 z"
       id="path4561-6-2-9-1-4-6-0-5-1-8-1-6"
       inkscape:connector-curvature="0" />
    <path
       style="fill:#373737;stroke-width:1.33333337"
       d="m 634.62301,479.5664 c -0.19962,-0.077 -0.34114,-0.26019 -0.55415,-0.30658 -0.12933,-0.0516 -0.29929,-0.11078 -0.28109,-0.26802 -0.12495,-0.0572 -0.28631,0.002 -0.36804,-0.14665 -0.21677,-0.0442 -0.41451,-0.14699 -0.60206,-0.26373 -0.14549,-0.0117 -0.0401,-0.2806 -0.23366,-0.22741 -0.15985,0.11165 -0.29843,-0.1067 -0.44332,-0.15259 -0.14671,-0.10352 -0.31384,-0.17296 -0.47067,-0.2553 -0.1377,-0.18472 0.19774,-0.28139 0.32109,-0.35268 0.1982,-0.0577 0.33801,-0.25001 0.53951,-0.27858 0.14026,0.12968 0.18934,-0.0597 0.20009,-0.17296 0.15537,-0.0885 0.34791,-0.13908 0.48999,-0.26371 0.12254,-0.0567 0.2597,-0.22269 0.3796,-0.19749 0.12318,0.10261 0.22875,-0.0245 0.199,-0.15083 0.10018,-0.0852 0.23294,-0.13518 0.34415,-0.21013 0.12735,-0.0684 0.2504,-0.15473 0.39032,-0.19287 0.20186,-0.002 0.17336,0.23084 0.21779,0.36437 0.0196,0.17177 10e-5,0.34442 0.013,0.51641 0.009,0.12216 -0.25374,0.17635 -0.0823,0.28467 0.13874,0.0706 0.0499,0.23413 0.0758,0.3555 0.0123,0.19244 -0.0343,0.38253 -0.015,0.57445 0.0323,0.14005 -0.23491,0.21357 -0.0546,0.32488 0.13522,0.086 0.0528,0.3291 0.048,0.4748 -0.0666,0.15823 0.0303,0.32942 -0.007,0.4949 -0.0355,0.016 -0.0639,0.0517 -0.10624,0.0496 z"
       id="path4561-6-2-9-1-4-6-0-5-1-8-1-6-2"
       inkscape:connector-curvature="0" />
  </g>
</svg>
