<?xml version="1.0" encoding="UTF-8" standalone="no"?>
<svg
   xmlns:osb="http://www.openswatchbook.org/uri/2009/osb"
   xmlns:dc="http://purl.org/dc/elements/1.1/"
   xmlns:cc="http://creativecommons.org/ns#"
   xmlns:rdf="http://www.w3.org/1999/02/22-rdf-syntax-ns#"
   xmlns:svg="http://www.w3.org/2000/svg"
   xmlns="http://www.w3.org/2000/svg"
   xmlns:xlink="http://www.w3.org/1999/xlink"
   xmlns:sodipodi="http://sodipodi.sourceforge.net/DTD/sodipodi-0.dtd"
   xmlns:inkscape="http://www.inkscape.org/namespaces/inkscape"
   height="2374"
   viewBox="0 0 2895 2374"
   width="2895"
   version="1.1"
   id="svg18325"
   sodipodi:docname="cluster.a.obelisks.svg"
   inkscape:version="0.91 r13725">
  <metadata
     id="metadata18331">
    <rdf:RDF>
      <cc:Work
         rdf:about="">
        <dc:format>image/svg+xml</dc:format>
        <dc:type
           rdf:resource="http://purl.org/dc/dcmitype/StillImage" />
        <dc:title />
      </cc:Work>
    </rdf:RDF>
  </metadata>
  <defs
     id="defs18329">
    <inkscape:path-effect
       effect="bspline"
       id="path-effect6011"
       is_visible="true"
       weight="33.333333"
       steps="2"
       helper_size="0"
       apply_no_weight="true"
       apply_with_weight="true"
       only_selected="false" />
    <inkscape:path-effect
       effect="bspline"
       id="path-effect5827"
       is_visible="true"
       weight="33.333333"
       steps="2"
       helper_size="0"
       apply_no_weight="true"
       apply_with_weight="true"
       only_selected="false" />
    <inkscape:path-effect
       effect="bspline"
       id="path-effect31917"
       is_visible="true"
       weight="33.333333"
       steps="2"
       helper_size="0"
       apply_no_weight="true"
       apply_with_weight="true"
       only_selected="false" />
    <inkscape:path-effect
       effect="bspline"
       id="path-effect31820"
       is_visible="true"
       weight="33.333333"
       steps="2"
       helper_size="0"
       apply_no_weight="true"
       apply_with_weight="true"
       only_selected="false" />
    <inkscape:path-effect
       effect="bspline"
       id="path-effect31728"
       is_visible="true"
       weight="33.333333"
       steps="2"
       helper_size="0"
       apply_no_weight="true"
       apply_with_weight="true"
       only_selected="false" />
    <inkscape:path-effect
       only_selected="false"
       apply_with_weight="true"
       apply_no_weight="true"
       helper_size="0"
       steps="2"
       weight="33.333333"
       is_visible="true"
       id="path-effect31536"
       effect="bspline" />
    <inkscape:path-effect
       only_selected="false"
       apply_with_weight="true"
       apply_no_weight="true"
       helper_size="0"
       steps="2"
       weight="33.333333"
       is_visible="true"
       id="path-effect31430"
       effect="bspline" />
    <inkscape:path-effect
       effect="bspline"
       id="path-effect31426"
       is_visible="true"
       weight="33.333333"
       steps="2"
       helper_size="0"
       apply_no_weight="true"
       apply_with_weight="true"
       only_selected="false" />
    <inkscape:path-effect
       effect="bspline"
       id="path-effect31350"
       is_visible="true"
       weight="33.333333"
       steps="2"
       helper_size="0"
       apply_no_weight="true"
       apply_with_weight="true"
       only_selected="false" />
    <inkscape:path-effect
       effect="bspline"
       id="path-effect31340"
       is_visible="true"
       weight="33.333333"
       steps="2"
       helper_size="0"
       apply_no_weight="true"
       apply_with_weight="true"
       only_selected="false" />
    <inkscape:path-effect
       only_selected="false"
       apply_with_weight="true"
       apply_no_weight="true"
       helper_size="0"
       steps="2"
       weight="33.333333"
       is_visible="true"
       id="path-effect31334"
       effect="bspline" />
    <inkscape:path-effect
       effect="bspline"
       id="path-effect31168"
       is_visible="true"
       weight="33.333333"
       steps="2"
       helper_size="0"
       apply_no_weight="true"
       apply_with_weight="true"
       only_selected="false" />
    <inkscape:path-effect
       effect="bspline"
       id="path-effect31094"
       is_visible="true"
       weight="33.333333"
       steps="2"
       helper_size="0"
       apply_no_weight="true"
       apply_with_weight="true"
       only_selected="false" />
    <inkscape:path-effect
       effect="bspline"
       id="path-effect29362"
       is_visible="true"
       weight="33.333333"
       steps="2"
       helper_size="0"
       apply_no_weight="true"
       apply_with_weight="true"
       only_selected="false" />
    <inkscape:path-effect
       effect="bspline"
       id="path-effect28779"
       is_visible="true"
       weight="33.333333"
       steps="2"
       helper_size="0"
       apply_no_weight="true"
       apply_with_weight="true"
       only_selected="false" />
    <linearGradient
       id="linearGradient27065"
       osb:paint="gradient">
      <stop
         style="stop-color:#ff6600;stop-opacity:1;"
         offset="0"
         id="stop27061" />
      <stop
         style="stop-color:#ff6600;stop-opacity:0;"
         offset="1"
         id="stop27063" />
    </linearGradient>
    <inkscape:path-effect
       effect="bspline"
       id="path-effect25571"
       is_visible="true"
       weight="33.333333"
       steps="2"
       helper_size="0"
       apply_no_weight="true"
       apply_with_weight="true"
       only_selected="false" />
  </defs>
  <sodipodi:namedview
     pagecolor="#ffffff"
     bordercolor="#666666"
     borderopacity="1"
     objecttolerance="10"
     gridtolerance="10"
     guidetolerance="10"
     inkscape:pageopacity="0"
     inkscape:pageshadow="2"
     inkscape:window-width="1920"
     inkscape:window-height="1017"
     id="namedview18327"
     showgrid="false"
     inkscape:zoom="0.125"
     inkscape:cx="-1344.6345"
     inkscape:cy="301.67814"
     inkscape:window-x="-8"
     inkscape:window-y="-8"
     inkscape:window-maximized="1"
     inkscape:current-layer="layer51"
     inkscape:snap-grids="false"
     inkscape:snap-to-guides="false"
     inkscape:object-nodes="false" />
  <g
     inkscape:groupmode="layer"
     id="layer51"
     inkscape:label="SharedObjects"
     sodipodi:insensitive="true"
     style="opacity:0">
    <g
       id="g30866"
       transform="translate(1505.0407,-979.42323)"
       style="fill:#000000;fill-opacity:1">
      <path
         inkscape:connector-curvature="0"
         id="path30864"
         d="m 1294.2829,1050.4571 c 0.3371,-0.6977 0.9876,-1.2255 1.1523,-2.0092 0.099,-0.6081 0.9754,-0.4624 0.91,-1.075 0.1288,-0.6274 0.6311,-1.0293 0.7597,-1.6739 0.2464,-0.6353 0.6419,-1.1747 1.2611,-1.4659 0.013,-0.5277 0.063,-1.1094 0.5255,-1.5149 0.479,-0.4819 0.5895,-1.2057 1.0601,-1.6755 0.4458,-0.1716 0.6983,0.5083 0.8691,0.8408 0.1785,0.4535 0.347,0.9165 0.6584,1.299 0.3627,0.348 0.1403,0.9606 0.3143,1.2541 0.5447,0.094 0.7805,0.492 0.8585,0.993 0.2672,0.5646 0.6557,1.0654 0.9551,1.609 0.2221,0.4191 -0.2944,1.1373 0.5284,1.1549 0.3854,0.2355 0.4307,0.7914 0.7138,1.1476 0.2012,0.4038 0.4516,0.8124 0.5237,1.2584 -0.2166,0.7233 -1.1818,0.5356 -1.77,0.5853 -0.5998,0.1 -1.232,0.019 -1.6286,-0.4353 -0.4492,0.083 -0.7511,0.5029 -1.2591,0.3532 -0.5136,-0.01 -1.0283,-0.043 -1.5332,-0.1409 -0.5204,0.2103 -0.9662,-0.2033 -1.3539,-0.3666 -0.3811,0.2868 -0.7426,0.5403 -1.2409,0.3545 -0.5954,-0.082 -1.1983,-0.2572 -1.7991,-0.1148 -0.2262,0.01 -0.5207,-0.1071 -0.5052,-0.3778 z m 5.7413,-9.5375 c 0.1057,0.016 -0.1514,0 0,0 z m 3.98,10.3114 c 0.2324,0 -0.182,0.013 0,0 z"
         style="fill:#000000;fill-opacity:1;stroke-width:0.0114788" />
    </g>
    <g
       id="g30375"
       transform="translate(2089.6312,-1863.4994)"
       style="">
      <circle
         style="display:inline;opacity:1;fill:#ffffff;fill-opacity:0.78431373;stroke:#c80000;stroke-width:1;stroke-miterlimit:4;stroke-dasharray:none;stroke-opacity:1"
         id="circle30182-1-9"
         cx="722.39093"
         cy="1962.2659"
         r="10" />
      <circle
         style="display:inline;fill:#c80000;fill-opacity:1;stroke:none;stroke-width:0.4311451;stroke-miterlimit:4;stroke-dasharray:none;stroke-opacity:1"
         id="circle30200-1-2"
         cx="733.64679"
         cy="1978.6826"
         r="3.0026414" />
      <path
         style="display:inline;fill:none;stroke:#c80000;stroke-width:0.77735484px;stroke-linecap:butt;stroke-linejoin:miter;stroke-opacity:1"
         d="m 727.76227,1970.3793 c 1.7975,2.5496 3.5924,5.1008 5.3881,7.6515"
         id="path30212-6-9"
         inkscape:connector-curvature="0" />
    </g>
    <g
       id="g30370"
       transform="translate(2098.2312,-1853.2994)"
       style="">
      <circle
         style="display:inline;opacity:1;fill:#ffffff;fill-opacity:0.78431373;stroke:#00c800;stroke-width:1;stroke-miterlimit:4;stroke-dasharray:none;stroke-opacity:1"
         id="circle30182-1"
         cx="684.89087"
         cy="1962.2659"
         r="10" />
      <circle
         style="display:inline;fill:#00c800;fill-opacity:1;stroke:none;stroke-width:0.4311451;stroke-miterlimit:4;stroke-dasharray:none;stroke-opacity:1"
         id="circle30200-1"
         cx="696.14673"
         cy="1978.6826"
         r="3.0026414" />
      <path
         style="display:inline;fill:none;stroke:#00c800;stroke-width:0.77735484px;stroke-linecap:butt;stroke-linejoin:miter;stroke-opacity:1"
         d="m 690.26224,1970.3793 c 1.7975,2.5496 3.5924,5.1008 5.3881,7.6515"
         id="path30212-6"
         inkscape:connector-curvature="0" />
    </g>
    <rect
       style="opacity:1;fill:#999999;fill-opacity:1;stroke:none;stroke-width:0.5;stroke-miterlimit:4;stroke-dasharray:none;stroke-opacity:1"
       id="rect5755"
       width="36.199928"
       height="9.7999268"
       x="2725.3999"
       y="96.39994" />
    <g
       id="layer1-0"
       inkscape:label="Layer 1"
       transform="matrix(0.10788495,0,0,0.10788496,2784.3406,53.6292)"
       style="fill:#999999;fill-opacity:1">
      <path
         inkscape:connector-curvature="0"
         id="path5620"
         d="m 11.221364,13.564033 c 0.069,-0.218864 0.22167,-0.482682 0.35808,-0.618464 l 0.2379,-0.236786 13.00449,0.02723 c 7.89087,0.01652 13.07603,0.05419 13.18641,0.0958 0.2539,0.09571 0.49917,0.338874 0.66192,0.656251 0.13306,0.25946 0.13845,0.524865 0.13845,6.828481 0,7.299367 0.0302,6.856468 -0.49567,7.257666 l -0.25692,0.195984 -7.44747,0.02079 -7.44746,0.02079 -1.25311,-0.555176 c -0.6892,-0.305346 -1.297,-0.591305 -1.35067,-0.635461 -0.15433,-0.127006 -0.84562,-1.553123 -1.09413,-2.257217 -0.22445,-0.635935 -0.22654,-0.655457 -0.27294,-2.546351 -0.0265,-1.079263 -0.0782,-1.945326 -0.11927,-1.99735 -0.0575,-0.07291 -0.79522,-0.08176 -3.57682,-0.04293 -1.92737,0.02689 -3.59261,0.02675 -3.70053,-2.75e-4 -0.14094,-0.03538 -0.25187,-0.156492 -0.39382,-0.430004 -0.19257,-0.371044 -0.1989,-0.423439 -0.24858,-2.054247 -0.0794,-2.608015 -0.0666,-3.294775 0.0702,-3.728654 z m 0.0925,76.08889 c 0.0247,-9.144166 0.0498,-26.13736 0.0558,-37.762657 l 0.011,-21.136902 0.17666,-0.363799 c 0.19732,-0.406355 0.37582,-0.632751 0.58799,-0.745771 0.0865,-0.04605 1.25044,-0.09702 2.95878,-0.129571 l 2.81626,-0.05367 0.42158,0.166421 c 0.45567,0.179887 0.83568,0.488653 1.02805,0.83534 0.11134,0.20064 0.12407,1.267976 0.15751,13.206017 l 0.0364,12.987733 0.4546,1.928152 0.45461,1.928151 1.47354,1.436273 c 1.69125,1.64847 1.38069,1.476694 3.7655,2.082688 1.80214,0.45793 1.98899,0.469265 7.86132,0.476927 4.35892,0.0057 4.5598,0.01183 4.76581,0.14564 0.27496,0.178596 0.40368,0.356501 0.55506,0.767123 0.11169,0.302973 0.12143,1.182112 0.11851,10.698457 -10e-4,5.702598 -0.0238,12.545718 -0.049,15.206927 -0.044,4.64453 -0.0516,4.850153 -0.19128,5.127586 -0.0807,0.16032 -0.2589,0.35471 -0.40018,0.43656 -0.24849,0.14396 -0.38349,0.14808 -5.56617,0.16965 l -5.31151,0.0221 -2.03729,0.54417 -2.03729,0.54417 -1.47133,1.47102 -1.47134,1.471022 -0.56014,1.85538 -0.56013,1.85539 0.0202,11.65307 c 0.0157,9.06202 8.2e-4,11.71525 -0.0692,11.93271 -0.11827,0.36987 -0.405,0.66666 -0.72324,0.74864 -0.14198,0.0365 -1.61693,0.0878 -3.27769,0.11382 l -3.01956,0.0473 -0.32742,-0.16955 c -0.255,-0.13205 -0.37264,-0.25806 -0.53185,-0.56973 l -0.20444,-0.40019 0.0225,-10.95045 c 0.0124,-6.02274 0.0428,-18.432022 0.0675,-27.576188 z m -0.0143,52.751297 c 0.0682,-0.44987 0.25503,-0.77379 0.53439,-0.92646 0.2143,-0.11712 0.55393,-0.13041 3.81794,-0.14935 l 3.58272,-0.0208 0.033,-0.16111 c 0.0182,-0.0887 0.0476,-0.99603 0.0656,-2.0165 l 0.0327,-1.85539 0.49093,-1.23693 c 0.27001,-0.68031 0.54368,-1.291 0.60817,-1.35707 0.0645,-0.0661 0.70787,-0.36895 1.42976,-0.67304 l 1.31251,-0.55288 7.45512,0 c 7.16565,0 7.46382,0.005 7.67922,0.13693 0.12325,0.0751 0.28676,0.26331 0.36334,0.4181 0.13529,0.27347 0.14071,0.71525 0.19176,15.59751 0.0587,17.13317 0.0936,15.88401 -0.45331,16.26301 l -0.29468,0.2042 -7.47355,0.029 -7.47355,0.0289 -1.34607,-0.60946 -1.34607,-0.60948 -0.5457,-1.23199 -0.5457,-1.23199 -0.0364,-2.14643 -0.0364,-2.14643 -3.65583,0.0294 c -3.33583,0.0268 -3.68005,0.0185 -3.9325,-0.0954 -0.52452,-0.23653 -0.48706,0.35845 -0.49753,-7.90133 -0.005,-4.10187 0.0129,-7.60528 0.0401,-7.78536 z m 0.10252,28.7754 c 0.13663,-0.29941 0.56965,-0.66573 0.90611,-0.76654 0.20403,-0.0612 1.12014,-0.0668 3.44981,-0.0216 3.02224,0.0589 3.17972,0.0686 3.3351,0.20729 0.37841,0.33768 0.36127,-0.24242 0.36127,12.22938 l 0,11.61558 0.5936,2.02544 0.59359,2.02544 1.5454,1.49067 c 1.2247,1.18133 1.60356,1.50594 1.82569,1.5643 0.15416,0.0405 1.03897,0.25548 1.96624,0.47775 l 1.68595,0.40412 5.26024,0 c 6.08305,0 5.78102,-0.0306 6.01805,0.60947 0.13301,0.35918 0.14078,0.9264 0.2127,15.53057 0.0449,9.11292 0.0483,15.25334 0.009,15.3974 -0.0938,0.34 -0.36397,0.71569 -0.59411,0.82636 -0.15205,0.0731 -1.44258,0.10934 -5.69308,0.15964 l -5.49646,0.0651 -1.50748,0.47118 c -0.82911,0.25915 -1.68882,0.52322 -1.91045,0.58684 -0.38611,0.11081 -0.46211,0.17886 -1.819,1.62839 l -1.41606,1.51275 -0.49113,1.85574 -0.49113,1.85574 0.002,2.7609 c 10e-4,1.51849 0.0476,7.17689 0.10285,12.57423 0.1158,11.30818 0.15704,10.49261 -0.56411,11.15733 -0.30064,0.27712 -0.36088,0.30117 -0.87553,0.34939 -0.30397,0.0285 -1.67514,0.0376 -3.04705,0.0204 -2.93568,-0.0371 -2.89266,-0.0279 -3.25517,-0.68689 -0.15012,-0.2729 -0.25726,-0.59619 -0.29794,-0.89907 -0.035,-0.26011 -0.096,-8.59301 -0.13586,-18.51753 -0.0954,-23.7891 -0.14189,-33.44169 -0.22382,-46.42114 -0.14407,-22.82439 -0.15787,-31.85026 -0.0491,-32.0887 z m 0.39737,109.70905 c 0.26356,-0.29903 0.28643,-0.3086 0.99735,-0.41745 0.50348,-0.0771 1.65773,-0.1285 3.74716,-0.16689 l 3.01955,-0.0554 0.0405,-1.6735 c 0.036,-1.48818 0.0619,-1.75887 0.23397,-2.44452 0.11189,-0.44578 0.3586,-1.12238 0.5849,-1.604 l 0.39139,-0.83297 1.23002,-0.56925 1.23002,-0.56926 7.7126,-0.0631 7.7126,-0.0631 0.18805,0.20494 0.18805,0.20494 0.0484,3.29849 c 0.0266,1.81417 0.0484,4.62521 0.0484,6.24675 0,2.8474 -0.005,2.95906 -0.15298,3.26426 -0.0841,0.17379 -0.26746,0.40331 -0.4074,0.51006 -0.24045,0.1834 -0.31503,0.197 -1.35681,0.24731 -0.60631,0.0293 -6.49556,0.0557 -13.08723,0.0586 l -11.98485,0.005 -0.25329,-0.25328 c -0.1393,-0.13931 -0.28755,-0.37669 -0.32944,-0.52751 -0.0453,-0.16312 -0.075,-1.12918 -0.0735,-2.38428 l 0.002,-2.11006 0.26976,-0.30605 z m 9.6662,-237.603789 c 0.10648,-11.124927 0.0815,-10.591298 0.50796,-10.870557 0.18813,-0.123206 0.37188,-0.131063 2.49813,-0.106788 1.74517,0.01994 2.34091,0.04981 2.48647,0.124718 0.28251,0.145392 0.55761,0.505664 0.65121,0.852844 0.0608,0.225841 0.0683,3.213248 0.0284,11.412263 l -0.054,11.106343 -0.15933,0.317044 c -0.0877,0.174372 -0.23874,0.358204 -0.33578,0.408513 -0.13297,0.06894 -0.73195,0.08686 -2.432,0.07276 -2.21027,-0.01835 -2.2634,-0.02225 -2.64545,-0.194769 -0.57884,-0.261396 -0.66831,-0.514214 -0.65442,-1.849072 0.005,-0.566943 0.0549,-5.639929 0.10879,-11.273301 z m 0.0168,62.302569 c 0.0776,-0.14006 0.248,-0.31713 0.37865,-0.39349 0.22531,-0.13167 0.35849,-0.13635 2.58509,-0.091 1.29114,0.0263 2.43308,0.0804 2.53763,0.12019 0.11206,0.0426 0.24092,0.18447 0.31391,0.34557 0.11466,0.25314 0.1238,1.0179 0.1238,10.35064 0,8.2541 -0.0176,10.10807 -0.0968,10.24722 -0.0532,0.0934 -0.23333,0.23188 -0.40018,0.30763 -0.27692,0.12573 -0.50415,0.13788 -2.60792,0.13933 l -2.30456,0.001 -0.21901,-0.18427 c -0.12045,-0.10142 -0.25201,-0.28963 -0.29235,-0.41838 -0.0469,-0.14964 -0.0889,-3.83014 -0.11635,-10.20227 -0.0421,-9.77032 -0.0402,-9.97323 0.0981,-10.22283 z m 0.0357,68.30082 c 0.15207,-0.93079 -0.0388,-0.87038 2.87771,-0.91034 2.74623,-0.0376 2.71249,-0.0426 2.96151,0.43895 0.11036,0.2134 0.12401,1.11117 0.15759,10.36435 0.0411,11.32026 0.082,10.4108 -0.47517,10.5763 -0.18385,0.0546 -1.03427,0.0735 -2.60147,0.0575 -2.05308,-0.0208 -2.35591,-0.0386 -2.56154,-0.15107 -0.16897,-0.0924 -0.24323,-0.1926 -0.26959,-0.36381 -0.02,-0.12995 -0.0543,-2.72468 -0.0763,-5.76607 -0.022,-3.04139 -0.0547,-7.36336 -0.0726,-9.60438 -0.0247,-3.08599 -0.01,-4.21213 0.06,-4.6415 z m 0.24174,70.52606 c 0.0406,-0.53818 0.0881,-0.65252 0.33386,-0.80235 0.22117,-0.13485 0.37738,-0.14299 2.74475,-0.14299 2.361,0 2.52407,0.009 2.743,0.14193 0.16126,0.0983 0.25662,0.23049 0.31039,0.43017 0.0538,0.19968 0.0717,3.64881 0.0583,11.22662 l -0.0194,10.93837 -0.16268,0.30429 c -0.0894,0.16737 -0.19974,0.32721 -0.24505,0.35521 -0.22684,0.1402 -0.77146,0.16016 -2.8072,0.10296 -2.44572,-0.0687 -2.48831,-0.0773 -2.68143,-0.5395 -0.081,-0.19374 -0.12092,-2.15369 -0.21219,-10.40234 -0.10912,-9.8561 -0.11477,-10.91697 -0.0624,-11.61234 z m 20.8746,-230.759663 c 0.17919,-0.324947 0.46977,-0.614561 0.77322,-0.770645 0.26268,-0.135117 0.62107,-0.138859 13.29201,-0.138859 l 13.02206,0 0.14023,0.20009 c 0.0771,0.110052 0.19732,0.374189 0.26709,0.586977 0.11324,0.345345 0.12411,0.667025 0.1012,2.996061 -0.0294,2.991136 10e-4,2.853656 -0.71546,3.220061 l -0.39132,0.200092 -2.66089,0.0089 c -1.4635,0.005 -3.0047,0.02946 -3.42489,0.05457 l -0.76398,0.04566 -0.0371,1.78263 -0.037,1.782633 -0.47669,1.205486 c -0.26218,0.66302 -0.5654,1.321799 -0.67383,1.463955 -0.16279,0.213424 -0.43462,0.364711 -1.55997,0.868183 l -1.36282,0.609719 -7.3488,0.01864 c -8.32959,0.02112 -7.71179,0.06461 -8.01702,-0.564341 -0.15867,-0.326953 -0.15895,-0.336774 -0.20267,-6.839481 -0.0402,-5.972635 -0.0339,-6.530137 0.0766,-6.730337 z m 0.0981,51.385678 c 0.1173,-0.133598 0.37851,-0.332838 0.58046,-0.442756 l 0.3672,-0.199853 5.29451,0.07084 5.29452,0.07083 1.60115,-0.507606 c 0.88064,-0.279184 1.75598,-0.557376 1.94521,-0.618209 0.30048,-0.09659 0.52172,-0.296903 1.74625,-1.581041 l 1.40219,-1.470438 0.50165,-2.029984 0.50165,-2.029988 -0.0538,-12.609256 -0.0538,-12.609258 0.19482,-0.509861 c 0.23046,-0.603108 0.65778,-1.032295 1.14747,-1.152484 0.20939,-0.05139 1.20149,-0.05575 3.08556,-0.01353 2.25263,0.05047 2.81733,0.08311 2.99088,0.172852 0.22077,0.114163 0.4592,0.564448 0.56319,1.063628 0.0292,0.140066 0.0979,0.342518 0.15279,0.4499 0.0832,0.162751 0.0997,1.972735 0.0993,10.877683 -2.2e-4,5.875345 0.0173,13.842065 0.0392,17.703824 0.0358,6.354017 0.0817,17.681658 0.22641,55.819562 l 0.048,12.63624 -0.18514,0.31511 c -0.1911,0.32525 -0.41924,0.52674 -0.84662,0.74775 -0.2289,0.11836 -0.4646,0.12387 -3.20147,0.0749 -3.31467,-0.0593 -3.32348,-0.0607 -3.65646,-0.59628 l -0.17104,-0.27512 -0.0463,-3.81991 c -0.0255,-2.10096 -0.0502,-7.33971 -0.0548,-11.64168 l -0.009,-7.82173 -0.5448,-1.99954 -0.5448,-1.99952 -1.47342,-1.474752 c -1.22458,-1.22567 -1.52885,-1.49275 -1.80155,-1.58141 -0.18048,-0.0586 -1.10495,-0.32061 -2.0544,-0.58212 l -1.72628,-0.47545 -5.37624,0 c -5.34185,0 -5.37748,-8.2e-4 -5.56942,-0.15195 -0.10626,-0.0836 -0.2442,-0.25064 -0.30657,-0.37125 -0.33169,-0.641423 -0.31862,0.0148 -0.31946,-16.045453 l -5.5e-4,-15.149825 z m 0.0132,148.863845 c 0.0388,-7.26964 0.0816,-10.68531 0.13553,-10.8488 0.0433,-0.13123 0.16251,-0.3171 0.26487,-0.41302 l 0.18613,-0.17442 5.38417,0.0254 5.38419,0.0254 1.97648,-0.48623 1.97648,-0.48622 1.60681,-1.63484 1.60681,-1.63485 0.5222,-1.97894 0.52218,-1.97896 0.0542,-11.67805 c 0.0515,-11.07414 0.061,-11.69057 0.18597,-11.92025 0.26046,-0.4789 0.31078,-0.48539 3.76008,-0.48539 l 3.09232,0 0.36193,0.18189 c 0.31177,0.1567 0.38521,0.23736 0.52987,0.58209 l 0.16793,0.40018 -0.0386,13.0605 c -0.0212,7.18326 -0.0583,29.05505 -0.0825,48.60395 l -0.0439,35.54346 -0.16713,0.37459 c -0.13124,0.29415 -0.24292,0.41912 -0.52015,0.58207 l -0.35304,0.20752 -2.90664,-0.0241 c -2.67057,-0.0221 -2.92836,-0.0351 -3.17411,-0.16053 -0.30427,-0.15522 -0.58356,-0.4624 -0.81677,-0.89833 l -0.16024,-0.29952 0.0263,-12.80584 0.0264,-12.80584 -0.47989,-1.81172 c -0.26393,-0.99645 -0.52889,-1.88049 -0.58879,-1.96453 -0.06,-0.084 -0.72347,-0.78366 -1.47462,-1.55472 l -1.36572,-1.40191 -1.92814,-0.56261 -1.92816,-0.56263 -5.5076,-0.0364 -5.5076,-0.0363 -0.26504,-0.25466 c -0.14577,-0.14006 -0.32765,-0.37615 -0.40418,-0.52461 -0.16058,-0.31153 -0.16191,-0.77482 -0.0582,-20.16288 z m 0.26625,-79.91912 c 0.30945,-0.39598 0.26165,-0.39236 6.08663,-0.46061 2.96433,-0.0346 6.28736,-0.0774 7.38448,-0.095 2.32341,-0.0371 2.21284,-0.0605 3.78967,0.80142 l 0.90951,0.49717 0.5191,0.9696 c 0.28551,0.53329 0.54578,1.10628 0.57838,1.27332 0.0327,0.16702 0.0609,1.17681 0.063,2.24395 0.002,1.06715 0.0309,1.96755 0.0643,2.00091 0.0333,0.0333 1.72499,0.0606 3.75917,0.0606 l 3.69853,0 0.19746,0.18191 c 0.42353,0.39016 0.40469,0.01 0.40663,8.22013 l 0.002,7.55113 -0.18677,0.36859 c -0.10274,0.20272 -0.24446,0.40217 -0.31495,0.44322 -0.0827,0.0482 -1.39997,0.0755 -3.71641,0.0769 -2.33007,0.001 -3.63758,0.0286 -3.72897,0.0776 -0.13407,0.0717 -0.14075,0.17318 -0.14075,2.14002 l 0,2.0647 -0.47483,1.11601 c -0.26115,0.6138 -0.55118,1.1841 -0.64448,1.26732 -0.0933,0.0833 -0.78141,0.42208 -1.52911,0.753 l -1.35945,0.6017 -7.29593,-0.0538 c -8.29956,-0.0612 -7.83664,-0.0257 -8.06318,-0.61699 -0.11657,-0.3042 -0.12505,-1.35788 -0.12723,-15.82387 -0.002,-14.5755 0.005,-15.50755 0.12338,-15.65883 z m 0.0873,140.64284 0.0384,-1.69186 0.20119,-0.25196 c 0.35805,-0.44844 0.24664,-0.44105 6.31086,-0.41813 6.39289,0.0242 8.51265,0.0918 9.31333,0.29744 0.30014,0.077 0.7557,0.162 1.01236,0.18877 0.52847,0.0551 1.17042,0.346 1.47517,0.6685 0.10758,0.11384 0.3695,0.56714 0.58208,1.00734 l 0.38651,0.80036 0.0364,2.47385 0.0364,2.47386 0.43657,-0.002 c 0.24011,-0.002 1.90261,-0.0304 3.69446,-0.0641 3.65781,-0.0689 3.4003,-0.10175 3.69293,0.47159 0.11637,0.228 0.1378,0.53824 0.17834,2.583 l 0.0461,2.32387 -0.20427,0.3638 c -0.37461,0.66716 1.00154,0.60795 -13.5836,0.5845 -14.46626,-0.0233 -13.18518,0.0309 -13.5392,-0.57311 l -0.18473,-0.31522 0.0162,-4.61389 c 0.009,-2.53764 0.0334,-5.37523 0.0546,-6.30575 z m 10.9797,-241.994978 c 0.33655,-0.464585 0.3923,-0.473671 2.74677,-0.447612 1.95625,0.02164 2.12349,0.0338 2.42837,0.176402 0.18008,0.08423 0.39291,0.226776 0.47294,0.316767 0.16231,0.182501 0.15719,-0.106403 0.28958,16.337741 l 0.0551,6.839481 -0.22545,0.306605 c -0.4124,0.560863 -0.29772,0.540436 -2.89534,0.515766 -2.60233,-0.02473 -2.65317,-0.03427 -2.90755,-0.546315 -0.13235,-0.26642 -0.1378,-0.67636 -0.15599,-11.742179 L 53.868714,32.92347 Z m 0.13587,73.064928 c 0.1012,-0.28678 0.18875,-0.39675 0.41898,-0.5263 0.28571,-0.16079 0.33588,-0.16382 2.73865,-0.16498 2.77333,-0.001 2.71907,-0.0122 2.82475,0.56567 0.0308,0.16881 0.0615,4.7679 0.0681,10.2202 0.0113,9.37647 0.004,9.92697 -0.11763,10.16648 -0.0713,0.13926 -0.23295,0.32224 -0.35933,0.40661 -0.21706,0.1449 -0.3533,0.15589 -2.4592,0.19851 -2.56503,0.0519 -2.66827,0.037 -2.90597,-0.42178 -0.14109,-0.27226 -0.15392,-0.45538 -0.19868,-2.83765 -0.0263,-1.40063 -0.068,-5.85358 -0.0927,-9.89542 -0.042,-6.89343 -0.0369,-7.37126 0.083,-7.71134 z m -0.0547,145.75805 0.0371,-7.98344 0.16565,-0.16573 c 0.16511,-0.16519 0.17377,-0.16579 2.69213,-0.18763 1.38958,-0.0121 2.63539,-0.002 2.76848,0.0226 0.46337,0.085 0.44156,-0.6106 0.36472,11.64105 -0.0756,12.0459 -0.0533,11.47268 -0.46329,11.91452 l -0.18569,0.20009 -2.38338,0 -2.38338,0 -0.27496,-0.28158 c -0.1628,-0.16673 -0.30167,-0.39674 -0.34045,-0.56389 -0.0361,-0.15527 -0.0584,-1.7066 -0.0497,-3.44739 0.009,-1.7408 0.0325,-6.75763 0.0528,-11.14852 z m 0.20068,-76.02749 0.0204,-2.15547 0.30177,-0.20924 0.30179,-0.20924 2.11643,-0.0201 c 2.7962,-0.0266 3.06927,0.0543 3.23663,0.96002 0.0674,0.36506 -0.0362,19.43242 -0.10813,19.89104 -0.0207,0.13182 -0.13134,0.34465 -0.24592,0.47293 l -0.20832,0.23326 -2.24343,0.022 c -1.2339,0.0121 -2.35056,0.002 -2.48147,-0.0218 -0.13092,-0.0242 -0.35193,-0.14385 -0.49114,-0.26607 l -0.2531,-0.22223 0.0171,-8.15983 c 0.01,-4.4879 0.0262,-9.12978 0.0375,-10.31529 z"
         style="fill:#999999;fill-opacity:1;stroke-width:0.07276041" />
    </g>
    <g
       id="layer1-4"
       inkscape:label="Layer 1"
       transform="matrix(0.07621436,0.13749434,-0.13749436,0.07621437,2764.9836,48.1221)"
       style="display:inline;fill:#999999;fill-opacity:1">
      <path
         inkscape:connector-curvature="0"
         id="path6743-8"
         d="m 4.315804,32.486347 c 0.190643,-0.342812 12.687468,-8.364485 13.059461,-8.382825 0.140651,-0.0069 0.348947,0.0598 0.462869,0.148283 0.281094,0.218336 4.066554,6.473756 4.228062,6.98681 0.09375,0.297825 0.102729,0.47333 0.03306,0.645889 -0.0682,0.16885 -1.158636,0.902066 -3.793911,2.551052 l -3.698239,2.314097 -0.845581,0.03474 c -1.412521,0.05815 -2.231421,-0.420387 -3.015996,-1.762307 -0.257252,-0.440014 -0.50844,-0.798787 -0.558193,-0.79728 -0.04973,0.002 -0.625402,0.328243 -1.279228,0.726074 C 8.254276,35.348709 7.450561,35.777602 7.122082,35.903972 6.58477,36.110671 6.491523,36.121484 6.192791,36.011706 5.91203,35.908537 5.754556,35.708995 5.173363,34.719847 4.247554,33.144196 4.126004,32.827597 4.315803,32.486294 Z m 5.271004,8.527478 c 0.168207,-0.237407 2.515117,-1.848566 2.933038,-2.013533 0.465198,-0.183623 0.708677,-0.13868 1.052689,0.194345 0.287732,0.278539 6.655591,11.054997 7.090998,12.000255 0.373893,0.811704 0.614015,1.124502 1.594129,2.076596 l 0.868769,0.843948 0.742989,0.129574 c 0.40865,0.07127 1.082483,0.114752 1.497427,0.09663 1.148367,-0.05015 2.020387,-0.438476 4.940557,-2.200216 1.824056,-1.100457 2.61704,-1.528476 2.850672,-1.538673 0.347982,-0.0152 0.650312,0.216898 1.077161,0.826925 0.40362,0.576829 8.760659,15.044824 8.835662,15.296613 0.04463,0.149806 0.01782,0.332345 -0.0708,0.481328 -0.197787,0.332668 -1.375744,1.164324 -3.54607,2.503589 -1.593544,0.983335 -1.952122,1.251098 -2.640937,1.972071 l -0.797038,0.834246 -0.270323,1.172583 -0.270327,1.172593 0.266252,1.03855 c 0.334838,1.306054 0.761368,2.114937 4.443145,8.42623 1.647027,2.823337 2.785483,4.875003 2.823717,5.088803 0.05146,0.2878 0.02092,0.40489 -0.155857,0.59575 -0.378507,0.40886 -2.944557,1.95462 -3.268234,1.96875 -0.551568,0.0241 -0.912536,-0.31488 -1.63053,-1.53106 -0.368863,-0.6248 -1.534394,-2.605862 -2.59008,-4.40236 C 31.421041,79.337739 27.559194,72.770932 18.159535,56.792665 9.586987,42.220404 9.635852,42.306039 9.554653,41.712036 c -0.04717,-0.345083 -0.0353,-0.603009 0.03215,-0.698211 z m 5.624729,-1.74048 c 0.04228,-0.12144 0.301021,-0.378024 0.574965,-0.570183 1.374161,-0.963935 2.033361,-1.140254 2.558787,-0.6844 0.265182,0.230073 6.336022,10.235124 6.751635,11.12707 0.200082,0.429365 0.236967,0.855136 0.09898,1.142429 -0.132729,0.276336 -2.151482,1.338703 -2.579365,1.357387 -0.412616,0.01802 -0.506088,-0.07616 -1.247651,-1.257122 -0.776039,-1.235841 -6.092724,-10.454585 -6.172614,-10.702852 -0.03389,-0.105336 -0.02698,-0.290887 0.01523,-0.412327 z m 4.768839,-16.912102 c 0.193099,-0.238378 12.537225,-8.145392 12.729376,-8.15378 0.07351,-0.0029 0.155336,-0.04463 0.181843,-0.09203 0.02651,-0.04741 0.159577,-0.06989 0.295705,-0.04998 0.197673,0.02892 0.394006,0.270496 0.975189,1.199905 0.898738,1.437263 1.168934,2.30753 0.877107,2.825023 -0.06196,0.109879 -0.802907,0.654329 -1.64653,1.20989 -0.843634,0.555566 -1.532388,1.044296 -1.530565,1.086065 0.0013,0.04178 0.223476,0.491678 0.492553,0.999788 0.430985,0.813813 0.503019,1.032982 0.604898,1.840283 0.132952,1.053429 0.125865,1.077247 -0.612994,2.059761 -0.474095,0.63044 -0.566484,0.695038 -4.061632,2.839667 -3.755581,2.304436 -4.000502,2.418097 -4.352681,2.020009 -0.09765,-0.110368 -1.056357,-1.707117 -2.130474,-3.548333 -2.050315,-3.514593 -2.173804,-3.801724 -1.821795,-4.236268 z m 11.537732,6.479127 c 0.588621,-0.54367 1.58678,-1.228464 2.000232,-1.372269 0.323466,-0.112508 0.423975,-0.112005 0.615499,0.0031 0.25454,0.152968 6.944583,11.193138 7.172888,11.836992 0.07608,0.214522 0.118679,0.462773 0.09469,0.551664 -0.05044,0.186819 -2.500074,1.655475 -2.781754,1.667776 -0.103598,0.0043 -0.287383,-0.118748 -0.408419,-0.273927 -0.44561,-0.571307 -6.92816,-11.505404 -6.989158,-11.788588 -0.05394,-0.25036 -0.01089,-0.341294 0.296029,-0.624739 z m 3.937037,20.151165 c 0.04852,-0.112118 0.201971,-0.282819 0.341011,-0.379339 0.139032,-0.09652 1.51327,-1.020398 3.053842,-2.053059 2.549726,-1.709095 2.836144,-1.928504 3.192162,-2.445341 0.749947,-1.088703 0.944127,-2.930029 0.464923,-4.40866 -0.297316,-0.917422 -0.383798,-1.070575 -4.565247,-8.085105 -2.432224,-4.080136 -3.519811,-5.989428 -3.528781,-6.19487 -0.0071,-0.163336 0.05951,-0.388344 0.148101,-0.500018 0.08859,-0.111675 0.846007,-0.60841 1.683143,-1.103861 1.676109,-0.991978 2.027347,-1.094852 2.47112,-0.723762 0.136576,0.114205 4.010385,6.576218 8.608461,14.360027 9.552622,16.171067 14.487175,24.513976 18.513741,31.301404 1.54932,2.611621 2.819804,4.814165 2.823313,4.894531 0.01778,0.407099 -1.202877,1.36765 -2.827,2.22459 -0.723928,0.381969 -1.040732,0.412938 -1.388038,0.135689 -0.243605,-0.194459 -2.136606,-3.338218 -5.711679,-9.485525 -1.50221,-2.583041 -1.565912,-2.674602 -2.461841,-3.538669 l -0.91973,-0.887018 -0.938534,-0.221399 c -0.516205,-0.121773 -1.063662,-0.215933 -1.216597,-0.209256 -0.152925,0.0067 -0.897873,0.216125 -1.655432,0.465454 -1.287211,0.423635 -1.513558,0.537575 -3.457514,1.740555 -1.144079,0.707984 -2.21662,1.36444 -2.383416,1.458797 -0.361584,0.204534 -0.798432,0.239556 -1.011736,0.0811 -0.122433,-0.09093 -6.23453,-10.377938 -8.775794,-14.770139 -0.533,-0.921219 -0.62801,-1.264412 -0.458478,-1.656129 z m 1.758342,27.312056 c 0.122474,-0.21077 0.481712,-0.468635 1.209112,-0.867893 1.12811,-0.619207 1.384111,-0.654352 1.782401,-0.244667 0.29631,0.304773 5.827228,9.580391 6.004887,10.070474 0.247648,0.683133 0.120472,0.876755 -1.099934,1.674629 -0.944183,0.617287 -1.548745,0.748022 -1.878982,0.406296 -0.402127,-0.416097 -6.170931,-10.185916 -6.181576,-10.468847 -0.0058,-0.148568 0.06824,-0.405071 0.164092,-0.569992 z m 5.826433,21.603631 c 0.114059,-0.13996 0.909453,-0.68155 1.767544,-1.20351 0.85809,-0.52197 1.59608,-0.98823 1.639959,-1.03611 0.04458,-0.0486 -0.08659,-0.34451 -0.297365,-0.67065 -0.522894,-0.80908 -0.794269,-1.56534 -0.849605,-2.36767 l -0.04709,-0.68275 0.5115,-0.79756 c 0.493006,-0.76873 0.551733,-0.82207 1.62408,-1.47507 2.879871,-1.7537 6.347009,-3.748943 6.528256,-3.756852 0.448464,-0.01958 0.729698,0.37851 2.515278,3.560362 0.986022,1.75705 3.044991,5.30301 4.575496,7.8799 2.88569,4.858638 2.930391,4.951018 2.603873,5.381358 -0.13104,0.17271 -5.590744,3.56589 -6.627358,4.11888 -0.938637,0.50073 -1.681557,0.65091 -2.46611,0.49855 -0.410648,-0.0798 -0.601553,-0.19905 -1.147027,-0.71683 -0.396434,-0.3763 -0.801535,-0.88413 -1.02768,-1.2883 -0.205324,-0.36693 -0.433582,-0.71215 -0.507247,-0.76716 -0.102047,-0.0762 -0.539363,0.14648 -1.83665,0.93526 -0.936497,0.5694 -1.811762,1.03984 -1.945034,1.04542 -0.579891,0.0242 -0.747542,-0.20187 -3.011592,-4.06229 -1.519159,-2.590348 -2.186749,-3.815448 -2.196535,-4.030928 -0.0081,-0.18447 0.06974,-0.41241 0.193316,-0.56405 z m 8.503129,14.601598 c 0.149847,-0.21111 3.294005,-2.16115 3.49899,-2.1701 0.0869,-0.004 0.269777,0.0866 0.406389,0.20075 0.24434,0.20426 3.525726,5.79262 5.789416,9.85967 0.872024,1.56671 1.253783,2.15925 1.558383,2.41875 2.088337,1.77917 2.272471,1.87058 3.672537,1.82308 1.424957,-0.0483 2.556073,-0.53036 5.524455,-2.3543 1.089653,-0.66955 2.127831,-1.25156 2.307091,-1.29336 0.476892,-0.11119 0.773923,0.14059 1.343591,1.13896 0.267964,0.46961 1.571492,2.6806 2.896722,4.9133 5.213549,8.7835 5.033219,8.42641 5.200381,10.29807 0.05464,0.61182 0.06719,1.35414 0.02788,1.64958 -0.0393,0.29548 -1.579207,5.12577 -3.422009,10.734 -3.459602,10.52873 -3.501603,10.64037 -4.010373,10.66258 -0.09828,0.004 -0.584102,-0.12876 -1.079582,-0.29566 -1.601748,-0.53956 -3.005123,-0.52913 -4.137077,0.0308 -0.560505,0.27722 -1.35432,1.07925 -1.704011,1.72165 -0.167086,0.30694 -0.798068,2.02168 -1.40219,3.81055 -0.604115,1.78885 -1.582185,4.65006 -2.173493,6.35824 -0.591294,1.70818 -1.361072,3.94127 -1.7106,4.96242 -0.349529,1.02113 -0.726956,1.96618 -0.838736,2.10013 -0.322549,0.38648 -0.68301,0.33284 -2.653608,-0.39499 -2.217734,-0.8191 -2.219763,-0.82103 -1.918831,-1.82224 0.117035,-0.38938 2.439611,-7.3399 5.161277,-15.44561 2.721669,-8.1057 5.043154,-15.12714 5.158852,-15.60317 0.293689,-1.20832 0.255819,-1.57309 -0.286938,-2.76423 -0.250543,-0.54984 -2.197542,-3.96067 -4.326663,-7.5796 -3.888903,-6.61014 -11.569387,-19.68132 -12.47773,-21.23552 -0.505346,-0.86467 -0.631613,-1.40321 -0.404133,-1.72373 z m 2.003724,-46.407269 c 0.343428,-0.329094 2.177367,-1.335355 2.449995,-1.344281 0.402368,-0.01321 0.557354,0.127355 0.986716,0.894691 0.592512,1.058885 5.521603,9.245875 5.626101,9.344679 0.05129,0.04849 0.100133,0.245756 0.108548,0.43835 0.02066,0.473044 -0.260765,0.744162 -1.466,1.412318 -1.046875,0.580373 -1.319724,0.646099 -1.650531,0.397576 -0.117587,-0.08833 -1.557813,-2.438412 -3.200516,-5.222401 -3.130244,-5.305015 -3.246146,-5.545436 -2.854313,-5.920932 z m 8.940004,158.580239 c 0.481468,-2.83291 0.940332,-5.291 1.019704,-5.46241 0.268118,-0.57909 0.484796,-0.59828 1.55446,-0.13755 1.412229,0.60824 2.538281,0.69266 3.868208,0.28996 0.877634,-0.26575 1.510507,-0.61057 2.442938,-1.33104 0.827787,-0.6396 1.260841,-1.18159 1.808604,-2.26355 0.512733,-1.01279 0.746587,-1.82572 0.954353,-3.31766 0.198221,-1.42339 0.299754,-1.60583 0.90622,-1.62838 0.434225,-0.016 10.27148,1.70483 10.7895,1.88757 0.294373,0.10384 0.471894,0.32866 0.484324,0.61334 0.0042,0.0969 -0.245873,0.90814 -0.555778,1.80285 -0.309917,0.89469 -0.632731,1.89193 -0.717373,2.21608 -0.454998,1.7424 -0.340585,4.03513 0.315047,6.31353 0.353875,1.22972 0.503079,1.58046 1.137506,2.67402 1.473004,2.53905 2.473389,3.66322 5.693048,6.39755 1.012897,0.86023 1.121423,1.07942 0.798034,1.61199 -0.318439,0.52442 -4.856525,5.52914 -5.128698,5.65606 -0.256014,0.11938 -0.366106,0.0958 -1.241796,-0.26601 -0.528483,-0.21837 -1.115546,-0.43645 -1.304575,-0.48466 -1.169851,-0.29829 -3.990508,-0.26106 -5.289247,0.0699 -0.997884,0.25424 -1.20495,0.35704 -2.200397,1.09266 -1.112577,0.82217 -2.192546,2.06944 -2.768629,3.19752 -0.553842,1.08456 -0.811346,1.32895 -1.273689,1.20886 -0.348732,-0.0906 -4.44956,-2.44899 -4.833062,-2.77952 -0.435152,-0.37503 -0.421221,-0.76721 0.07414,-2.08589 0.427761,-1.13876 0.448612,-1.24337 0.45576,-2.28632 0.0067,-0.98174 -0.01972,-1.16625 -0.260087,-1.81326 -0.353534,-0.95176 -1.136107,-2.00022 -2.325754,-3.11598 -0.901362,-0.84539 -1.012691,-0.91781 -1.91943,-1.24854 -0.820145,-0.29913 -1.104723,-0.35418 -1.923346,-0.37194 -1.248189,-0.0272 -1.404598,-0.11304 -1.422103,-0.78134 -0.0074,-0.27884 0.380648,-2.82482 0.862124,-5.65773 z M 56.331189,84.280701 c 0.178545,-0.157696 7.16339,-4.51773 7.402805,-4.620924 0.46142,-0.198877 1.68432,-0.365667 1.907016,-0.2601 0.666673,0.316039 1.524428,1.212681 2.159594,2.257513 0.209565,0.344721 0.432261,0.624527 0.494885,0.621793 0.06263,-0.0028 0.899293,-0.498093 1.859267,-1.100795 0.959977,-0.602702 1.839433,-1.099925 1.954357,-1.104943 0.114912,-0.0049 0.301926,0.06329 0.415581,0.151789 0.279505,0.217661 4.470578,7.33733 4.642843,7.887118 0.253103,0.80782 0.227365,0.83717 -1.720643,1.96173 -0.963695,0.55634 -1.751131,1.03542 -1.749857,1.06461 0.0012,0.0293 0.220149,0.39948 0.4864,0.82282 0.448383,0.71295 0.492583,0.83737 0.599362,1.68719 0.169042,1.34534 0.12112,1.55606 -0.549904,2.41842 -0.359669,0.46223 -0.774939,0.74498 -3.828231,2.60648 -1.883637,1.14841 -3.563021,2.166188 -3.731972,2.261738 -0.360817,0.20409 -0.696881,0.16123 -0.978966,-0.12486 -0.109329,-0.11087 -1.369072,-2.204288 -2.799427,-4.652048 -1.430362,-2.44775 -3.513125,-5.97505 -4.628359,-7.83846 -1.988148,-3.321915 -2.213652,-3.792715 -1.934751,-4.039071 z m 1.307146,26.602429 c 0.342954,-0.32865 2.177841,-1.33549 2.455951,-1.34763 0.190311,-0.009 0.37698,0.0746 0.547806,0.24313 0.258643,0.25525 5.370139,8.79195 5.815816,9.71298 0.423014,0.87419 0.373969,0.96518 -0.999754,1.85495 -1.016385,0.65832 -1.51554,0.77975 -1.850113,0.45009 -0.121712,-0.11993 -0.688868,-1.02791 -1.260341,-2.01772 -0.571472,-0.9898 -1.155765,-1.96934 -1.298427,-2.17675 -1.154098,-1.67779 -3.546537,-5.93247 -3.564272,-6.33865 -0.0054,-0.12325 0.06361,-0.29443 0.153334,-0.3804 z m 7.541748,66.01631 c 0.01872,-0.13433 0.634972,-1.97469 1.369464,-4.0897 2.172794,-6.25663 2.789185,-7.98236 2.965935,-8.3038 0.286757,-0.5215 0.529404,-0.51531 1.979149,0.0504 1.089746,0.42525 1.316625,0.54952 1.404954,0.76953 0.09198,0.22912 -0.177087,1.06573 -2.121781,6.59697 -1.224922,3.48401 -2.285195,6.43474 -2.35616,6.55716 -0.238786,0.41192 -0.536414,0.40388 -1.809034,-0.0489 -1.415542,-0.50361 -1.55498,-0.6527 -1.432527,-1.53168 z m 7.572761,6.22405 c 0.722872,-2.25606 3.495914,-10.19061 3.610055,-10.32951 0.244245,-0.2972 0.666609,-0.23592 1.332385,0.19334 1.457206,0.9395 1.406419,0.92622 3.204888,0.83843 1.534246,-0.0749 1.635255,-0.0923 2.499842,-0.42896 2.140068,-0.83346 2.878905,-1.49699 3.606344,-3.23877 0.465194,-1.11385 0.533321,-1.41662 0.648627,-2.88231 0.04503,-0.57254 0.116997,-0.6838 0.511682,-0.79112 0.180709,-0.0492 1.62454,-0.11992 3.208526,-0.15734 3.206388,-0.0757 3.112078,-0.093 3.312798,0.60344 0.0592,0.20521 0.10285,0.87585 0.0971,1.49031 -0.0161,1.71712 0.35718,3.17042 1.15919,4.51337 0.89522,1.49905 1.35806,2.02415 2.6003,2.95007 1.29108,0.96233 2.014019,1.35157 3.347769,1.80248 1.39256,0.4708 2.47679,0.63534 3.81816,0.57946 1.26583,-0.0528 1.56984,-0.12642 2.93073,-0.71036 1.21902,-0.52305 2.27898,-1.11981 3.1193,-1.75616 0.57121,-0.43253 0.84835,-0.75015 1.53818,-1.76269 1.61385,-2.36883 1.91018,-3.26094 1.89964,-5.719 -0.005,-1.3806 0.0145,-1.58319 0.17512,-1.74154 0.16304,-0.1607 0.41838,-0.1893 2.47323,-0.27702 1.26029,-0.0537 2.67889,-0.0786 3.15246,-0.0553 1.16147,0.0573 1.2337,0.12726 1.28433,1.24312 0.0443,0.97649 0.3297,1.88163 0.92871,2.94546 0.66883,1.18789 2.6376,2.70553 3.93826,3.03585 0.24604,0.0625 1.0451,0.17825 1.7757,0.25729 1.64925,0.1784 2.03327,0.10615 3.39448,-0.63857 1.05297,-0.57608 1.30744,-0.61369 1.57902,-0.23341 0.16407,0.22974 2.40366,6.07219 3.42993,8.94768 0.34578,0.96887 0.64384,1.96086 0.66232,2.20442 0.0315,0.41483 0.0127,0.45447 -0.29821,0.6272 -0.24737,0.13746 -0.5707,0.19486 -1.27041,0.22552 -0.79881,0.0349 -1.02807,0.0836 -1.53946,0.32622 -1.15365,0.54736 -2.6401,1.95643 -3.07247,2.91254 -0.14235,0.31477 -0.37547,0.97856 -0.51805,1.47508 -0.56137,1.9548 -0.23379,4.4436 0.83851,6.37064 0.34623,0.62219 0.35118,1.06189 0.0148,1.32416 -0.14478,0.11292 -2.46273,0.98247 -5.15101,1.93233 -2.68827,0.94986 -5.03995,1.79856 -5.22596,1.88598 -0.41276,0.19403 -0.86704,0.22419 -1.00347,0.0667 -0.0557,-0.0644 -0.16089,-0.78966 -0.23373,-1.61187 -0.23769,-2.68293 -0.55855,-3.62024 -2.08114,-6.07984 l -1.05357,-1.70191 -1.52395,-1.22032 c -2.06314,-1.65207 -2.49587,-1.94235 -3.84478,-2.5791 -1.82292,-0.86051 -3.20058,-1.2576 -5.27314,-1.5199 -1.80917,-0.22897 -2.88821,-0.14938 -4.99381,0.36838 -3.072179,0.75545 -4.498649,1.47074 -6.684669,3.35193 -1.742428,1.49948 -2.409387,2.24759 -3.310815,3.71368 -0.997002,1.62151 -1.655599,4.06669 -1.578169,5.85929 0.02211,0.50629 -0.01638,0.74785 -0.158779,1.00243 -0.265198,0.47418 -0.512864,0.51315 -1.308038,0.20584 -0.372385,-0.14394 -2.674205,-0.96914 -5.11517,-1.83378 -4.86766,-1.72425 -4.85185,-1.7181 -5.124394,-1.99405 -0.258382,-0.26161 -0.193753,-0.6309 0.312598,-1.78633 0.772416,-1.76255 1.023903,-3.82564 0.641327,-5.26119 -0.428352,-1.6073 -1.199658,-2.99871 -2.083609,-3.75875 -0.909059,-0.78162 -2.276511,-1.39134 -3.04523,-1.35777 -0.441001,0.0192 -1.421469,-0.2269 -1.55666,-0.39081 -0.182661,-0.22146 -0.181665,-0.8609 0.0022,-1.4349 z m 1.252449,-82.14435 c 0.229941,-0.29889 2.280974,-1.569908 2.552482,-1.581758 0.125212,-0.005 0.328233,0.0895 0.451155,0.21108 0.122935,0.12156 0.951448,1.472788 1.841159,3.002738 0.889702,1.52994 2.222759,3.78812 2.962345,5.01816 1.441195,2.39693 1.576393,2.75048 1.161156,3.03663 -0.116659,0.0804 -0.657954,0.42041 -1.202885,0.75562 -1.047236,0.64419 -1.474997,0.75952 -1.753574,0.47282 -0.08712,-0.0897 -1.302729,-2.12316 -2.701341,-4.51888 -1.398614,-2.39572 -2.749259,-4.70924 -3.001428,-5.14114 -0.515371,-0.88269 -0.534845,-0.9618 -0.309069,-1.25527 z m 2.934841,18.28859 c 0.08976,-0.0848 0.30227,-0.20756 0.472243,-0.2729 0.464632,-0.17865 4.955806,-2.84766 5.278101,-3.13665 0.42542,-0.3815 1.335648,-1.54647 1.513719,-1.93739 0.08689,-0.19072 0.232908,-0.75671 0.324501,-1.25774 l 0.166537,-0.91097 -0.300691,-1.1224 c -0.26336,-0.98304 -0.412384,-1.31648 -1.200186,-2.68539 -1.626651,-2.82651 -1.940176,-3.3613 -2.032023,-3.4661 -0.182578,-0.20834 -3.931706,-6.530118 -4.052467,-6.833278 -0.132059,-0.33154 -0.07324,-0.6735 0.149147,-0.8671 0.06967,-0.0606 0.821963,-0.52213 1.671751,-1.0255 1.578735,-0.93515 2.06867,-1.10538 2.359275,-0.81966 0.07021,0.0691 0.830794,1.31836 1.690164,2.77627 0.859371,1.45792 5.265118,8.909888 9.790557,16.559928 9.477118,16.02062 8.631718,14.77661 10.421558,15.3357 0.59273,0.18516 1.1591,0.33309 1.25857,0.32876 0.0994,-0.004 0.651,-0.1659 1.22566,-0.35899 l 1.04481,-0.3511 0.90756,-0.97224 0.90757,-0.97226 7.11623,-12.68543 c 3.91392,-6.97699 8.03147,-14.31638 9.15011,-16.309768 1.11864,-1.99337 2.14596,-3.77807 2.28292,-3.96597 0.16695,-0.22905 0.33096,-0.34524 0.49768,-0.35251 0.37943,-0.0166 3.79932,1.93397 3.93247,2.2429 0.12272,0.28473 0.0397,0.54835 -0.3435,1.09002 -0.13892,0.19641 -1.66001,2.858588 -3.38017,5.915958 l -3.12757,5.55885 -0.28256,1.24087 c -0.15542,0.68249 -0.27842,1.33594 -0.27335,1.45214 0.005,0.11619 0.14242,0.67869 0.30521,1.25002 0.29325,1.02914 0.30175,1.04416 0.92073,1.62723 0.9908,0.93333 2.06911,1.64497 4.41635,2.91457 1.2034,0.65092 2.26624,1.22387 2.36186,1.27322 0.0956,0.0493 0.17801,0.18511 0.18311,0.30166 0.006,0.11657 -1.38551,2.67862 -3.09022,5.69343 -4.66362,8.24774 -5.0778,9.01977 -5.54743,10.34002 l -0.41868,1.17697 0.0577,1.32366 0.0578,1.32365 1.66892,5.06511 c 0.91792,2.78581 2.07927,6.30533 2.58078,7.82116 0.52546,1.5882 0.90486,2.88835 0.89536,3.0683 -0.0134,0.25383 -0.086,0.35006 -0.38804,0.51418 -0.35892,0.19504 -0.49553,0.20332 -4.01927,0.2438 -2.00625,0.0231 -5.06794,0.041 -6.80376,0.0399 -1.73582,-10e-4 -10.40749,0.0529 -19.270359,0.12009 -14.229346,0.1078 -16.152267,0.1045 -16.438787,-0.0284 -0.357244,-0.16576 -0.48431,-0.44506 -0.412696,-0.90708 0.02582,-0.16657 1.135562,-3.8294 2.466111,-8.13965 l 2.41919,-7.83683 0.01752,-1.06894 c 0.01521,-0.92891 -0.01012,-1.13134 -0.19333,-1.54526 -0.115964,-0.26198 -0.249326,-0.66952 -0.296348,-0.90566 -0.0813,-0.40821 -5.258506,-9.49789 -7.806529,-13.70599 -0.539191,-0.89048 -0.984121,-1.70547 -0.988731,-1.81107 -0.0046,-0.1056 0.06505,-0.26136 0.15483,-0.3461 z M 91.800792,243.21 c 1.538672,-1.52709 2.922219,-2.84404 3.074549,-2.92659 0.36183,-0.19604 0.42489,-0.16755 2.07673,0.93809 2.34089,1.56684 4.225009,2.35205 6.700889,2.79259 2.30357,0.40988 3.99806,0.29943 6.45828,-0.42094 1.67484,-0.4904 2.73639,-0.9996 4.3935,-2.10748 0.7856,-0.52522 1.53131,-0.98559 1.65713,-1.02309 0.15504,-0.0462 0.33177,-0.001 0.5483,0.14144 0.37652,0.24695 5.4896,5.19898 5.67484,5.49608 0.0697,0.11187 0.13437,0.34099 0.14361,0.50915 0.0144,0.26189 -0.10648,0.43272 -0.8428,1.19088 -2.14553,2.20932 -3.70943,3.32537 -6.32006,4.51024 -2.64717,1.20145 -4.87769,1.70471 -8.1868,1.84713 -2.44884,0.10527 -3.64677,0.0512 -5.05954,-0.22924 -3.770609,-0.74833 -6.925849,-2.13522 -9.784387,-4.30071 -1.124521,-0.85189 -1.571531,-1.26733 -2.351232,-2.18513 -0.529493,-0.6233 -0.96675,-1.20586 -0.971672,-1.29458 -0.0049,-0.0895 1.235125,-1.39601 2.788663,-2.93784 z m 7.167989,-13.73773 c 0.74934,-1.20308 1.434879,-2.24759 1.523399,-2.32114 0.279,-0.23181 0.51952,-0.16873 1.64175,0.43056 2.01967,1.07854 3.18198,1.32053 4.60632,0.95906 0.89443,-0.22699 2.33242,-0.83248 2.82904,-1.19122 0.56614,-0.40895 0.76884,-0.42828 1.16375,-0.11095 0.41432,0.33294 2.87606,4.22987 2.97577,4.71067 0.0591,0.28456 0.0209,0.36689 -0.33538,0.72593 -0.45874,0.46216 -1.76351,1.45741 -2.53263,1.93184 -0.28604,0.17646 -1.02447,0.4974 -1.64095,0.71323 -2.20183,0.77083 -4.74452,0.76509 -6.96669,-0.0157 -1.30148,-0.45731 -2.02369,-0.85608 -3.089129,-1.70563 -1.1843,-0.94434 -1.51039,-1.29674 -1.52536,-1.64841 -0.01,-0.21556 0.34002,-0.85653 1.35011,-2.4782 z m 19.480939,4.25963 c 0.0887,-0.11123 0.56221,-0.52333 1.05246,-0.91578 2.36543,-1.89353 3.65942,-3.26295 4.65879,-4.9304 1.17387,-1.95859 1.63602,-3.1719 2.05275,-5.38923 0.18866,-1.00383 0.20292,-1.30988 0.13147,-2.82182 -0.0903,-1.9114 -0.21849,-2.44984 -1.20625,-5.06792 -0.39429,-1.04511 -0.48763,-1.38723 -0.40351,-1.47904 0.11155,-0.12173 10.51668,-2.08389 11.26545,-2.12439 0.69092,-0.0374 0.91586,0.33098 0.97217,1.59196 0.0614,1.3741 1.04336,3.70505 2.03599,4.83273 0.95501,1.08493 2.94639,2.245 4.34755,2.53263 0.58101,0.11926 0.7873,0.11795 1.50442,-0.01 0.45709,-0.0813 1.18524,-0.29486 1.6181,-0.4746 0.43286,-0.17974 0.88719,-0.33116 1.00963,-0.33652 0.26602,-0.0114 0.61797,0.30852 0.76843,0.69893 0.16814,0.43628 2.06447,11.37148 2.00356,11.55356 -0.096,0.28722 -0.37847,0.36394 -1.5238,0.41394 -1.2762,0.0557 -2.31105,0.29358 -2.8855,0.66325 -1.2838,0.8261 -2.80381,2.69668 -3.30186,4.06339 -0.261,0.71621 -0.27008,0.80297 -0.19813,1.89122 0.0687,1.0407 0.11348,1.23777 0.51018,2.25069 0.48725,1.2441 0.53342,1.56242 0.29766,2.05222 -0.14663,0.30458 -0.40205,0.46352 -2.48164,1.54419 -2.42764,1.26153 -2.8616,1.40771 -3.24247,1.09213 -0.10461,-0.0867 -0.46082,-0.62547 -0.79168,-1.19739 -1.97377,-3.41182 -4.35104,-4.74029 -8.47221,-4.73447 -1.47339,0.002 -2.17506,0.13754 -3.12644,0.60356 -0.7239,0.35457 -1.30626,0.42088 -1.6083,0.18311 -0.23123,-0.18204 -4.02638,-4.36516 -4.68976,-5.16919 -0.47673,-0.57781 -0.56705,-0.97825 -0.29706,-1.31718 z m 7.19892,-96.93663 c 0.12841,-1.08252 0.71603,-2.72681 1.34648,-3.76781 0.28239,-0.46629 1.9849,-3.46839 3.78335,-6.6713 1.79845,-3.20292 3.33262,-5.9027 3.40927,-5.99951 0.24471,-0.3091 0.62228,-0.22308 1.74838,0.39828 0.59534,0.32851 1.35086,0.7399 1.67891,0.91421 0.32807,0.1743 0.99965,0.56201 1.49241,0.86159 0.66431,0.40387 1.21113,0.63934 2.11523,0.91082 0.67062,0.20137 1.37743,0.35766 1.57068,0.3473 0.19325,-0.01 0.81594,-0.14223 1.38372,-0.29306 l 1.03234,-0.27423 0.83551,-0.83241 c 0.45951,-0.45783 0.97316,-1.04196 1.14141,-1.29806 0.16826,-0.25612 1.73717,-3.01891 3.48649,-6.13958 1.74931,-3.12065 3.26288,-5.75399 3.3635,-5.85184 0.10065,-0.0979 0.28058,-0.18219 0.39989,-0.1874 0.20483,-0.009 3.3768,1.63574 3.75465,1.9468 0.3693,0.30402 0.24667,0.59205 -1.76529,4.1463 -14.76184,26.07777 -15.59532,27.57044 -15.73838,28.18567 -0.26048,1.12028 -0.11466,1.6665 2.84883,10.67184 0.44183,1.34262 2.45082,6.82638 4.46442,12.18613 4.3863,11.67531 4.25125,11.30415 4.19243,11.52203 -0.0576,0.21346 -0.31444,0.32833 -2.39307,1.07041 -1.85979,0.66396 -2.03932,0.67363 -2.34773,0.1266 -0.10978,-0.19465 -1.56197,-4.03058 -3.22717,-8.5243 -3.24239,-8.74985 -3.33919,-8.9715 -4.32028,-9.89172 -0.75533,-0.70845 -1.00398,-0.81831 -2.14989,-0.94974 -1.20694,-0.13844 -1.90724,-0.0594 -2.90031,0.32752 -1.03056,0.40147 -1.3089,0.38293 -1.64082,-0.10934 -0.16813,-0.24934 -6.34271,-17.1598 -7.2241,-19.78484 -0.35827,-1.06701 -0.46355,-2.00613 -0.34086,-3.04039 z m 2.99198,-32.923 c 1.58985,-2.79324 2.95909,-5.136238 3.04274,-5.206638 0.0837,-0.0704 0.25839,-0.13267 0.38831,-0.13835 0.21235,-0.009 2.08935,0.97478 2.52732,1.32497 0.22517,0.180048 0.24572,0.652208 0.0462,1.056588 -0.26532,0.53715 -5.54108,9.82746 -5.68676,10.01405 -0.26826,0.34358 -0.67444,0.23853 -1.88415,-0.48733 -0.63071,-0.37845 -1.18097,-0.73648 -1.22279,-0.7956 -0.25622,-0.36229 -0.0806,-0.7254 2.78935,-5.76769 z m 4.66568,-20.723567 c 1.20984,-2.152497 2.24807,-3.977354 2.30717,-4.055249 0.15496,-0.204222 0.73212,-0.315069 1.02485,-0.19682 0.13702,0.05535 0.98856,0.533611 1.89233,1.062816 1.31506,0.770029 1.66005,0.933925 1.72744,0.820622 0.0463,-0.07787 0.28818,-0.532847 0.53747,-1.011073 0.40132,-0.76986 0.52653,-0.921568 1.09279,-1.323964 0.99814,-0.709303 1.03986,-0.72703 1.71475,-0.72834 0.79173,-0.0015 0.91327,0.05439 4.16301,1.91585 4.4788,2.565448 4.88805,2.83164 4.90368,3.189555 0.006,0.116242 -0.35372,0.834384 -0.7973,1.595859 -0.44359,0.761475 -2.54495,4.426173 -4.66969,8.143763 -2.12474,3.71761 -3.96019,6.83002 -4.07877,6.91648 -0.17742,0.12936 -0.2626,0.1382 -0.48102,0.0499 -0.41678,-0.16834 -7.19974,-3.969 -7.56067,-4.23642 -0.45983,-0.34069 -1.22227,-1.26483 -1.30725,-1.58451 -0.15112,-0.56842 0.11901,-1.57293 0.6994,-2.60088 0.30239,-0.53557 0.54724,-1.03276 0.54408,-1.10487 -0.002,-0.0722 -0.77902,-0.5781 -1.72417,-1.1244 -1.95799,-1.131724 -2.16888,-1.285845 -2.17989,-1.593163 -0.004,-0.12188 0.98193,-1.98275 2.19179,-4.135237 z m 4.18063,81.736227 c 0.23967,-0.22799 2.56249,-1.08666 2.78038,-1.02784 0.10219,0.0276 0.25901,0.12422 0.34835,0.21468 0.2268,0.22962 4.78505,12.49804 4.80436,12.93078 0.009,0.19398 -0.0565,0.4479 -0.14497,0.56423 -0.17219,0.22667 -2.15365,1.07631 -2.55046,1.09364 -0.50424,0.022 -0.45513,0.13666 -3.72665,-8.69863 -0.90989,-2.45735 -1.65882,-4.56998 -1.66426,-4.69478 -0.006,-0.12479 0.0635,-0.29674 0.15325,-0.38208 z m 5.88279,-99.672859 c 1.98513,-3.531523 5.61813,-10.004478 8.0733,-14.384343 2.45517,-4.379881 4.67222,-8.296442 4.92677,-8.703486 1.02592,-1.640523 1.66782,-2.75132 7.3449,-12.71017 3.24718,-5.696251 5.96361,-10.42498 6.03651,-10.508275 0.0873,-0.09978 0.29658,-0.153615 0.61336,-0.157801 0.41595,-0.0056 0.65197,0.08767 1.75013,0.6908 1.95695,1.074808 2.2395,1.391085 1.8994,2.126064 -0.0807,0.174446 -1.90478,3.373991 -4.05345,7.110095 l -3.90668,6.792923 -0.30656,1.169669 -0.30656,1.169665 0.35326,1.277628 0.35325,1.277626 0.84067,0.774853 c 0.71982,0.66349 1.23231,0.998132 3.5657,2.328288 2.87555,1.639236 3.3088,1.976392 3.17526,2.471026 -0.0972,0.360382 -0.84531,1.703024 -5.12053,9.191158 -2.22034,3.888948 -4.14536,7.19571 -4.27784,7.348362 -0.46586,0.536828 -0.65905,0.472819 -3.56118,-1.17984 l -2.61346,-1.488265 -1.36062,-0.236362 -1.36061,-0.236354 -1.08069,0.306674 c -0.59438,0.168674 -1.17279,0.359849 -1.28535,0.424834 -0.11257,0.06499 -0.6004,0.506863 -1.08406,0.981948 l -0.8794,0.863805 -3.212,5.6753 c -3.72386,6.579665 -3.83271,6.759603 -4.12301,6.814918 -0.20207,0.0385 -0.90603,-0.329478 -3.02296,-1.5802 -0.62536,-0.369478 -0.98295,-0.755238 -0.98576,-1.063439 -2.8e-4,-0.06939 1.62306,-3.015582 3.60821,-6.547101 z m -0.51348,53.331529 c 0.45576,-0.94392 5.74047,-9.94632 5.98066,-10.18798 0.15261,-0.15354 0.33475,-0.28167 0.40474,-0.28472 0.22558,-0.01 2.13709,1.07727 2.40295,1.36659 0.14155,0.15404 0.26262,0.40083 0.26907,0.54843 0.016,0.36444 -5.81015,10.54299 -6.15932,10.76079 -0.22008,0.13727 -0.28491,0.13666 -0.62326,-0.005 -0.47653,-0.20071 -1.95076,-1.09523 -2.15302,-1.3064 -0.26108,-0.27261 -0.29624,-0.52966 -0.12182,-0.89087 z m 6.19665,-24.622368 c 2.07056,-3.63128 4.16573,-7.320037 4.6559,-8.197254 0.93035,-1.664949 1.1686,-1.948727 1.5513,-1.847769 0.12422,0.03278 1.83922,0.942546 3.81112,2.021723 1.9719,1.079177 3.65962,1.987018 3.7505,2.01741 0.0909,0.0304 0.44821,0.39932 0.79407,0.81984 l 0.62885,0.76456 -0.0242,0.82236 c -0.0272,0.91982 -0.21316,1.48086 -0.81373,2.45403 -0.20415,0.33079 -0.36932,0.64379 -0.36706,0.69554 0.002,0.0517 0.83737,0.57073 1.85579,1.15325 1.076,0.61546 1.89726,1.14864 1.9605,1.27278 0.19289,0.37865 0.16308,0.43638 -3.92849,7.607178 -0.65245,1.14348 -0.78641,1.27911 -1.2883,1.30443 -0.10769,0.005 -1.00197,-0.50115 -1.9874,-1.12573 -0.98542,-0.62458 -1.82615,-1.13409 -1.8683,-1.13226 -0.0421,0.002 -0.35257,0.4633 -0.68984,1.02546 -0.47911,0.7986 -0.7561,1.14145 -1.26669,1.56779 l -0.65349,0.54568 -0.8406,-0.007 -0.84058,-0.007 -3.81503,-2.0921 c -2.09827,-1.15065 -3.93866,-2.17145 -4.08977,-2.26843 -0.55479,-0.35606 -0.58391,-0.2939 3.46548,-7.395548 z m -1.64501,-23.304683 c 2.79027,-4.908808 4.40495,-7.691238 4.58741,-7.905081 0.27937,-0.327396 0.63392,-0.279975 1.60636,0.214849 1.03836,0.528358 1.68888,1.087774 1.609,1.383657 -0.10384,0.384618 -5.73518,10.400473 -6.00102,10.673349 -0.45184,0.463813 -0.74855,0.4067 -1.94531,-0.37441 -0.99916,-0.652154 -1.2949,-0.934777 -1.31653,-1.258188 -0.005,-0.08142 0.65159,-1.311803 1.46009,-2.734176 z m 16.05217,12.022901 c 0.80847,-1.575105 5.65174,-10.125011 5.85179,-10.330278 0.14953,-0.153397 0.37246,-0.2833 0.49542,-0.288668 0.25968,-0.01132 1.92124,0.891736 2.41754,1.313957 0.20697,0.176075 0.34258,0.380554 0.34894,0.526145 0.0114,0.266286 -5.81595,10.558123 -6.15378,10.867916 -0.30935,0.283679 -0.69253,0.188001 -1.78069,-0.444653 -1.17072,-0.680658 -1.46399,-1.089615 -1.17922,-1.644419 z m 3.36756,3.737224 c 0.056,-0.10923 1.6189,-2.883379 3.47306,-6.164696 1.85416,-3.281318 3.4447,-6.127127 3.53456,-6.324013 0.0899,-0.196885 0.29905,-0.810513 0.4649,-1.363604 l 0.30155,-1.00564 -0.29085,-1.079181 c -0.15997,-0.593546 -0.3165,-1.152833 -0.34786,-1.24285 -0.12633,-0.362718 -2.01703,-1.682256 -4.29713,-2.998989 -1.31495,-0.759382 -2.56576,-1.505284 -2.77956,-1.65756 -0.419,-0.298422 -0.72097,-0.813337 -0.64405,-1.098243 0.0263,-0.0972 1.84191,-3.343389 4.03483,-7.213753 2.19292,-3.870355 4.22983,-7.47164 4.52648,-8.002843 0.29666,-0.53121 0.63174,-1.068182 0.74462,-1.193283 0.39666,-0.43958 0.6313,-0.358548 3.43046,1.184692 1.43556,0.79145 2.76058,1.492541 2.94452,1.55798 0.18394,0.06545 0.8717,0.239497 1.52837,0.386782 l 1.19394,0.267789 1.09546,-0.365029 1.09547,-0.365041 1.01834,-1.126805 c 0.93181,-1.031054 1.12417,-1.31709 2.26371,-3.366077 2.608,-4.68936 6.19743,-10.91657 6.47391,-11.23139 0.46107,-0.525017 0.65935,-0.480313 2.57438,0.580401 0.92816,0.514101 1.77518,1.041978 1.88226,1.173062 0.16249,0.198905 0.18175,0.300572 0.11649,0.61457 -0.043,0.206924 -1.26902,2.459484 -2.72445,5.005687 -7.73021,13.523539 -10.86879,19.015387 -12.71991,22.257098 -10.6483,18.647608 -14.48257,25.330024 -14.64466,25.522884 -0.35777,0.42575 -0.71435,0.33925 -2.49459,-0.60511 -0.89333,-0.4739 -1.67047,-0.939621 -1.72697,-1.034947 -0.13786,-0.232595 -0.15339,-0.865909 -0.0273,-1.111902 z m 0.55142,-51.29621 c 0.12007,-0.336103 6.6934,-11.44704 6.90744,-11.675686 0.39336,-0.420198 0.62846,-0.398484 1.58882,0.14672 1.65742,0.940943 1.814,1.125817 1.52744,1.803637 -0.22068,0.522027 -6.24865,11.168413 -6.48254,11.44924 -0.10824,0.129971 -0.31757,0.305985 -0.46519,0.391138 -0.35906,0.20715 -0.61919,0.122026 -1.91487,-0.626546 -1.16473,-0.672919 -1.36208,-0.925919 -1.1611,-1.488503 z m 6.32432,-23.883354 c 0.29124,-0.487677 0.75175,-1.151458 1.02339,-1.4750671 0.4015,-0.478335 0.54076,-0.58324 0.74463,-0.560904 0.3178,0.03483 13.03581,7.1395281 13.63815,7.6187291 0.58286,0.463708 0.6192,0.818543 0.15628,1.525755 -0.17658,0.269756 -1.06774,1.805246 -1.98034,3.412206 -1.73742,3.059325 -1.91431,3.287834 -2.46063,3.178615 -0.14423,-0.02884 -1.96372,-1.033687 -4.0433,-2.233006 -4.09397,-2.361045 -4.26963,-2.493752 -4.63704,-3.503434 -0.16221,-0.445761 -0.17898,-0.6256 -0.11356,-1.218192 0.0672,-0.608886 0.15071,-0.817586 0.67233,-1.680393 0.32758,-0.541841 0.59376,-1.027499 0.59149,-1.07924 -0.002,-0.05173 -0.86787,-0.627883 -1.92357,-1.280312 -1.05571,-0.65243 -1.94994,-1.237729 -1.98717,-1.300665 -0.23328,-0.394276 -0.20226,-0.530659 0.31934,-1.404092 z m 11.39019,32.960501 c 0.97453,-1.786485 6.44217,-11.133534 6.60363,-11.28903 0.28737,-0.276755 0.66002,-0.191474 1.73579,0.397215 1.40439,0.768518 1.48703,0.831226 1.50046,1.138775 0.008,0.185449 -0.57924,1.301856 -1.86574,3.546398 -1.03265,1.801657 -2.5404,4.440832 -3.35056,5.86482 -0.81016,1.423997 -1.57406,2.691813 -1.69754,2.817372 -0.38024,0.386639 -0.65513,0.315087 -1.84893,-0.481269 -0.98285,-0.655627 -1.33347,-1.002925 -1.36351,-1.350585 -0.006,-0.05633 0.12401,-0.346003 0.2864,-0.643696 z m 2.72358,-18.723974 c 0.1859,-0.329425 1.17371,-1.975388 2.19513,-3.657693 1.25719,-2.07062 1.92468,-3.080283 2.0662,-3.125443 0.16109,-0.05139 1.84325,0.847899 7.32726,3.917146 3.91499,2.191123 7.14673,4.049584 7.18165,4.129915 0.0349,0.08033 0.0203,0.193069 -0.0322,0.250525 -0.0526,0.05745 -0.0932,0.162398 -0.0901,0.233194 0.002,0.07081 -0.29886,0.658083 -0.671,1.305081 -0.651,1.131796 -0.91302,1.414155 -1.32625,1.429189 -0.0909,0.0036 -1.03583,-0.45796 -2.10003,-1.025035 -1.06422,-0.567072 -1.98014,-1.027746 -2.03539,-1.02372 -0.0552,0.0042 -0.36194,0.431301 -0.68156,0.949509 -0.3196,0.518207 -0.73309,1.05611 -0.91886,1.195345 -0.18578,0.139235 -0.58852,0.443382 -0.895,0.675884 -0.54475,0.41327 -0.57047,0.421847 -1.14855,0.383001 -0.32524,-0.02186 -0.74632,-0.08664 -0.93575,-0.143933 -0.48706,-0.147336 -7.31256,-3.75771 -7.82791,-4.140609 -0.53112,-0.394614 -0.54557,-0.576221 -0.10758,-1.352356 z"
         style="fill:#999999;fill-opacity:1;stroke-width:0.09701388" />
    </g>
    <g
       id="layer1-8"
       inkscape:label="Layer 1"
       transform="matrix(0.11575984,0,0,0.11575985,2820.5533,51.6648)"
       style="fill:#999999;fill-opacity:1">
      <path
         inkscape:connector-curvature="0"
         id="path4495-0"
         d="m 17.998387,146.66709 c 0.196187,-0.077 8.405199,-0.0392 8.484419,0.0386 0.09375,0.0927 0.26194,6.76701 0.172792,6.85737 -0.04158,0.042 -2.000305,0.0588 -4.389754,0.0374 l -4.314605,-0.04 -0.04696,-3.41965 c -0.04212,-3.07011 -0.0329,-3.4253 0.09412,-3.47493 z m 0.342099,-30.6703 0.25289,-0.24569 3.090814,0.0899 c 3.829951,0.11147 6.931961,-0.0243 8.76802,-0.38349 2.071011,-0.40524 3.162092,-0.68939 3.876858,-1.00963 1.187492,-0.53203 1.636102,-0.66683 1.853404,-0.55683 0.675292,0.34178 0.698504,0.38048 3.320559,5.5331 3.565797,7.00714 5.5333,10.30389 8.641366,14.47946 0.736363,0.98928 1.546445,2.12377 1.800164,2.52109 0.434622,0.68058 0.455621,0.73938 0.362788,1.01568 -0.05416,0.16129 -0.164007,0.39472 -0.244015,0.51869 l -0.145468,0.22546 -2.32188,0.0771 c -2.204874,0.0733 -5.652116,0.29393 -6.508842,0.41658 -0.346264,0.0495 -5.772137,1.54046 -7.419526,2.03868 -0.372027,0.11247 -0.918886,0.39214 -1.450071,0.7415 -1.186969,0.78065 -4.485359,2.62685 -4.814275,2.69468 -0.211202,0.0433 -0.37328,-0.007 -0.727663,-0.22015 -0.375678,-0.22756 -0.588309,-0.47201 -1.207954,-1.38877 -0.413626,-0.61193 -1.105429,-1.54412 -1.53735,-2.07149 l -0.785325,-0.95892 -2.313107,-1.53306 c -1.272209,-0.84321 -2.37876,-1.5871 -2.458992,-1.6531 -0.13381,-0.11009 -0.151663,-0.94686 -0.215582,-10.10258 l -0.06969,-9.98251 z m 0.487485,47.59326 c 0.137726,-0.0987 1.179083,-0.75238 2.314129,-1.45313 1.135046,-0.70076 2.152969,-1.35551 2.262049,-1.45504 0.109077,-0.0994 0.853021,-1.11554 1.653207,-2.25785 0.845712,-1.20729 1.564942,-2.14489 1.71771,-2.23929 0.144551,-0.089 0.450142,-0.20866 0.679092,-0.26525 0.583657,-0.14436 0.560139,-0.15702 3.801453,2.0497 0.609253,0.4148 1.307096,0.88728 1.550778,1.04995 0.313822,0.20952 0.81676,0.39798 1.724346,0.64625 0.704711,0.19274 1.400623,0.3881 1.546465,0.43413 1.127614,0.35583 5.638883,1.57634 5.920347,1.60171 0.19417,0.0173 2.071308,0.0926 4.17143,0.16701 4.262476,0.15092 4.028348,0.10716 4.352542,0.81037 0.12393,0.26878 0.138584,0.38801 0.06488,0.52808 -0.05239,0.0994 -0.730013,1.03893 -1.50591,2.08763 -2.550418,3.4472 -3.198335,4.45644 -5.648641,8.79864 -2.235371,3.96133 -4.154515,7.72903 -5.261061,10.32866 -0.425917,1.0006 -0.641754,1.2535 -1.211313,1.41922 -0.393421,0.11448 -0.275369,0.14453 -2.141595,-0.54482 -2.137586,-0.78957 -3.142614,-0.96798 -6.863763,-1.21865 -2.214909,-0.14918 -3.063386,-0.15858 -6.29049,-0.07 l -2.144341,0.0596 -0.294161,-0.31568 -0.294161,-0.3157 -0.09219,-5.37027 c -0.05064,-2.95368 -0.130214,-7.37861 -0.176701,-9.83321 l -0.08455,-4.46266 z m 1.75517,-131.008371 c -0.0034,-4.53549 0.02857,-8.32595 0.071,-8.423273 0.04242,-0.09732 0.242138,-0.396367 0.443749,-0.664571 0.346195,-0.460519 3.968766,-5.841799 9.90231,-14.7097592 1.451106,-2.1687433 2.791774,-4.0930798 2.979258,-4.276293 0.634576,-0.6201055 0.484068,-0.6796963 5.540509,2.1938436 l 4.455729,2.5321649 7.60667,-0.058105 c 4.441247,-0.034006 7.752838,-0.024525 7.95793,0.022249 0.252468,0.05764 0.457158,0.1986433 0.727737,0.5012918 l 0.376468,0.4210929 0.02865,3.533705 c 0.03113,3.888889 9.05e-4,4.179897 -0.485168,4.707552 l -0.253008,0.274664 -4.441412,0.03102 c -4.598167,0.0321 -11.078342,0.218776 -11.357981,0.327177 -0.161039,0.06243 -4.544282,5.349759 -4.73423,5.710712 -0.105987,0.201395 -0.01832,15.59694 0.156698,27.543978 0.04408,3.007196 0.165694,14.322873 0.270355,25.145956 l 0.190185,19.678319 -0.22506,0.362072 c -0.397326,0.63927 -0.358212,0.632675 -3.901777,0.657025 -1.736479,0.01213 -5.492871,-0.02248 -8.347507,-0.07635 -4.734798,-0.08937 -5.218669,-0.112256 -5.514114,-0.260451 -0.178106,-0.08937 -0.396646,-0.24184 -0.485633,-0.33887 C 21.139665,96.975441 21.150591,97.335186 20.96172,78.220539 20.863399,68.277062 20.739562,55.795893 20.686483,50.484624 20.6333,45.173365 20.587156,37.11692 20.583692,32.581436 Z m 1.932946,169.632651 c 0.06337,-0.14596 0.248824,-0.36556 0.412076,-0.48794 l 0.29681,-0.22256 8.384551,-0.0824 8.384549,-0.0824 0.29551,0.19812 c 0.162527,0.10893 0.367303,0.2968 0.455037,0.41747 0.175993,0.24201 0.230959,4.26732 0.680454,49.82729 0.185509,18.80788 0.189411,19.0089 0.365816,19.27989 0.235269,0.36135 4.383985,5.05039 4.553853,5.14693 0.0724,0.041 3.3524,0.1071 7.288792,0.14669 3.936393,0.0395 7.285045,0.0927 7.441448,0.11838 0.329322,0.0539 0.774459,0.39539 0.949963,0.72906 0.09488,0.18045 0.133866,0.98935 0.1768,3.67048 0.05217,3.26073 0.04642,3.45186 -0.110652,3.68723 -0.371929,0.55704 0.04681,0.52912 -8.2478,0.54988 l -7.544374,0.0187 -3.68985,2.06401 c -4.811757,2.69154 -4.359691,2.47157 -5.005073,2.43502 -0.349218,-0.0197 -0.625309,-0.091 -0.784672,-0.20231 -0.317055,-0.2215 -12.828617,-17.42441 -13.232642,-18.19436 l -0.305541,-0.58228 -0.13414,-9.21563 c -0.13754,-9.44472 -0.737045,-56.23856 -0.742891,-57.98404 -0.002,-0.60746 0.03985,-1.06935 0.112004,-1.23556 z M 40.522964,110.4226 c 1.567165,-1.57342 2.238144,-2.39226 3.032665,-3.701 0.234797,-0.38679 0.706048,-1.14176 1.047214,-1.67772 0.891773,-1.40092 1.410785,-2.31451 2.288911,-4.02892 0.800634,-1.563133 0.962672,-1.793216 1.328887,-1.887074 0.83181,-0.213191 0.722304,-0.251099 2.882887,0.997934 3.207294,1.85412 7.797379,3.94909 11.307925,5.16103 1.170672,0.40418 2.267753,0.78441 2.437949,0.84502 l 0.309455,0.1102 0.0021,4.61604 0.0021,4.61607 -1.904195,2.04668 c -3.586873,3.85531 -3.288396,3.47724 -5.26551,6.6695 -0.991242,1.60048 -1.846384,3.0095 -1.900315,3.13115 -0.05395,0.12165 -0.533981,1.51409 -1.066793,3.09433 l -0.968736,2.87317 -0.332929,0.16576 c -0.637601,0.31744 -0.772093,0.2302 -2.152602,-1.39628 -3.053593,-3.59767 -4.489331,-5.5077 -6.618208,-8.80446 -0.608069,-0.94168 -1.4133,-2.16638 -1.789393,-2.7216 -0.376095,-0.55521 -0.95701,-1.50371 -1.290928,-2.1077 -0.333915,-0.60405 -1.043458,-1.85404 -1.576762,-2.7778 -0.53329,-0.92375 -0.969962,-1.72596 -0.970359,-1.7827 -3.85e-4,-0.0567 -0.0812,-0.2582 -0.179518,-0.44768 -0.121212,-0.23354 -0.180004,-0.51854 -0.182564,-0.88492 l -0.004,-0.54036 z m 0.277915,73.98066 c 0.672097,-1.29016 1.316839,-2.47274 1.432768,-2.62799 0.11592,-0.15521 0.210644,-0.30127 0.210481,-0.32453 -0.0016,-0.22915 3.868453,-6.10076 5.703002,-8.65252 1.27724,-1.77656 4.890415,-6.34168 5.07722,-6.41488 0.170349,-0.0667 0.670549,0.13513 0.868048,0.35032 0.176859,0.19274 0.323099,0.56596 1.371314,3.49987 0.432188,1.20968 0.861362,2.34615 0.953727,2.52552 0.09237,0.17932 0.168243,0.37108 0.168629,0.42614 9.83e-4,0.12385 0.911999,1.49211 2.817486,4.23103 1.50803,2.16761 2.233756,3.01969 5.081154,5.96576 l 1.177099,1.21792 0.03034,4.34602 c 0.02354,3.37019 0.0058,4.36629 -0.07925,4.43643 -0.155767,0.12847 -3.442524,1.3037 -4.5968,1.64363 -0.905791,0.26675 -4.535385,1.87172 -6.638348,2.93541 -1.005025,0.50833 -3.901813,2.182 -4.235001,2.44683 l -0.237819,0.18903 -0.570721,-0.23787 c -0.313891,-0.13083 -0.627517,-0.30392 -0.696934,-0.38467 -0.181345,-0.21087 -0.582284,-0.87969 -1.260317,-2.10222 -0.325728,-0.58738 -0.878591,-1.51405 -1.228567,-2.05936 -0.349986,-0.54531 -0.976448,-1.54361 -1.392132,-2.21848 -1.035803,-1.68157 -1.681444,-2.48288 -3.563592,-4.42277 -1.589577,-1.63833 -1.616716,-1.67269 -1.615254,-2.04461 0.0017,-0.31246 0.214075,-0.78633 1.223483,-2.72401 z M 52.537056,43.850326 c 0.241189,-0.151409 3.855809,2.869678 4.524682,3.781713 0.363924,0.496213 1.260114,2.130616 1.728072,3.151493 0.428021,0.933774 1.250109,3.712273 1.551988,5.245451 0.331368,1.68293 0.516634,4.28135 0.47078,6.602864 -0.02262,1.144827 -0.07912,2.458813 -0.125704,2.919959 -0.09437,0.935674 -0.536852,3.360711 -0.725052,3.973919 -0.06716,0.218756 -0.245727,0.835178 -0.39686,1.369816 -0.172571,0.610497 -0.537503,1.515218 -0.981112,2.432259 -0.921908,1.90582 -1.393347,2.696941 -1.809161,3.035893 -0.186573,0.152097 -0.616312,0.593366 -0.954976,0.980619 -0.338666,0.387255 -0.865467,0.920297 -1.170672,1.184543 -0.707869,0.612867 -1.73032,1.296402 -1.811697,1.211157 -0.09105,-0.09537 -0.39003,-35.833348 -0.300263,-35.889688 z m 1.371563,175.166004 c 0.142826,-0.0897 3.57576,2.7377 4.014552,3.3064 0.344333,0.44628 1.693043,2.76494 2.022036,3.47625 0.286312,0.61898 0.690323,1.94023 1.269731,4.15229 0.541094,2.0658 0.794758,6.20766 0.555822,9.0757 -0.176623,2.12011 -0.656531,4.42833 -1.287132,6.19065 -0.554808,1.55053 -1.630931,3.56756 -2.382887,4.46634 -0.59622,0.71265 -2.637066,2.54374 -3.138537,2.81599 -0.184109,0.1 -0.412638,0.23668 -0.50786,0.30391 -0.09524,0.0671 -0.223812,0.1226 -0.285779,0.12302 -0.09099,0.002 -0.135346,-3.24924 -0.230838,-16.92691 -0.07924,-11.34969 -0.08881,-16.94615 -0.02907,-16.98364 z M 67.493441,178.5049 c 0.108421,-0.10323 1.064297,-0.78737 2.124187,-1.52028 l 1.927054,-1.33256 1.132841,-0.1169 c 1.211449,-0.12495 11.710944,-0.14047 13.02968,-0.0194 l 0.661904,0.061 2.285114,1.56273 c 1.442804,0.98667 2.254461,1.5938 2.201943,1.64706 -0.132117,0.13396 -23.558191,0.14525 -23.559126,0.0113 -3.94e-4,-0.0579 0.08797,-0.18973 0.196401,-0.29298 z m -0.415346,-57.38699 c 0.214408,-0.0824 23.640072,0.11586 23.726377,0.20103 0.04866,0.0482 -0.83684,0.69615 -2.223224,1.6272 -3.007503,2.01975 -3.006658,2.01943 -5.388566,1.89906 -0.921974,-0.0464 -3.303607,-0.0932 -5.292518,-0.10283 -2.919031,-0.0152 -3.885349,-0.051 -5.01236,-0.18714 l -1.396174,-0.16881 -2.187684,-1.53419 c -2.494148,-1.74916 -2.392061,-1.66965 -2.225855,-1.73363 z m 0.573265,64.23487 c 0.16032,-0.29995 0.473775,-0.4323 3.476529,-1.46779 2.048188,-0.70631 2.784927,-0.91687 4.128333,-1.17999 0.899382,-0.17613 2.490991,-0.5041 3.536906,-0.72885 1.711935,-0.36785 2.125116,-0.42335 4.141358,-0.55629 2.494662,-0.16453 5.85307,-0.20668 8.457845,-0.10615 l 1.720296,0.0664 0.397436,-0.39389 0.397433,-0.39393 -0.04462,-29.03816 c -0.0245,-15.97093 -0.02725,-29.7372 -0.006,-30.59162 l 0.03855,-1.55353 -0.47792,-0.35321 -0.477915,-0.35322 -2.865976,0.062 c -2.448163,0.0536 -3.335415,0.0338 -6.086505,-0.13538 l -3.220558,-0.19797 -3.974868,-0.86236 -3.974866,-0.86234 -2.520023,-0.91993 c -1.848819,-0.67492 -2.590966,-0.98697 -2.786369,-1.17159 l -0.266352,-0.25165 -0.04805,-3.27236 -0.04805,-3.2724 0.323162,-0.47629 c 0.177735,-0.26196 0.366172,-0.47657 0.418741,-0.47691 0.0526,-2.9e-4 0.460013,0.0966 0.905435,0.21532 2.386138,0.63619 3.892032,0.89198 6.771507,1.15026 2.665232,0.23906 2.978746,0.24999 5.173845,0.18055 4.985471,-0.15777 8.425486,-0.44102 10.180863,-0.83843 0.24215,-0.055 1.210182,-0.36109 2.151163,-0.6806 1.865584,-0.63341 2.123653,-0.66014 2.527663,-0.26173 l 0.213232,0.21025 -0.02827,3.7735 -0.02827,3.77348 0.282662,0.32874 0.282661,0.32876 3.689312,-0.026 c 3.65689,-0.0254 3.69263,-0.0237 4.06292,0.17009 0.20549,0.10771 0.39245,0.24378 0.41545,0.30237 0.0417,0.10626 0.0513,45.37366 0.0129,60.7386 l -0.0202,8.10407 -0.2296,0.23224 -0.22962,0.23223 -3.59145,-0.006 c -3.835961,-0.006 -3.911075,0.002 -4.360081,0.43595 l -0.24092,0.23305 0.02532,3.62387 c 0.02194,3.14112 0.0072,3.65016 -0.110959,3.82135 -0.166945,0.24193 -0.572692,0.46409 -0.851067,0.46604 -0.113822,0.002 -1.018438,-0.27254 -2.010248,-0.60743 -1.786056,-0.60305 -1.821101,-0.61078 -3.661691,-0.80927 -3.333732,-0.35961 -6.038347,-0.53436 -8.784356,-0.5676 -4.237062,-0.0514 -7.103145,0.2416 -10.739729,1.09776 -0.646871,0.1523 -1.243193,0.27736 -1.325162,0.27791 -0.08199,2e-5 -0.297033,-0.14843 -0.477932,-0.3311 l -0.328908,-0.33217 -0.01975,-3.25943 c -0.01544,-2.64135 0.0043,-3.3032 0.104202,-3.49036 z m 20.140951,-22.26837 c 0.01385,-0.50945 0.05657,-1.65045 0.09479,-2.5356 l 0.06947,-1.60936 1.59191,-2.34904 c 0.875543,-1.29198 1.63245,-2.34933 1.681999,-2.34967 0.108881,-0.002 0.17363,23.72423 0.06463,23.83434 -0.03854,0.0389 -0.776308,-0.97257 -1.639453,-2.24816 l -1.56935,-2.31921 -0.106906,-1.66203 c -0.113278,-1.76225 -0.229579,-7.20686 -0.187123,-8.76127 z m 0.09732,-35.24556 0.104355,-1.2458 1.553753,-2.31565 c 0.854568,-1.27364 1.587222,-2.28267 1.628125,-2.24233 0.07816,0.0768 0.104515,23.80855 0.02655,23.88763 -0.09355,0.0946 -0.258106,-0.11468 -1.718924,-2.18812 l -1.49882,-2.12741 -0.06431,-0.70511 c -0.118794,-1.3023 -0.143318,-11.71915 -0.0307,-13.06321 z m 9.637387,61.1752 c 0.03831,-1.25634 0.04736,-1.30726 0.270534,-1.53328 0.133805,-0.13549 0.39245,-0.26617 0.615202,-0.31081 0.590187,-0.11833 5.961426,-0.1437 6.033696,-0.029 0.0327,0.0525 0.0463,2.37392 0.03,5.15926 -0.024,3.98974 -0.053,5.06458 -0.14162,5.06516 -0.12971,0.002 -6.57801,-2.84184 -6.743221,-2.97276 -0.116828,-0.0926 -0.147419,-2.65337 -0.06424,-5.37877 z m 0.06024,-83.62663 c 0.108644,-0.0714 1.324951,-0.66003 2.702902,-1.30803 1.37796,-0.64797 2.83248,-1.33548 3.23228,-1.52773 0.39979,-0.19228 0.79014,-0.35005 0.86748,-0.35057 0.12748,-0.002 0.14022,0.48086 0.13661,5.18058 -0.002,2.84987 -0.0346,5.25424 -0.0727,5.343 -0.0654,0.15286 -0.24226,0.16112 -3.32872,0.15569 l -3.259772,-0.006 -0.213452,-0.26311 -0.21345,-0.26309 -0.02435,-3.4154 -0.02435,-3.41543 0.197539,-0.12988 z"
         style="fill:#999999;fill-opacity:1;stroke-width:0.08819444" />
      <use
         height="100%"
         width="100%"
         transform="matrix(-1,0,0,1,211.7353,-0.02495)"
         id="use5063"
         xlink:href="#path4495-0"
         y="0"
         x="0"
         style="fill:#999999;fill-opacity:1" />
    </g>
  </g>
<g
     inkscape:groupmode="layer"
     id="layer14"
     inkscape:label="GrpL"
     sodipodi:insensitive="true"
     style="display:inline">
    <use
       style="display:inline"
       x="0"
       y="0"
       xlink:href="#layer1-4"
       id="use31234"
       transform="rotate(-112,2422.5601,1346.3301)"
       width="100%"
       height="100%" />
    <use
       style="display:inline"
       x="0"
       y="0"
       xlink:href="#layer1-8"
       id="use31236"
       transform="rotate(-23,5425.8539,5127.1961)"
       width="100%"
       height="100%" />
    <use
       height="100%"
       width="100%"
       transform="rotate(128,1585.9043,339.51147)"
       id="use31238"
       xlink:href="#layer1-4"
       y="0"
       x="0"
       style="display:inline" />
    <use
       style="display:inline"
       x="0"
       y="0"
       xlink:href="#layer1-4"
       id="use31240"
       transform="rotate(8,-8362.1861,-11661.965)"
       width="100%"
       height="100%" />
    <use
       style="display:inline"
       x="0"
       y="0"
       xlink:href="#g30866"
       id="use31242"
       transform="rotate(-116,2364.7017,1315.9641)"
       width="100%"
       height="100%" />
    <use
       height="100%"
       width="100%"
       transform="rotate(-116,2363.33,1339.6257)"
       id="use31244"
       xlink:href="#g30866"
       y="0"
       x="0"
       style="display:inline" />
    <use
       style="display:inline"
       x="0"
       y="0"
       xlink:href="#g30866"
       id="use31246"
       transform="rotate(-116,2384.6081,1329.1384)"
       width="100%"
       height="100%" />
    <use
       height="100%"
       width="100%"
       transform="rotate(-116,2403.7459,1317.817)"
       id="use31248"
       xlink:href="#g30866"
       y="0"
       x="0"
       style="display:inline" />
    <use
       style="display:inline"
       x="0"
       y="0"
       xlink:href="#g30866"
       id="use31250"
       transform="rotate(-116,2367.7845,1294.5553)"
       width="100%"
       height="100%" />
    <use
       height="100%"
       width="100%"
       transform="rotate(64,832.16891,-595.76128)"
       id="use31252"
       xlink:href="#g30866"
       y="0"
       x="0"
       style="display:inline" />
    <use
       style="display:inline"
       x="0"
       y="0"
       xlink:href="#g30866"
       id="use31254"
       transform="rotate(64,793.26701,-600.37108)"
       width="100%"
       height="100%" />
    <use
       height="100%"
       width="100%"
       transform="rotate(64,814.04031,-631.81268)"
       id="use31256"
       xlink:href="#g30866"
       y="0"
       x="0"
       style="display:inline" />
    <use
       style="display:inline"
       x="0"
       y="0"
       xlink:href="#g30866"
       id="use31258"
       transform="rotate(64,794.73411,-661.75478)"
       width="100%"
       height="100%" />
    <use
       height="100%"
       width="100%"
       transform="rotate(64,756.84871,-603.61388)"
       id="use31260"
       xlink:href="#g30866"
       y="0"
       x="0"
       style="display:inline" />
  </g> 
</svg>
